<?xml version="1.0" encoding="UTF-8"?>
<svg width="40px" height="20px" viewBox="0 0 40 20" version="1.1" xmlns="http://www.w3.org/2000/svg" xmlns:xlink="http://www.w3.org/1999/xlink">
    <!-- Generator: Sketch 52.3 (67297) - http://www.bohemiancoding.com/sketch -->
    <title>icon_youtube_sprite_2</title>
    <desc>Created with Sketch.</desc>
    <g id="icon_youtube_sprite_2" stroke="none" stroke-width="1" fill="none" fill-rule="evenodd">
        <g id="youtube-logo-2" fill="#000000">
            <path d="M18.8797267,1.09899772 C18.1472893,0.366378132 17.2648292,0 16.2330296,0 L3.74615034,0 C2.7143508,0 1.83189066,0.366378132 1.0991344,1.09899772 C0.366514806,1.83175399 0.00013667426,2.71416856 0.00013667426,3.74601367 L0.00013667426,16.2327563 C0.00013667426,17.2645103 0.366514806,18.1470159 1.0991344,18.8797722 C1.83189066,19.6125285 2.7143508,19.9789066 3.74615034,19.9789066 L16.2328929,19.9789066 C17.2646925,19.9789066 18.1471526,19.6125285 18.87959,18.8797722 C19.6123462,18.1470159 19.9787244,17.2645558 19.9787244,16.2327563 L19.9787244,3.74601367 C19.9786788,2.71416856 19.6123007,1.83161731 18.8797267,1.09899772 Z M11.797631,2.88738041 L12.6691572,2.88738041 L12.6691572,6.42514806 C12.6691572,6.63334852 12.6732118,6.74610478 12.6819134,6.76346241 C12.6906606,6.90223235 12.7602278,6.9715262 12.890205,6.9715262 C13.0635991,6.9715262 13.245877,6.83722096 13.436492,6.56842825 L13.436492,2.88738041 L14.3080182,2.88738041 L14.3080182,7.7 L13.436492,7.7 L13.4361731,7.7 L13.4361731,7.17949886 C13.0806834,7.56961276 12.7469248,7.76492027 12.4348064,7.76492027 C12.1574487,7.76492027 11.9709795,7.64792711 11.8754442,7.41375854 C11.8233257,7.25776765 11.797631,7.01922551 11.797631,6.69831435 L11.797631,2.88738041 Z M8.50683371,4.44829157 C8.50683371,3.94542141 8.59790433,3.56810934 8.78,3.31671982 C9.01407745,2.98724374 9.35216401,2.82241458 9.79439636,2.82241458 C10.2194077,2.82241458 10.5576765,2.98738041 10.8088838,3.31671982 C10.9911162,3.5681549 11.0821868,3.94542141 11.0821868,4.44829157 L11.0821868,6.13927107 C11.0821868,6.65958998 10.9911162,7.03681093 10.8088838,7.27088838 C10.5576765,7.6005467 10.2194077,7.76528474 9.79439636,7.76528474 C9.35216401,7.76528474 9.01407745,7.60041002 8.78,7.27088838 C8.59790433,7.01940774 8.50683371,6.64218679 8.50683371,6.13927107 L8.50683371,4.44829157 Z M6.16542141,1.23548975 L6.85485194,3.77202733 L7.51817768,1.23548975 L8.49375854,1.23548975 L7.32305239,5.08560364 L7.32323462,5.08560364 L7.32323462,7.7 L6.36072893,7.7 L6.36072893,5.08560364 C6.26523918,4.60870159 6.06583144,3.92364465 5.76236902,3.03056948 C5.56296128,2.43220957 5.46318907,2.13302961 5.46318907,2.13302961 L5.15088838,1.23548975 L6.16542141,1.23548975 Z M16.883508,16.935262 C16.7968109,17.3079271 16.6125285,17.6243736 16.3304784,17.8847836 C16.0488838,18.1448292 15.7216856,18.2966743 15.3487016,18.3401822 C14.1608656,18.4700683 12.3743052,18.5351708 9.98979499,18.5351708 C7.60510251,18.5351708 5.81881549,18.4700228 4.63088838,18.3401822 C4.25808656,18.2966743 3.93079727,18.1448292 3.64888383,17.8847836 C3.3670615,17.6243736 3.18287016,17.3079271 3.09612756,16.935262 C2.92277904,16.2067426 2.836082,15.0793622 2.836082,13.5533485 C2.836082,12.0528929 2.92277904,10.9260137 3.09612756,10.1714351 C3.18291572,9.7898861 3.36710706,9.47116173 3.64888383,9.21526196 C3.93079727,8.95936219 4.26236902,8.80974943 4.64396355,8.76646925 C5.82309795,8.63621868 7.60510251,8.57129841 9.98979499,8.57129841 C12.3831891,8.57129841 14.1695672,8.63640091 15.3487016,8.76646925 C15.7216856,8.8098861 16.0507517,8.95931663 16.3369932,9.21526196 C16.6232346,9.47102506 16.8098861,9.78970387 16.8965376,10.1714351 C17.0610023,10.8911162 17.143508,12.0183144 17.143508,13.5533485 C17.1435535,15.0793166 17.0568109,16.2065148 16.883508,16.935262 Z" id="Shape" fill-rule="nonzero"></path>
            <polygon id="Path" points="3.90209567 11.1470615 4.91667426 11.1470615 4.91667426 16.6489749 5.87917995 16.6489749 5.87917995 11.1470615 6.91977221 11.1470615 6.91977221 10.2365376 3.90209567 10.2365376"></polygon>
            <path d="M8.6628246,15.5174032 C8.47207289,15.7860137 8.2898861,15.9204556 8.11653759,15.9204556 C7.99512528,15.9204556 7.93006834,15.8554442 7.9214123,15.7254214 C7.91271071,15.7081093 7.90833713,15.5953986 7.90833713,15.3871071 L7.90833713,11.8751253 L7.0498861,11.8751253 L7.0498861,15.6471526 C7.0498861,15.9767198 7.07594533,16.2108884 7.12801822,16.3493394 C7.20601367,16.5922551 7.38820046,16.7135308 7.67430524,16.7135308 C7.99512528,16.7135308 8.32464692,16.5184966 8.6628246,16.128246 L8.6628246,16.6487016 L9.53416856,16.6487016 L9.53416856,11.8754442 L8.6628246,11.8754442 L8.6628246,15.5174032 Z" id="Path"></path>
            <path d="M12.0318451,11.8102506 C11.7196811,11.8102506 11.424738,11.9836446 11.1475171,12.3306606 L11.1475171,10.2365376 L10.2759909,10.2365376 L10.2759909,16.6489749 L11.1475171,16.6489749 L11.1475171,16.1806834 C11.4334396,16.5361276 11.7286105,16.7138497 12.0318451,16.7138497 C12.3874715,16.7138497 12.6171298,16.531754 12.7209567,16.1675626 C12.7817312,15.985467 12.8119818,15.6689749 12.8119818,15.2180866 L12.8119818,13.3191344 C12.8119818,12.8594989 12.7814123,12.5386333 12.7209567,12.3565376 C12.6170843,11.9923462 12.387426,11.8102506 12.0318451,11.8102506 Z M11.953713,15.2832802 C11.953713,15.7081093 11.8280638,15.9202733 11.5764465,15.9205923 C11.4292938,15.9205923 11.2859681,15.8511162 11.1471982,15.7123462 L11.1471982,12.7987244 C11.2859681,12.6603189 11.4292483,12.5907973 11.5764465,12.5907973 C11.8280638,12.5907973 11.953713,12.8073349 11.953713,13.2409567 L11.953713,15.2832802 Z" id="Shape" fill-rule="nonzero"></path>
            <path d="M15.1920729,15.2767198 C15.1920729,15.3677449 15.1898405,15.4391344 15.1858314,15.4912528 C15.1815945,15.5433257 15.1792255,15.573713 15.1792255,15.5822779 C15.1272893,15.8075626 14.9971298,15.9202733 14.7890205,15.9202733 C14.4941686,15.9202733 14.346697,15.69918 14.346697,15.2570387 L14.346697,14.4117084 L16.0766743,14.4117084 L16.0766743,13.4229613 C16.0766743,12.9201367 15.9857859,12.5473804 15.8035535,12.3044647 C15.5696583,11.9750342 15.231344,11.8100683 14.7890205,11.8100683 C14.346697,11.8100683 14,11.9749886 13.7483371,12.3044647 C13.5749431,12.5386333 13.4882916,12.9117084 13.4882916,13.4229613 L13.4882916,15.1009567 C13.4882916,15.6126196 13.5793166,15.9856036 13.7614123,16.2197722 C14.0130296,16.5492027 14.3641458,16.7141686 14.8152164,16.7141686 C15.2748064,16.7141686 15.621549,16.5407745 15.8558998,16.1937585 C15.9598633,16.0375399 16.0251936,15.8641913 16.0510706,15.6734852 C16.068246,15.5520273 16.0769476,15.3655581 16.0769476,15.114123 L16.0769476,14.9973576 L16.0769476,14.9970387 L15.1923462,14.9970387 L15.1923462,15.2767654 L15.1920729,15.2767654 L15.1920729,15.2767198 Z M14.3470159,13.2539863 C14.3470159,12.8118451 14.4901595,12.5907517 14.7762642,12.5907517 C15.0625057,12.5907517 15.205467,12.8118451 15.205467,13.2539863 L15.205467,13.6964465 L14.3470159,13.6964465 L14.3470159,13.2539863 Z" id="Shape" fill-rule="nonzero"></path>
            <path d="M9.79439636,6.9715262 C10.0718907,6.9715262 10.2105695,6.75052392 10.2105695,6.30829157 L10.2105695,4.2791344 C10.2105695,3.82833713 10.0718907,3.60273349 9.79439636,3.60273349 C9.51694761,3.60273349 9.37822323,3.82833713 9.37822323,4.2791344 L9.37822323,6.30829157 C9.37822323,6.75038724 9.51694761,6.9715262 9.79439636,6.9715262 Z" id="Path"></path>
        </g>
        <g id="youtube-logo-2" transform="translate(20.000000, 0.000000)" fill="#0A9BBE">
            <path d="M18.8797267,1.09899772 C18.1472893,0.366378132 17.2648292,0 16.2330296,0 L3.74615034,0 C2.7143508,0 1.83189066,0.366378132 1.0991344,1.09899772 C0.366514806,1.83175399 0.00013667426,2.71416856 0.00013667426,3.74601367 L0.00013667426,16.2327563 C0.00013667426,17.2645103 0.366514806,18.1470159 1.0991344,18.8797722 C1.83189066,19.6125285 2.7143508,19.9789066 3.74615034,19.9789066 L16.2328929,19.9789066 C17.2646925,19.9789066 18.1471526,19.6125285 18.87959,18.8797722 C19.6123462,18.1470159 19.9787244,17.2645558 19.9787244,16.2327563 L19.9787244,3.74601367 C19.9786788,2.71416856 19.6123007,1.83161731 18.8797267,1.09899772 Z M11.797631,2.88738041 L12.6691572,2.88738041 L12.6691572,6.42514806 C12.6691572,6.63334852 12.6732118,6.74610478 12.6819134,6.76346241 C12.6906606,6.90223235 12.7602278,6.9715262 12.890205,6.9715262 C13.0635991,6.9715262 13.245877,6.83722096 13.436492,6.56842825 L13.436492,2.88738041 L14.3080182,2.88738041 L14.3080182,7.7 L13.436492,7.7 L13.4361731,7.7 L13.4361731,7.17949886 C13.0806834,7.56961276 12.7469248,7.76492027 12.4348064,7.76492027 C12.1574487,7.76492027 11.9709795,7.64792711 11.8754442,7.41375854 C11.8233257,7.25776765 11.797631,7.01922551 11.797631,6.69831435 L11.797631,2.88738041 Z M8.50683371,4.44829157 C8.50683371,3.94542141 8.59790433,3.56810934 8.78,3.31671982 C9.01407745,2.98724374 9.35216401,2.82241458 9.79439636,2.82241458 C10.2194077,2.82241458 10.5576765,2.98738041 10.8088838,3.31671982 C10.9911162,3.5681549 11.0821868,3.94542141 11.0821868,4.44829157 L11.0821868,6.13927107 C11.0821868,6.65958998 10.9911162,7.03681093 10.8088838,7.27088838 C10.5576765,7.6005467 10.2194077,7.76528474 9.79439636,7.76528474 C9.35216401,7.76528474 9.01407745,7.60041002 8.78,7.27088838 C8.59790433,7.01940774 8.50683371,6.64218679 8.50683371,6.13927107 L8.50683371,4.44829157 Z M6.16542141,1.23548975 L6.85485194,3.77202733 L7.51817768,1.23548975 L8.49375854,1.23548975 L7.32305239,5.08560364 L7.32323462,5.08560364 L7.32323462,7.7 L6.36072893,7.7 L6.36072893,5.08560364 C6.26523918,4.60870159 6.06583144,3.92364465 5.76236902,3.03056948 C5.56296128,2.43220957 5.46318907,2.13302961 5.46318907,2.13302961 L5.15088838,1.23548975 L6.16542141,1.23548975 Z M16.883508,16.935262 C16.7968109,17.3079271 16.6125285,17.6243736 16.3304784,17.8847836 C16.0488838,18.1448292 15.7216856,18.2966743 15.3487016,18.3401822 C14.1608656,18.4700683 12.3743052,18.5351708 9.98979499,18.5351708 C7.60510251,18.5351708 5.81881549,18.4700228 4.63088838,18.3401822 C4.25808656,18.2966743 3.93079727,18.1448292 3.64888383,17.8847836 C3.3670615,17.6243736 3.18287016,17.3079271 3.09612756,16.935262 C2.92277904,16.2067426 2.836082,15.0793622 2.836082,13.5533485 C2.836082,12.0528929 2.92277904,10.9260137 3.09612756,10.1714351 C3.18291572,9.7898861 3.36710706,9.47116173 3.64888383,9.21526196 C3.93079727,8.95936219 4.26236902,8.80974943 4.64396355,8.76646925 C5.82309795,8.63621868 7.60510251,8.57129841 9.98979499,8.57129841 C12.3831891,8.57129841 14.1695672,8.63640091 15.3487016,8.76646925 C15.7216856,8.8098861 16.0507517,8.95931663 16.3369932,9.21526196 C16.6232346,9.47102506 16.8098861,9.78970387 16.8965376,10.1714351 C17.0610023,10.8911162 17.143508,12.0183144 17.143508,13.5533485 C17.1435535,15.0793166 17.0568109,16.2065148 16.883508,16.935262 Z" id="Shape" fill-rule="nonzero"></path>
            <polygon id="Path" points="3.90209567 11.1470615 4.91667426 11.1470615 4.91667426 16.6489749 5.87917995 16.6489749 5.87917995 11.1470615 6.91977221 11.1470615 6.91977221 10.2365376 3.90209567 10.2365376"></polygon>
            <path d="M8.6628246,15.5174032 C8.47207289,15.7860137 8.2898861,15.9204556 8.11653759,15.9204556 C7.99512528,15.9204556 7.93006834,15.8554442 7.9214123,15.7254214 C7.91271071,15.7081093 7.90833713,15.5953986 7.90833713,15.3871071 L7.90833713,11.8751253 L7.0498861,11.8751253 L7.0498861,15.6471526 C7.0498861,15.9767198 7.07594533,16.2108884 7.12801822,16.3493394 C7.20601367,16.5922551 7.38820046,16.7135308 7.67430524,16.7135308 C7.99512528,16.7135308 8.32464692,16.5184966 8.6628246,16.128246 L8.6628246,16.6487016 L9.53416856,16.6487016 L9.53416856,11.8754442 L8.6628246,11.8754442 L8.6628246,15.5174032 Z" id="Path"></path>
            <path d="M12.0318451,11.8102506 C11.7196811,11.8102506 11.424738,11.9836446 11.1475171,12.3306606 L11.1475171,10.2365376 L10.2759909,10.2365376 L10.2759909,16.6489749 L11.1475171,16.6489749 L11.1475171,16.1806834 C11.4334396,16.5361276 11.7286105,16.7138497 12.0318451,16.7138497 C12.3874715,16.7138497 12.6171298,16.531754 12.7209567,16.1675626 C12.7817312,15.985467 12.8119818,15.6689749 12.8119818,15.2180866 L12.8119818,13.3191344 C12.8119818,12.8594989 12.7814123,12.5386333 12.7209567,12.3565376 C12.6170843,11.9923462 12.387426,11.8102506 12.0318451,11.8102506 Z M11.953713,15.2832802 C11.953713,15.7081093 11.8280638,15.9202733 11.5764465,15.9205923 C11.4292938,15.9205923 11.2859681,15.8511162 11.1471982,15.7123462 L11.1471982,12.7987244 C11.2859681,12.6603189 11.4292483,12.5907973 11.5764465,12.5907973 C11.8280638,12.5907973 11.953713,12.8073349 11.953713,13.2409567 L11.953713,15.2832802 Z" id="Shape" fill-rule="nonzero"></path>
            <path d="M15.1920729,15.2767198 C15.1920729,15.3677449 15.1898405,15.4391344 15.1858314,15.4912528 C15.1815945,15.5433257 15.1792255,15.573713 15.1792255,15.5822779 C15.1272893,15.8075626 14.9971298,15.9202733 14.7890205,15.9202733 C14.4941686,15.9202733 14.346697,15.69918 14.346697,15.2570387 L14.346697,14.4117084 L16.0766743,14.4117084 L16.0766743,13.4229613 C16.0766743,12.9201367 15.9857859,12.5473804 15.8035535,12.3044647 C15.5696583,11.9750342 15.231344,11.8100683 14.7890205,11.8100683 C14.346697,11.8100683 14,11.9749886 13.7483371,12.3044647 C13.5749431,12.5386333 13.4882916,12.9117084 13.4882916,13.4229613 L13.4882916,15.1009567 C13.4882916,15.6126196 13.5793166,15.9856036 13.7614123,16.2197722 C14.0130296,16.5492027 14.3641458,16.7141686 14.8152164,16.7141686 C15.2748064,16.7141686 15.621549,16.5407745 15.8558998,16.1937585 C15.9598633,16.0375399 16.0251936,15.8641913 16.0510706,15.6734852 C16.068246,15.5520273 16.0769476,15.3655581 16.0769476,15.114123 L16.0769476,14.9973576 L16.0769476,14.9970387 L15.1923462,14.9970387 L15.1923462,15.2767654 L15.1920729,15.2767654 L15.1920729,15.2767198 Z M14.3470159,13.2539863 C14.3470159,12.8118451 14.4901595,12.5907517 14.7762642,12.5907517 C15.0625057,12.5907517 15.205467,12.8118451 15.205467,13.2539863 L15.205467,13.6964465 L14.3470159,13.6964465 L14.3470159,13.2539863 Z" id="Shape" fill-rule="nonzero"></path>
            <path d="M9.79439636,6.9715262 C10.0718907,6.9715262 10.2105695,6.75052392 10.2105695,6.30829157 L10.2105695,4.2791344 C10.2105695,3.82833713 10.0718907,3.60273349 9.79439636,3.60273349 C9.51694761,3.60273349 9.37822323,3.82833713 9.37822323,4.2791344 L9.37822323,6.30829157 C9.37822323,6.75038724 9.51694761,6.9715262 9.79439636,6.9715262 Z" id="Path"></path>
        </g>
    </g>
</svg>