<?xml version="1.0" encoding="UTF-8"?>
<svg width="41px" height="41px" viewBox="0 0 41 41" version="1.1" xmlns="http://www.w3.org/2000/svg" xmlns:xlink="http://www.w3.org/1999/xlink">
    <!-- Generator: sketchtool 49.3 (51167) - http://www.bohemiancoding.com/sketch -->
    <title>777B0741-2B47-4FE8-B1B5-DBAC7A801ABB</title>
    <desc>Created with sketchtool.</desc>
    <defs>
        <circle id="path-1" cx="20.5" cy="20.5" r="20.5"></circle>
    </defs>
    <g id="Faq" stroke="none" stroke-width="1" fill="none" fill-rule="evenodd">
        <g id="Tablet_FAQ_2-1024" transform="translate(-869.000000, -680.000000)">
            <g id="Group" transform="translate(30.000000, 181.000000)">
                <g id="Message-History" transform="translate(36.000000, 104.000000)">
                    <g id="Post_Support" transform="translate(177.000000, 153.000000)">
                        <g id="Userpic" transform="translate(626.000000, 242.000000)">
                            <mask id="mask-2" fill="white">
                                <use xlink:href="#path-1"></use>
                            </mask>
                            <use id="Mask" fill="#ACE1EF" xlink:href="#path-1"></use>
                            <g id="Group-10" mask="url(#mask-2)">
                                <g transform="translate(-12.000000, -1.000000)">
                                    <path d="M44.3468143,48.0908974 C41.4890863,47.1869759 39.6241238,47.116301 36.434961,45.8001094 C33.7414113,44.5837845 34.0133315,40.4452068 34.2683209,36.7527003 C33.1555001,35.1399815 26.8254018,36.620569 26.8254018,36.620569 C26.8254018,36.620569 27.7155558,43.4089426 23.7942605,44.9745449 C23.6901099,45.0160279 23.6075077,45.0774844 23.5187488,45.106164 C21.4808861,45.7514564 19.0992751,45.6285436 16.6012001,45.9470927 C10.2121002,46.7629266 11.9436679,46.899155 13.2124581,56.960595 C13.4217854,58.6214547 17.2810008,68.2188988 18.3994652,75.5680622 C19.197269,80.8118311 17.2969055,90.3677921 17.2958794,92.0844747 C17.2928011,97.0137916 19.3019326,103.016547 20.3465169,103.831869 C20.6651253,104.08128 22.4202936,103.936345 24.796261,103.79141 C26.9156998,103.662352 29.5292126,103.533293 32.0590971,103.683349 C35.986036,103.916884 39.6918474,105.762113 41.126868,104.64207 C44.5227929,101.990225 44.3416837,98.6551901 44.5612722,93.9558226 C44.7167285,90.625909 45.4011466,74.7030631 46.1332791,65.1332744 C46.4211041,61.3618989 46.7381734,58.457571 46.7381734,57.8803928 C46.7381734,49.7118105 48.1675504,49.2995403 44.3468143,48.0908974" id="Fill-514" fill="#FFBC79"></path>
                                    <path d="M21,25.5577817 C21,24.5140672 20.960238,23.5092745 20.8140704,22.4875815 C20.7877491,22.2893884 20.728386,22.1357503 20.6589425,22.0025974 C20.651102,21.9165601 20.6471818,21.8310349 20.6393414,21.7449976 C20.6147002,21.5078829 20.5430165,21.3383689 20.455652,21.1985583 C20.4808533,20.8815518 20.3923687,20.5307449 20.1330754,20.3796675 C19.6721717,20.1082403 19.1860667,20.0032543 18.7106022,20.0314213 L18.5868358,20.0247636 C18.5151521,19.9976209 18.4389882,19.9935239 18.3667445,20.0088877 C17.7484727,20.0063271 17.1453217,20.1947897 16.6608967,20.7668354 C15.966461,21.5877747 15.8774164,22.9787111 16.1266292,24.1796484 C16.1361497,24.2257399 16.1490304,24.2728555 16.160791,24.3204833 C16.2330347,24.937084 16.412804,25.51886 16.7180197,25.9787499 C16.7919435,26.0950027 16.8759478,26.1928189 16.9627523,26.281929 C17.8011154,27.6472591 19.0516597,28.4559073 20.1745175,27.7245902 C20.5278957,27.6431621 20.8325514,27.2534336 20.8325514,26.5528441 C20.8325514,26.4545157 20.8291912,26.3597723 20.8291912,26.2599075 C20.9311165,26.071957 21,25.8420121 21,25.5577817" id="Fill-515" fill="#FF9B54"></path>
                                    <path d="M21,24.0836691 C21,23.6896466 20.9868764,23.3147134 20.9263938,22.9309698 C20.9132702,22.8565706 20.8938701,22.7988132 20.8630582,22.7488874 L20.8556406,22.6514831 C20.8459405,22.5628892 20.8185522,22.4987688 20.7831756,22.447864 C20.7928756,22.3284336 20.754646,22.1967665 20.6542221,22.1380302 C20.4682095,22.0376891 20.2764911,21.9980421 20.0853432,22.0088104 L20.0374136,22.0078315 L19.948972,22 C19.6996239,22 19.4599759,22.0704835 19.265975,22.2858498 C18.9863856,22.5927468 18.9515796,23.1150101 19.0497212,23.5643426 L19.0651271,23.6186736 C19.0982214,23.8501924 19.1678335,24.0680061 19.2859457,24.2398096 L19.3846579,24.3533664 C19.7201652,24.8673088 20.2211438,25.1707795 20.669628,24.8971664 C20.8162698,24.8653509 20.9343821,24.7185102 20.9343821,24.4571338 L20.9343821,24.3465139 C20.9714705,24.2765198 21,24.1913522 21,24.0836691" id="Fill-516" fill="#CF5025"></path>
                                    <path d="M42.0334552,26.6129349 C42.2040324,25.6939812 42.3927811,24.8155308 42.6858691,23.9365544 C42.7456591,23.7661245 42.8236205,23.63462 42.9027543,23.5299424 C42.9232704,23.4547218 42.9426143,23.3800272 42.964889,23.3048066 C43.0240927,23.0996595 43.1131915,22.9597387 43.2134276,22.8487488 C43.2421502,22.565751 43.3799016,22.2701288 43.6301988,22.1696593 C44.0885885,21.9876571 44.5411164,21.9608301 44.9602323,22.0476231 L45.0745367,22.0549874 C45.1466363,22.043941 45.2146327,22.0492012 45.2761812,22.0707679 C45.8295315,22.1512487 46.340677,22.3953211 46.6841762,22.9597387 C47.1806673,23.7729628 47.0388127,25.0106836 46.6243862,26.0337889 L46.570458,26.1537211 C46.4075011,26.6871035 46.1536868,27.1747224 45.8096015,27.540831 C45.7246059,27.6328842 45.6337486,27.7075788 45.5423052,27.7764872 C44.5751146,28.8679749 43.3242149,29.4155598 42.4326411,28.6281106 C42.1325189,28.5108085 41.9168061,28.1268153 42.0311105,27.510848 C42.0440063,27.425633 42.0615916,27.3398921 42.0750737,27.2546771 C42.0182146,27.0732008 41.989492,26.8643716 42.0334552,26.6129349" id="Fill-517" fill="#FF9B54"></path>
                                    <path d="M43.0123337,24.9773921 C43.0812954,24.5835842 43.1563258,24.206737 43.2738367,23.8293598 C43.2981113,23.7567465 43.3267994,23.6995039 43.3615561,23.6560419 L43.3825205,23.5595775 C43.406795,23.4715935 43.446517,23.4111707 43.4856873,23.3639985 C43.4978245,23.242623 43.5507872,23.1159472 43.6517472,23.0719552 C43.8365648,22.9956317 44.0164171,22.9823811 44.1819253,23.0210729 L44.2304744,23.0242531 L44.3093667,23.0311434 C44.5333545,23.0655949 44.7374814,23.1705397 44.8737498,23.4111707 C45.071808,23.7599266 45.0155352,24.2899508 44.8516821,24.7288108 L44.8268558,24.7807532 C44.7617559,25.0091936 44.662451,25.2185531 44.5228723,25.3738502 L44.4180504,25.4750848 C44.029106,25.9425662 43.5298228,26.1784269 43.1734284,25.8408015 C43.0520556,25.7899192 42.9670947,25.6261417 43.0123337,25.3637798 L43.0299879,25.2514146 C43.0057133,25.1740311 42.9935761,25.084457 43.0123337,24.9773921" id="Fill-518" fill="#CF5025"></path>
                                    <path d="M31.4321976,43.4604904 C32.1283542,43.724345 33.6121367,43.879637 35,44 C33.792109,42.3295499 33.9908696,39.3856116 34.1851804,36.6937277 C33.1127631,35.2073622 27.0124934,36.5719487 27.0124934,36.5719487 C27.0124934,36.5719487 26.5383356,41.6026515 31.4321976,43.4604904" id="Fill-519" fill="#E6A25E"></path>
                                    <path d="M44.1930466,24.2778006 C45.356741,22.4646316 44.9743132,16.1944084 44.7878238,14.6295347 C43.7822725,6.18953728 38.1418359,5.67966334 34.954109,5.22292256 C29.0431384,4.37739012 20.9848035,5.79972384 20.355215,11.8681433 C18.9776793,25.1391708 22.0296419,29.9809296 22.3374739,32.0020331 C23.0192794,36.4749252 26.1896006,40.0828709 30.3480674,41.3192386 C31.4222469,41.6385484 34.1405176,42.0109914 35.8214094,41.9997517 C38.6227301,41.9818703 40.8277818,38.3223242 41.4230562,36.5428744 C43.1800358,31.2826919 41.3847637,28.6490245 44.1930466,24.2778006" id="Fill-520" fill="#FFBC79"></path>
                                    <path d="M36.8077731,28.4469356 C36.0769982,26.2042975 35.7473829,25.0193 35.0672002,22.711149 C34.4963781,20.7724909 34.2771456,18.1435887 33.8948941,19.271459 C33.6041173,20.1294161 32.5963634,25.4485406 32.1722073,27.9579472 C32.0602914,28.6183174 32.0096993,28.6172691 32.0025449,28.7556324 C31.9698389,29.4207195 32.2524392,29.7550974 32.8467688,30.3085505 C33.7318751,31.1334891 34.788177,31.1460676 35.7933758,30.7341224 C36.8435453,30.3038336 37.2860985,29.9123284 36.8077731,28.4469356" id="Fill-521" fill="#CF5025"></path>
                                    <path d="M36.5983003,27.1704202 C35.9065131,25.232927 35.694522,24.2011923 35.0498439,22.2070587 C34.5091132,20.5312833 34.3017306,18.2602952 33.9402193,19.2344128 C33.5925335,20.1714213 32.033324,27.2758886 32.0026007,27.8505936 C31.9718773,28.4243221 32.2125435,28.2753968 32.7686359,28.4360408 C33.0256879,28.5107476 35.5762372,28.7998091 36.0882928,28.9282266 C37.3827696,29.253909 37.0504454,28.4370174 36.5983003,27.1704202" id="Fill-522" fill="#FF9B54"></path>
                                    <path d="M27.4998194,20 C24.1667269,20 24.1667269,22 27.4998194,22 C30.8333935,22 30.8333935,20 27.4998194,20" id="Fill-523" fill="#FFFFFF"></path>
                                    <path d="M27.9996124,20 C26.6667959,20 26.6667959,22 27.9996124,22 C29.3334625,22 29.3334625,20 27.9996124,20" id="Fill-524" fill="#262626"></path>
                                    <path d="M27.7288594,21.981852 C32.2774067,22.2394455 28.7883284,19.6635097 27.5920328,20.0371187 C26.3957372,20.4097446 22.3359233,21.6770657 27.7288594,21.981852" id="Fill-525" fill="#262626"></path>
                                    <path d="M41.4998144,21 C38.1667285,21 38.1667285,23 41.4998144,23 C44.8333952,23 44.8333952,21 41.4998144,21" id="Fill-526" fill="#FFFFFF"></path>
                                    <path d="M40.7298402,22.9818672 C45.2770865,23.2393367 41.7879278,20.6636588 40.5920732,21.0370879 C39.3957501,21.4095343 35.335374,22.6752623 40.7298402,22.9818672" id="Fill-527" fill="#262626"></path>
                                    <path d="M40,21 C38.6666667,21 38.6666667,23 40,23 C41.3333333,23 41.3333333,21 40,21" id="Fill-528" fill="#262626"></path>
                                    <path d="M26.0000824,32.0001738 C27.9517502,34.5712326 29.1081854,37.7818638 31.7436456,37.8706933 C33.0037006,37.9134425 34.6230032,38.2959645 35.7765058,37.5009405 C37.1856363,36.5293678 38.038544,35.4084506 38.9984928,33.6879342 C39.0786514,33.5441415 35.9475761,35.3251729 32.9333174,34.9587513 C29.4420169,34.5345904 25.9805315,31.9757456 26.0000824,32.0001738" id="Fill-529" fill="#FFBC79"></path>
                                    <path d="M39.7827853,32.8133359 C39.7827853,32.8133359 37.3761086,37.3947822 32.8286651,36.9725044 C28.2802581,36.5496922 25.7584501,31.5534516 25.2617961,30.800835 C24.7636969,30.0482185 25.0156368,29.7205524 25.686192,30.2844802 C28.6439572,32.76897 35.2098106,34.2955843 38.9706042,32.7010849 C40.6325407,31.997645 39.7827853,32.8133359 39.7827853,32.8133359" id="Fill-530" fill="#262626"></path>
                                    <path d="M38.5461369,32.7372966 C37.648364,33.0399814 36.1812715,33.0565434 36.1812715,33.0565434 C33.3724962,33.1102271 30.115332,32.2849827 27.726579,31 C27.6957243,31.16562 27.8813503,31.7521432 27.7927674,31.8806415 C27.6778087,32.0456903 27.1562643,32.0137086 27,32.0782432 C28.251607,33.7544318 30.419898,35.6893301 33.3361672,35.9691708 C33.5934558,35.9942993 33.8452702,36.003437 34.0871314,35.9988682 C36.6192096,35.9491822 38.4341641,34.4825886 39,33.9663111 C38.9457554,33.8909255 38.4202298,33.7230211 38.3863891,33.6327867 C38.3525484,33.5431235 38.5595737,32.8355264 38.5461369,32.7372966" id="Fill-531" fill="#FFFFFF"></path>
                                    <path d="M43.8472855,17.3404111 C43.0093226,17.2119777 41.8108869,17.1172398 40.9664781,17.0312919 C40.4681629,16.9800163 38.7649661,17.0093166 37.7926317,16.1459318 C37.1525074,15.5765275 36.6065919,16.8183758 37.3791044,17.3843617 C37.8898155,17.7579417 38.4362268,18.0104134 39.0818054,17.9996699 C39.3783153,17.9947865 42.866026,17.7730802 43.8666231,17.6705288 C44.0684283,17.6505069 44.0242989,17.3677581 43.8472855,17.3404111" id="Fill-532" fill="#664228"></path>
                                    <path d="M31.2407119,15.633447 C29.3047449,14.8368249 25.4490795,14.4990532 24.2091049,16.4142136 C23.6961346,17.2060311 24.2045293,17.1546206 24.8964545,16.5031009 C26.3428374,15.141444 29.0754589,16.2349977 30.7104562,16.7812941 C30.979397,16.8716227 31.7384303,16.7548681 31.9534813,16.3988385 C32.1466712,16.0793248 31.7048763,15.8241943 31.2407119,15.633447" id="Fill-533" fill="#664228"></path>
                                    <path d="M45.5563636,4.87558167 C44.8602025,2.7379487 45.4633074,1.22272302 45.6901633,0.410463541 C45.7605842,0.156985219 45.4547563,0.000998559382 45.2761889,0.164681929 C45.0920886,0.333496439 44.9311265,0.5151388 44.7822365,0.703451642 C44.743505,0.68138774 44.6992405,0.667020547 44.6479338,0.676769713 C44.5362663,0.697294274 44.4271139,0.731159799 44.3204765,0.771695806 C44.3873764,0.698320502 44.4593063,0.625458312 44.5236912,0.552083008 C44.6514548,0.407384857 44.5307333,0.145696711 44.3295307,0.210349076 C43.9930193,0.318103019 43.6972515,0.502310949 43.4160708,0.715253264 L43.4779406,0.599802612 C43.5272353,0.473576565 43.4251249,0.341193149 43.3134575,0.303735827 C42.5332944,0.0435870224 41.6781833,0.566450201 40.9020442,1.00772825 C40.9573749,0.85533339 40.8708578,0.678822169 40.6726732,0.661889407 C39.8970371,0.594671471 39.1465514,0.835835057 38.3925446,0.999005313 C38.0162957,1.08059044 37.6340108,1.16474114 37.2507198,1.24632627 C37.5661049,1.0826429 37.8442675,0.874318608 38.036919,0.586974761 C38.1174001,0.466392968 38.037422,0.28372438 37.9026163,0.251398197 C37.0746675,0.0507706186 36.266839,0.554135464 35.4876819,0.817876067 C34.7462503,1.06878882 33.9585421,1.21553943 33.1964872,1.4197588 C33.6079465,1.09957566 33.9565301,0.70960901 34.2030033,0.229847409 C34.2789572,0.0815574593 34.1310733,-0.0456948157 33.9937525,0.0158788657 C32.8660119,0.519243712 31.9289108,1.27146885 30.7463424,1.68863055 C30.1447466,1.90105975 29.5190065,1.93749084 28.8993024,1.99034158 C29.1518117,1.82871067 29.401806,1.66194862 29.6417401,1.47671446 C29.786606,1.3648556 29.7539105,1.10573303 29.5436538,1.10675926 C27.9144157,1.11599531 26.4074081,2.16582658 25.0020079,2.90368453 C24.3571535,3.24233977 23.6438902,3.50094924 23.0040659,3.85191922 C23.0256952,3.70876041 22.9230819,3.54199836 22.7611138,3.60357204 C20.1902474,4.58413292 19.1797073,10.4433818 19.0051641,13.9843816 C18.9307191,15.4903712 19.6847259,21.5517871 19.7506197,22.4071481 C19.7838182,22.843295 20.158558,22.8617671 20.4714281,22.9212884 C21.5795515,23.1342307 22.1952314,22.892554 21.9955379,22.4671825 C21.7274354,21.8955735 21.0347954,19.7538356 20.9502903,19.1273234 C20.8034124,18.0461921 23.2017475,11.1791873 24.7384324,10.3417852 C28.3646065,8.3662963 31.410311,9.56441752 35.0244129,10.8702927 C35.026928,10.9334057 35.0721985,11.0226875 35.1396014,10.9883089 C40.1696667,8.4247913 43.3763333,12.8288489 44.5553806,11.7102603 C46.280693,10.0724004 46.2485006,7.00141303 45.5563636,4.87558167" id="Fill-572" fill="#664228"></path>
                                    <path d="M45.8420811,22.4499075 C45.5417332,24.2224757 45.308522,24.6249529 41.0688221,24.2740887 C37.07041,23.9435568 36.7074686,23.9133189 36.635789,21.6882245 C36.5651189,19.4673008 37.5338038,19.5434169 41.4095528,19.8635219 C45.4887307,20.2008312 46.2115846,20.2639138 45.8420811,22.4499075 Z M33.1204574,21.3978361 C32.7070374,23.5827871 32.3440961,23.5525491 28.3461888,23.2220173 C24.1069937,22.8716744 23.9373855,22.4358312 23.9151749,20.6366744 C23.8874116,18.4178361 24.6097608,18.4741412 28.6879291,18.8114505 C32.5651925,19.1320768 33.5333726,19.2165345 33.1204574,21.3978361 Z M39.245534,19.0783785 C36.2809242,18.833347 36.65699,19.3677241 35.0568175,19.2353029 C33.4571498,19.1034029 33.9109527,18.6373218 30.9468477,18.3922903 C30.8428617,18.3839488 28.5289214,18.1920943 28.428469,18.1837529 C25.5577494,17.9470629 23.6754014,17.819855 23.1029738,18.5674617 C22.800102,18.9610761 23.2614767,19.6310027 23.2645054,20.5824547 C23.272582,22.8711531 23.461372,23.4242986 28.2997485,23.8241692 C32.1548012,24.1432314 33.0482729,24.2167409 33.5313534,22.5494841 C33.6191862,22.2450194 33.766079,21.9812196 33.8281677,21.8618319 C34.0250344,21.4869858 34.4551123,20.9093371 34.9245635,20.9479166 C35.320316,20.9807612 35.7140493,21.6704988 35.8669995,22.071412 C35.9088968,22.1808942 36.0497321,22.7335184 36.0608374,22.8091132 C36.29102,24.4852328 37.2031688,24.5608277 41.0218769,24.8762405 C45.8592438,25.2766324 46.1318284,24.7615449 46.4922458,22.5036058 C46.6497391,21.5146171 47.2009657,20.9135079 46.9228285,20.4729726 C46.4372241,19.7019054 44.5558856,19.5183924 41.7674463,19.2869159 C41.6659842,19.2785744 39.3510344,19.0872413 39.245534,19.0783785 Z" id="Fill-574" fill="#404040"></path>
                                </g>
                            </g>
                        </g>
                    </g>
                </g>
            </g>
        </g>
    </g>
</svg>