<?xml version="1.0" encoding="UTF-8"?>
<svg width="11px" height="14px" viewBox="0 0 11 14" version="1.1" xmlns="http://www.w3.org/2000/svg" xmlns:xlink="http://www.w3.org/1999/xlink">
    <!-- Generator: sketchtool 49.3 (51167) - http://www.bohemiancoding.com/sketch -->
    <title>C5D215EC-8430-4F40-89DE-0FAE1E672D79</title>
    <desc>Created with sketchtool.</desc>
    <defs></defs>
    <g id="Stratum-generator" stroke="none" stroke-width="1" fill="none" fill-rule="evenodd">
        <g id="Mobile_Stratum-generator-320" transform="translate(-232.000000, -1502.000000)" fill="#000000" fill-rule="nonzero">
            <g id="tabs_platform" transform="translate(40.000000, 1490.000000)">
                <g id="Group-5" transform="translate(192.000000, 11.000000)">
                    <g id="apple-copy" transform="translate(0.000000, 1.000000)">
                        <path d="M0.567668966,5.48940634 C-0.570282657,7.4637144 0.153134175,10.4598355 1.41152287,12.2764902 C2.03965805,13.1847292 2.67560464,14 3.54664405,14 C3.56306127,14 3.57952262,13.9996911 3.59638116,13.9990293 C4.00562008,13.9827036 4.30135069,13.8567308 4.58728393,13.734994 C4.90830235,13.598211 5.24030972,13.456795 5.76107099,13.456795 C6.2565003,13.456795 6.57266417,13.5936221 6.87841282,13.7259045 C7.17974824,13.8562455 7.49013077,13.991087 7.94875374,13.982483 C8.92990327,13.9642158 9.5323093,13.0844805 10.0637947,12.3083915 C10.6184055,11.4980626 10.8966155,10.7112956 10.990485,10.4106378 L10.9942804,10.3986803 C11.0121539,10.3452467 10.9869103,10.2869154 10.9356726,10.2633975 C10.9342604,10.2627357 10.9290528,10.2605736 10.9275964,10.2599559 C10.7548184,10.1893141 9.23922663,9.51709186 9.22329487,7.68490574 C9.20851054,6.19635379 10.3602756,5.40808664 10.5912641,5.2652146 L10.6020324,5.25850782 C10.6270554,5.24240273 10.6444877,5.21685519 10.6504014,5.18764541 C10.6563151,5.15847974 10.6501366,5.12812274 10.6333663,5.10359005 C9.83836688,3.94040513 8.61987379,3.76510229 8.12929903,3.74401123 C8.05811361,3.73690734 7.98463331,3.73333333 7.91084409,3.73333333 C7.33465264,3.73333333 6.78268984,3.95090654 6.33924838,4.12572403 C6.03314668,4.24640193 5.76875001,4.35062174 5.5863953,4.35062174 C5.38148898,4.35062174 5.11559181,4.24512234 4.80768069,4.12298837 C4.39592623,3.95959888 3.92922705,3.77445648 3.43516583,3.77445648 C3.42338251,3.77445648 3.41177571,3.77458885 3.40034544,3.77480947 C2.2515814,3.79170878 1.16610309,4.44879663 0.567668966,5.48940634 Z" id="XMLID_229_"></path>
                        <path d="M9.00458806,9.66057685e-05 C8.12619685,0.0323750357 7.07249517,0.520221773 6.44269263,1.18580099 C5.9074552,1.74524349 5.38458869,2.67799962 5.52234058,3.61819688 C5.53097794,3.67702205 5.58402802,3.72242302 5.6496162,3.72699831 C5.70890746,3.73117138 5.76942468,3.73328306 5.82971899,3.73333333 C6.6886065,3.73333333 7.61514401,3.30461344 8.24789997,2.61429748 C8.91386796,1.88536808 9.25061339,0.949896948 9.14874831,0.111964996 C9.14072393,0.0463020218 9.07669605,-0.00246756857 9.00458806,9.66057685e-05 Z" id="XMLID_230_"></path>
                    </g>
                </g>
            </g>
        </g>
    </g>
</svg>