<?xml version="1.0" encoding="UTF-8"?>
<svg width="18px" height="15px" viewBox="0 0 18 15" version="1.1" xmlns="http://www.w3.org/2000/svg" xmlns:xlink="http://www.w3.org/1999/xlink">
    <!-- Generator: sketchtool 49.3 (51167) - http://www.bohemiancoding.com/sketch -->
    <title>B1D08A91-3359-4463-95EC-8389AB3376B7</title>
    <desc>Created with sketchtool.</desc>
    <defs></defs>
    <g id="Explorer" stroke="none" stroke-width="1" fill="none" fill-rule="evenodd">
        <g id="Desktop_Explorer" transform="translate(-908.000000, -2370.000000)" fill="#0A9BBE" fill-rule="nonzero">
            <g id="Block_Transaction" transform="translate(50.000000, 1114.000000)">
                <g id="paginator" transform="translate(464.000000, 1253.000000)">
                    <g id="next-" transform="translate(394.000000, 3.000000)">
                        <path d="M17.5281818,7.53654545 L0.272727273,7.53654545 C0.122181818,7.53654545 0,7.41436364 0,7.26381818 C0,7.11327273 0.122181818,6.99109091 0.272727273,6.99109091 L17.5281818,6.99109091 C17.6787273,6.99109091 17.8009091,7.11327273 17.8009091,7.26381818 C17.8009091,7.41436364 17.6787273,7.53654545 17.5281818,7.53654545 Z" id="Shape"></path>
                        <path d="M10.6898182,14.3743636 C10.62,14.3743636 10.5501818,14.3476364 10.4967273,14.2947273 C10.3903636,14.1883636 10.3903636,14.0154545 10.4967273,13.9090909 L17.1425455,7.26327273 L10.4967273,0.619636364 C10.3903636,0.513272727 10.3903636,0.340363636 10.4967273,0.234 C10.6030909,0.127636364 10.776,0.127636364 10.8823636,0.234 L17.7207273,7.07018182 C17.772,7.12145455 17.8003636,7.19072727 17.8003636,7.26327273 C17.8003636,7.33581818 17.7714545,7.40509091 17.7207273,7.45636364 L10.8823636,14.2941818 C10.8294545,14.3476364 10.7596364,14.3743636 10.6898182,14.3743636 Z" id="Shape"></path>
                    </g>
                </g>
            </g>
        </g>
    </g>
</svg>