<?xml version="1.0" encoding="UTF-8"?>
<svg width="16px" height="20px" viewBox="0 0 16 20" version="1.1" xmlns="http://www.w3.org/2000/svg" xmlns:xlink="http://www.w3.org/1999/xlink">
    <!-- Generator: sketchtool 49.3 (51167) - http://www.bohemiancoding.com/sketch -->
    <title>3823EF2D-9FBC-4FEE-A1B4-B7647A7AF70E</title>
    <desc>Created with sketchtool.</desc>
    <defs></defs>
    <g id="Home" stroke="none" stroke-width="1" fill="none" fill-rule="evenodd">
        <g id="Mobile_Home-320" transform="translate(-198.000000, -633.000000)" fill="#000000" fill-rule="nonzero">
            <g id="bitcoin-logo" transform="translate(198.400000, 633.000000)">
                <path d="M14.3763043,10.4721008 C13.8964348,9.87243697 13.1723043,9.46054622 12.2039565,9.23668067 C13.437087,8.62882353 13.979,7.59714286 13.8302174,6.14147059 C13.7804783,5.61361345 13.6295217,5.15613445 13.377,4.76836134 C13.1243043,4.3805042 12.7833043,4.06869748 12.3526957,3.83281513 C11.9224348,3.59663866 11.4544783,3.41684874 10.949913,3.29289916 C10.4452174,3.16894958 9.86578261,3.07894958 9.212,3.02302521 L9.212,0 L7.30052174,0 L7.30052174,2.93903361 C6.96952174,2.93903361 6.46473913,2.94701681 5.78621739,2.96302521 L5.78621739,0 L3.87447826,0 L3.87447826,3.02302521 C3.60130435,3.03105042 3.2,3.03512605 2.6703913,3.03512605 L0.038826087,3.02302521 L0.038826087,4.99042017 L1.4166087,4.99042017 C2.04556522,4.99042017 2.41382609,5.26239496 2.5213913,5.80613445 L2.5213913,9.24907563 C2.60426087,9.24907563 2.6703913,9.25319328 2.72008696,9.26117647 L2.5213913,9.26117647 L2.5213913,14.0834034 C2.45526087,14.4911765 2.21530435,14.6952521 1.80147826,14.6952521 L0.423782609,14.6952521 L0.0389130435,16.8905882 L2.5216087,16.8905882 C2.67886957,16.8905882 2.90630435,16.892605 3.20434783,16.8962185 C3.50221739,16.9002521 3.72556522,16.9022689 3.87456522,16.9022689 L3.87456522,19.9612185 L5.7866087,19.9612185 L5.7866087,16.9382353 C6.13408696,16.9464286 6.63886957,16.9503361 7.30091304,16.9503361 L7.30091304,19.9612185 L9.21243478,19.9612185 L9.21243478,16.9022689 C9.89117391,16.8703361 10.4931739,16.8106723 11.0184348,16.722395 C11.5439565,16.6341176 12.0468261,16.4963866 12.5266957,16.3083193 C13.0065217,16.1205042 13.4078261,15.8864286 13.7305217,15.6065126 C14.0533913,15.3268487 14.3200435,14.9707983 14.5314348,14.5388655 C14.7421304,14.1069328 14.8767826,13.6071008 14.9345217,13.0391597 C15.0425652,11.9278151 14.8562609,11.0720168 14.3763043,10.4721008 Z M5.8233913,5.12201681 C5.88134783,5.12201681 6.04478261,5.12 6.31373913,5.11596639 C6.58282609,5.11184874 6.80617391,5.10789916 6.98408696,5.10386555 C7.16204348,5.09991597 7.40204348,5.10991597 7.70421739,5.13390756 C8.00626087,5.15789916 8.26069565,5.18995798 8.46752174,5.22987395 C8.67434783,5.26978992 8.90213043,5.33579832 9.15017391,5.42777311 C9.39865217,5.51966387 9.59713043,5.63168067 9.74591304,5.76361345 C9.895,5.89554622 10.0211739,6.06357143 10.1244348,6.26752101 C10.228,6.47142857 10.2797391,6.70533613 10.2797391,6.96920168 C10.2797391,7.19315126 10.2425652,7.39714286 10.1681739,7.58117647 C10.093913,7.76508403 9.98191304,7.91907563 9.83313043,8.04302521 C9.68430435,8.16701681 9.53091304,8.27508403 9.37365217,8.36697479 C9.21656522,8.45886555 9.01569565,8.53289916 8.77165217,8.58882353 C8.52765217,8.64483193 8.31456522,8.68882353 8.1326087,8.7207563 C7.95052174,8.75277311 7.723,8.77483193 7.44986957,8.78676471 C7.17669565,8.79869748 6.96973913,8.80684874 6.82913043,8.81079832 C6.6883913,8.8147479 6.49604348,8.8147479 6.25182609,8.81079832 C6.00756522,8.80684874 5.865,8.8047479 5.82352174,8.8047479 L5.82352174,5.12197479 L5.8233913,5.12197479 L5.8233913,5.12201681 Z M11.0433913,13.2912185 C10.9645652,13.4752521 10.8633478,13.6352941 10.7393043,13.7713445 C10.6150435,13.9070588 10.4515217,14.0271429 10.2488696,14.1309664 C10.0462609,14.235084 9.84952174,14.3189076 9.65934783,14.3828992 C9.46891304,14.4471429 9.23917391,14.5028151 8.97047826,14.5509664 C8.70117391,14.5989916 8.46547826,14.6327731 8.26252174,14.6528992 C8.05986957,14.6729412 7.81791304,14.6888655 7.53643478,14.7009664 C7.25517391,14.7127311 7.03573913,14.7188235 6.87856522,14.7188235 C6.72130435,14.7188235 6.52265217,14.7166387 6.28265217,14.7127311 C6.04252174,14.7089916 5.88956522,14.7069748 5.82330435,14.7069748 L5.82330435,10.6521429 C5.88943478,10.6521429 6.086,10.6482353 6.41295652,10.640084 C6.73995652,10.6320168 7.00669565,10.6282773 7.2136087,10.6282773 C7.42047826,10.6282773 7.70608696,10.640084 8.07034783,10.6642437 C8.43426087,10.6880672 8.74047826,10.7239076 8.98895652,10.7718908 C9.23713043,10.819958 9.50795652,10.8938235 9.80195652,10.9939076 C10.0956522,11.0938235 10.3336957,11.2157563 10.5158261,11.3597059 C10.697913,11.5039076 10.850913,11.687563 10.975,11.9115546 C11.0993913,12.1354202 11.1614348,12.3913866 11.1614348,12.6793697 C11.1613913,12.9035294 11.1221304,13.1071429 11.0433913,13.2912185 Z" id="Shape"></path>
            </g>
        </g>
    </g>
</svg>