<?xml version="1.0" encoding="UTF-8"?>
<svg width="18px" height="18px" viewBox="0 0 18 18" version="1.1" xmlns="http://www.w3.org/2000/svg" xmlns:xlink="http://www.w3.org/1999/xlink">
    <!-- Generator: Sketch 50.2 (55047) - http://www.bohemiancoding.com/sketch -->
    <title>Bitcoin Cash</title>
    <desc>Created with Sketch.</desc>
    <defs></defs>
    <g id="Wallet-Manager" stroke="none" stroke-width="1" fill="none" fill-rule="evenodd">
        <g id="Desktop_Wallet-Manager" transform="translate(-179.000000, -309.000000)" fill-rule="nonzero">
            <g id="Bitcoin-Cash" transform="translate(179.000000, 309.000000)">
                <circle id="Oval" fill="#F7941D" cx="9" cy="9" r="9"></circle>
                <path d="M13.1306593,9.4151771 L13.1259493,9.40617477 L13.1251501,9.40467927 C13.1222956,9.39561831 13.1201547,9.38614681 13.1169005,9.37635275 L13.1165009,9.37559034 L13.1161013,9.37482793 L13.1157017,9.37406552 L13.115302,9.3733031 L13.1149024,9.37254069 L13.1145028,9.37177828 L13.1137035,9.37028278 C13.0142147,9.02852691 12.816982,8.72540196 12.5476256,8.50028319 L12.547226,8.49952078 C12.5392619,8.49327487 12.5308982,8.48629587 12.5229055,8.48007928 L12.5118871,8.47166343 L12.5039231,8.46544684 L12.5004976,8.46251449 L12.4929046,8.45703099 L12.4894792,8.45409864 L12.4818862,8.44861514 L12.4784608,8.44568279 L12.4704967,8.4394662 L12.4663292,8.43691506 L12.4583651,8.43069847 L12.4541975,8.42814732 L12.445634,8.42228262 L12.4414664,8.41973147 L12.4364139,8.41187277 L12.4318752,8.40858853 L12.4233117,8.40272383 L12.418773,8.39943959 L12.4102095,8.39357489 L12.4056708,8.39029066 L12.3971073,8.38442595 L12.3925686,8.38114172 L12.3834627,8.37457325 L12.3789241,8.37128901 L12.3691045,8.36510175 L12.3645659,8.36181752 L12.3547464,8.35563025 L12.3502077,8.35234602 L12.3403882,8.34615875 L12.3358495,8.34287452 L12.32603,8.33668726 L12.3207491,8.3337549 L12.3109296,8.32756764 L12.3056488,8.32463529 L12.2950871,8.31877058 L12.2898063,8.31583823 L12.2788449,8.30932841 L12.2735641,8.30639606 L12.2626028,8.29988624 L12.2573219,8.29695388 L12.2463606,8.29044406 L12.2406516,8.28680794 L12.2296903,8.28029812 L12.2239813,8.27666201 L12.2123063,8.27053339 L12.2065973,8.26689727 L12.1949223,8.26076866 L12.1870153,8.25642878 L12.1866443,8.25566636 C12.1809352,8.25203025 12.1749693,8.24953775 12.1692888,8.24590163 C11.9269608,8.11796771 11.6653211,8.03304247 11.3954312,7.99471634 C11.4711102,7.91114339 11.5404221,7.82171679 11.6027542,7.72722716 L11.6126879,7.7120669 L11.6134301,7.71165637 L11.6180259,7.70426684 L11.6240489,7.69417955 L11.6272459,7.68951711 L11.6332689,7.67942982 L11.636466,7.67476738 L11.642489,7.66468009 L11.6456861,7.66001765 L11.6517091,7.64993036 L11.6549061,7.64526792 L11.6609291,7.63518062 L11.6641262,7.63051818 L11.669407,7.6208121 L11.6726041,7.61614966 L11.6778849,7.60644357 L11.6803684,7.60216234 L11.6856492,7.59245625 L11.6881326,7.58817502 L11.6934135,7.57846893 L11.6958683,7.5741877 L11.700407,7.56489214 L11.7028904,7.56061091 L11.7074291,7.55131535 L11.7099125,7.54703412 L11.7144512,7.53773856 L11.7169346,7.53345732 L11.7218444,7.52492418 L11.7243278,7.52064295 L11.7292661,7.5121098 L11.7317495,7.50782857 L11.7359742,7.49970595 L11.7384576,7.49542472 L11.7426823,7.4873021 L11.7444236,7.4834314 L11.7486482,7.47530878 L11.7503895,7.47143807 L11.7546142,7.46331546 L11.7563554,7.45944475 L11.7605801,7.45132214 L11.7623213,7.44745143 L11.7658038,7.43971002 L11.7675451,7.43583932 L11.7710276,7.42809791 L11.7727688,7.4242272 L11.7762513,7.41648579 L11.7779926,7.41261509 L11.7818176,7.40381803 L11.7870414,7.39208862 C11.7908664,7.38329157 11.7939493,7.3747291 11.7977744,7.36569745 L11.7985165,7.36528692 C11.9146418,7.0712362 11.9418667,6.74807421 11.8766445,6.4379012 L11.8762448,6.43713878 L11.8754456,6.43564328 L11.8750459,6.43488087 L11.8746463,6.43411846 L11.8742467,6.43335605 L11.873847,6.43259364 L11.8734474,6.43183123 L11.8730478,6.43106882 C11.8713065,6.42227176 11.8695653,6.41365064 11.8671104,6.40532276 L11.8671104,6.40365132 L11.8667108,6.40288891 L11.8663111,6.4021265 L11.8659115,6.40136409 L11.8663111,6.4021265 L11.8627715,6.39538209 C11.8602025,6.38327147 11.8576049,6.37116086 11.853894,6.35869836 C11.851325,6.34658775 11.8476141,6.33412525 11.8443029,6.32239584 L11.8399926,6.31415593 L11.8391933,6.31266043 C11.8367099,6.30436187 11.834255,6.29603399 11.8317716,6.28773544 L11.8313719,6.28697303 L11.8309723,6.28621061 L11.8305727,6.2854482 L11.830173,6.28468579 L11.8297734,6.28392338 L11.8293738,6.28316097 L11.8290027,6.28239856 C11.7406591,5.97824654 11.5651824,5.70848208 11.3254386,5.50825756 L11.3250675,5.50749515 C11.3182167,5.50163044 11.3106237,5.49611762 11.3037728,5.49025292 L11.2943244,5.48292203 L11.2867314,5.47743854 L11.283306,5.47450618 L11.2768548,5.46937457 L11.2734294,5.46644222 L11.2669497,5.4613106 L11.2635528,5.45837825 L11.2563309,5.45365716 L11.2529055,5.45072481 L11.245341,5.44524131 L11.2419156,5.44230896 L11.2343226,5.43682546 L11.2308972,5.4338931 L11.2233042,5.42840961 L11.2191366,5.42585846 L11.2115436,5.42037496 L11.207376,5.41782381 L11.199783,5.41234032 L11.1956155,5.40978917 L11.1873088,5.4047162 L11.1831412,5.40216505 L11.1748346,5.39709208 L11.170667,5.39454094 L11.1623604,5.38946797 L11.1581928,5.38691682 L11.1498862,5.38184385 L11.1457186,5.37929271 L11.1370124,5.373428 L11.1328448,5.37087685 L11.1241385,5.36501215 L11.1199709,5.362461 L11.1105225,5.35703615 L11.1063549,5.35448501 L11.096935,5.34906015 L11.0923964,5.34577592 L11.0829479,5.34035107 L11.0784093,5.33706683 L11.0689894,5.33164198 L11.0644507,5.32835775 L11.0546312,5.32217048 L11.0493504,5.31923813 L11.0392739,5.31281628 L11.0339931,5.30988393 L11.0234314,5.30401922 L11.0181506,5.30108687 L11.0075889,5.29522217 L11.000053,5.2916447 L10.9996533,5.29088229 L10.9838108,5.28208523 C10.5209805,5.0349759 9.93298001,4.96058213 9.3413828,5.1164953 L9.18749616,5.15707905 L8.79825517,3.6 L7.89622999,3.83752053 L8.28418645,5.38844164 L7.56248067,5.57966034 L7.1742673,4.0336949 L6.27224212,4.27121543 L6.66019858,5.82213654 L4.8,6.3138627 L5.04751457,7.30206541 L5.79705182,7.10430757 C6.04512226,7.03861354 6.29806507,7.19194204 6.36201646,7.44677699 L6.36224482,7.44771534 L7.4026281,11.6062894 C7.44504266,11.7763558 7.34543597,11.9495965 7.17997632,11.9935358 L6.52321064,12.1671017 L6.56180362,13.3423885 L8.41980422,12.8518939 L8.81275608,14.4 L9.71432454,14.1616877 L9.32611117,12.6100042 L10.0476742,12.4199585 L10.4360303,13.9716127 L11.3375988,13.7333004 L10.9479296,12.1755762 C11.100703,12.1345233 11.2321246,12.0996869 11.3230408,12.0755244 C11.9897402,11.899378 12.5288715,11.497851 12.8551134,10.9971518 L12.8661318,10.9804374 L12.866874,10.9800269 L12.8722119,10.9722268 L12.8792911,10.9604974 L12.8828307,10.9546327 L12.8899099,10.9429033 L12.8934495,10.9370386 L12.8997865,10.9257784 L12.9033261,10.9199137 L12.9096631,10.9086534 L12.9125176,10.9032286 L12.9188546,10.8919683 L12.9217091,10.8865435 L12.9280462,10.8752833 L12.9309007,10.8698584 L12.9366097,10.8590087 L12.9394642,10.8535839 L12.9451732,10.8427341 L12.9480277,10.8373093 L12.9540507,10.827222 L12.9569053,10.8217972 L12.9629283,10.8117099 L12.9657828,10.806285 L12.9710636,10.7965789 L12.9739181,10.7911541 L12.979199,10.7814773 L12.9820535,10.7760525 L12.9873343,10.7663757 L12.9894181,10.7613614 L12.994699,10.7516846 L12.9967828,10.7466703 L13.0013214,10.7373747 L13.0038049,10.7330935 L13.0083435,10.7237979 L13.010827,10.7195167 L13.0153656,10.7102211 L13.017849,10.7059399 L13.0223877,10.6966444 L13.0248711,10.6923631 L13.0294098,10.6830676 L13.0318932,10.6787863 L13.0364319,10.6694908 L13.0389153,10.6652095 L13.0427404,10.6564125 L13.0452238,10.6521312 L13.0490203,10.6433342 L13.0507615,10.6394635 L13.0549291,10.6294348 L13.0606382,10.6166791 C13.0648057,10.6066505 13.0692017,10.5973549 13.0727698,10.5877075 L13.0731124,10.5865639 C13.2036235,10.2557831 13.2343151,9.89233546 13.1612025,9.54340886 L13.1608315,9.54264645 L13.1604318,9.54188404 L13.1600322,9.54112162 L13.1596326,9.54035921 L13.1592329,9.5395968 L13.1588333,9.53883439 L13.1584337,9.53807198 L13.158034,9.53730957 C13.1558932,9.52783807 13.1537808,9.51839589 13.1516399,9.5089244 L13.1516399,9.50701837 L13.1512403,9.50625596 L13.1508407,9.50549354 L13.150441,9.50473113 L13.1500414,9.50396872 L13.1496418,9.50320631 L13.1492421,9.5024439 L13.1488425,9.50168149 L13.1484429,9.50091908 L13.1480433,9.50015666 L13.1476436,9.49939425 L13.147244,9.49863184 L13.1468444,9.49786943 L13.1464447,9.49710702 L13.1448747,9.49417467 C13.1415064,9.48056855 13.1388803,9.46655191 13.1347698,9.453327 C13.1326933,9.44070118 13.1313209,9.42796378 13.1306593,9.4151771 Z M7.83094734,6.63322518 C7.98483398,6.59264142 8.62110427,6.42848835 8.83091076,6.37245109 C9.16446027,6.28474444 9.4931571,6.31878905 9.74977756,6.4457599 L9.75834109,6.44968925 L9.76210904,6.45147799 L9.76738988,6.45441034 L9.77001603,6.45584719 L9.77529688,6.45877954 L9.77792303,6.4602164 L9.78320387,6.46314875 L9.78583002,6.4645856 L9.79111086,6.46751795 L9.79373701,6.46895481 L9.79901786,6.47188716 L9.801644,6.47332401 L9.80692485,6.47625636 L9.809551,6.47769322 L9.81483184,6.48062557 L9.81745799,6.48206242 L9.82273883,6.48499477 L9.82536498,6.48643163 L9.83064583,6.48936398 L9.83327198,6.49080083 L9.83781065,6.49408507 L9.8404368,6.49552192 L9.84497547,6.49880615 L9.84760162,6.50024301 L9.85214029,6.50352724 L9.85476644,6.50496409 L9.85893402,6.50751524 L9.86156017,6.50895209 L9.86572776,6.51150324 L9.8683539,6.51294009 L9.87252149,6.51549124 L9.87514764,6.51692809 L9.87931522,6.51947924 L9.88194137,6.52091609 L9.88610896,6.52346724 L9.88802148,6.52531462 L9.89218906,6.52786576 L9.89370195,6.52895073 L9.89786954,6.53150188 L9.89938243,6.53258685 L9.90355001,6.535138 L9.9050629,6.53622297 L9.90923049,6.53877411 L9.91074338,6.53985908 L9.91416879,6.54279144 L9.91568168,6.54387641 L9.91984927,6.54642755 L9.92555829,6.55006367 C9.92972587,6.55261482 9.93352237,6.55630958 9.93768995,6.55886073 C10.0690619,6.66072702 10.1655881,6.80278097 10.2133785,6.96458099 L10.2145489,6.9668389 C10.2157763,6.97100284 10.2174034,6.97589987 10.2186308,6.98006381 L10.2190305,6.98082622 L10.2213997,6.98531272 C10.2230839,6.99211577 10.2251106,6.99777521 10.2267947,7.00457827 C10.2286475,7.01152156 10.2298518,7.01863045 10.2303914,7.0258085 L10.2327607,7.030295 L10.2331603,7.03105741 C10.2337932,7.03570611 10.2349227,7.04026902 10.2365286,7.04466353 L10.237699,7.04692144 C10.2714388,7.21228741 10.2534559,7.38437656 10.1863178,7.53861826 L10.1804089,7.55251761 L10.177269,7.55908608 L10.1747856,7.56336732 L10.1741005,7.56568388 L10.1723592,7.56955458 L10.1716741,7.57187114 L10.1691907,7.57615237 L10.1685056,7.57846893 L10.1660222,7.58275017 L10.1653371,7.58506672 L10.1628537,7.58934796 L10.1621686,7.59166452 L10.1596852,7.59594575 L10.1590001,7.59826231 L10.1565167,7.60254354 L10.1558316,7.6048601 L10.1533482,7.60914134 L10.1519495,7.6118391 L10.1494661,7.61612034 L10.1480673,7.6188181 L10.1456125,7.62309933 L10.1441852,7.6257971 L10.1417303,7.63007833 L10.1403316,7.6327761 L10.1371346,7.63743854 L10.1357073,7.6401363 L10.1325103,7.64479874 L10.1311116,7.6474965 L10.1279145,7.65215894 L10.1265158,7.65485671 L10.1233187,7.65951915 L10.12192,7.66221691 L10.118723,7.66687935 L10.1173243,7.66957712 L10.1141272,7.67423956 L10.1127285,7.67693732 L10.1095315,7.68159976 L10.1081328,7.68429753 L10.1049357,7.68895997 L10.103537,7.69165773 L10.0995978,7.6967307 L10.0981991,7.69942846 L10.0942598,7.70450143 L10.0928611,7.7071992 L10.0889219,7.71227217 L10.0875232,7.71496993 L10.083584,7.7200429 L10.0807295,7.72356172 L10.0753915,7.73136178 C9.90951594,7.9701139 9.63768095,8.16300403 9.30413144,8.25071069 C9.09392532,8.30601485 8.45919646,8.47697099 8.30545255,8.51755474 L7.83094734,6.63322518 Z M11.3566098,9.82136653 L11.3589791,9.82585303 L11.3593787,9.82661544 C11.3602636,9.831923 11.3615196,9.83608694 11.3624045,9.8412772 L11.3628041,9.84203961 L11.3632037,9.84280203 L11.3636034,9.84356444 L11.364003,9.84432685 C11.399578,10.0267103 11.3740133,10.2160938 11.2914699,10.3816511 L11.2833916,10.3967527 L11.2795095,10.4037317 L11.276655,10.4091565 L11.2752563,10.4118543 L11.2727729,10.4161355 L11.2713742,10.4188333 L11.2688907,10.4231145 L11.267492,10.4258123 L11.264295,10.4304747 L11.2628963,10.4331725 L11.2596992,10.4378349 L11.2583005,10.4405327 L11.2551034,10.4451952 L11.2537047,10.4478929 L11.2505077,10.4525554 L11.249109,10.4552531 L11.2459119,10.4599156 L11.2445132,10.4626133 L11.2413162,10.4672758 L11.2399174,10.4699735 L11.2367204,10.474636 L11.2353217,10.4773337 L11.2321246,10.4819962 L11.2307259,10.4846939 L11.2275289,10.4893564 L11.2261302,10.4920541 L11.2221909,10.4971271 L11.2207922,10.4998249 L11.216853,10.5048978 L11.2154543,10.5075956 L11.2119147,10.5134603 L11.210516,10.5161581 L11.2069764,10.5220228 L11.2055777,10.5247205 L11.2020381,10.5305852 L11.1998972,10.5336935 L11.1963576,10.5395582 L11.1942167,10.5426665 L11.189935,10.5488831 L11.1877941,10.5519914 L11.1835123,10.558208 L11.1813714,10.5613163 L11.1770897,10.5675329 L11.1749488,10.5706412 L11.1706385,10.5768578 L11.1684976,10.5799661 L11.1642158,10.5861826 L11.1606192,10.590112 L11.1538254,10.5987038 C10.9523826,10.8629674 10.6274538,11.0803427 10.2328178,11.1844118 C9.98393302,11.2504191 9.23194088,11.4524582 9.04896679,11.5004314 L8.53701041,9.45408941 C8.71969905,9.40535371 9.47368934,9.21088011 9.72254553,9.14487286 C10.1172101,9.04080368 10.5046813,9.07033247 10.8041479,9.20170185 L10.8139104,9.20598308 L10.8187916,9.2081237 L10.8259279,9.21105605 L10.8292962,9.21208238 L10.8356903,9.21530796 L10.8390586,9.21633429 L10.8454527,9.21955988 L10.848821,9.2205862 L10.8552151,9.22381179 L10.8578127,9.22524864 L10.8642068,9.22847423 L10.866833,9.22991108 L10.8732271,9.23313667 L10.8758532,9.23457352 L10.8822473,9.23779911 L10.8848735,9.23923596 L10.8901543,9.24216831 L10.8927805,9.24360516 L10.8980613,9.24653752 L10.9006875,9.24797437 L10.9059683,9.25090672 L10.9085945,9.25234357 L10.9138753,9.25527593 L10.9165015,9.25671278 L10.9217823,9.25964513 L10.9244085,9.26108198 L10.9296893,9.26401434 L10.9323154,9.26545119 L10.9375963,9.26838354 L10.9402224,9.26982039 L10.9455033,9.27275275 L10.9481294,9.2741896 L10.9534103,9.27712195 L10.9560364,9.2785588 L10.9605751,9.28184304 L10.9632012,9.28327989 L10.9677399,9.28656412 L10.9703661,9.28800098 L10.9749047,9.29128521 L10.9775309,9.29272206 L10.9820696,9.2960063 L10.9846957,9.29744315 L10.9892344,9.30072739 L10.9918605,9.30216424 L10.9960281,9.30471539 L10.9986543,9.30615224 L11.0031929,9.30943647 L11.0092445,9.313835 C11.0137832,9.31711924 11.019064,9.32002226 11.023517,9.3233065 C11.1733308,9.42768796 11.2844844,9.5809364 11.3389975,9.75826231 L11.3405675,9.76119466 C11.3421945,9.76609169 11.343422,9.77025563 11.3450491,9.77515266 L11.3454487,9.77591507 L11.3478179,9.78040157 C11.3495021,9.78720463 11.3511863,9.79400768 11.35327,9.80157315 C11.3569524,9.80324459 11.3575518,9.8116018 11.3563815,9.82192368 L11.3566098,9.82136653 Z" id="Shape" fill="#FFFFFF"></path>
            </g>
        </g>
    </g>
</svg>