<?xml version="1.0" encoding="UTF-8"?>
<svg width="18px" height="18px" viewBox="0 0 18 18" version="1.1" xmlns="http://www.w3.org/2000/svg" xmlns:xlink="http://www.w3.org/1999/xlink">
    <!-- Generator: Sketch 50.2 (55047) - http://www.bohemiancoding.com/sketch -->
    <title>dash-3</title>
    <desc>Created with Sketch.</desc>
    <defs></defs>
    <g id="Wallet-Manager" stroke="none" stroke-width="1" fill="none" fill-rule="evenodd">
        <g id="Desktop_Wallet-Manager" transform="translate(-264.000000, -310.000000)" fill-rule="nonzero">
            <g id="dash-3" transform="translate(264.000000, 310.000000)">
                <circle id="Oval" fill="#2573C2" cx="9" cy="9" r="9"></circle>
                <g id="Group" transform="translate(3.121951, 5.512195)" fill="#FFFFFF">
                    <path d="M11.7832508,1.10183243 C11.7711533,0.900765765 11.7118961,0.705320818 11.6102327,0.531176545 C11.5201192,0.351725009 11.359717,0.211752812 11.1722808,0.139972198 C10.9811351,0.0451209475 10.7693723,-0.00111841073 10.5559039,0.00538354606 L2.5574232,0.00538354606 L1.98430088,1.71555668 L9.23123441,1.71555668 L8.08679203,5.21127259 L0.841660771,5.21127259 L0.268538447,6.92144572 L8.30486688,6.92144572 C8.54432421,6.91454446 8.78108075,6.86909376 9.00595047,6.78685707 C9.23123441,6.65944648 9.48895923,6.53024137 9.70703407,6.35078984 C9.91993898,6.18366385 10.1123081,5.99212263 10.2801564,5.78013396 C10.4189045,5.57242846 10.537201,5.35187748 10.6334016,5.12154682 L11.6949395,1.79810439 C11.7915116,1.57943662 11.8221924,1.33754039 11.7832508,1.10183243 Z" id="Shape"></path>
                    <polygon id="Shape" points="4.84090114 2.67023885 0.576726867 2.67023885 0.00360454292 4.25120687 4.31103333 4.25120687"></polygon>
                </g>
            </g>
        </g>
    </g>
</svg>