<?xml version="1.0" encoding="UTF-8"?>
<svg width="13px" height="21px" viewBox="0 0 13 21" version="1.1" xmlns="http://www.w3.org/2000/svg" xmlns:xlink="http://www.w3.org/1999/xlink">
    <!-- Generator: Sketch 50.2 (55047) - http://www.bohemiancoding.com/sketch -->
    <title>ethereum-classic-1</title>
    <desc>Created with Sketch.</desc>
    <defs></defs>
    <g id="Wallet-Manager" stroke="none" stroke-width="1" fill="none" fill-rule="evenodd">
        <g id="Desktop_Wallet-Manager" transform="translate(-350.000000, -308.000000)" fill-rule="nonzero">
            <g id="ethereum-classic-1" transform="translate(350.000000, 308.000000)">
                <path d="M0,11.4364865 C2.28743169,12.6496622 4.67431694,13.9195946 6.51775956,14.9021959 L12.9822404,11.4364865 C10.6415301,14.9092905 8.69153005,17.8003378 6.51775956,21 C4.34043716,17.8074324 1.93579235,14.2849662 0,11.4364865 Z M0.24863388,10.4787162 L6.52486339,7.13361486 L12.7193989,10.4538851 L6.5284153,13.8025338 L0.24863388,10.4787162 Z M0,9.48902027 L6.48934426,0 L12.9822404,9.51030405 L6.51775956,6.06233108 L0,9.48902027 Z" id="path1599" fill="#3AB83A"></path>
                <path d="M6.51775956,14.9021959 L12.9822404,11.4364865 C10.6415301,14.9092905 6.51775956,21 6.51775956,21 L6.51775956,14.9021959 Z M6.52486339,7.13361486 L12.7193989,10.4538851 L6.5284153,13.8025338 L6.52486339,7.13361486 Z M6.51775956,6.06233108 L6.48934426,0 L12.9822404,9.51030405 L6.51775956,6.06233108 Z" id="path1593" fill="#0B8311"></path>
                <polygon id="path1603" fill="#0B8311" points="0.24863388 10.4787162 6.52486339 10.9930743 12.7193989 10.4574324 6.5284153 13.8060811"></polygon>
                <polygon id="path1606" fill="#146714" points="6.52486339 10.9930743 12.7193989 10.4574324 6.5284153 13.8060811 6.52486339 10.9930743"></polygon>
            </g>
        </g>
    </g>
</svg>