<?xml version="1.0" encoding="UTF-8"?>
<svg width="19px" height="18px" viewBox="0 0 19 18" version="1.1" xmlns="http://www.w3.org/2000/svg" xmlns:xlink="http://www.w3.org/1999/xlink">
    <!-- Generator: sketchtool 49.3 (51167) - http://www.bohemiancoding.com/sketch -->
    <title>B304E052-DA12-480A-9DB6-D4C07DBADD05</title>
    <desc>Created with sketchtool.</desc>
    <defs></defs>
    <g id="Home" stroke="none" stroke-width="1" fill="none" fill-rule="evenodd">
        <g id="Mobile_Home-320" transform="translate(-159.000000, -634.000000)" fill="#000000" fill-rule="nonzero">
            <g id="facebook-square-social-logo" transform="translate(159.800000, 634.000000)">
                <path d="M17.622561,0 L0.377627656,0 C0.16917719,0 0,0.169175417 0,0.377623698 L0,17.6221875 C0,17.8306358 0.16917719,17.9998112 0.377627656,17.9998112 L9.53981865,17.9998112 L9.53981865,11.9852097 L7.60617624,11.9852097 C7.43907601,11.9852097 7.30369649,11.8498316 7.30369649,11.6827332 L7.30369649,9.24441694 C7.30369649,9.07731845 7.43907601,8.94175154 7.60617624,8.94175154 L9.54000747,8.94175154 L9.54000747,7.25887153 C9.54000747,5.04146518 10.9362857,3.60876087 13.0970712,3.60876087 L15.0207065,3.61178186 C15.1874291,3.61197067 15.3228086,3.74734877 15.3228086,3.91425844 L15.3228086,6.17830132 C15.3228086,6.34539981 15.1874291,6.4807779 15.0203288,6.4807779 L13.7244995,6.48134434 C12.8315989,6.48134434 12.6680862,6.82951339 12.6680862,7.51508921 L12.6680862,8.94175154 L14.929887,8.94175154 C15.0101329,8.94175154 15.0869801,8.97366075 15.1438131,9.03049311 C15.2004572,9.08732548 15.2323668,9.1641719 15.2323668,9.24441694 L15.2316115,11.682922 C15.2316115,11.8500205 15.096232,11.9855874 14.9291317,11.9855874 L12.6678973,11.9855874 L12.6678973,18 L17.6223722,18 C17.8308227,18 17.9999998,17.8308246 17.9999998,17.6223763 L17.9999998,0.377623698 C18.0001887,0.168986605 17.8312003,0 17.622561,0 Z" id="Shape"></path>
            </g>
        </g>
    </g>
</svg>