<?xml version="1.0" encoding="UTF-8"?>
<svg width="249px" height="175px" viewBox="0 0 249 175" version="1.1" xmlns="http://www.w3.org/2000/svg" xmlns:xlink="http://www.w3.org/1999/xlink">
    <!-- Generator: sketchtool 52.3 (67297) - http://www.bohemiancoding.com/sketch -->
    <title>ABB84748-B54B-4623-B308-2B36FB77397D</title>
    <desc>Created with sketchtool.</desc>
    <g id="token" stroke="none" stroke-width="1" fill="none" fill-rule="evenodd" opacity="0.521112351">
        <g id="Mobile_Token_320" transform="translate(-35.000000, -3845.000000)" fill="#28BDE3">
            <g id="Group-4" transform="translate(35.000000, 1260.000000)">
                <g id="Group-37-Copy-3" transform="translate(0.000000, 2585.000000)">
                    <polygon id="Path" transform="translate(124.686717, 45.171875) scale(-1, 1) translate(-124.686717, -45.171875) " points="0 90.34375 20.887104 88.9884001 20.862646 89.0271244 69.8519543 0.0774485641 69.9008703 0 69.9497862 0.0774485641 146.698887 72.0271646 146.625513 72.0271646 178.396413 37.9497964 178.445329 37.9110721 178.494245 37.9885207 212.95552 84.9223505 212.906604 84.9223505 249.373434 60.13881 212.95552 85.0772476 212.931062 85.0772476 212.906604 85.0385234 178.396413 38.1434178 178.494245 38.1434178 146.723345 72.2595103 146.674429 72.3369589 146.625513 72.2595103 69.8764123 0.271069974 69.9742442 0.271069974 20.887104 89.0658487 20.887104 89.0658487 20.887104 89.0658487"></polygon>
                    <path d="M0,93.109375 L20.3754851,90.9293836 L20.3510247,90.9293836 L68.9048516,4.68586592 L68.9537724,4.609375 L69.0026931,4.64762046 L88.6688275,20.6342237 L98.5018948,28.6275254 L100.972392,30.6162894 L103.345047,32.8345263 L108.114819,37.2709999 L146.175149,72.9922618 L146.077307,72.9922618 L178.047006,43.3902739 L178.095926,43.3520284 L178.144847,43.3902739 L182.35203,48.9741114 L182.865698,49.6625297 L183.403826,50.3127026 L184.504542,51.6130483 L186.705975,54.2137397 L195.511707,64.57826 L204.317439,74.9427804 C205.07571,75.7841805 205.760601,76.7403171 206.469951,77.6582082 L208.573543,80.4118815 L212.805186,85.9574735 L212.756265,85.9574735 L249.373434,64.6929964 L212.780726,86.1104554 L212.756265,86.1104554 L212.731805,86.0722099 L208.500162,80.5648633 L206.39657,77.81119 C205.68722,76.8932989 205.002329,75.9371624 204.244058,75.0957622 L195.438326,64.7694874 L186.632594,54.4432125 L184.431161,51.8425211 L183.330445,50.5421753 L182.792317,49.8920025 L182.278649,49.2035842 L178.071466,43.6197467 L178.144847,43.6197467 L146.175149,73.2982255 L146.126228,73.3364709 L146.077307,73.2982255 L108.016977,37.6152091 L103.271666,33.14049 L100.899011,30.9222531 L98.452974,28.9334891 L88.6199068,20.9401874 L68.9537724,4.9153387 L69.0516138,4.87709324 L20.3754851,91.0058746 L0,93.109375 Z" id="Path" transform="translate(124.686717, 48.859375) scale(-1, 1) translate(-124.686717, -48.859375) "></path>
                    <polygon id="Path" transform="translate(124.686717, 51.625000) scale(-1, 1) translate(-124.686717, -51.625000) " points="0 95.875 19.8657145 92.7900327 19.8412494 92.8285948 67.9642302 7.45212418 67.9886954 7.375 68.0376257 7.41356209 100.307179 30.2808824 100.331644 30.2808824 100.331644 30.2808824 145.641131 73.547549 145.543271 73.547549 177.714963 47.7495098 177.763894 47.7109477 177.788359 47.7495098 182.583531 54.1122549 182.583531 54.1122549 204.748971 76.5939542 204.748971 76.6325163 204.748971 76.6325163 212.65122 86.7743464 212.60229 86.7357843 249.373434 68.495915 212.626755 86.8900327 212.60229 86.9285948 212.577824 86.8900327 204.675576 76.7482026 204.675576 76.7482026 182.510136 54.3050654 182.510136 54.3050654 182.510136 54.3050654 177.690498 47.9423203 177.763894 47.9423203 145.616666 73.8174837 145.592201 73.8560458 145.543271 73.8174837 100.233784 30.550817 100.233784 30.550817 67.9886954 7.64493464 68.0620909 7.60637255 19.8657145 92.8671569 19.8657145 92.8671569 19.8657145 92.8671569"></polygon>
                    <polygon id="Path" transform="translate(124.686717, 55.312500) scale(-1, 1) translate(-124.686717, -55.312500) " points="0 99.5625 19.3557439 95.5963313 19.3312739 95.5963313 67.0232396 11.140268 67.0477095 11.0625 67.0966495 11.101384 99.6172356 30.7378076 99.6172356 30.7378076 99.6172356 30.7378076 145.106904 74.9878076 145.009024 74.9878076 177.382791 53.0572276 177.407261 53.0572276 177.456201 53.0961116 182.301254 59.4730888 182.276784 59.4730888 204.471044 78.3707162 204.471044 78.3707162 204.471044 78.3707162 212.497193 88.519442 212.448253 88.480558 249.373434 73.3546793 212.472723 88.636094 212.448253 88.674978 212.423783 88.636094 204.397634 78.5262522 204.422104 78.5262522 182.227844 59.6675088 182.203374 59.6675088 182.203374 59.6675088 177.358321 53.2516476 177.431731 53.2905316 145.082434 75.2599956 145.057964 75.2988796 145.009024 75.2599956 99.5438257 31.0099956 99.5438257 31.0099956 67.0477095 11.334688 67.1211195 11.295804 19.3557439 95.6740993 19.3557439 95.6740993 19.3557439 95.6740993"></polygon>
                    <polygon id="Path" transform="translate(124.686717, 58.539062) scale(-1, 1) translate(-124.686717, -58.539062) " points="0 102.328125 18.8455731 97.4777636 18.8210983 97.5165665 66.0574048 14.8276058 66.1063543 14.75 66.1553039 14.7888029 98.9025464 30.9308055 98.9270212 30.9696084 98.9270212 30.9696084 144.572468 75.7481447 144.499043 75.7481447 177.026013 57.9764206 177.074962 57.9376177 177.099437 57.9764206 182.018866 64.3788976 181.994391 64.3400947 204.193008 79.4344193 204.193008 79.4344193 204.193008 79.4344193 212.343106 89.4067623 212.318631 89.4067623 249.373434 77.5330776 212.318631 89.5619739 212.294157 89.5619739 212.294157 89.5619739 204.119583 79.5896309 204.144058 79.5896309 181.945442 64.5729121 181.920967 64.5341092 181.920967 64.5341092 177.001538 58.170435 177.074962 58.170435 144.547993 76.0197649 144.499043 76.0585678 144.474568 76.0197649 98.8291221 31.2024258 98.8535968 31.2412287 66.1063543 15.0216202 66.1797786 14.9828173 18.8455731 97.5553694 18.8455731 97.5553694 18.8455731 97.5553694"></polygon>
                    <polygon id="Path" transform="translate(124.686717, 61.765625) scale(-1, 1) translate(-124.686717, -61.765625) " points="0 105.09375 18.308925 99.4018515 18.308925 99.4018515 65.1092789 18.5149408 65.1337561 18.4375 65.1827104 18.4762204 98.2024161 31.1765108 98.2024161 31.1765108 98.2268933 31.2152312 144.023683 76.5568169 143.950252 76.5180965 176.676231 62.8497961 176.700708 62.8110757 176.749663 62.8497961 181.694052 69.2386618 181.669574 69.1999414 203.894847 80.4675771 203.894847 80.4675771 203.894847 80.5062975 212.168131 90.3412785 212.143654 90.3412785 249.373434 81.7066298 212.143654 90.4961601 212.143654 90.4961601 212.119177 90.4961601 203.845893 80.6611791 203.845893 80.6611791 181.645097 69.4322637 181.62062 69.4322637 181.62062 69.3935433 176.651754 63.0433981 176.725186 63.0821185 143.999206 76.7891393 143.950252 76.8278597 143.925774 76.7891393 98.1289846 31.4475536 98.1534618 31.486274 65.1582332 18.7085428 65.2316648 18.6698224 18.3334022 99.4792923 18.3334022 99.4792923 18.3334022 99.4792923"></polygon>
                    <polygon id="Path" transform="translate(124.686717, 65.453125) scale(-1, 1) translate(-124.686717, -65.453125) " points="0 108.78125 17.7983984 102.142421 17.7983984 102.181473 64.1672658 22.1640519 64.1917478 22.125 64.2407117 22.125 97.4872386 31.536517 97.5117206 31.536517 97.5362026 31.5755689 143.488876 77.9302191 143.41543 77.8911672 176.343692 68.2062866 176.368174 68.2062866 176.392656 68.2453386 181.411461 74.6498564 181.386979 74.6498564 203.616616 82.1868804 203.616616 82.1868804 203.616616 82.1868804 212.038416 92.0279687 211.989452 92.0279687 249.373434 86.5997493 212.013934 92.1841764 211.989452 92.1841764 211.96497 92.1841764 203.567652 82.3430881 203.592134 82.38214 181.362497 74.845116 181.338015 74.845116 181.313533 74.845116 176.31921 68.4015463 176.368174 68.4405982 143.464394 78.1645308 143.41543 78.2035827 143.390948 78.1645308 97.4382747 31.8098806 97.4627566 31.8489325 64.2162298 22.3983636 64.2651937 22.3593116 17.8228804 102.220524 17.8228804 102.220524 17.8228804 102.220524"></polygon>
                    <polygon id="Path" transform="translate(124.686717, 67.757812) scale(-1, 1) translate(-124.686717, -67.757812) " points="0 110.625 17.2876713 103.142727 17.2876713 103.142727 63.2248827 24.9295952 63.2493695 24.890625 63.2738563 24.890625 96.796267 30.8530611 96.8207538 30.8530611 96.8207538 30.8530611 142.95386 77.7731463 142.904886 77.7341761 176.011021 72.2004119 176.035508 72.1614418 176.059995 72.2004119 181.12876 78.6304901 181.079786 78.5915199 203.313788 82.3326563 203.338275 82.3326563 203.362762 82.3326563 211.884163 92.0362287 211.859677 92.0362287 249.373434 89.8538991 211.859677 92.1921094 211.83519 92.1921094 211.810703 92.1921094 203.289301 82.4885369 203.313788 82.4885369 181.079786 78.8253409 181.055299 78.8253409 181.030812 78.7863707 175.962048 72.3952628 176.011021 72.434233 142.929373 78.0459375 142.880399 78.0459375 142.855912 78.0069673 96.7228066 31.1258523 96.7717802 31.1258523 63.2738563 25.124446 63.3228299 25.0854759 17.312158 103.220668 17.312158 103.220668 17.312158 103.220668"></polygon>
                    <polygon id="Path" transform="translate(124.686717, 71.906250) scale(-1, 1) translate(-124.686717, -71.906250) " points="0 114.3125 16.7750959 105.9518 16.7750959 105.990687 62.2760131 29.538887 62.3005023 29.5 62.3249915 29.5 96.0710969 32.0276536 96.0955861 32.0276536 96.1200753 32.0276536 142.404647 79.4697673 142.355668 79.4308803 175.636479 77.9920621 175.660968 77.9920621 175.685457 78.0309491 180.803698 84.4084136 180.779209 84.3695266 203.015395 84.2917526 203.039884 84.2917526 203.064373 84.3306396 211.709058 93.8968363 211.684568 93.8968363 249.373434 94.9467847 211.684568 94.0523842 211.660079 94.0523842 211.660079 94.0523842 202.990906 84.4861875 203.015395 84.4861875 180.779209 84.6028485 180.75472 84.6028485 180.730231 84.5639615 175.61199 78.186497 175.660968 78.225384 142.355668 79.7419762 142.331179 79.7419762 142.30669 79.7030892 96.0221185 32.2998624 96.0710969 32.2998624 62.3249915 29.7333219 62.3739699 29.6944349 16.7995851 106.029574 16.7995851 106.029574 16.7995851 106.029574"></polygon>
                    <polygon id="Path" transform="translate(124.686717, 74.671875) scale(-1, 1) translate(-124.686717, -74.671875) " points="0 117.078125 16.2411185 107.882991 16.2411185 107.882991 61.2900129 33.2355758 61.3145093 33.1967778 61.3390057 33.1967778 95.3645164 32.265625 95.3890128 32.265625 95.4135092 32.304423 141.858699 80.2587917 141.834202 80.2587917 175.296296 82.8582599 175.320792 82.8582599 175.345289 82.897058 180.514031 89.2599354 180.465038 89.2599354 202.732273 85.3801321 202.756769 85.3801321 202.781266 85.4189301 211.55098 94.8468521 211.526483 94.8080541 249.373434 99.1534338 211.526483 95.0020443 211.501987 95.0020443 211.501987 94.9632462 202.707776 85.5741223 202.756769 85.5741223 180.489534 89.4539255 180.440541 89.4539255 180.440541 89.4539255 175.247303 83.0910481 175.296296 83.0910481 141.809706 80.530378 141.78521 80.530378 141.760713 80.4915799 95.3155236 32.5372112 95.3645164 32.5760093 61.3635021 33.429566 61.4124949 33.390768 16.2656149 107.960587 16.2656149 107.960587 16.2656149 107.960587"></polygon>
                    <polygon id="Path" transform="translate(124.686717, 76.054688) scale(-1, 1) translate(-124.686717, -76.054688) " points="0 119.84375 15.7297843 109.784888 15.7297843 109.784888 60.3465088 36.6542406 60.3710101 36.6154033 60.3955113 36.6154033 94.6482191 32.265625 94.6972215 32.265625 94.7217228 32.3044623 141.323046 80.9287694 141.298545 80.9287694 174.963224 87.6476233 174.987725 87.6476233 174.987725 87.6476233 180.230986 94.0169415 180.157483 94.0169415 202.453594 86.3659922 202.478095 86.3659922 202.502597 86.3659922 211.421041 95.725783 211.39654 95.6869457 249.373434 103.26022 211.372039 95.8811322 211.372039 95.8811322 211.347538 95.8422949 202.429093 86.5213415 202.478095 86.5601788 180.206485 94.2499654 180.157483 94.2499654 180.132981 94.211128 174.914221 87.8418099 174.938722 87.8806472 141.274044 81.2006305 141.249543 81.2006305 141.225041 81.1617932 94.6237179 32.5374861 94.6727203 32.5763234 60.4200125 36.8484271 60.4445137 36.8095898 15.7542855 109.823725 15.7542855 109.823725 15.7542855 109.823725"></polygon>
                    <polygon id="Path" transform="translate(124.686717, 77.898438) scale(-1, 1) translate(-124.686717, -77.898438) " points="0 122.609375 15.2167537 111.7587 15.2167537 111.7587 59.396797 40.8830142 59.4213006 40.8830142 59.4458043 40.8830142 93.9469141 33.1875 93.9714177 33.1875 93.9959213 33.2259776 140.797853 82.0155376 140.748846 82.0155376 174.612861 92.7123023 174.612861 92.7123023 174.637365 92.7507799 179.905645 99.0611015 179.856638 99.022624 202.15494 87.7102181 202.179444 87.6717405 202.203948 87.7102181 211.245787 96.86788 211.221283 96.8294024 249.373434 107.526167 211.196779 97.0217903 211.196779 97.0217903 211.172276 96.9833127 202.130437 87.8641284 202.179444 87.8641284 179.905645 99.2534894 179.856638 99.2534894 179.832134 99.2150118 174.53935 92.9431678 174.588358 92.9431678 140.724342 82.2848806 140.699838 82.2848806 140.699838 82.2848806 93.8979068 33.456843 93.9714177 33.4953206 59.4458043 41.1138796 59.4948115 41.0754021 15.2412573 111.835655 15.2412573 111.835655 15.2412573 111.835655"></polygon>
                    <polygon id="Path" transform="translate(124.686717, 79.281250) scale(-1, 1) translate(-124.686717, -79.281250) " points="0 125.375 14.7050673 113.663759 14.7050673 113.663759 58.4526427 44.28236 58.4526427 44.28236 58.4771511 44.28236 93.2301269 33.1875 93.2791438 33.1875 93.3036523 33.2260238 140.261834 82.690608 140.237326 82.690608 174.255048 97.4837547 174.279556 97.4837547 174.279556 97.4837547 179.622398 103.801661 179.548872 103.801661 201.876066 88.6618 201.900575 88.6618 201.925083 88.7003239 211.091242 97.7148976 211.066733 97.7148976 249.373434 111.66052 211.042225 97.9075167 211.042225 97.8689929 211.042225 97.8689929 201.851558 88.8544191 201.925083 88.8544191 179.622398 103.99428 179.573381 104.032804 179.548872 103.99428 174.206031 97.6763738 174.230539 97.6763738 140.188309 82.9602748 140.1638 82.9602748 140.1638 82.9602748 93.2056185 33.4571667 93.2791438 33.4571667 58.5016596 44.4749791 58.5506764 44.4749791 14.7295758 113.702283 14.7295758 113.702283 14.7295758 113.702283"></polygon>
                    <polygon id="Path" transform="translate(124.686717, 81.125000) scale(-1, 1) translate(-124.686717, -81.125000) " points="0 129.0625 14.1931798 116.328493 14.1931798 116.328493 57.5081171 47.8296608 57.5081171 47.8296608 57.5326304 47.7907189 92.5375712 33.1875 92.5620845 33.1875 92.611111 33.2264419 139.725604 83.8898761 139.701091 83.8509342 173.921607 102.893532 173.946121 102.893532 173.946121 102.893532 179.339039 109.280006 179.265499 109.280006 201.597082 90.1984667 201.621596 90.1984667 201.646109 90.1984667 210.936636 99.2329915 210.936636 99.2329915 249.373434 116.562145 210.912123 99.3887591 210.887609 99.3887591 210.887609 99.3887591 201.597082 90.3931763 201.646109 90.3931763 179.339039 109.474716 179.290012 109.513658 179.240986 109.474716 173.848068 103.088241 173.872581 103.127183 139.652064 84.1235276 139.627551 84.1235276 139.627551 84.1235276 92.5130579 33.4600934 92.5865977 33.4600934 57.5571436 48.0243704 57.6061701 47.9854285 14.2176931 116.406377 14.2176931 116.406377 14.2176931 116.406377"></polygon>
                    <polygon id="Path" transform="translate(124.686717, 82.968750) scale(-1, 1) translate(-124.686717, -82.968750) " points="0 131.828125 13.679746 118.358992 13.679746 118.358992 56.5331437 52.055354 56.5576594 52.055354 56.5821751 52.0167605 91.8111983 34.1479685 91.8602296 34.109375 91.909261 34.1479685 139.17548 85.0142057 139.150964 84.9756122 173.57097 107.900153 173.57097 107.938747 173.595486 107.938747 179.037966 114.268081 178.939903 114.229488 201.298197 91.5751012 201.322713 91.5365077 201.347229 91.5751012 210.761247 100.413013 210.761247 100.413013 249.373434 120.790383 210.736732 100.567387 210.712216 100.567387 210.712216 100.567387 201.298197 91.7294752 201.347229 91.7294752 179.01345 114.422455 178.988934 114.499642 178.939903 114.422455 173.497423 108.131714 173.521939 108.131714 139.077417 85.2457667 139.077417 85.2457667 139.077417 85.2457667 91.8111983 34.3795295 91.8847453 34.418123 56.6066907 52.2483215 56.6312064 52.209728 13.7042616 118.397586 13.7042616 118.397586 13.7042616 118.397586"></polygon>
                    <polygon id="Path" transform="translate(124.686717, 84.351562) scale(-1, 1) translate(-124.686717, -84.351562) " points="0 134.59375 13.1675058 120.189187 13.1675058 120.189187 55.587962 55.465201 55.6124825 55.4265829 55.6124825 55.4265829 91.1181592 34.1479931 91.1672002 34.109375 91.1917207 34.1479931 138.638878 85.6645789 138.638878 85.6259608 173.237297 112.658652 173.237297 112.658652 173.237297 112.658652 178.729888 118.992025 178.656326 118.992025 201.019018 92.5386061 201.043538 92.499988 201.068059 92.5386061 210.631052 101.266304 210.606531 101.266304 249.373434 124.900599 210.582011 101.420776 210.582011 101.420776 210.582011 101.420776 201.019018 92.6930786 201.068059 92.6930786 178.729888 119.185116 178.705367 119.223734 178.656326 119.185116 173.139215 112.851743 173.163735 112.851743 138.540796 85.8962877 138.540796 85.8962877 138.540796 85.8962877 91.0936387 34.3797019 91.1672002 34.41832 55.6615235 55.6582917 55.686044 55.6196736 13.1920263 120.266424 13.1920263 120.266424 13.1920263 120.266424"></polygon>
                    <polygon id="Path" transform="translate(124.686717, 85.734375) scale(-1, 1) translate(-124.686717, -85.734375) " points="0 137.359375 12.6550641 122.090281 12.6550641 122.090281 54.6424085 58.8878288 54.6424085 58.8491728 54.6669339 58.8491728 90.4248475 34.1480309 90.4493728 34.109375 90.4984235 34.1480309 138.102066 86.333542 138.102066 86.333542 172.878967 117.412913 172.903492 117.412913 172.903492 117.412913 178.446214 123.752486 178.348113 123.752486 200.739728 93.5235457 200.764253 93.4848898 200.788779 93.4848898 210.476279 102.143819 210.476279 102.143819 249.373434 129.009693 210.427229 102.298443 210.427229 102.298443 210.427229 102.298443 200.739728 93.6781695 200.813304 93.6395135 178.446214 123.945766 178.397163 123.984422 178.372638 123.945766 172.805391 117.644849 172.805391 117.644849 138.003964 86.6041335 138.003964 86.5654776 138.003964 86.5654776 90.4003222 34.3799665 90.4738982 34.3799665 54.7159845 59.0424525 54.7405098 59.0424525 12.6795894 122.128937 12.6795894 122.128937 12.6795894 122.128937"></polygon>
                    <path d="M0.626566416,141.046875 L7.57493961,131.715709 L11.0491262,127.030605 L12.7862195,124.688053 L14.4499145,122.189331 L27.6860761,102.277639 L54.1828654,62.5323396 L90.0991044,34.1484175 L90.1480366,34.109375 L90.1969688,34.1484175 L133.795564,82.9125422 L136.511301,85.9578598 L137.881403,87.4805187 L139.275971,88.9250924 L144.878709,94.6253023 L156.084184,106.025722 L167.289659,117.426142 C169.149083,119.339226 171.032972,121.213268 172.892396,123.165395 L178.299405,129.334115 L178.201541,129.334115 L200.539092,94.9766851 L200.563558,94.9376426 L200.612491,94.9766851 L206.58222,100.247427 L209.567084,102.863277 L210.325534,103.527 C210.570195,103.722213 210.839322,103.917425 211.083983,104.112638 L212.625347,105.322957 L224.882865,114.888377 L249.373434,134.019219 L224.833932,115.005505 L212.576415,105.518169 L211.03505,104.346893 C210.790389,104.151681 210.521262,103.956468 210.276601,103.761255 L209.518152,103.097532 L206.533288,100.481682 L200.563558,95.2109404 L200.636957,95.2109404 L178.323871,129.607413 L178.274939,129.685498 L178.226007,129.646455 L172.818998,123.477735 C170.959574,121.564651 169.075684,119.651566 167.21626,117.777525 L155.986319,106.377105 L144.756378,94.9766851 L139.15364,89.2764752 L137.759073,87.8319015 L136.388971,86.3092427 L133.673233,83.263925 L90.0991044,34.4607578 L90.1969688,34.4607578 L54.2807299,62.8056373 L54.305196,62.8056373 L27.7594744,102.394767 L14.4988467,122.228374 L12.8351517,124.727096 L11.0980584,127.069648 L7.62387182,131.715709 L0.626566416,141.046875 Z" id="Path" transform="translate(125.000000, 87.578125) scale(-1, 1) translate(-125.000000, -87.578125) "></path>
                    <polygon id="Path" transform="translate(125.000000, 88.500000) scale(-1, 1) translate(-125.000000, -88.500000) " points="0.626566416 142.890625 53.2390371 65.7097666 53.2390371 65.7097666 53.2390371 65.7097666 89.4070518 34.148101 89.4559936 34.109375 89.4804646 34.148101 178.016241 133.32531 177.942828 133.32531 200.284775 95.4513116 200.309246 95.4125857 200.333717 95.4513116 249.373434 137.275359 200.284775 95.6062155 200.358188 95.6062155 178.040712 133.480214 177.99177 133.557666 177.942828 133.51894 89.3825809 34.3804568 89.4804646 34.3804568 53.3124498 65.9033964 53.3124498 65.8646705"></polygon>
                    <polygon id="Path" transform="translate(125.000000, 92.187500) scale(-1, 1) translate(-125.000000, -92.187500) " points="0.626566416 145.65625 52.4019324 70.7805214 52.4019324 70.7805214 52.4019324 70.7805214 88.9823541 38.7577072 89.0312911 38.71875 89.0802281 38.7577072 174.304047 136.306523 174.206173 136.306523 200.411946 99.3361453 200.460883 99.2971881 200.485352 99.3361453 249.373434 140.786601 200.436415 99.491974 200.50982 99.491974 174.328515 136.501309 174.279578 136.540266 174.230641 136.501309 88.9823541 38.9914504 89.0802281 38.9914504 52.475338 70.9363502 52.475338 70.9363502"></polygon>
                    <polygon id="Path" transform="translate(124.686717, 93.109375) scale(-1, 1) translate(-124.686717, -93.109375) " points="0 144.734375 51.0617121 73.4610541 51.0862374 73.4610541 51.0862374 73.422528 88.1930436 41.5229011 88.2420942 41.484375 88.2666195 41.5229011 170.40191 135.796315 170.303808 135.796315 200.445424 100.313759 200.469949 100.275233 200.519 100.313759 249.373434 140.689132 200.469949 100.50639 200.519 100.467864 170.40191 135.988946 170.352859 136.027472 170.303808 135.988946 88.1685183 41.7540578 88.2666195 41.7540578 51.1352881 73.6151586 51.1598134 73.6151586"></polygon>
                    <polygon id="Path" transform="translate(124.686717, 96.335938) scale(-1, 1) translate(-124.686717, -96.335938) " points="0 146.578125 50.222912 78.2057292 50.2474349 78.2057292 50.2474349 78.2057292 87.7674814 46.1321615 87.8165273 46.09375 87.8655731 46.1321615 166.682194 137.935547 166.584102 137.935547 200.597373 103.672526 200.621896 103.634115 200.646419 103.672526 249.373434 143.313151 200.597373 103.826172 200.670942 103.826172 166.682194 138.127604 166.633148 138.204427 166.584102 138.127604 87.7674814 46.3626302 87.8655731 46.3626302 50.2964807 78.3977865 50.3210036 78.359375"></polygon>
                    <polygon id="Path" transform="translate(124.686717, 98.179688) scale(-1, 1) translate(-124.686717, -98.179688) " points="0 147.5 49.4039395 81.4432492 49.4039395 81.4432492 49.4284576 81.4432492 87.3824518 48.8980273 87.431488 48.859375 87.4805241 48.8980273 162.971705 139.073802 162.873633 139.073802 200.754073 105.716883 200.778591 105.67823 200.803109 105.716883 249.373434 144.987602 200.754073 105.871492 200.803109 105.871492 162.947187 139.305716 162.922669 139.344368 162.873633 139.305716 87.3579337 49.129941 87.4560061 49.129941 49.4774938 81.5978583 49.5020118 81.5978583"></polygon>
                    <polygon id="Path" transform="translate(124.686717, 100.945312) scale(-1, 1) translate(-124.686717, -100.945312) " points="0 149.34375 48.5655497 85.6165469 48.5655497 85.6165469 48.5655497 85.5776414 86.9570949 52.5857805 87.0061262 52.546875 87.0551576 52.624686 159.253817 141.13469 159.155754 141.13469 200.905947 108.648601 200.930462 108.648601 200.954978 108.648601 249.373434 147.593003 200.905947 108.843128 200.954978 108.843128 159.229301 141.368123 159.18027 141.407029 159.155754 141.368123 86.9570949 52.8192135 87.0551576 52.8192135 48.6390968 85.7721689 48.6390968 85.7721689"></polygon>
                    <polygon id="Path" transform="translate(124.686717, 102.328125) scale(-1, 1) translate(-124.686717, -102.328125) " points="0 149.34375 47.7471445 88.518255 47.7471445 88.518255 47.7471445 88.518255 86.5723381 55.3512918 86.6213598 55.3125 86.6703815 55.3900835 155.545883 141.469021 155.447839 141.430229 201.038029 110.164062 201.062539 110.125271 201.08705 110.164062 249.373434 148.373956 201.038029 110.31923 201.08705 110.31923 155.521372 141.66298 155.47235 141.701771 155.423328 141.66298 86.5478272 55.5840424 86.6458706 55.6228342 47.8206771 88.7122138 47.8206771 88.673422"></polygon>
                    <polygon id="Path" transform="translate(124.686717, 106.015625) scale(-1, 1) translate(-124.686717, -106.015625) " points="0 151.1875 46.9091648 93.870176 46.9091648 93.870176 46.9091648 93.870176 86.1716946 60.8820637 86.196203 60.84375 86.2452199 60.8820637 151.805312 143.716325 151.731786 143.678011 201.18983 113.869937 201.214338 113.869937 201.238847 113.869937 249.373434 151.034245 201.18983 114.061506 201.238847 114.061506 151.780803 143.946207 151.756295 143.946207 151.707278 143.907893 86.1471861 61.0736323 86.2452199 61.111946 46.9826901 94.0234309 46.9826901 94.0234309"></polygon>
                    <polygon id="Path" transform="translate(124.686717, 107.859375) scale(-1, 1) translate(-124.686717, -107.859375) " points="0 151.496388 46.0913264 96.9022321 46.0913264 96.9022321 46.0913264 96.8639205 85.7627019 63.6476867 85.8117092 63.609375 85.8607164 63.6476867 148.099934 144.293791 148.026424 144.255479 201.346321 115.560024 201.370824 115.560024 201.395328 115.560024 249.373434 152.109375 201.346321 115.751583 201.370824 115.751583 148.075431 144.523661 148.026424 144.561972 148.00192 144.485349 85.7381983 63.8392451 85.8362128 63.8775568 46.1403336 97.0554789 46.1648373 97.0554789"></polygon>
                    <polygon id="Path" transform="translate(124.686717, 111.546875) scale(-1, 1) translate(-124.686717, -111.546875) " points="0 154.429325 45.2537563 101.485617 45.2537563 101.485617 45.2537563 101.485617 85.3622561 67.3359478 85.4112585 67.296875 85.4357598 67.3359478 144.385699 147.35714 144.312195 147.318067 201.498047 119.185617 201.498047 119.146544 201.522548 119.185617 249.373434 155.796875 201.473545 119.341908 201.522548 119.341908 144.361198 147.591577 144.312195 147.63065 144.263193 147.591577 85.3377549 67.5703849 85.4357598 67.5703849 45.3027588 101.680981 45.3027588 101.641908"></polygon>
                    <polygon id="Path" transform="translate(124.686717, 113.390625) scale(-1, 1) translate(-124.686717, -113.390625) " points="0 154.572828 44.4119877 104.475293 44.4364841 104.475293 44.4364841 104.475293 84.953543 70.1015168 85.0025358 70.0625 85.0515286 70.1015168 140.682871 147.783909 140.609382 147.744893 201.629934 120.745286 201.654431 120.745286 201.678927 120.745286 249.373434 156.71875 201.629934 120.94037 201.678927 120.94037 140.658375 148.057027 140.609382 148.057027 140.560389 148.01801 84.9290466 70.3356174 85.0270322 70.3356174 44.485477 104.63136 44.485477 104.63136"></polygon>
                    <polygon id="Path" transform="translate(124.686717, 116.617188) scale(-1, 1) translate(-124.686717, -116.617188) " points="0 155.672377 43.5748294 108.929461 43.5748294 108.929461 43.5993234 108.929461 84.5532946 74.71041 84.6022826 74.671875 84.6267766 74.7489449 136.970459 149.237038 136.872483 149.198503 201.781588 123.649819 201.806082 123.649819 201.830576 123.649819 249.373434 158.5625 201.781588 123.842494 201.806082 123.842494 136.921471 149.506783 136.872483 149.506783 136.847989 149.468248 84.5288006 74.9416198 84.6267766 74.9416198 43.6483114 109.083601 43.6483114 109.083601"></polygon>
                    <polygon id="Path" transform="translate(124.686717, 118.921875) scale(-1, 1) translate(-124.686717, -118.921875) " points="0 156.672073 42.7581278 112.250923 42.7581278 112.250923 42.7581278 112.250923 84.1448608 77.4763977 84.1938392 77.4375 84.2428176 77.5152954 133.270178 150.526239 133.172222 150.487342 201.93787 125.787315 201.962359 125.748418 201.962359 125.787315 249.373434 160.40625 201.913381 125.942906 201.962359 125.942906 133.2212 150.759626 133.172222 150.798523 133.147732 150.720728 84.1203716 77.7097838 84.2183284 77.7097838 42.8315953 112.445411 42.8315953 112.406514"></polygon>
                    <polygon id="Path" transform="translate(124.686717, 120.765625) scale(-1, 1) translate(-124.686717, -120.765625) " points="0 156.823338 41.9213785 115.231727 41.9213785 115.231727 41.9213785 115.231727 83.7448098 80.2419594 83.7937834 80.203125 83.8427569 80.2807937 129.559587 150.959348 129.46164 150.920514 202.064962 127.348051 202.089449 127.348051 202.113936 127.348051 249.373434 161.328125 202.064962 127.542223 202.089449 127.542223 129.510614 151.192354 129.46164 151.231189 129.412667 151.15352 83.720323 80.4749656 83.8182701 80.4749656 41.970352 115.387065 41.9948388 115.387065"></polygon>
                    <polygon id="Path" transform="translate(125.313283, 125.375000) scale(-1, 1) translate(-125.313283, -125.375000) " points="0.626566416 159.743131 41.6828445 121.013562 83.9632214 85.8119117 84.0121854 85.734375 84.0611493 85.8119117 126.488418 154.160491 126.39049 154.121722 202.847709 131.713623 202.872191 131.713623 202.896673 131.713623 250 165.015625 202.847709 131.907465 202.872191 131.907465 126.414972 154.431869 126.366008 154.431869 126.341526 154.393101 83.9387394 86.0057534 84.0366674 86.0445217 41.7562904 121.168635"></polygon>
                    <path d="M0.626566416,159.822995 L21.1853734,141.44078 L31.4647769,132.269022 L36.6044786,127.702493 L39.1743295,125.419228 C40.0309464,124.64524 40.8875634,123.871252 41.7686551,123.174663 L83.5715626,88.5386994 L83.6205122,88.5 L83.6694617,88.5773988 L122.780144,154.598576 L122.682245,154.559876 L202.983966,133.313906 L203.008441,133.313906 L203.032916,133.313906 L250,165.9375 L202.983966,133.507403 L203.008441,133.507403 L122.731195,154.908171 L122.682245,154.908171 L122.657771,154.830772 L83.5226131,88.693497 L83.6205122,88.7321964 L41.7931299,123.290761 C40.9120382,123.98735 40.0554212,124.761338 39.1988043,125.535326 L36.6289534,127.818591 L31.4892516,132.38512 L21.2098482,141.518178 L0.626566416,159.822995 Z" id="Path" transform="translate(125.313283, 127.218750) scale(-1, 1) translate(-125.313283, -127.218750) "></path>
                    <path d="M0.626566416,161.897754 L21.2098482,144.574992 C28.0627838,138.813627 34.9401942,133.013595 41.8176047,127.290897 L83.1554915,93.1480419 L83.2044411,93.109375 L83.2533906,93.1867088 L119.059979,156.948394 L118.96208,156.909727 L203.130815,136.764282 L203.15529,136.764282 L203.179765,136.764282 L250,168.703125 L203.130815,136.91895 L203.15529,136.91895 L119.01103,157.180395 L118.96208,157.180395 L118.937606,157.103061 L83.1554915,93.3027094 L83.2533906,93.3413763 L41.891029,127.406897 L0.626566416,161.897754 Z" id="Path" transform="translate(125.313283, 130.906250) scale(-1, 1) translate(-125.313283, -130.906250) "></path>
                    <polygon id="Path" transform="translate(125.313283, 133.210938) scale(-1, 1) translate(-125.313283, -133.210938) " points="0.626566416 162.888221 21.2567729 146.437745 31.55964 138.232045 36.7233097 134.129194 39.2929084 132.058232 41.8625071 129.948195 82.7558346 95.9140748 82.8047794 95.875 82.8537241 95.9531495 115.353029 158.160175 115.279612 158.082025 203.282249 138.857241 203.306721 138.857241 203.331194 138.857241 250 170.546875 203.282249 139.052615 203.306721 139.052615 115.304085 158.433698 115.230667 158.433698 115.206195 158.355548 82.7313623 96.1094486 82.8292517 96.1485234 41.9114518 130.104494 39.3418532 132.214531 36.7722545 134.285494 31.6085848 138.388344 21.2812453 146.55497"></polygon>
                    <polygon id="Path" transform="translate(125.313283, 135.515625) scale(-1, 1) translate(-125.313283, -135.515625) " points="0.626566416 163.149655 21.3016598 148.052039 31.6269727 140.50323 36.7896291 136.728826 38.0864101 135.765968 38.428956 135.534882 38.7225668 135.303796 39.3587235 134.764596 41.9033504 132.684822 82.3482372 99.6010143 82.4216399 99.5625 82.4461074 99.6395287 111.660381 158.759022 111.562511 158.681993 203.438222 140.811345 203.462689 140.811345 203.462689 140.849859 250 171.46875 203.413754 141.003917 203.462689 141.003917 111.586979 159.028622 111.538043 159.028622 111.513576 158.951593 82.3237696 99.793586 82.4216399 99.8321003 41.9522855 132.877394 39.4076587 134.918653 38.7715019 135.457854 38.4534236 135.688939 38.1353452 135.920025 36.8385642 136.882884 31.6759078 140.618773 21.3261273 148.129067"></polygon>
                    <path d="M0.626566416,165.898684 L20.7144382,150.993421 L30.7461403,143.540789 L35.7619913,139.814474 L37.0098372,138.882895 L37.3279156,138.65 L37.6459939,138.378289 L38.2576831,137.873684 L40.7044397,135.855263 L80.0482859,103.288816 L80.0972211,103.25 L80.1461562,103.327632 L95.438385,131.391447 L103.096733,145.403947 C104.369047,147.732895 105.616893,150.100658 106.889206,152.468421 L110.657211,159.571711 L110.559341,159.532895 L181.833361,148.159868 L199.621281,144.782895 L201.84783,144.394737 C202.214843,144.355921 202.581857,144.239474 202.973338,144.239474 C203.169079,144.278289 203.340351,144.394737 203.536092,144.472368 C203.707365,144.55 203.903105,144.666447 204.074378,144.744079 C205.493497,145.520395 206.888149,146.335526 208.2828,147.189474 C211.072102,148.858553 213.861405,150.566447 216.650707,152.274342 C222.229312,155.728947 227.78345,159.222368 233.337587,162.715789 C238.891725,166.209211 244.445862,169.702632 250,173.3125 C244.445862,169.741447 238.891725,166.286842 233.31312,162.793421 C227.758982,159.3 222.180377,155.845395 216.601772,152.429605 C213.81247,150.721711 211.023167,149.013816 208.233865,147.344737 C206.839213,146.529605 205.444562,145.675658 204.025443,144.938158 C203.682897,144.744079 203.315884,144.55 202.973338,144.433553 C202.630792,144.433553 202.239311,144.55 201.872298,144.588816 L199.645749,145.015789 L181.857828,148.431579 L110.583808,159.921053 L110.534873,159.921053 L110.510406,159.843421 L106.742401,152.740132 C105.494555,150.372368 104.246709,148.004605 102.974395,145.675658 L95.3405147,131.624342 L80.0727535,103.560526 L80.1706238,103.599342 L40.7533748,136.010526 L38.2821506,138.028947 L37.6704615,138.533553 L37.3523831,138.805263 L37.0343048,139.038158 L35.7864589,139.969737 L30.7706078,143.696053 L20.7144382,151.109868 L0.626566416,165.898684 Z" id="Path" transform="translate(125.313283, 138.281250) scale(-1, 1) translate(-125.313283, -138.281250) "></path>
                    <path d="M0.626566416,168.925775 L20.131044,154.3364 L29.8710466,147.061062 L34.7410479,143.423393 L35.9646663,142.533326 L36.2583347,142.301134 L36.5520032,142.068942 L37.13934,141.56586 L39.5376321,139.592232 L77.7389991,107.898074 L77.7879439,107.859375 L77.8368886,107.936772 L93.8173451,134.135728 L101.81981,147.254555 C103.16579,149.421677 104.438353,151.704895 105.735389,153.949414 L109.602023,160.682972 L109.528606,160.644273 L181.1837,151.782292 C187.130486,150.698731 193.077271,149.576472 199.048529,148.531609 L201.275515,148.144623 C201.6426,148.067226 202.009686,148.028528 202.401244,147.989829 C202.597022,147.989829 202.792801,148.067226 202.964108,148.105925 C203.159887,148.183322 203.331194,148.222021 203.5025,148.299418 C204.94637,148.918595 206.365767,149.653869 207.809637,150.427841 C210.648432,151.937087 213.487226,153.52373 216.301549,155.110372 C221.954666,158.322357 227.583311,161.611738 233.187483,164.978517 L241.605978,170.009335 L245.815225,172.563443 C247.21015,173.414813 248.629547,174.266182 250,175.15625 C248.605075,174.266182 247.21015,173.414813 245.815225,172.563443 L241.605978,170.048034 L233.187483,165.055914 C227.558838,161.766532 221.930193,158.477151 216.277076,155.265167 C213.462754,153.678524 210.623959,152.091881 207.785165,150.582635 C206.365767,149.847362 204.94637,149.07339 203.5025,148.492911 C203.331194,148.415514 203.135415,148.338116 202.964108,148.299418 C202.792801,148.222021 202.597022,148.183322 202.425716,148.183322 C202.05863,148.222021 201.691545,148.260719 201.299987,148.338116 L199.073001,148.725102 C193.126216,149.769965 187.17943,150.892224 181.208173,152.014484 L109.553078,160.953862 L109.504133,160.953862 L109.479661,160.915163 L105.613027,154.181606 C104.315991,151.937087 103.043428,149.653869 101.697448,147.486747 L93.7194557,134.290523 L77.7634715,108.052868 L77.861361,108.091567 L39.6110492,139.708327 L37.2127571,141.681956 L36.6254203,142.185038 L36.3317519,142.41723 L36.0380834,142.649421 L34.814465,143.539489 L29.9444637,147.177158 L20.1799887,154.413797 L0.626566416,168.925775 Z" id="Path" transform="translate(125.313283, 141.507812) scale(-1, 1) translate(-125.313283, -141.507812) "></path>
                    <path d="M0.626566416,171.911514 L19.539995,157.686884 L28.9844755,150.593843 L33.7067158,147.047323 L34.8811589,146.160693 C35.0768995,146.006496 35.27264,145.8523 35.4683805,145.698103 L36.0556021,145.235514 L38.3800209,143.308057 L75.4483835,112.507299 L75.4973186,112.46875 L75.5462538,112.507299 L92.2086663,136.870352 L100.552106,149.051878 C101.971225,151.017884 103.268006,153.215184 104.589255,155.335387 L108.577468,161.734543 L108.504065,161.695994 L180.512112,155.373936 C186.482198,154.29456 192.452285,153.215184 198.446838,152.251456 C199.205333,152.135809 199.93936,152.020161 200.697854,151.904514 C201.064868,151.865965 201.456349,151.788866 201.823362,151.750317 C202.214843,151.750317 202.581857,151.865965 202.94887,151.943063 C204.416924,152.405653 205.860511,153.099537 207.328565,153.754872 C210.215738,155.104092 213.078443,156.568959 215.941148,158.033826 C221.666558,161.002109 227.343034,164.124589 233.019509,167.285618 C235.857747,168.866133 238.695984,170.446647 241.534222,172.065711 L245.767111,174.494306 L247.895789,175.727879 C248.605349,176.151919 249.314908,176.53741 250,177 C249.314908,176.53741 248.605349,176.151919 247.895789,175.727879 L245.767111,174.494306 L241.509755,172.10426 C238.671517,170.523746 235.833279,168.943231 232.995042,167.362717 C227.318566,164.240237 221.617623,161.156306 215.892213,158.188023 C213.029508,156.723156 210.166802,155.258289 207.27963,153.909069 C205.836043,153.253734 204.392457,152.598398 202.924403,152.135809 C202.557389,152.020161 202.190376,151.904514 201.823362,151.943063 C201.456349,151.981612 201.064868,152.020161 200.697854,152.09726 C199.93936,152.212907 199.205333,152.328554 198.446838,152.444202 C192.476752,153.446479 186.506666,154.525855 180.512112,155.605231 L108.504065,162.042936 L108.45513,162.042936 L108.430663,162.004387 L104.466917,155.528132 C103.121201,153.40793 101.848887,151.210629 100.429768,149.244624 L92.110796,137.063097 L75.4483835,112.700045 L75.5462538,112.700045 L38.428956,143.423704 L36.1045372,145.351161 L35.5173157,145.813751 C35.3215751,145.967947 35.1258346,146.122144 34.9300941,146.27634 L33.7556509,147.16297 L29.0334106,150.709491 L19.5644626,157.763982 L0.626566416,171.911514 Z" id="Path" transform="translate(125.313283, 144.734375) scale(-1, 1) translate(-125.313283, -144.734375) "></path>
                </g>
            </g>
        </g>
    </g>
</svg>