<?xml version="1.0" encoding="UTF-8"?>
<svg width="398px" height="189px" viewBox="0 0 398 189" version="1.1" xmlns="http://www.w3.org/2000/svg" xmlns:xlink="http://www.w3.org/1999/xlink">
    <!-- Generator: sketchtool 52.3 (67297) - http://www.bohemiancoding.com/sketch -->
    <title>20C93D87-6C64-4075-A2E3-9336392E8626</title>
    <desc>Created with sketchtool.</desc>
    <g id="token" stroke="none" stroke-width="1" fill="none" fill-rule="evenodd">
        <g id="Desktop_Token" transform="translate(-246.000000, -2231.000000)" fill="#28BDE3">
            <g id="Group-37" transform="translate(246.000000, 2231.000000)">
                <polygon id="Path" transform="translate(199.000000, 49.000000) scale(-1, 1) translate(-199.000000, -49.000000) " points="0 98 33.335818 96.52979 33.2967831 96.571796 111.483719 0.0840120017 111.561789 0 111.639859 0.0840120017 234.131424 78.1311616 234.014319 78.1311616 284.720675 41.1658808 284.798745 41.1238748 284.876814 41.2078868 339.877011 92.1191599 339.798941 92.1191599 398 65.2353193 339.877011 92.2871839 339.837976 92.2871839 339.798941 92.2451779 284.720675 41.3759108 284.876814 41.3759108 234.170459 78.3831976 234.092389 78.4672096 234.014319 78.3831976 111.522754 0.294042006 111.678894 0.294042006 33.335818 96.613802 33.335818 96.613802 33.335818 96.613802"></polygon>
                <path d="M0,101 L32.5192742,98.6352636 L32.4802354,98.6352636 L109.972143,5.08297321 L110.050221,5 L110.128298,5.0414866 L141.515449,22.3828868 L157.209024,31.0535869 L161.151937,33.2108902 L164.938695,35.6171132 L172.551251,40.4295592 L233.295537,79.1780467 L233.139382,79.1780467 L284.163021,47.0674157 L284.241099,47.0259291 L284.319176,47.0674157 L291.03384,53.1244598 L291.853654,53.8712187 L292.712506,54.5764909 L294.46925,55.9870354 L297.982737,58.8081245 L312.036685,70.0509939 L326.090633,81.2938634 C327.300834,82.2065687 328.393919,83.2437338 329.526042,84.2394123 L332.883374,87.2264477 L339.637077,93.2420052 L339.559,93.2420052 L398,70.1754538 L339.598038,93.4079516 L339.559,93.4079516 L339.519961,93.366465 L332.766258,87.3923941 L329.408926,84.4053587 C328.276802,83.4096802 327.183718,82.3725151 325.973516,81.4598099 L311.919568,70.258427 L297.86562,59.0570441 L294.352133,56.2359551 L292.59539,54.8254105 L291.736538,54.1201383 L290.916724,53.3733794 L284.20206,47.3163354 L284.319176,47.3163354 L233.295537,79.5099395 L233.21746,79.5514261 L233.139382,79.5099395 L172.395096,40.8029386 L164.821579,35.9490061 L161.034821,33.5427831 L157.130947,31.3854797 L141.437371,22.7147796 L110.050221,5.33189283 L110.206376,5.29040622 L32.5192742,98.7182368 L0,101 Z" id="Path" transform="translate(199.000000, 53.000000) scale(-1, 1) translate(-199.000000, -53.000000) "></path>
                <polygon id="Path" transform="translate(199.000000, 56.000000) scale(-1, 1) translate(-199.000000, -56.000000) " points="0 104 31.7056804 100.653595 31.666634 100.695425 108.470911 8.08366013 108.509958 8 108.588051 8.04183007 160.090258 32.8470588 160.129304 32.8470588 160.129304 32.8470588 232.443245 79.7803922 232.28706 79.7803922 283.633082 51.7960784 283.711174 51.7542484 283.750221 51.7960784 291.403316 58.6980392 291.403316 58.6980392 326.779358 83.0849673 326.779358 83.1267974 326.779358 83.1267974 339.391347 94.1281046 339.313254 94.0862745 398 74.3006536 339.352301 94.2535948 339.313254 94.2954248 339.274208 94.2535948 326.662219 83.2522876 326.662219 83.2522876 291.286177 58.9071895 291.286177 58.9071895 291.286177 58.9071895 283.594035 52.0052288 283.711174 52.0052288 232.404199 80.0732026 232.365153 80.1150327 232.28706 80.0732026 159.973119 33.1398693 159.973119 33.1398693 108.509958 8.29281046 108.627097 8.25098039 31.7056804 100.737255 31.7056804 100.737255 31.7056804 100.737255"></polygon>
                <polygon id="Path" transform="translate(199.000000, 60.000000) scale(-1, 1) translate(-199.000000, -60.000000) " points="0 108 30.8917672 103.697715 30.8527132 103.697715 106.96909 12.0843585 107.008144 12 107.086253 12.0421793 158.989108 33.3427065 158.989108 33.3427065 158.989108 33.3427065 231.590619 81.3427065 231.434403 81.3427065 283.102934 57.5536028 283.141988 57.5536028 283.220096 57.5957821 290.952801 64.513181 290.913747 64.513181 326.335786 85.0123023 326.335786 85.0123023 326.335786 85.0123023 339.145521 96.0210896 339.067412 95.9789104 398 79.5711775 339.106466 96.1476274 339.067412 96.1898067 339.028358 96.1476274 326.218624 85.1810193 326.257678 85.1810193 290.835639 64.7240773 290.796585 64.7240773 290.796585 64.7240773 283.06388 57.7644991 283.181042 57.8066784 231.551565 81.6379613 231.512511 81.6801406 231.434403 81.6379613 158.871946 33.6379613 158.871946 33.6379613 107.008144 12.2952548 107.125307 12.2530756 30.8917672 103.782074 30.8917672 103.782074 30.8917672 103.782074"></polygon>
                <polygon id="Path" transform="translate(199.000000, 63.500000) scale(-1, 1) translate(-199.000000, -63.500000) " points="0 111 30.0775346 105.738591 30.0384729 105.780682 105.427618 16.0841825 105.505741 16 105.583865 16.0420913 157.848464 33.5520603 157.887526 33.5941515 157.887526 33.5941515 230.737658 82.167479 230.620473 82.167479 282.533517 62.8896766 282.61164 62.8475853 282.650702 62.8896766 290.50211 69.8347364 290.463048 69.7926451 325.89204 86.1661498 325.89204 86.1661498 325.89204 86.1661498 338.899598 96.9836066 338.860536 96.9836066 398 84.1036774 338.860536 97.1519716 338.821474 97.1519716 338.821474 97.1519716 325.774855 86.3345148 325.813917 86.3345148 290.384925 70.0451927 290.345863 70.0031015 290.345863 70.0031015 282.494455 63.1001329 282.61164 63.1001329 230.698597 82.4621179 230.620473 82.5042091 230.581411 82.4621179 157.731279 33.8466992 157.770341 33.8887904 105.505741 16.2946389 105.622927 16.2525476 30.0775346 105.822774 30.0775346 105.822774 30.0775346 105.822774"></polygon>
                <polygon id="Path" transform="translate(199.000000, 67.000000) scale(-1, 1) translate(-199.000000, -67.000000) " points="0 114 29.2210444 107.825737 29.2210444 107.825737 103.914409 20.0840036 103.953475 20 104.031606 20.0420018 156.731056 33.818588 156.731056 33.818588 156.770122 33.8605898 229.861798 83.0446828 229.744601 83.002681 281.975265 68.17605 282.014331 68.1340483 282.092462 68.17605 289.983706 75.106345 289.944641 75.0643432 325.416176 87.2868633 325.416176 87.2868633 325.416176 87.3288651 338.620338 97.997319 338.581272 97.997319 398 88.6309205 338.581272 98.1653262 338.581272 98.1653262 338.542207 98.1653262 325.338045 87.4968722 325.338045 87.4968722 289.905575 75.3163539 289.86651 75.3163539 289.86651 75.2743521 281.936199 68.386059 282.053396 68.4280608 229.822733 83.2966935 229.744601 83.3386953 229.705536 83.2966935 156.613859 34.1126005 156.652925 34.1546023 103.99254 20.2940125 104.109737 20.2520107 29.2601099 107.909741 29.2601099 107.909741 29.2601099 107.909741"></polygon>
                <polygon id="Path" transform="translate(199.000000, 71.000000) scale(-1, 1) translate(-199.000000, -71.000000) " points="0 118 28.4062439 110.798558 28.4062439 110.840919 102.410956 24.0423614 102.450029 24 102.528176 24 155.589633 34.2091032 155.628706 34.2091032 155.667779 34.2514646 229.008247 84.534475 228.891027 84.4921136 281.444532 73.9864804 281.483605 73.9864804 281.522678 74.0288418 289.532692 80.9761154 289.493619 80.9761154 324.972119 89.1518702 324.972119 89.1518702 324.972119 89.1518702 338.413312 99.8269491 338.335166 99.8269491 398 93.9387111 338.374239 99.9963948 338.335166 99.9963948 338.296093 99.9963948 324.893972 89.3213159 324.933045 89.3636773 289.454545 81.1879225 289.415472 81.1879225 289.376399 81.1879225 281.405458 74.1982875 281.483605 74.2406489 228.969173 84.7886435 228.891027 84.831005 228.851954 84.7886435 155.511486 34.5056332 155.55056 34.5479946 102.489103 24.29653 102.567249 24.2541685 28.4453171 110.883281 28.4453171 110.883281 28.4453171 110.883281"></polygon>
                <polygon id="Path" transform="translate(199.000000, 73.500000) scale(-1, 1) translate(-199.000000, -73.500000) " points="0 120 27.5911233 111.883636 27.5911233 111.883636 100.906913 27.0422727 100.945994 27 100.985075 27 154.486842 33.4677273 154.525923 33.4677273 154.525923 33.4677273 228.15436 84.3640909 228.076198 84.3218182 280.91359 78.3190909 280.952671 78.2768182 280.991752 78.3190909 289.0815 85.2940909 289.003339 85.2518182 324.488806 89.31 324.527887 89.31 324.566968 89.31 338.167125 99.8359091 338.128044 99.8359091 398 97.4686364 338.128044 100.005 338.088963 100.005 338.049882 100.005 324.449725 89.4790909 324.488806 89.4790909 289.003339 85.5054545 288.964258 85.5054545 288.925177 85.4631818 280.835428 78.5304545 280.91359 78.5727273 228.115279 84.66 228.037117 84.66 227.998036 84.6177273 154.369599 33.7636364 154.447761 33.7636364 100.985075 27.2536364 101.063236 27.2113636 27.6302042 111.968182 27.6302042 111.968182 27.6302042 111.968182"></polygon>
                <polygon id="Path" transform="translate(199.000000, 78.000000) scale(-1, 1) translate(-199.000000, -78.000000) " points="0 124 26.7730531 114.930766 26.7730531 114.972948 99.3925169 32.0421825 99.4316017 32 99.4706864 32 153.329471 34.7418615 153.368555 34.7418615 153.40764 34.7418615 227.277816 86.2044934 227.199646 86.1623109 280.31582 84.6015589 280.354905 84.6015589 280.39399 84.6437414 288.562703 91.561669 288.523618 91.5194865 324.01257 91.4351215 324.051655 91.4351215 324.090739 91.477304 337.887656 101.854195 337.848571 101.854195 398 102.993122 337.848571 102.022925 337.809486 102.022925 337.809486 102.022925 323.973485 91.6460339 324.01257 91.6460339 288.523618 91.7725814 288.484533 91.7725814 288.445448 91.7303989 280.276736 84.8124713 280.354905 84.8546538 227.199646 86.4997707 227.160562 86.4997707 227.121477 86.4575883 153.251301 35.0371389 153.329471 35.0371389 99.4706864 32.2530949 99.5488559 32.2109124 26.8121379 115.015131 26.8121379 115.015131 26.8121379 115.015131"></polygon>
                <polygon id="Path" transform="translate(199.000000, 81.000000) scale(-1, 1) translate(-199.000000, -81.000000) " points="0 127 25.9208251 117.025618 25.9208251 117.025618 97.8188605 36.05215 97.8579568 36.010064 97.897053 36.010064 152.201768 35 152.240864 35 152.279961 35.042086 226.406483 87.0603843 226.367387 87.0603843 279.772888 89.8801464 279.811984 89.8801464 279.851081 89.9222324 288.100393 96.8243367 288.0222 96.8243367 323.560707 92.6157365 323.599804 92.6157365 323.6389 92.6578225 337.635363 102.884721 337.596267 102.842635 398 107.556267 337.596267 103.053065 337.557171 103.053065 337.557171 103.010979 323.521611 92.8261665 323.599804 92.8261665 288.061297 97.0347667 287.983104 97.0347667 287.983104 97.0347667 279.694695 90.1326624 279.772888 90.1326624 226.328291 87.3549863 226.289194 87.3549863 226.250098 87.3129003 152.123576 35.294602 152.201768 35.336688 97.9361493 36.2625801 98.0143418 36.2204941 25.9599214 117.10979 25.9599214 117.10979 25.9599214 117.10979"></polygon>
                <polygon id="Path" transform="translate(199.000000, 82.500000) scale(-1, 1) translate(-199.000000, -82.500000) " points="0 130 25.1047357 119.088692 25.1047357 119.088692 96.3130281 39.7605322 96.352132 39.7184035 96.391236 39.7184035 151.058558 35 151.136766 35 151.17587 35.0421286 225.551582 87.7871397 225.512478 87.7871397 279.241305 95.075388 279.280409 95.075388 279.280409 95.075388 287.648654 101.984479 287.531342 101.984479 323.115936 93.6851441 323.15504 93.6851441 323.194144 93.6851441 337.427982 103.838137 337.388878 103.796009 398 112.011086 337.349774 104.006652 337.349774 104.006652 337.31067 103.964523 323.076832 93.8536585 323.15504 93.8957871 287.60955 102.237251 287.531342 102.237251 287.492238 102.195122 279.163097 95.286031 279.202201 95.3281596 225.473374 88.0820399 225.43427 88.0820399 225.395166 88.0399113 151.019454 35.2949002 151.097662 35.3370288 96.4303399 39.9711752 96.4694439 39.9290466 25.1438397 119.13082 25.1438397 119.13082 25.1438397 119.13082"></polygon>
                <polygon id="Path" transform="translate(199.000000, 84.500000) scale(-1, 1) translate(-199.000000, -84.500000) " points="0 133 24.2859389 121.229776 24.2859389 121.229776 94.797288 44.3476764 94.8363958 44.3476764 94.8755036 44.3476764 149.939275 36 149.978383 36 150.01749 36.0417384 224.713373 88.9660069 224.635158 88.9660069 278.682126 100.569277 278.682126 100.569277 278.721234 100.611015 287.129409 107.45611 287.051194 107.414372 322.639285 95.1432874 322.678392 95.1015491 322.7175 95.1432874 337.148276 105.077022 337.109168 105.035284 398 116.638554 337.07006 105.243976 337.07006 105.243976 337.030952 105.202238 322.600177 95.310241 322.678392 95.310241 287.129409 107.664802 287.051194 107.664802 287.012086 107.623064 278.564803 100.819707 278.643019 100.819707 224.59605 89.2581756 224.556942 89.2581756 224.556942 89.2581756 149.861059 36.2921687 149.978383 36.3339071 94.8755036 44.5981067 94.9537192 44.5563683 24.3250467 121.313253 24.3250467 121.313253 24.3250467 121.313253"></polygon>
                <polygon id="Path" transform="translate(199.000000, 86.000000) scale(-1, 1) translate(-199.000000, -86.000000) " points="0 136 23.4692875 123.296281 23.4692875 123.296281 93.2904177 48.0351024 93.2904177 48.0351024 93.3295332 48.0351024 148.795283 36 148.873514 36 148.912629 36.0417885 223.857887 89.6982867 223.818771 89.6982867 278.111057 105.74509 278.150172 105.74509 278.150172 105.74509 286.677346 112.598412 286.56 112.598412 322.194201 96.1755119 322.233317 96.1755119 322.272432 96.2173005 336.901622 105.995821 336.862506 105.995821 398 121.123276 336.823391 106.204764 336.823391 106.162975 336.823391 106.162975 322.155086 96.3844547 322.272432 96.3844547 286.677346 112.807355 286.599115 112.849143 286.56 112.807355 278.032826 105.954033 278.071941 105.954033 223.740541 89.9908065 223.701425 89.9908065 223.701425 89.9908065 148.756167 36.2925198 148.873514 36.2925198 93.3686486 48.2440451 93.4468796 48.2440451 23.5084029 123.338069 23.5084029 123.338069 23.5084029 123.338069"></polygon>
                <polygon id="Path" transform="translate(199.000000, 88.000000) scale(-1, 1) translate(-199.000000, -88.000000) " points="0 140 22.652315 126.18684 22.652315 126.18684 91.7829549 51.8830219 91.7829549 51.8830219 91.822078 51.8407799 147.689964 36 147.729087 36 147.807333 36.0422421 223.002064 90.9991877 222.962941 90.9569456 277.578885 111.613323 277.618008 111.613323 277.618008 111.613323 286.225106 118.541024 286.107736 118.541024 321.748943 97.8424045 321.788066 97.8424045 321.82719 97.8424045 336.654871 107.642567 336.654871 107.642567 398 126.440292 336.615748 107.811535 336.576624 107.811535 336.576624 107.811535 321.748943 98.0536149 321.82719 98.0536149 286.225106 118.752234 286.146859 118.794476 286.068613 118.752234 277.461516 111.824533 277.500639 111.866775 222.884695 91.2526401 222.845572 91.2526401 222.845572 91.2526401 147.65084 36.2956946 147.76821 36.2956946 91.8612012 52.0942323 91.9394476 52.0519903 22.6914381 126.271324 22.6914381 126.271324 22.6914381 126.271324"></polygon>
                <polygon id="Path" transform="translate(199.000000, 90.000000) scale(-1, 1) translate(-199.000000, -90.000000) " points="0 143 21.8328746 128.389415 21.8328746 128.389415 90.2268974 56.4668246 90.2660244 56.4668246 90.3051514 56.4249605 146.530672 37.0418641 146.608926 37 146.68718 37.0418641 222.124066 92.2187994 222.084939 92.1769352 277.019269 117.044234 277.019269 117.086098 277.058396 117.086098 285.744593 123.951817 285.588085 123.909953 321.271923 99.335703 321.31105 99.2938389 321.350177 99.335703 336.374951 108.922591 336.374951 108.922591 398 131.026856 336.335824 109.090047 336.296697 109.090047 336.296697 109.090047 321.271923 99.5031596 321.350177 99.5031596 285.705466 124.119273 285.666339 124.203002 285.588085 124.119273 276.901888 117.295419 276.941015 117.295419 221.967558 92.4699842 221.967558 92.4699842 221.967558 92.4699842 146.530672 37.293049 146.648053 37.3349131 90.3442784 56.6761453 90.3834054 56.6342812 21.8720016 128.43128 21.8720016 128.43128 21.8720016 128.43128"></polygon>
                <polygon id="Path" transform="translate(199.000000, 91.500000) scale(-1, 1) translate(-199.000000, -91.500000) " points="0 146 21.0153392 130.374712 21.0153392 130.374712 88.7183874 60.1656418 88.7575221 60.123751 88.7575221 60.123751 145.424582 37.0418909 145.502852 37 145.541986 37.0418909 221.26765 92.924289 221.26765 92.8823982 276.486726 122.205995 276.486726 122.205995 276.486726 122.205995 285.252901 129.076095 285.135497 129.076095 320.826352 100.380861 320.865487 100.33897 320.904621 100.380861 336.167158 109.848194 336.128024 109.848194 398 135.485396 336.088889 110.015757 336.088889 110.015757 336.088889 110.015757 320.826352 100.548424 320.904621 100.548424 285.252901 129.28555 285.213766 129.32744 285.135497 129.28555 276.330187 122.41545 276.369322 122.41545 221.111111 93.1756341 221.111111 93.1756341 221.111111 93.1756341 145.385447 37.293236 145.502852 37.3351268 88.8357915 60.3750961 88.8749263 60.3332052 21.0544739 130.458493 21.0544739 130.458493 21.0544739 130.458493"></polygon>
                <polygon id="Path" transform="translate(199.000000, 93.000000) scale(-1, 1) translate(-199.000000, -93.000000) " points="0 149 20.1974823 132.436915 20.1974823 132.436915 87.209284 63.8783227 87.209284 63.8363909 87.2484264 63.8363909 144.318057 37.0419319 144.357199 37 144.435484 37.0419319 220.410897 93.6499438 220.410897 93.6499438 275.914831 127.36316 275.953973 127.36316 275.953973 127.36316 284.800157 134.239985 284.643588 134.239985 320.380606 101.44927 320.419748 101.407338 320.458891 101.407338 335.920142 110.800075 335.920142 110.800075 398 139.942718 335.841857 110.967802 335.841857 110.967802 335.841857 110.967802 320.380606 101.616997 320.498033 101.575066 284.800157 134.449644 284.721873 134.491576 284.68273 134.449644 275.797404 127.614751 275.797404 127.614751 220.254327 93.9434669 220.254327 93.901535 220.254327 93.901535 144.278914 37.293523 144.396341 37.293523 87.3267113 64.0460502 87.3658537 64.0460502 20.2366247 132.478847 20.2366247 132.478847 20.2366247 132.478847"></polygon>
                <path d="M1,153 L12.0896036,142.878058 L17.6344054,137.795911 L20.4068063,135.254838 L23.0620635,132.544359 L44.1869775,110.945235 L86.4758533,67.8316904 L143.798171,37.0423512 L143.876266,37 L143.954362,37.0423512 L213.53772,89.9390288 L217.872037,93.2424242 L220.058719,94.8941219 L222.28445,96.4611172 L231.226419,102.644396 L249.110357,115.010953 L266.994295,127.37751 C269.961936,129.45272 272.968624,131.485579 275.936264,133.60314 L284.56585,140.294633 L284.409659,140.294633 L320.060391,103.025557 L320.099439,102.983206 L320.177535,103.025557 L329.705223,108.742972 L334.469067,111.580504 L335.679551,112.300475 C336.07003,112.512231 336.499557,112.723987 336.890036,112.935743 L339.350054,114.248631 L358.913052,124.624681 L398,145.37678 L358.834956,124.751734 L339.271958,114.460387 L336.811941,113.18985 C336.421462,112.978094 335.991935,112.766338 335.601456,112.554582 L334.390971,111.834611 L329.627127,108.997079 L320.099439,103.279664 L320.216583,103.279664 L284.604898,140.591092 L284.526802,140.675794 L284.448707,140.633443 L275.819121,133.94195 C272.85148,131.86674 269.844792,129.79153 266.877152,127.758671 L248.954165,115.392114 L231.031179,103.025557 L222.08921,96.8422782 L219.86348,95.2752829 L217.676797,93.6235853 L213.342481,90.3201899 L143.798171,37.381161 L143.954362,37.381161 L86.6320449,68.128149 L86.6710928,68.128149 L44.3041212,111.072289 L23.1401593,132.58671 L20.4849021,135.297189 L17.7125012,137.838262 L12.1676994,142.878058 L1,153 Z" id="Path" transform="translate(199.500000, 95.000000) scale(-1, 1) translate(-199.500000, -95.000000) "></path>
                <polygon id="Path" transform="translate(199.500000, 96.000000) scale(-1, 1) translate(-199.500000, -96.000000) " points="1 155 84.9695032 71.2783909 84.9695032 71.2783909 84.9695032 71.2783909 142.693655 37.0420078 142.771766 37 142.810821 37.0420078 284.11392 144.624066 283.996754 144.624066 319.654501 103.540406 319.693556 103.498398 319.732612 103.540406 398 148.908864 319.654501 103.708437 319.771667 103.708437 284.152976 144.792097 284.074865 144.876112 283.996754 144.834105 142.654599 37.2940548 142.810821 37.2940548 85.0866699 71.48843 85.0866699 71.4464222"></polygon>
                <polygon id="Path" transform="translate(199.500000, 100.000000) scale(-1, 1) translate(-199.500000, -100.000000) " points="1 158 83.6334842 76.7788707 83.6334842 76.7788707 83.6334842 76.7788707 142.015837 42.0422587 142.093941 42 142.172044 42.0422587 278.189258 147.857923 278.033051 147.857923 319.857466 107.754463 319.93557 107.712204 319.974621 107.754463 398 152.717668 319.896518 107.923497 320.013673 107.923497 278.22831 148.069217 278.150207 148.111475 278.072103 148.069217 142.015837 42.2958106 142.172044 42.2958106 83.7506394 76.9479053 83.7506394 76.9479053"></polygon>
                <polygon id="Path" transform="translate(199.000000, 101.000000) scale(-1, 1) translate(-199.000000, -101.000000) " points="0 157 81.4944925 79.6865672 81.5336349 79.6865672 81.5336349 79.6447761 140.756098 45.041791 140.834382 45 140.873525 45.041791 271.961448 147.304478 271.804878 147.304478 319.910897 108.814925 319.950039 108.773134 320.028324 108.814925 398 152.61194 319.950039 109.023881 320.028324 108.98209 271.961448 147.513433 271.883163 147.555224 271.804878 147.513433 140.716955 45.2925373 140.873525 45.2925373 81.6119197 79.8537313 81.6510622 79.8537313"></polygon>
                <polygon id="Path" transform="translate(199.000000, 104.500000) scale(-1, 1) translate(-199.000000, -104.500000) " points="0 159 80.1557675 84.8333333 80.1949061 84.8333333 80.1949061 84.8333333 140.0769 50.0416667 140.155178 50 140.233455 50.0416667 266.024781 149.625 265.868227 149.625 320.153407 112.458333 320.192546 112.416667 320.231685 112.458333 398 155.458333 320.153407 112.625 320.270823 112.625 266.024781 149.833333 265.946504 149.916667 265.868227 149.833333 140.0769 50.2916667 140.233455 50.2916667 80.2731832 85.0416667 80.3123218 85"></polygon>
                <polygon id="Path" transform="translate(199.000000, 106.500000) scale(-1, 1) translate(-199.000000, -106.500000) " points="0 160 78.8486874 88.3452194 78.8486874 88.3452194 78.8878183 88.3452194 139.462393 53.0419279 139.540655 53 139.618917 53.0419279 260.102841 150.859718 259.946318 150.859718 320.4035 114.67594 320.442631 114.634013 320.481762 114.67594 398 157.274687 320.4035 114.843652 320.481762 114.843652 260.063711 151.111285 260.02458 151.153213 259.946318 151.111285 139.423262 53.2934953 139.579786 53.2934953 78.96608 88.512931 79.0052109 88.512931"></polygon>
                <polygon id="Path" transform="translate(199.000000, 109.500000) scale(-1, 1) translate(-199.000000, -109.500000) " points="0 162 77.5106174 92.8721865 77.5106174 92.8721865 77.5106174 92.8299839 138.783523 57.0422026 138.861777 57 138.940031 57.0844051 254.169092 153.095257 254.012584 153.095257 320.645891 117.856109 320.685018 117.856109 320.724145 117.856109 398 160.100884 320.645891 118.067122 320.724145 118.067122 254.129965 153.348473 254.051711 153.390675 254.012584 153.348473 138.783523 57.295418 138.940031 57.295418 77.6279984 93.0409968 77.6279984 93.0409968"></polygon>
                <polygon id="Path" transform="translate(199.000000, 111.000000) scale(-1, 1) translate(-199.000000, -111.000000) " points="0 162 76.2044427 96.019802 76.2044427 96.019802 76.2044427 96.019802 138.169452 60.0420792 138.24769 60 138.325929 60.0841584 248.251229 153.457921 248.094751 153.415842 320.856694 119.5 320.895813 119.457921 320.934932 119.5 398 160.94802 320.856694 119.668317 320.934932 119.668317 248.212109 153.668317 248.133871 153.710396 248.055632 153.668317 138.130332 60.2945545 138.28681 60.3366337 76.3218007 96.230198 76.3218007 96.1881188"></polygon>
                <polygon id="Path" transform="translate(199.000000, 115.000000) scale(-1, 1) translate(-199.000000, -115.000000) " points="0 164 74.867027 101.825276 74.867027 101.825276 74.867027 101.825276 137.530025 66.0415606 137.56914 66 137.647371 66.0415606 242.281278 155.895674 242.163931 155.854114 321.098968 123.519932 321.138084 123.519932 321.177199 123.519932 398 163.833757 321.098968 123.727735 321.177199 123.727735 242.242162 156.145038 242.203047 156.145038 242.124816 156.103478 137.490909 66.2493639 137.647371 66.2909245 74.9843735 101.991518 74.9843735 101.991518"></polygon>
                <polygon id="Path" transform="translate(199.000000, 117.000000) scale(-1, 1) translate(-199.000000, -117.000000) " points="0 164.335065 73.5617569 105.114286 73.5617569 105.114286 73.5617569 105.072727 136.877272 69.0415584 136.955488 69 137.033703 69.0415584 236.367495 156.522078 236.250172 156.480519 321.348728 125.353247 321.387835 125.353247 321.426943 125.353247 398 165 321.348728 125.561039 321.387835 125.561039 236.328388 156.771429 236.250172 156.812987 236.211064 156.72987 136.838164 69.2493506 136.994596 69.2909091 73.6399725 105.280519 73.6790803 105.280519"></polygon>
                <polygon id="Path" transform="translate(199.000000, 121.000000) scale(-1, 1) translate(-199.000000, -121.000000) " points="0 167.516556 72.2249951 110.086093 72.2249951 110.086093 72.2249951 110.086093 136.238161 73.0423841 136.316369 73 136.355473 73.0423841 230.439576 159.845033 230.322264 159.802649 321.590882 129.286093 321.590882 129.243709 321.629986 129.286093 398 169 321.551778 129.455629 321.629986 129.455629 230.400472 160.099338 230.322264 160.141722 230.244056 160.099338 136.199057 73.2966887 136.355473 73.2966887 72.303203 110.298013 72.303203 110.255629"></polygon>
                <polygon id="Path" transform="translate(199.000000, 123.000000) scale(-1, 1) translate(-199.000000, -123.000000) " points="0 167.67222 70.8815324 113.329131 70.9206287 113.329131 70.9206287 113.329131 135.585855 76.0423233 135.664047 76 135.74224 76.0423233 224.529862 160.307969 224.412574 160.265646 321.801375 130.977938 321.840472 130.977938 321.879568 130.977938 398 170 321.801375 131.189554 321.879568 131.189554 224.490766 160.604232 224.412574 160.604232 224.334381 160.561909 135.546758 76.2962629 135.703143 76.2962629 70.9988212 113.498424 70.9988212 113.498424"></polygon>
                <polygon id="Path" transform="translate(199.000000, 126.500000) scale(-1, 1) translate(-199.000000, -126.500000) " points="0 168.864952 69.5454278 118.160772 69.5454278 118.160772 69.5845202 118.160772 134.947058 81.0418006 135.025243 81 135.064336 81.0836013 218.604852 161.884244 218.448482 161.842444 322.043414 134.128617 322.082507 134.128617 322.121599 134.128617 398 172 322.043414 134.337621 322.082507 134.337621 218.526667 162.176849 218.448482 162.176849 218.40939 162.135048 134.907966 81.2926045 135.064336 81.2926045 69.662705 118.327974 69.662705 118.327974"></polygon>
                <polygon id="Path" transform="translate(199.000000, 129.000000) scale(-1, 1) translate(-199.000000, -129.000000) " points="0 169.949367 68.2419719 121.763713 68.2419719 121.763713 68.2419719 121.763713 134.295198 84.0421941 134.373367 84 134.451537 84.0843882 212.699205 163.2827 212.542866 163.240506 322.292841 136.447257 322.331926 136.405063 322.331926 136.447257 398 174 322.253756 136.616034 322.331926 136.616034 212.621035 163.535865 212.542866 163.578059 212.503781 163.493671 134.256113 84.2953586 134.412452 84.2953586 68.3592262 121.974684 68.3592262 121.932489"></polygon>
                <polygon id="Path" transform="translate(199.000000, 131.000000) scale(-1, 1) translate(-199.000000, -131.000000) " points="0 170.113451 66.90652 124.997128 66.90652 124.997128 66.90652 124.997128 133.656716 87.0421254 133.734878 87 133.81304 87.0842508 206.777101 163.752513 206.620778 163.710388 322.495679 138.140258 322.53476 138.140258 322.573841 138.140258 398 175 322.495679 138.350886 322.53476 138.350886 206.69894 164.005266 206.620778 164.047391 206.542616 163.96314 133.617636 87.2948779 133.773959 87.2948779 66.9846819 125.165629 67.0237628 125.165629"></polygon>
                <polygon id="Path" transform="translate(200.000000, 136.000000) scale(-1, 1) translate(-200.000000, -136.000000) " points="1 173.280685 66.5258198 131.268949 134.005301 93.0841076 134.083448 93 134.161594 93.0841076 201.875515 167.224939 201.719222 167.182885 323.744944 142.875795 323.784017 142.875795 323.823091 142.875795 399 179 323.744944 143.086064 323.784017 143.086064 201.758296 167.519315 201.680149 167.519315 201.641076 167.477262 133.966228 93.2943765 134.122521 93.3364303 66.6430395 131.437164"></polygon>
                <path d="M1,173.367316 L33.8118559,153.427286 L50.2177839,143.478261 L58.4207479,138.524738 L62.5222299,136.047976 C63.8893905,135.208396 65.2565512,134.368816 66.6627736,133.613193 L133.380214,96.041979 L133.458337,96 L133.536461,96.083958 L195.957111,167.70015 L195.800864,167.658171 L323.96241,144.611694 L324.001472,144.611694 L324.040534,144.611694 L399,180 L323.96241,144.821589 L324.001472,144.821589 L195.878987,168.035982 L195.800864,168.035982 L195.761802,167.952024 L133.30209,96.2098951 L133.458337,96.2518741 L66.7018353,133.73913 C65.2956129,134.494753 63.9284523,135.334333 62.5612916,136.173913 L58.4598096,138.650675 L50.2568456,143.604198 L33.8509177,153.511244 L1,173.367316 Z" id="Path" transform="translate(200.000000, 138.000000) scale(-1, 1) translate(-200.000000, -138.000000) "></path>
                <path d="M1,175.617903 L33.8509177,156.82711 C44.788203,150.577494 55.76455,144.285934 66.740897,138.078261 L132.716164,101.041944 L132.794288,101 L132.872411,101.083887 L190.019727,170.249105 L189.86348,170.207161 L324.196781,148.354476 L324.235843,148.354476 L324.274904,148.354476 L399,183 L324.196781,148.522251 L324.235843,148.522251 L189.941604,170.500767 L189.86348,170.500767 L189.824418,170.41688 L132.716164,101.209719 L132.872411,101.251662 L66.8580822,138.204092 L1,175.617903 Z" id="Path" transform="translate(200.000000, 142.000000) scale(-1, 1) translate(-200.000000, -142.000000) "></path>
                <polygon id="Path" transform="translate(200.000000, 144.500000) scale(-1, 1) translate(-200.000000, -144.500000) " points="1 176.692308 33.9258096 158.847724 50.3691855 149.946625 58.6104024 145.496075 62.7114818 143.249608 66.8125613 140.960754 132.078312 104.042386 132.156428 104 132.234544 104.084772 184.103435 171.563579 183.986261 171.478807 324.438469 150.624804 324.477527 150.624804 324.516585 150.624804 399 185 324.438469 150.836735 324.477527 150.836735 184.025319 171.860283 183.908145 171.860283 183.869087 171.77551 132.039254 104.254317 132.195486 104.296703 66.8906771 141.130298 62.7895976 143.419152 58.6885182 145.66562 50.4473013 150.11617 33.9648675 158.974882"></polygon>
                <polygon id="Path" transform="translate(200.000000, 147.000000) scale(-1, 1) translate(-200.000000, -147.000000) " points="1 176.975897 33.997449 160.598822 50.4766484 152.410284 58.716248 148.316015 60.7859105 147.271559 61.3326138 147.020889 61.8012166 146.77022 62.8165228 146.185324 66.8777473 143.929298 131.427786 108.041778 131.544937 108 131.583987 108.083557 178.209969 172.213176 178.053768 172.12962 324.687402 152.74451 324.726452 152.74451 324.726452 152.786288 399 186 324.648352 152.953401 324.726452 152.953401 178.092818 172.505624 178.014717 172.505624 177.975667 172.422067 131.388736 108.25067 131.544937 108.292448 66.9558477 144.13819 62.8946232 146.352437 61.8793171 146.937333 61.3716641 147.188002 60.864011 147.438672 58.7943485 148.483128 50.5547488 152.535619 34.0364992 160.682378"></polygon>
                <path d="M1,179.957895 L33.0602433,163.789474 L49.0708399,155.705263 L57.0761381,151.663158 L59.0677002,150.652632 L59.5753532,150.4 L60.0830063,150.105263 L61.0592622,149.557895 L64.9642857,147.368421 L127.757064,112.042105 L127.835165,112 L127.913265,112.084211 L152.319662,142.526316 L164.542386,157.726316 C166.572998,160.252632 168.56456,162.821053 170.595173,165.389474 L176.608909,173.094737 L176.452708,173.052632 L290.206044,160.715789 L318.595565,157.052632 L322.149137,156.631579 C322.73489,156.589474 323.320644,156.463158 323.945447,156.463158 C324.257849,156.505263 324.531201,156.631579 324.843603,156.715789 C325.116954,156.8 325.429356,156.926316 325.702708,157.010526 C327.967622,157.852632 330.193485,158.736842 332.419349,159.663158 C336.871075,161.473684 341.322802,163.326316 345.774529,165.178947 C354.677983,168.926316 363.542386,172.715789 372.40679,176.505263 C381.271193,180.294737 390.135597,184.084211 399,188 C390.135597,184.126316 381.271193,180.378947 372.367739,176.589474 C363.503336,172.8 354.599882,169.052632 345.696429,165.347368 C341.244702,163.494737 336.792975,161.642105 332.341248,159.831579 C330.115385,158.947368 327.889521,158.021053 325.624608,157.221053 C325.077904,157.010526 324.492151,156.8 323.945447,156.673684 C323.398744,156.673684 322.77394,156.8 322.188187,156.842105 L318.634615,157.305263 L290.245094,161.010526 L176.491758,173.473684 L176.413658,173.473684 L176.374608,173.389474 L170.360871,165.684211 C168.369309,163.115789 166.377747,160.547368 164.347135,158.021053 L152.163462,142.778947 L127.796115,112.336842 L127.952316,112.378947 L65.0423862,147.536842 L61.0983124,149.726316 L60.1220565,150.273684 L59.6144035,150.568421 L59.1067504,150.821053 L57.1151884,151.831579 L49.1098901,155.873684 L33.0602433,163.915789 L1,179.957895 Z" id="Path" transform="translate(200.000000, 150.000000) scale(-1, 1) translate(-200.000000, -150.000000) "></path>
                <path d="M1,183.241518 L32.1291462,167.415756 L47.6741904,159.523864 L55.4467125,155.577918 L57.3996075,154.612421 L57.8683023,154.360552 L58.3369971,154.108683 L59.2743867,153.562967 L63.1020608,151.422082 L124.071443,117.041978 L124.149558,117 L124.227674,117.083956 L149.732483,145.503163 L162.504416,159.733755 C164.652601,162.084531 166.683611,164.561242 168.75368,166.995975 L174.924828,174.300173 L174.807655,174.258194 L289.169185,164.645198 C298.660255,163.46981 308.151325,162.252444 317.681452,161.119034 L321.235721,160.699252 C321.82159,160.615296 322.407458,160.573318 323.032385,160.53134 C323.344848,160.53134 323.657311,160.615296 323.930716,160.657274 C324.24318,160.741231 324.516585,160.783209 324.78999,160.867165 C327.094406,161.538815 329.359764,162.3364 331.664181,163.175963 C336.194897,164.813111 340.725613,166.534215 345.217272,168.255319 C354.239647,171.739505 363.222964,175.307648 372.167223,178.959747 L385.60314,184.416906 L392.321099,187.187464 C394.547399,188.110983 396.812758,189.034503 399,190 C396.7737,189.034503 394.547399,188.110983 392.321099,187.187464 L385.60314,184.458884 L372.167223,179.043703 C363.183906,175.475561 354.200589,171.907418 345.178214,168.423232 C340.686555,166.702128 336.155839,164.981024 331.625123,163.343876 C329.359764,162.546291 327.094406,161.706728 324.78999,161.077056 C324.516585,160.993099 324.204122,160.909143 323.930716,160.867165 C323.657311,160.783209 323.344848,160.741231 323.071443,160.741231 C322.485574,160.783209 321.899706,160.825187 321.274779,160.909143 L317.72051,161.328925 C308.229441,162.462335 298.738371,163.679701 289.208243,164.897067 L174.846712,174.59402 L174.768597,174.59402 L174.729539,174.552041 L168.558391,167.247844 C166.488322,164.813111 164.457311,162.3364 162.309127,159.985624 L149.576251,145.671075 L124.1105,117.209891 L124.266732,117.251869 L63.2192345,151.548016 L59.3915604,153.688902 L58.4541708,154.234618 L57.985476,154.486486 L57.5167812,154.738355 L55.5638862,155.703853 L47.7913641,159.649799 L32.207262,167.499712 L1,183.241518 Z" id="Path" transform="translate(200.000000, 153.500000) scale(-1, 1) translate(-200.000000, -153.500000) "></path>
                <path d="M1,186.480287 L31.185832,171.050179 L46.2592229,163.356033 L53.7959184,159.508961 L55.6703297,158.547192 C55.9827316,158.379928 56.2951334,158.212664 56.6075353,158.0454 L57.544741,157.543608 L61.2545133,155.452808 L120.41562,122.041816 L120.493721,122 L120.571821,122.041816 L147.165031,148.469534 L160.481162,161.683393 C162.746075,163.81601 164.815738,166.199522 166.924451,168.499403 L173.289639,175.44086 L173.172488,175.399044 L288.097331,168.541219 C297.625589,167.37037 307.153846,166.199522 316.721154,165.154122 C317.931711,165.028674 319.103218,164.903226 320.313776,164.777778 C320.899529,164.735962 321.524333,164.65233 322.110086,164.610514 C322.73489,164.610514 323.320644,164.735962 323.906397,164.819594 C326.249411,165.321386 328.553375,166.074074 330.896389,166.784946 C335.504317,168.248507 340.073195,169.837515 344.642072,171.426523 C353.779827,174.646356 362.839482,178.033453 371.899137,181.462366 C376.428964,183.176822 380.958791,184.891278 385.488619,186.647551 L392.244309,189.281959 L395.64168,190.620072 C396.774137,191.080048 397.906593,191.498208 399,192 C397.906593,191.498208 396.774137,191.080048 395.64168,190.620072 L392.244309,189.281959 L385.449568,186.689367 C380.919741,184.97491 376.389914,183.260454 371.860086,181.545998 C362.800432,178.158901 353.701727,174.81362 344.563972,171.593787 C339.995094,170.004779 335.426217,168.415771 330.818289,166.95221 C328.514325,166.241338 326.210361,165.530466 323.867347,165.028674 C323.281593,164.903226 322.69584,164.777778 322.110086,164.819594 C321.524333,164.86141 320.899529,164.903226 320.313776,164.986858 C319.103218,165.112306 317.931711,165.237754 316.721154,165.363202 C307.192896,166.450418 297.664639,167.621266 288.097331,168.792115 L173.172488,175.775388 L173.094388,175.775388 L173.055338,175.733572 L166.729199,168.708483 C164.581436,166.408602 162.550824,164.02509 160.285911,161.892473 L147.00883,148.678614 L120.41562,122.250896 L120.571821,122.250896 L61.3326138,155.578256 L57.6228414,157.669056 L56.6856358,158.170848 C56.3732339,158.338112 56.060832,158.505376 55.7484301,158.67264 L53.8740188,159.634409 L46.3373234,163.481481 L31.2248823,171.133811 L1,186.480287 Z" id="Path" transform="translate(200.000000, 157.000000) scale(-1, 1) translate(-200.000000, -157.000000) "></path>
            </g>
        </g>
    </g>
</svg>