<?xml version="1.0" encoding="UTF-8"?>
<svg width="18px" height="18px" viewBox="0 0 18 18" version="1.1" xmlns="http://www.w3.org/2000/svg" xmlns:xlink="http://www.w3.org/1999/xlink">
    <!-- Generator: sketchtool 49.3 (51167) - http://www.bohemiancoding.com/sketch -->
    <title>CCC2C442-74C3-414D-8F7B-0602183795B5</title>
    <desc>Created with sketchtool.</desc>
    <defs>
        <circle id="path-1" cx="9" cy="9" r="9"></circle>
    </defs>
    <g id="Explorer" stroke="none" stroke-width="1" fill="none" fill-rule="evenodd">
        <g id="Mobile_Explorer320" transform="translate(-240.000000, -683.000000)">
            <g id="Group-18" transform="translate(20.000000, 653.000000)">
                <g id="hint_icone-copy-6" transform="translate(220.000000, 30.000000)">
                    <g id="Oval-2">
                        <use fill="#FFFFFF" fill-rule="evenodd" xlink:href="#path-1"></use>
                        <circle stroke="#C8E7EF" stroke-width="1" cx="9" cy="9" r="8.5"></circle>
                    </g>
                    <path d="M12,6.39520958 C12,6.65868395 11.9671461,6.89021856 11.9014374,7.08982036 C11.8357286,7.28942216 11.7433271,7.47305305 11.62423,7.64071856 C11.5051329,7.80838407 11.3613971,7.96606713 11.1930185,8.11377246 C11.0246398,8.26147778 10.8336766,8.41516886 10.6201232,8.5748503 C10.4887057,8.67864323 10.3798772,8.77045868 10.2936345,8.8502994 C10.2073918,8.93014012 10.1396306,9.01197563 10.0903491,9.09580838 C10.0410675,9.17964114 10.0061603,9.26746461 9.98562628,9.35928144 C9.9650923,9.45109826 9.95482546,9.5608776 9.95482546,9.68862275 L9.95482546,10 L8.03285421,10 L8.03285421,9.54491018 C8.03285421,9.33732431 8.05338789,9.15169743 8.09445585,8.98802395 C8.13552382,8.82435048 8.19712485,8.67465138 8.27926078,8.53892216 C8.36139671,8.40319293 8.46201172,8.27145772 8.58110883,8.14371257 C8.70020593,8.01596743 8.8418883,7.88423222 9.00616016,7.74850299 L9.41273101,7.37724551 C9.55236209,7.25748443 9.67145741,7.13173719 9.77002053,7 C9.86858366,6.86826281 9.91786448,6.71057976 9.91786448,6.52694611 C9.91786448,6.27145581 9.83778314,6.06786503 9.67761807,5.91616766 C9.517453,5.7644703 9.29774267,5.68862275 9.01848049,5.68862275 C8.67350957,5.68862275 8.41478526,5.80239407 8.24229979,6.02994012 C8.06981433,6.25748617 7.97535943,6.51496862 7.95893224,6.80239521 L6,6.5988024 C6.04928156,6.16766251 6.16221678,5.78842479 6.33880903,5.46107784 C6.51540129,5.1337309 6.74332509,4.86227653 7.02258727,4.64670659 C7.30184945,4.43113665 7.61806805,4.26946162 7.97125257,4.16167665 C8.32443708,4.05389168 8.69814998,4 9.09240246,4 C9.46201417,4 9.82135349,4.04590772 10.1704312,4.13772455 C10.5195089,4.22954138 10.8295674,4.37325251 11.100616,4.56886228 C11.3716646,4.76447204 11.5893216,5.01397054 11.7535934,5.31736527 C11.9178653,5.62076 12,5.98003784 12,6.39520958 Z M10.2857143,12.2789116 C10.2857143,12.6417252 10.1626386,12.9478446 9.91648352,13.1972789 C9.67032844,13.4467133 9.36703477,13.5714286 9.00659341,13.5714286 C8.83076835,13.5714286 8.66593484,13.5396829 8.51208791,13.4761905 C8.35824099,13.4126981 8.22197862,13.3219961 8.1032967,13.2040816 C7.98461479,13.0861672 7.89011024,12.9501141 7.81978022,12.7959184 C7.7494502,12.6417226 7.71428571,12.4739238 7.71428571,12.292517 C7.71428571,12.1201805 7.74725242,11.9546493 7.81318681,11.7959184 C7.87912121,11.6371874 7.97142798,11.4988668 8.09010989,11.3809524 C8.2087918,11.263038 8.34725196,11.1700684 8.50549451,11.1020408 C8.66373705,11.0340133 8.83076835,11 9.00659341,11 C9.18241846,11 9.34725198,11.0340133 9.5010989,11.1020408 C9.65494582,11.1700684 9.7912082,11.2607704 9.90989011,11.3741497 C10.028572,11.4875289 10.1208788,11.623582 10.1868132,11.7823129 C10.2527476,11.9410439 10.2857143,12.1065751 10.2857143,12.2789116 Z" id="?" fill="#ADC9D0"></path>
                </g>
            </g>
        </g>
    </g>
</svg>