<?xml version="1.0" encoding="UTF-8"?>
<svg width="21px" height="32px" viewBox="0 0 21 32" version="1.1" xmlns="http://www.w3.org/2000/svg" xmlns:xlink="http://www.w3.org/1999/xlink">
    <!-- Generator: sketchtool 49.3 (51167) - http://www.bohemiancoding.com/sketch -->
    <title>6E903273-AE55-41A0-A8E7-2A29836E5FE5</title>
    <desc>Created with sketchtool.</desc>
    <defs></defs>
    <g id="Menu" stroke="none" stroke-width="1" fill="none" fill-rule="evenodd">
        <g id="Artboard" transform="translate(-660.000000, -249.000000)">
            <g id="menu-copy-2" transform="translate(421.000000, 229.000000)">
                <g id="icon-support" transform="translate(239.000000, 20.000000)">
                    <g id="Group-2">
                        <g id="telemarketer" fill-rule="nonzero">
                            <rect id="Rectangle-path" fill="#E6AF78" x="7.96551724" y="16.2698413" width="5.79310345" height="6.50793651"></rect>
                            <path d="M18.9725456,21.3407272 L15.9339242,20.1746032 L11.9884519,21.6600862 L11.3306742,22.5276064 C11.1077379,22.8215774 10.6163368,22.8215774 10.3934005,22.5276064 L9.73562276,21.6600862 L5.79310145,20.1746032 L5.79015051,20.1746032 L2.75152913,21.3407272 C1.47236846,21.8316259 0.668097763,22.9634667 0.727186752,24.1894473 L1.08270433,31.5634921 L20.6414406,31.5634921 L20.9969582,24.1894473 C21.0559769,22.9634667 20.2517062,21.8316877 18.9725456,21.3407272 Z" id="Shape" fill="#F5F5F5"></path>
                            <ellipse id="Oval" fill="#936F78" cx="10.5" cy="3.57936508" rx="3.25862069" ry="2.92857143"></ellipse>
                            <path d="M16.6551724,11.7142857 L3.62068966,11.7142857 L3.62068966,8.97710227 C3.62068966,5.8162635 6.53852273,3.25396825 10.137931,3.25396825 C13.7373393,3.25396825 16.6551724,5.81632558 16.6551724,8.97710227" id="Shape" fill="#936F78"></path>
                            <g id="Group" transform="translate(2.118774, 9.870370)" fill="#00FE0A">
                                <path d="M13.6161706,3.2484308 L14.7462872,3.2484308 C15.3704171,3.2484308 15.8764037,2.83865915 15.8764037,2.33320941 L15.8764037,0.960377332 C15.8764037,0.454927597 15.3704171,0.0451559454 14.7462872,0.0451559454 L13.6161706,0.0451559454 L13.6161706,3.2484308 Z" id="Shape"></path>
                                <path d="M2.3148639,3.2484308 L1.18474733,3.2484308 C0.560617333,3.2484308 0.0546307598,2.83865915 0.0546307598,2.33320941 L0.0546307598,0.960377332 C0.0546307598,0.454927597 0.560617333,0.0451559454 1.18474733,0.0451559454 L2.3148639,0.0451559454 L2.3148639,3.2484308 Z" id="Shape"></path>
                            </g>
                            <path d="M10.4999661,16.9206349 C7.50048684,16.9206349 5.06896552,14.7520713 5.06896552,12.0769718 L5.06896552,9.17074978 L6.69804212,9.17074978 L7.53232988,7.31095379 C7.62338744,7.10798895 7.9455442,7.10798895 8.03660176,7.31095379 L8.73423543,8.86627231 C8.81668859,9.05014311 9.01641901,9.17074978 9.23850731,9.17074978 L15.9310345,9.17074978 L15.9310345,12.0769718 C15.9309667,14.7520713 13.4994454,16.9206349 10.4999661,16.9206349 Z" id="Shape" fill="#FFBC79"></path>
                            <g id="Group" transform="translate(5.764138, 18.873016)" fill="#F5F5F5">
                                <path d="M1.12032774,3.28834027 L0.0421029737,1.33501156 L1.71960503,0.0371521036 L3.95634419,2.85451996 L2.79162148,3.64570812 C2.23343072,4.0248744 1.43241791,3.85358299 1.12032774,3.28834027 Z" id="Shape"></path>
                                <path d="M9.02903005,3.28834027 L10.1072548,1.33501156 L8.42975277,0.0371521036 L6.1930136,2.85451996 L7.35766656,3.64570812 C7.91592708,4.0248744 8.71693989,3.85358299 9.02903005,3.28834027 Z" id="Shape"></path>
                            </g>
                            <polygon id="Shape" fill="#FFBC79" points="0.724137931 27.3333333 0.909859216 31.2380952 0.909859216 31.2380952 4.34482759 31.2380952 4.34482759 27.8708576"></polygon>
                            <path d="M16.6551724,25.9465283 C16.6551724,25.1185501 16.9521177,24.3167478 17.4943882,23.6807052 L19.3968514,21.4761905 C19.9766755,22.0624043 20.309884,22.8606113 20.2731046,23.708521 L19.9466067,31.2380952 L16.6551724,31.2380952 L16.6551724,25.9465283 Z" id="Shape" fill="#F5F5F5"></path>
                            <polygon id="Shape" fill="#FFBC79" points="20.2758621 27.3333333 20.0901408 31.2380952 20.0901408 31.2380952 16.6551724 31.2380952 16.6551724 27.8708576"></polygon>
                            <path d="M18.6926035,20.6862569 L15.7657249,19.5358924 L14.1639381,18.3040619 C14.0603851,18.2243398 13.9262572,18.1854753 13.7912993,18.1938835 L13.7912993,17.0330555 C15.172076,16.2264301 16.1674859,14.9283307 16.4686683,13.4160404 L17.1539724,13.4160404 C18.0515706,13.4160404 18.7817685,12.7585202 18.7817685,11.9504001 L18.7817685,10.4526217 C18.7817685,9.80363428 18.3106262,9.25211952 17.6602549,9.0599146 C17.6680715,8.94163944 17.6727753,8.82317743 17.6727753,8.7051514 C17.6727753,6.50556976 16.3442939,4.5695692 14.3455192,3.46635282 C14.3455192,3.46516945 14.3457267,3.46398607 14.3457267,3.4628027 C14.3457959,1.55333464 12.620534,0 10.4999443,0 C8.37935458,0 6.65409271,1.55333464 6.65409271,3.46274042 C6.65409271,3.46392379 6.65430023,3.46510716 6.65430023,3.46629054 C4.65552545,4.56950692 3.32704407,6.50544519 3.32704407,8.70508912 C3.32704407,8.82311515 3.33174788,8.94157715 3.33956451,9.05985231 C2.68919315,9.25199495 2.21805091,9.80350972 2.21805091,10.4525594 L2.21805091,11.9503378 C2.21805091,12.7585202 2.94831792,13.4159781 3.845847,13.4159781 L4.53115109,13.4159781 C4.83240266,14.9282684 5.82774339,16.2264301 7.20852011,17.0329932 L7.20852011,18.1938835 C7.07342383,18.1855376 6.93943432,18.2244021 6.83588126,18.3040619 L5.23409448,19.5358924 L2.30721584,20.6862569 C0.8625226,21.2540898 -0.0633677061,22.5883756 0.0033849383,24.0064318 L0.353403986,31.4414488 C0.365232693,31.692511 0.594958633,31.8888266 0.871376837,31.8888266 C0.878778425,31.8888266 0.886249188,31.888702 0.89371995,31.8883906 C1.18003,31.8774911 1.402216,31.6596879 1.3901106,31.4018992 L1.22637639,27.9240863 L3.88154064,28.3225098 L3.88154064,31.4217051 C3.88154064,31.6796807 4.11382601,31.8888266 4.40034358,31.8888266 C4.68686115,31.8888266 4.91914652,31.6796807 4.91914652,31.4217051 L4.91914652,26.1965465 C4.91914652,25.2715214 4.55695289,24.3707866 3.89924912,23.6601391 L2.19342506,21.8170646 C2.35632919,21.7095021 2.53313723,21.6168252 2.72239654,21.5424594 L5.26508431,20.5431309 L6.11460683,22.0729849 C6.33112059,22.4628133 6.72547999,22.7438336 7.19662223,22.8439222 C7.32106576,22.8703924 7.44696194,22.8834095 7.57202803,22.8834095 C7.92045609,22.8834095 8.26231263,22.782449 8.54730838,22.5900572 L9.26353313,22.1063685 L9.60698067,22.570189 C9.80647769,22.8396247 10.1403101,23.0005013 10.5000135,23.0005013 C10.8597168,23.0005013 11.1935492,22.8396247 11.3930462,22.570189 L11.7364938,22.1063685 L12.4527185,22.5900572 C12.7377143,22.7825113 13.0795708,22.8834095 13.4279989,22.8834095 C13.553065,22.8834095 13.6790303,22.8703924 13.8034047,22.8439222 C14.2745469,22.7438336 14.6689063,22.4628133 14.8854201,22.0729849 L15.7349426,20.5431309 L18.2776304,21.5424594 C18.4668897,21.6168252 18.6436977,21.7095021 18.8066018,21.8170646 L17.1007778,23.6601391 C16.443074,24.3707866 16.0808804,25.2715214 16.0808804,26.1965465 L16.0808804,31.4217051 C16.0808804,31.6796807 16.3131658,31.8888266 16.5996833,31.8888266 C16.8862009,31.8888266 17.1184863,31.6796807 17.1184863,31.4217051 L17.1184863,28.3225721 L19.7736505,27.9241486 L19.6099163,31.4019615 C19.5978109,31.6597502 19.8199969,31.8775534 20.106307,31.8884529 C20.1137777,31.8887643 20.1211793,31.8888889 20.1286501,31.8888889 C20.4050683,31.8888889 20.6347942,31.6925733 20.6466229,31.4415111 L20.996642,24.0064318 C21.0631179,22.5883133 20.1372968,21.2540275 18.6926035,20.6862569 Z M3.10216029,24.2582415 C3.60477657,24.8012858 3.88160982,25.489636 3.88160982,26.1965465 L3.88160982,27.3754365 L1.18155182,26.9702865 L1.04016073,23.9668822 C1.01546571,23.4422737 1.1771247,22.9334849 1.47955222,22.5051034 L3.10216029,24.2582415 Z M17.7442318,10.4524972 L17.7442318,11.9502755 C17.7442318,12.2433164 17.4794348,12.4816729 17.1540416,12.4816729 L16.5638513,12.4816729 L16.5638513,9.92103748 L17.1540416,9.92103748 C17.4794348,9.92109976 17.7442318,10.1594563 17.7442318,10.4524972 Z M10.4999443,0.934242967 C11.8622516,0.934242967 13.0006436,1.81230679 13.2547879,2.97276112 C12.4060954,2.6660803 11.4755705,2.49629721 10.4999443,2.49629721 C9.52431807,2.49629721 8.59372395,2.6660803 7.74510069,2.97276112 C7.99924496,1.81230679 9.13763695,0.934242967 10.4999443,0.934242967 Z M4.4361064,12.4816729 L3.84591618,12.4816729 C3.5204538,12.4816729 3.25572596,12.2432541 3.25572596,11.9502755 L3.25572596,10.4524972 C3.25572596,10.1594563 3.52052297,9.92109976 3.84591618,9.92109976 L4.4361064,9.92109976 L4.4361064,12.4816729 Z M5.47371227,12.4495349 L5.47371227,9.92103748 L6.61839906,9.92103748 C6.83055488,9.92103748 7.02133601,9.80475537 7.10005571,9.62743606 L7.72739222,8.21535895 L8.35472873,9.62743606 C8.4335176,9.80475537 8.62422956,9.92103748 8.83638538,9.92103748 L12.7179306,9.92103748 C13.0044482,9.92103748 13.2367335,9.71189162 13.2367335,9.453916 C13.2367335,9.19594037 13.0044482,8.98679451 12.7179306,8.98679451 L9.18764955,8.98679451 L8.20911804,6.78403645 C8.13032917,6.60671713 7.93961721,6.49043502 7.72746139,6.49043502 C7.51530558,6.49043502 7.32452445,6.60671713 7.24580475,6.78403645 L6.26727324,8.98679451 L4.37433426,8.98679451 C4.36845449,8.89280967 4.36478829,8.79876255 4.36478829,8.70502683 C4.36478829,5.7966662 7.11707245,3.43054017 10.5000135,3.43054017 C13.8829545,3.43054017 16.6352386,5.7966662 16.6352386,8.70502683 C16.6352386,8.79882483 16.6315724,8.89287195 16.6256927,8.98679451 L14.9360553,8.98679451 C14.6495377,8.98679451 14.4172523,9.19594037 14.4172523,9.453916 C14.4172523,9.71189162 14.6495377,9.92103748 14.9360553,9.92103748 L15.5262455,9.92103748 L15.5262455,11.9502755 C15.5262455,13.3208722 13.2244898,14.4787729 10.5000135,14.4787729 C10.2134959,14.4787729 9.98121052,14.6879188 9.98121052,14.9458944 C9.98121052,15.20387 10.2134959,15.4130159 10.5000135,15.4130159 C12.3765583,15.4130159 14.0275276,14.9491331 15.131471,14.2075933 C14.3678623,15.8323041 12.5793756,16.9751324 10.5000135,16.9751324 C7.728499,16.9750701 5.47371227,14.9449602 5.47371227,12.4495349 Z M7.92467568,21.8426006 C7.78425302,21.9373951 7.60571564,21.9710278 7.43492571,21.9346546 C7.26413579,21.8983437 7.12108452,21.796449 7.04264152,21.6551291 L6.15486593,20.0564526 L7.08096376,19.3441857 L8.67278952,21.3372997 L7.92467568,21.8426006 Z M10.529689,22.0519333 C10.5259536,22.0569159 10.5191054,22.0661961 10.4999443,22.0661961 C10.4807832,22.0661961 10.473935,22.0569159 10.4701996,22.0519333 L8.24619516,19.2029905 L8.24619516,17.5181144 C8.94325878,17.7702978 9.70389306,17.9093754 10.4999443,17.9093754 C11.2959955,17.9093754 12.0565606,17.7702978 12.7536934,17.5181144 L12.7536934,19.2029905 L10.529689,22.0519333 Z M13.957247,21.6550669 C13.8787349,21.796449 13.7357528,21.8982814 13.5649629,21.9345924 C13.3941729,21.9709656 13.2156355,21.9373328 13.0752129,21.8425383 L12.327099,21.3372997 L13.9189248,19.3441857 L14.8450226,20.0564526 L13.957247,21.6550669 Z M19.9597278,23.9668822 L19.8183367,26.9702865 L17.1182787,27.3754365 L17.1182787,26.1965465 C17.1182787,25.489636 17.3950428,24.8012858 17.8977283,24.2582415 L19.5203363,22.5050411 C19.8227639,22.9334227 19.9844229,23.4422114 19.9597278,23.9668822 Z" id="Shape" fill="#000000"></path>
                            <path d="M8.22806802,26.031746 L6.2546906,26.031746 C5.9997714,26.031746 5.79310345,26.177437 5.79310345,26.3571429 C5.79310345,26.5368487 5.9997714,26.6825397 6.2546906,26.6825397 L8.22806802,26.6825397 C8.48298722,26.6825397 8.68965517,26.5368487 8.68965517,26.3571429 C8.68965517,26.177437 8.48298722,26.031746 8.22806802,26.031746 Z" id="Shape" fill="#000000"></path>
                        </g>
                        <circle id="Oval-2" fill="#000000" cx="10.5" cy="14.3888889" r="1.16666667"></circle>
                    </g>
                </g>
            </g>
        </g>
    </g>
</svg>