<?xml version="1.0" encoding="UTF-8"?>
<svg width="26px" height="26px" viewBox="0 0 26 26" version="1.1" xmlns="http://www.w3.org/2000/svg" xmlns:xlink="http://www.w3.org/1999/xlink">
    <!-- Generator: sketchtool 49.3 (51167) - http://www.bohemiancoding.com/sketch -->
    <title>10049E68-4614-4DEA-950D-FAD0CE082402</title>
    <desc>Created with sketchtool.</desc>
    <defs>
        <path d="M193.95117,33.1063478 C194.049027,32.7430469 193.998797,32.3637892 193.809531,32.0381332 L190.859212,26.9618106 C190.606706,26.5276026 190.135972,26.2575711 189.630394,26.2575711 C189.383091,26.2575711 189.138617,26.322972 188.923444,26.4464696 L187.385441,27.328595 C186.760398,26.8731486 186.084446,26.4828783 185.36788,26.1675606 L185.36788,24.40758 C185.36788,23.6313096 184.731976,23 183.9507,23 L178.049384,23 C177.268108,23 176.63243,23.6313096 176.63243,24.40758 L176.63243,26.1674482 C175.915751,26.4827659 175.239912,26.8731486 174.614756,27.328595 L173.076753,26.4465819 C172.861579,26.3230844 172.616992,26.2577959 172.36969,26.2577959 C171.864225,26.2577959 171.393491,26.5276026 171.140985,26.961923 L168.190553,32.0380209 C168.001286,32.3637892 167.950943,32.7430469 168.048801,33.1063478 C168.146885,33.4695362 168.38129,33.7731671 168.709028,33.9609419 L170.242732,34.8403703 C170.20144,35.221426 170.179492,35.6081003 170.179492,35.9998314 C170.179492,36.3915625 170.201326,36.7783492 170.242732,37.1594049 L168.709028,38.0389458 C168.381177,38.2268329 168.146885,38.5303514 168.048801,38.8936522 C167.950943,39.2567283 168.001286,39.6362108 168.190553,39.9617544 L171.140871,45.038077 C171.393378,45.4723974 171.864225,45.7422041 172.369577,45.7422041 C172.616879,45.7422041 172.861466,45.677028 173.07664,45.5534181 L174.614756,44.671405 C175.239799,45.1267391 175.915751,45.5171217 176.632317,45.8324394 L176.632317,47.5923077 C176.632317,47.9683066 176.779725,48.3217186 177.047504,48.5875923 C177.31517,48.8533537 177.671077,49 178.049271,49 L183.950587,49 C184.731863,49 185.367767,48.3684656 185.367767,47.5923077 L185.367767,45.832327 C186.084332,45.5170093 186.760171,45.1267391 187.385215,44.6712927 L188.923331,45.5533057 C189.138504,45.6769156 189.383091,45.7420918 189.630281,45.7420918 C190.135972,45.7420918 190.606593,45.4723974 190.859099,45.0379647 L193.809418,39.961642 C193.998684,39.6360984 194.048914,39.2567283 193.951056,38.8935399 C193.853199,38.5302391 193.61868,38.2266081 193.291056,38.0388334 L191.757352,37.1591802 C191.798644,36.7781245 191.820478,36.3913378 191.820478,35.9996067 C191.820478,35.6078756 191.798757,35.2210889 191.757352,34.8401456 L193.291056,33.9606047 C193.618907,33.7731671 193.853312,33.4696486 193.95117,33.1063478 Z M180.999952,41.2 C178.12801,41.2 175.8,38.8718943 175.8,35.9999522 C175.8,33.1282013 178.128106,30.8 180.999952,30.8 C183.871799,30.8 186.2,33.1282013 186.2,35.9999522 C186.2,38.8717987 183.871894,41.2 180.999952,41.2 Z" id="path-1"></path>
    </defs>
    <g id="Menu" stroke="none" stroke-width="1" fill="none" fill-rule="evenodd">
        <g id="Artboard" transform="translate(-589.000000, -252.000000)" fill-rule="nonzero">
            <g id="menu-copy-2" transform="translate(421.000000, 229.000000)">
                <g id="icone_settings">
                    <use fill="#F5F5F5" fill-rule="evenodd" xlink:href="#path-1"></use>
                    <path stroke="#000000" stroke-width="1" d="M193.468377,32.9763044 C193.531565,32.741714 193.499489,32.4997228 193.377239,32.2893778 L190.426985,27.2131653 C190.264063,26.933007 189.958027,26.7575711 189.630394,26.7575711 C189.470647,26.7575711 189.311955,26.7999868 189.172208,26.8801938 L187.352993,27.9236089 L187.090988,27.7326955 C186.49175,27.2960526 185.846603,26.924486 185.166495,26.6252113 L184.86788,26.4938086 L184.86788,24.40758 C184.86788,23.9083304 184.456707,23.5 183.9507,23.5 L178.049384,23.5 C177.543445,23.5 177.13243,23.9082628 177.13243,24.40758 L177.13243,26.493717 L176.833788,26.6251107 C176.154026,26.9241861 175.508947,27.2957673 174.909174,27.7327209 L174.647193,27.9235822 L174.366016,27.7623328 L172.827861,26.8802327 C172.688397,26.8001879 172.529615,26.7577959 172.36969,26.7577959 C172.042026,26.7577959 171.736087,26.9331271 171.573267,27.213183 L168.622884,32.2891985 C168.500545,32.4997687 168.468428,32.7417988 168.531508,32.9759865 C168.594964,33.210956 168.745142,33.4053819 168.957742,33.5271894 L170.775041,34.5692313 L170.739822,34.8942366 C170.699795,35.2636097 170.679492,35.6321101 170.679492,35.9998314 C170.679492,36.3683336 170.699773,36.7369662 170.739806,37.1053928 L170.775129,37.4304723 L170.49147,37.5931437 L168.95764,38.4727571 C168.745057,38.5945856 168.594984,38.7889004 168.531573,39.0237707 C168.468435,39.2580304 168.50057,39.5001943 168.622845,39.7105098 L171.573127,44.786771 C171.735951,45.066833 172.04198,45.2422041 172.369577,45.2422041 C172.529645,45.2422041 172.688336,45.1998552 172.827914,45.1196723 L174.647193,44.0764299 L174.909162,44.2672699 C175.508706,44.7040281 176.153899,45.075648 176.833702,45.3747887 L177.132317,45.5061914 L177.132317,47.5923077 C177.132317,47.8349683 177.226477,48.0606959 177.399793,48.232779 C177.573837,48.4055849 177.803126,48.5 178.049271,48.5 L183.950587,48.5 C184.456515,48.5 184.867767,48.0915236 184.867767,47.5923077 L184.867767,45.506079 L185.166382,45.3746763 C185.846366,45.0754561 186.491411,44.7039168 187.090762,44.2671921 L187.352742,44.0762968 L187.633941,44.2375469 L189.172393,45.1197527 C189.311627,45.1997381 189.470316,45.2420918 189.630281,45.2420918 C189.958185,45.2420918 190.263979,45.0668642 190.426807,44.7867201 L193.377162,39.7103347 C193.499363,39.5001463 193.531449,39.2580881 193.468264,39.0235833 C193.40503,38.7888257 193.254891,38.5944067 193.042294,38.4725584 L191.225047,37.4302801 L191.260262,37.1053139 C191.300223,36.7365409 191.320478,36.3678809 191.320478,35.9996067 C191.320478,35.6305666 191.300248,35.2619007 191.260279,34.8941735 L191.224945,34.5690838 L191.508613,34.4064069 L193.042892,33.5265369 C193.255179,33.4051695 193.40514,33.2110742 193.468377,32.9763044 Z M180.999952,41.7 C177.851883,41.7 175.3,39.1480521 175.3,35.9999522 C175.3,32.8520273 177.851995,30.3 180.999952,30.3 C184.147925,30.3 186.7,32.8520427 186.7,35.9999522 C186.7,39.1479727 184.148005,41.7 180.999952,41.7 Z"></path>
                </g>
            </g>
        </g>
    </g>
</svg>