<?xml version="1.0" encoding="UTF-8"?>
<svg width="35px" height="30px" viewBox="0 0 35 30" version="1.1" xmlns="http://www.w3.org/2000/svg" xmlns:xlink="http://www.w3.org/1999/xlink">
    <!-- Generator: sketchtool 49.3 (51167) - http://www.bohemiancoding.com/sketch -->
    <title>BA4CF134-AB5D-4ADF-BA53-1F3E4F3621B7</title>
    <desc>Created with sketchtool.</desc>
    <defs></defs>
    <g id="Menu" stroke="none" stroke-width="1" fill="none" fill-rule="evenodd">
        <g id="Artboard" transform="translate(-509.000000, -250.000000)" fill-rule="nonzero">
            <g id="menu-copy-2" transform="translate(421.000000, 229.000000)">
                <g id="icon_monitoring" transform="translate(105.500000, 36.000000) scale(-1, 1) translate(-105.500000, -36.000000) translate(88.000000, 21.000000)">
                    <path d="M2.91021757,3.64285714 L1.02948571,8.70926315 C0.615699952,9.82383878 1.2073036,11.0677451 2.34404593,11.4734619 L26.0010436,19.9062395 C27.1378547,20.3119563 28.4064311,19.7318891 28.8202168,18.6173134 L30.5128205,14.0575143 L2.91021757,3.64285714 Z" id="Shape" fill="#FFBC79"></path>
                    <path d="M9.80956513,9.38533062 L25.6855107,15.2149642 C26.8201732,15.6322778 28.6438385,15.5517825 29.7381612,15.0360858 L34.2003165,12.9333631 C35.2946392,12.4176664 35.2616401,11.6542438 34.1270461,11.2368609 L6.38876916,1.04391135 C5.2541066,0.626528392 3.98785913,1.22327509 3.57492401,2.36996891 L2.82410794,4.45480373 C2.41110421,5.60142822 3.00158977,6.88103286 4.13618372,7.29848515 L4.65209535,7.4882488 L9.80956513,9.38533062 Z" id="Shape" fill="#F5F5F5"></path>
                    <path d="M28.7179487,18.5393106 L30.1857106,19.0924368 C30.455415,19.193997 30.7536121,19.0500751 30.8517751,18.7708518 L32.2762125,14.7190826 C32.3743756,14.4398592 32.235295,14.131205 31.9656557,14.0295774 L30.9868875,13.6607143 L30.3198472,13.9827034 L28.7179487,18.5393106 Z" id="Shape" fill="#ACE1EF"></path>
                    <path d="M1.79487179,29.1428571 L0.897435897,29.1428571 L0.897435897,20.0357143 L1.79487179,20.0357143 C2.29048077,20.0357143 2.69230769,20.5454297 2.69230769,21.1741071 L2.69230769,28.0044643 C2.69230769,28.6332129 2.29048077,29.1428571 1.79487179,29.1428571 Z" id="Shape" fill="#ACE1EF"></path>
                    <path d="M11.3744951,17.3035714 L9.49249023,22.4933998 C9.33058448,22.9397638 8.90347976,23.2399294 8.42986496,23.2399294 L2.69230769,23.2399294 L2.69230769,25.5 L8.42993533,25.5 C9.84683938,25.5 11.1240725,24.6022576 11.6083825,23.2658496 L13.4615385,18.155618 L11.3744951,17.3035714 Z" id="Shape" fill="#ACE1EF"></path>
                    <path d="M16.1538462,16.4341428 C15.574872,17.9299023 13.980893,18.5389408 12.6112902,18.0469083 C11.2451822,17.5561866 10.4223301,16.0843664 10.9114141,14.5714286 L16.1538462,16.4341428 Z" id="Shape" fill="#ACE1EF"></path>
                    <g id="Group" fill="#2D2B29">
                        <path d="M34.9989746,11.5203219 C34.9850293,11.2002294 34.8068164,10.606837 33.7701465,10.2292797 L6.1315625,0.172052314 C5.44749023,-0.0770985915 4.70538086,-0.0438511066 4.04188477,0.265843058 C3.37838867,0.575400402 2.87581055,1.12295775 2.62691406,1.80754125 L1.87865234,3.86457545 C1.87865234,3.86457545 1.87858398,3.86478068 1.87851562,3.86491751 L0.195302734,8.49309054 C-0.320332031,9.91103421 0.412753906,11.484338 1.82977539,12.000495 L9.8849707,14.9311308 C9.73191406,15.8629497 9.98723633,16.7835493 10.542998,17.487835 L8.82704102,22.2056258 C8.74808594,22.4227606 8.53972656,22.5686801 8.30860352,22.5686801 L3.28125,22.5686801 L3.28125,20.926829 C3.28125,20.0215533 2.54529297,19.2849779 1.640625,19.2849779 L0.546875,19.2849779 C0.244863281,19.2849779 0,19.5300241 0,19.8322616 L0,28.5888008 C0,28.8910382 0.244863281,29.1360845 0.546875,29.1360845 L1.640625,29.1360845 C2.54529297,29.1360845 3.28125,28.3995091 3.28125,27.4942334 L3.28125,25.8523823 L8.30860352,25.8523823 C9.91422852,25.8523823 11.3616699,24.837992 11.9103906,23.3283099 L13.5902539,18.7096459 C14.5515918,18.5745352 15.4252246,18.0128169 15.9438672,17.1355211 L25.3571582,20.5603541 C25.6648437,20.6724105 25.979707,20.7255654 26.2896484,20.7255654 C27.2295898,20.725497 28.1228418,20.236499 28.6230273,19.4203622 L29.7032422,19.8137907 C29.8252637,19.8581891 29.9517285,19.8803541 30.0778516,19.8803541 C30.2352832,19.8803541 30.392168,19.8458753 30.5390723,19.777328 C30.8036914,19.6538471 31.0043945,19.4345915 31.1041992,19.1601288 L32.6010645,15.0444185 C32.7831055,14.5438592 32.5753613,13.9952757 32.1342383,13.7317586 L33.8873828,12.9136378 C34.8871387,12.4470101 35.0129199,11.8404145 34.9989746,11.5203219 Z M2.1875,27.494165 C2.1875,27.7959235 1.9421582,28.0414487 1.640625,28.0414487 L1.09375,28.0414487 L1.09375,20.3794769 L1.640625,20.3794769 C1.9421582,20.3794769 2.1875,20.625002 2.1875,20.9267606 L2.1875,27.494165 Z M10.8826074,22.9539678 C10.4904297,24.0328692 9.45601562,24.7577465 8.30860352,24.7577465 L3.28125,24.7577465 L3.28125,23.6631791 L8.30860352,23.6631791 C8.99780273,23.6631791 9.61912109,23.2278833 9.85482422,22.5799678 L11.4246973,18.2636781 C11.6048242,18.3720402 11.7978027,18.4649416 12.0027441,18.5395775 C12.1482129,18.5925272 12.2949121,18.6345312 12.4420215,18.6664105 L10.8826074,22.9539678 Z M13.2004687,17.6442897 C13.1878223,17.6441529 13.1752441,17.6441529 13.1627344,17.6449738 C12.9022852,17.6485312 12.6365723,17.6057062 12.376875,17.5110946 C12.0728809,17.400338 11.8077832,17.229996 11.5906055,17.0176499 C11.5706445,16.9934326 11.5486328,16.970994 11.524502,16.9504024 C11.1172168,16.5162696 10.8991504,15.9269135 10.9404395,15.3151871 L14.8887402,16.75167 C14.4891797,17.300664 13.8638281,17.623835 13.2004687,17.6442897 Z M31.5733496,14.6698712 L30.0774414,18.7851026 L29.0489746,18.4104869 L30.4678418,14.5092435 L30.7583691,14.3737223 L31.5733496,14.6698712 Z M33.4252051,11.9215493 L30.5016113,13.2857907 C30.5013379,13.2859276 30.5010645,13.2860644 30.5008594,13.2862012 L29.8006543,13.6129296 C29.8003809,13.6130664 29.8001758,13.6131348 29.7999023,13.6132716 L28.979043,13.9963702 C28.0157227,14.4458954 26.3579395,14.5182736 25.3588672,14.1543984 L9.53982422,8.40237827 C9.25606445,8.2992837 8.94222656,8.44581891 8.83907227,8.72985915 C8.73591797,9.01396781 8.88241211,9.32790342 9.16630859,9.43120322 L24.9850098,15.1830865 C25.5354395,15.3835976 26.2139062,15.4812193 26.90625,15.4812193 C27.6631934,15.4812193 28.4360645,15.3638954 29.0756348,15.1367726 L27.8340918,18.5504547 C27.5246973,19.4012072 26.5813379,19.8413602 25.731084,19.531666 L2.20363281,10.9718753 C1.35351562,10.6622495 0.913691406,9.71825352 1.22308594,8.86750101 L2.15878906,6.29472032 C2.47084961,6.77489336 2.93494141,7.16148089 3.51298828,7.37197988 L4.02705078,7.55915091 C4.31060547,7.66258753 4.62464844,7.51605231 4.72793945,7.23201207 C4.83123047,6.94804024 4.68487305,6.63396781 4.40104492,6.5305996 L3.88705078,6.34342857 C3.03707031,6.03380282 2.59717773,5.09001207 2.90636719,4.23932797 L3.09353516,3.72474447 L3.09353516,3.72467606 L3.65462891,2.18195171 C3.80365234,1.77210463 4.10532227,1.44393964 4.5040625,1.25779477 C4.90280273,1.07171831 5.34795898,1.0514004 5.75756836,1.20067203 L33.3961523,11.2579678 C33.7472461,11.385827 33.8771289,11.5190905 33.9035156,11.5682093 C33.8815723,11.6194487 33.7638574,11.7634527 33.4252051,11.9215493 Z" id="Shape"></path>
                        <path d="M7.48432617,7.65369416 L6.45640625,7.27921529 C6.17264648,7.17571026 5.85880859,7.32231388 5.75544922,7.60628571 C5.6521582,7.89025755 5.79844727,8.20432998 6.08227539,8.3077666 L7.11019531,8.68224547 C7.17192383,8.70475252 7.23508789,8.71535614 7.29722656,8.71535614 C7.520625,8.71535614 7.7302832,8.57730382 7.81115234,8.35510664 C7.91451172,8.07113481 7.7681543,7.75713078 7.48432617,7.65369416 Z" id="Shape"></path>
                    </g>
                </g>
            </g>
        </g>
    </g>
</svg>