<?xml version="1.0" encoding="UTF-8"?>
<svg width="12px" height="15px" viewBox="0 0 12 15" version="1.1" xmlns="http://www.w3.org/2000/svg" xmlns:xlink="http://www.w3.org/1999/xlink">
    <!-- Generator: sketchtool 49.3 (51167) - http://www.bohemiancoding.com/sketch -->
    <title>EE53B47A-A6AF-4EC1-975B-1C8C50E32975</title>
    <desc>Created with sketchtool.</desc>
    <defs></defs>
    <g id="Stratum-generator" stroke="none" stroke-width="1" fill="none" fill-rule="evenodd">
        <g id="Mobile_Stratum-generator-320" transform="translate(-147.000000, -1502.000000)" fill-rule="nonzero">
            <g id="tabs_platform" transform="translate(40.000000, 1490.000000)">
                <g id="Group" transform="translate(107.000000, 11.000000)">
                    <g id="linux-copy" transform="translate(0.000000, 1.000000)">
                        <path d="M10.6342416,6.29595751 C9.80798839,5.47522447 9.46084951,4.23291776 9.62999995,3.01850833 C9.65381894,2.84761549 9.66265693,2.67123969 9.65504754,2.49109162 C9.5977393,1.13605528 8.58874183,0.0404286598 7.36355043,0.00112681601 C6.02568455,-0.0417718483 4.92898091,1.14574915 4.92898091,2.61680488 C4.92898091,2.83735139 4.95363217,3.05153767 5.00004153,3.2561178 C5.269739,4.44477926 5.00360843,5.70182417 4.24429414,6.59387952 C3.48212633,7.48931238 3,8.69179089 3,10.0162981 C3,13.0667528 4.07260723,14.5368436 5.60728688,15 C5.9603706,14.8245892 6.47241928,14.7141844 7.04233104,14.7141844 C7.58442097,14.7141844 8.07395853,14.8141058 8.42434726,14.9748223 C10.3179762,14.5546961 11.2162808,13.5339447 11.8430252,11.1771939 C12.3436202,9.29482855 11.5675414,7.2229722 10.6342416,6.29595751 Z" id="Shape" fill="#333333"></path>
                        <path d="M9.62256902,6.27144455 C8.78925423,5.45389619 8.43914851,4.21640996 8.60974461,3.00671278 C8.63376716,2.83648306 8.64268069,2.66079165 8.63500626,2.4813426 C8.57720824,1.13156418 7.55958731,0.0401888968 6.32392474,0.00103955511 C6.21412449,-0.00245592183 6.10612293,0.00300576088 6,0.0152836236 L6,14.6570063 C6.63637781,14.6570063 7.20132751,14.7917133 7.55618978,15 C9.36311745,14.6920485 10.2273298,13.4155877 10.8416836,11.1337403 C11.3465569,9.25867914 10.5638454,7.19486217 9.62256902,6.27144455 Z" id="Shape" fill="#000000"></path>
                        <path d="M3,10.4948525 C3,8.53607579 4.56700643,4 6.5,4 C8.43299357,4 10,8.55901603 10,10.4948525 C10,12.4306889 8.43299357,14 6.5,14 C4.56700643,14 3,12.4306889 3,10.4948525 Z" id="Shape" fill="#FFFFFF"></path>
                        <path d="M6.15512284,4 C6.10308796,4 6.05136866,4.00531384 6,4.01499108 L6,13.9945998 C6.05136866,13.9980127 6.1030529,14 6.15512284,14 C7.72630263,14 9,12.4306889 9,10.4948525 C9,8.55901603 7.72630263,4 6.15512284,4 Z" id="Shape" fill="#C0C2C1"></path>
                        <ellipse id="Oval" fill="#E6E6E6" cx="4.5" cy="4" rx="1" ry="1"></ellipse>
                        <circle id="Oval" fill="#000100" cx="5.5" cy="3.5" r="1"></circle>
                        <ellipse id="Oval" fill="#E6E6E6" cx="7.5" cy="4" rx="1" ry="1"></ellipse>
                        <circle id="Oval" fill="#000100" cx="8.5" cy="3.5" r="1"></circle>
                        <path d="M6.9855899,5.51315088 C7.14588444,6.02633852 5.925016,7 5.49989021,7 C4.96960326,7 3.86219721,5.82342346 4.01419052,5.51315088 C4.29779137,4.93418126 4.91700432,4 5.4253628,4 C5.79160864,4 6.87664544,5.16444575 6.9855899,5.51315088 Z" id="Shape" fill="#FE9A0F"></path>
                        <path d="M7.98055125,5.50446817 C7.84436637,5.17915225 6.57798073,4.14914244 6,4 L6,7 C6.59259496,6.97557772 8.1940182,6.01444985 7.98055125,5.50446817 Z" id="Shape" fill="#E2810C"></path>
                        <path d="M10.2276441,11.2073929 C10.4194849,11.6157195 10.7048064,12.0013593 11.0728101,12.0906371 C11.3442104,12.1564754 11.5494845,12.4109403 11.5797666,12.7153306 C11.5839625,12.7575861 11.5896546,12.7999491 11.596908,12.8424197 C11.6437785,13.1176361 11.7498471,13.3640728 11.8978423,13.5687916 C12.1200301,13.8761566 11.9598701,14.3345877 11.6094957,14.4077374 L8.84263751,14.9855162 C8.23995584,15.1113867 7.78660288,14.3913943 8.10458097,13.8134005 L9.63228092,11.1741691 C9.77526698,10.9270872 10.1054099,10.9471218 10.2276441,11.2073929 Z" id="Shape" fill="#DD7F10"></path>
                        <path d="M5.56688197,5 C5.05094753,5 4.52472684,4.73089186 4,4.19800492 L4.17653084,4 C4.69967847,4.5312016 5.2133081,4.77307097 5.70277999,4.71923112 C6.37847143,4.64475722 6.7852265,4.02755762 6.78923856,4.02136285 L7,4.17668762 C6.98079331,4.20634053 6.52085705,4.9038444 5.7291145,4.99107224 C5.67512235,4.99703926 5.62100216,5 5.56688197,5 Z" id="Shape" fill="#AE4E32"></path>
                        <path d="M6.15633341,4.71363361 C6.10446494,4.71773254 6.05229313,4.7195957 6,4.72034096 L6,5 C6.06466877,4.99916158 6.12927687,4.99673948 6.19364232,4.99161582 C7.31903664,4.90241744 7.9727008,4.18910988 8,4.15883367 L7.70043679,4 C7.69485562,4.00633472 7.11665858,4.63747729 6.15633341,4.71363361 Z" id="Shape" fill="#9E402B"></path>
                        <circle id="Oval" fill="#000000" cx="10.5" cy="11.5" r="1.5"></circle>
                        <path d="M3.22293983,10 C3.22293983,10 4.64935743,11.6756978 5.66581285,12.0533198 C6.68226826,12.4309418 5.18237196,13.5273202 3.81076947,12.6958909 C2.43916698,11.8645088 3.22293983,10 3.22293983,10 Z" id="Shape" fill="#333333"></path>
                        <path d="M1.77232333,11.2073929 C1.58048262,11.6157195 1.29516104,12.0013593 0.927157349,12.0906371 C0.655757068,12.1564754 0.450482957,12.4109403 0.420200879,12.7153306 C0.416004973,12.7575861 0.410312853,12.7999491 0.403091993,12.8424197 C0.35622145,13.1176361 0.25015286,13.3640728 0.10215774,13.5687916 C-0.120030099,13.8761566 0.0401298951,14.3345877 0.390504276,14.4077374 L3.15736249,14.9855162 C3.76004416,15.1113867 4.21339712,14.3913943 3.89541903,13.8134005 L2.36771908,11.1741691 C2.2247005,10.9270872 1.89455754,10.9471218 1.77232333,11.2073929 Z" id="Shape" fill="#FE9B0E"></path>
                    </g>
                </g>
            </g>
        </g>
    </g>
</svg>