<?xml version="1.0" encoding="UTF-8"?>
<svg width="8px" height="11px" viewBox="0 0 8 11" version="1.1" xmlns="http://www.w3.org/2000/svg" xmlns:xlink="http://www.w3.org/1999/xlink">
    <!-- Generator: Sketch 52.2 (67145) - http://www.bohemiancoding.com/sketch -->
    <title>Shape</title>
    <desc>Created with Sketch.</desc>
    <g id="Settings" stroke="none" stroke-width="1" fill="none" fill-rule="evenodd">
        <path d="M0.898327582,3.30179445 L0.898327582,4.4502447 L0.826121582,4.4502447 C0.369524821,4.4502447 0,4.84053834 0,5.32279772 L0,10.127447 C0,10.6097064 0.369524821,11 0.826121582,11 L7.17387842,11 C7.63047518,11 8,10.6097064 8,10.127447 L8,5.32279772 C8,4.84053834 7.63047518,4.4502447 7.17387842,4.4502447 L7.15264136,4.4502447 L7.15264136,3.30179445 C7.15264136,1.48042414 5.75099549,0 4.02654632,0 C2.29997345,0 0.898327582,1.48266721 0.898327582,3.30179445 Z M4.4873905,7.94045677 C4.42367932,7.98980424 4.40668967,8.03915171 4.40668967,8.11541599 C4.40881338,8.46757749 4.40881338,8.81973899 4.40881338,9.17190049 C4.4151845,9.31769984 4.3451022,9.46125612 4.22192726,9.52854812 C3.92885585,9.68556281 3.63790815,9.46574225 3.63790815,9.17414356 L3.63790815,9.17190049 C3.63790815,8.81749592 3.63790815,8.46533442 3.64003186,8.11092985 C3.64003186,8.03915171 3.62516591,7.99204731 3.56570215,7.9449429 C3.26201221,7.70942088 3.16432174,7.30791191 3.31510486,6.95350734 C3.46164056,6.60807504 3.82054685,6.40844209 4.16033979,6.48022023 C4.53623573,6.56097064 4.79957526,6.8817292 4.80169896,7.27875204 C4.80382267,7.5524062 4.69763738,7.77895595 4.4873905,7.94045677 Z M2.26599416,3.30179445 C2.26599416,2.27671289 3.05601274,1.44453507 4.02442262,1.44453507 C4.9949562,1.44453507 5.78285108,2.27895595 5.78285108,3.30179445 L5.78285108,4.4502447 L2.26599416,4.4502447 L2.26599416,3.30179445 Z" id="Shape" fill="#FFFFFF" fill-rule="nonzero"></path>
    </g>
</svg>