<?xml version="1.0" encoding="UTF-8"?>
<svg width="19px" height="19px" viewBox="0 0 19 19" version="1.1" xmlns="http://www.w3.org/2000/svg" xmlns:xlink="http://www.w3.org/1999/xlink">
    <!-- Generator: sketchtool 49.3 (51167) - http://www.bohemiancoding.com/sketch -->
    <title>BEB48FCC-1516-4B10-9CAE-8F6E418DF490</title>
    <desc>Created with sketchtool.</desc>
    <defs></defs>
    <g id="Stratum-generator" stroke="none" stroke-width="1" fill="none" fill-rule="evenodd">
        <g id="Mobile_Stratum-generator-320_drop_menu" transform="translate(-38.000000, -143.000000)">
            <g id="minimize-a-window-copy-2" transform="translate(35.000000, 140.000000)">
                <circle id="Oval" fill="#2EB5D5" transform="translate(12.710479, 12.710479) rotate(42.000000) translate(-12.710479, -12.710479) " cx="12.7104789" cy="12.7104789" r="9"></circle>
                <g id="Group-4" transform="translate(6.000000, 6.000000)" fill="#FFFFFF">
                    <path d="M9.78987119,2.4595993 L12.7085927,5.43828779 C13.0687916,5.80588729 13.0103918,6.35221745 12.5781531,6.65855036 C12.3950656,6.78830671 12.1642816,6.85936672 11.9259551,6.85936672 L6.08851218,6.85936672 C5.5258634,6.85936672 5.06974643,6.4714599 5.06974643,5.9929526 C5.06974643,5.79026671 5.15330175,5.59399541 5.30587465,5.43828779 L8.22459613,2.4595993 C8.58479511,2.09199981 9.22719283,2.04233343 9.6594316,2.34866634 C9.70676658,2.38221322 9.75042537,2.41934305 9.78987119,2.4595993 Z" id="Triangle" transform="translate(9.007246, 4.503597) rotate(-135.000000) translate(-9.007246, -4.503597) "></path>
                    <path d="M5.78987119,6.76729161 L8.70859267,9.7459801 C9.06879164,10.1135796 9.01039185,10.6599098 8.57815308,10.9662427 C8.39506559,11.095999 8.16428164,11.167059 7.92595514,11.167059 L2.08851218,11.167059 C1.5258634,11.167059 1.06974643,10.7791522 1.06974643,10.3006449 C1.06974643,10.097959 1.15330175,9.90168771 1.30587465,9.7459801 L4.22459613,6.76729161 C4.58479511,6.39969211 5.22719283,6.35002573 5.6594316,6.65635865 C5.70676658,6.68990553 5.75042537,6.72703535 5.78987119,6.76729161 Z" id="Triangle" transform="translate(5.007246, 8.811290) scale(-1, -1) rotate(-135.000000) translate(-5.007246, -8.811290) "></path>
                </g>
            </g>
        </g>
    </g>
</svg>