<?xml version="1.0" encoding="UTF-8"?>
<svg width="249px" height="177px" viewBox="0 0 249 177" version="1.1" xmlns="http://www.w3.org/2000/svg" xmlns:xlink="http://www.w3.org/1999/xlink">
    <!-- Generator: Sketch 52.3 (67297) - http://www.bohemiancoding.com/sketch -->
    <title>Group 57</title>
    <desc>Created with Sketch.</desc>
    <defs>
        <linearGradient x1="0%" y1="100%" x2="172.994172%" y2="109.159825%" id="linearGradient-1">
            <stop stop-color="#FFFFFF" offset="0%"></stop>
            <stop stop-color="#05A9D3" offset="100%"></stop>
        </linearGradient>
        <linearGradient x1="-7.56300688%" y1="114.462817%" x2="18.2775586%" y2="-85.9819231%" id="linearGradient-2">
            <stop stop-color="#FFFFFF" offset="0%"></stop>
            <stop stop-color="#05A9D3" offset="100%"></stop>
        </linearGradient>
        <linearGradient x1="-91.8387277%" y1="50%" x2="172.994172%" y2="109.159825%" id="linearGradient-3">
            <stop stop-color="#007D9E" offset="0%"></stop>
            <stop stop-color="#05A9D3" offset="100%"></stop>
        </linearGradient>
    </defs>
    <g id="token" stroke="none" stroke-width="1" fill="none" fill-rule="evenodd">
        <g id="Group-57">
            <g id="Group-37-Copy-6" opacity="0.521112351" fill="#28BDE3">
                <polygon id="Path" transform="translate(124.500000, 45.000000) scale(-1, 1) translate(-124.500000, -45.000000) " points="0 90 20.8558258 88.6498071 20.8314045 88.6883841 69.7473519 0.0771538791 69.7961946 0 69.8450373 0.0771538791 146.479208 71.7531076 146.405944 71.7531076 178.129266 37.8054008 178.178109 37.7668238 178.226952 37.8439777 212.636622 84.5992285 212.58778 84.5992285 249 59.9099871 212.636622 84.7535362 212.612201 84.7535362 212.58778 84.7149593 178.129266 37.9982855 178.226952 37.9982855 146.503629 71.9845692 146.454786 72.0617231 146.405944 71.9845692 69.7717732 0.270038577 69.8694586 0.270038577 20.8558258 88.726961 20.8558258 88.726961 20.8558258 88.726961"></polygon>
                <path d="M0,93 L20.344973,90.8076923 L20.3205493,90.8076923 L68.8016675,4.07692308 L68.850515,4 L68.8993624,4.03846154 L88.5360471,20.1153846 L98.3543894,28.1538462 L100.821187,30.1538462 L103.190289,32.3846154 L107.952918,36.8461538 L145.956253,72.7692308 L145.858558,72.7692308 L177.780383,43 L177.82923,42.9615385 L177.878077,43 L182.07896,48.6153846 L182.591859,49.3076923 L183.129181,49.9615385 L184.228249,51.2692308 L186.426385,53.8846154 L195.218931,64.3076923 L204.011476,74.7307692 C204.768612,75.5769231 205.452477,76.5384615 206.160765,77.4615385 L208.261206,80.2307692 L212.486513,85.8076923 L212.437666,85.8076923 L249,64.4230769 L212.462089,85.9615385 L212.437666,85.9615385 L212.413242,85.9230769 L208.187935,80.3846154 L206.087494,77.6153846 C205.379205,76.6923077 204.695341,75.7307692 203.938205,74.8846154 L195.14566,64.5 L186.353114,54.1153846 L184.154978,51.5 L183.05591,50.1923077 L182.518588,49.5384615 L182.005689,48.8461538 L177.804806,43.2307692 L177.878077,43.2307692 L145.956253,73.0769231 L145.907406,73.1153846 L145.858558,73.0769231 L107.855223,37.1923077 L103.117018,32.6923077 L100.747916,30.4615385 L98.3055419,28.4615385 L88.4871996,20.4230769 L68.850515,4.30769231 L68.9482099,4.26923077 L20.344973,90.8846154 L0,93 Z" id="Path" transform="translate(124.500000, 48.500000) scale(-1, 1) translate(-124.500000, -48.500000) "></path>
                <polygon id="Path" transform="translate(124.500000, 51.500000) scale(-1, 1) translate(-124.500000, -51.500000) " points="0 96 19.8359659 92.8976035 19.8115373 92.9363834 67.8624546 7.07755991 67.8868832 7 67.9357402 7.03877996 100.15697 30.0352941 100.181399 30.0352941 100.181399 30.0352941 145.423035 73.5464052 145.325321 73.5464052 177.448837 47.6026144 177.497694 47.5638344 177.522123 47.6026144 182.310115 54.0013072 182.310115 54.0013072 204.442362 76.6100218 204.442362 76.6488017 204.442362 76.6488017 212.332777 86.8479303 212.28392 86.8091503 249 68.4662309 212.308349 86.9642702 212.28392 87.0030501 212.259492 86.9642702 204.369077 76.7651416 204.369077 76.7651416 182.236829 54.195207 182.236829 54.195207 182.236829 54.195207 177.424409 47.7965142 177.497694 47.7965142 145.398607 73.8178649 145.374178 73.8566449 145.325321 73.8178649 100.083685 30.3067538 100.083685 30.3067538 67.8868832 7.27145969 67.9601687 7.23267974 19.8359659 92.9751634 19.8359659 92.9751634 19.8359659 92.9751634"></polygon>
                <polygon id="Path" transform="translate(124.500000, 55.500000) scale(-1, 1) translate(-124.500000, -55.500000) " points="0 100 19.3267589 96.0114236 19.3023256 96.0114236 66.9228731 11.0782074 66.9473064 11 66.9961731 11.0391037 99.4680601 30.7864675 99.4680601 30.7864675 99.4680601 30.7864675 144.889608 75.2864675 144.791875 75.2864675 177.117162 53.2319859 177.141596 53.2319859 177.190462 53.2710896 182.02826 59.6840949 182.003827 59.6840949 204.164851 78.6884886 204.164851 78.6884886 204.164851 78.6884886 212.178981 88.8945518 212.130115 88.8554482 249 73.6441125 212.154548 89.0118629 212.130115 89.0509666 212.105681 89.0118629 204.091551 78.8449033 204.115985 78.8449033 181.95496 59.8796134 181.930527 59.8796134 181.930527 59.8796134 177.092729 53.4275044 177.166029 53.4666081 144.865175 75.5601933 144.840742 75.599297 144.791875 75.5601933 99.3947601 31.0601933 99.3947601 31.0601933 66.9473064 11.2737258 67.0206064 11.2346221 19.3267589 96.0896309 19.3267589 96.0896309 19.3267589 96.0896309"></polygon>
                <polygon id="Path" transform="translate(124.500000, 59.000000) scale(-1, 1) translate(-124.500000, -59.000000) " points="0 103 18.817352 98.1262738 18.7929139 98.1652636 65.9584846 15.0779796 66.0073609 15 66.0562371 15.0389898 98.7544411 31.2587506 98.7788792 31.2977404 98.7788792 31.2977404 144.355972 76.2919805 144.282658 76.2919805 176.760919 58.4346478 176.809795 58.395658 176.834233 58.4346478 181.746295 64.8679663 181.721857 64.8289765 203.887231 79.9960124 203.887231 79.9960124 203.887231 79.9960124 212.025125 90.0163934 212.000687 90.0163934 249 78.0855117 212.000687 90.1723527 211.976249 90.1723527 211.976249 90.1723527 203.813917 80.1519716 203.838355 80.1519716 181.672981 65.0629154 181.648543 65.0239256 181.648543 65.0239256 176.736481 58.6295968 176.809795 58.6295968 144.331534 76.5649092 144.282658 76.603899 144.25822 76.5649092 98.6811267 31.5316792 98.7055648 31.570669 66.0073609 15.2729287 66.0806752 15.2339389 18.817352 98.2042534 18.817352 98.2042534 18.817352 98.2042534"></polygon>
                <polygon id="Path" transform="translate(124.500000, 61.500000) scale(-1, 1) translate(-124.500000, -61.500000) " points="0 105 18.2815077 99.2855228 18.2815077 99.2855228 65.0117786 18.077748 65.0362191 18 65.0851001 18.038874 98.0553592 30.7895442 98.0553592 30.7895442 98.0797998 30.8284182 143.808009 76.349866 143.734688 76.310992 176.411661 62.5884718 176.436101 62.5495979 176.484982 62.5884718 181.421967 69.002681 181.397527 68.963807 203.589517 80.2761394 203.589517 80.2761394 203.589517 80.3150134 211.850412 90.189008 211.825972 90.189008 249 81.5201072 211.825972 90.344504 211.825972 90.344504 211.801531 90.344504 203.540636 80.4705094 203.540636 80.4705094 181.373086 69.1970509 181.348645 69.1970509 181.348645 69.1581769 176.38722 62.7828418 176.460542 62.8217158 143.783569 76.5831099 143.734688 76.6219839 143.710247 76.5831099 97.9820377 31.0616622 98.0064782 31.1005362 65.0606596 18.272118 65.1339812 18.233244 18.3059482 99.3632708 18.3059482 99.3632708 18.3059482 99.3632708"></polygon>
                <polygon id="Path" transform="translate(124.500000, 65.500000) scale(-1, 1) translate(-124.500000, -65.500000) " points="0 109 17.7717455 102.334836 17.7717455 102.374042 64.0711761 22.0392068 64.0956214 22 64.1445121 22 97.3412527 31.4488508 97.365698 31.4488508 97.3901433 31.4880577 143.274004 78.0265886 143.200668 77.9873817 176.079619 68.2640829 176.104064 68.2640829 176.12851 68.3032898 181.1398 74.7332132 181.115354 74.7332132 203.311702 82.3001352 203.311702 82.3001352 203.311702 82.3001352 211.720891 92.1802614 211.672001 92.1802614 249 86.7305092 211.696446 92.3370888 211.672001 92.3370888 211.647555 92.3370888 203.262812 82.4569626 203.287257 82.4961694 181.090909 74.9292474 181.066464 74.9292474 181.042018 74.9292474 176.055174 68.4601172 176.104064 68.499324 143.249558 78.2618297 143.200668 78.3010365 143.176222 78.2618297 97.2923621 31.7232988 97.3168074 31.7625056 64.1200668 22.2744479 64.1689574 22.2352411 17.7961909 102.413249 17.7961909 102.413249 17.7961909 102.413249"></polygon>
                <polygon id="Path" transform="translate(124.500000, 68.000000) scale(-1, 1) translate(-124.500000, -68.000000) " points="0 111 17.2617832 103.494545 17.2617832 103.494545 63.1302042 25.0390909 63.1546544 25 63.1791045 25 96.6513158 30.9809091 96.6757659 30.9809091 96.6757659 30.9809091 142.739788 78.0463636 142.690888 78.0072727 175.747447 72.4563636 175.771897 72.4172727 175.796347 72.4563636 180.857522 78.9063636 180.808621 78.8672727 203.009328 82.62 203.033778 82.62 203.058229 82.62 211.56687 92.3536364 211.542419 92.3536364 249 90.1645455 211.542419 92.51 211.517969 92.51 211.493519 92.51 202.984878 82.7763636 203.009328 82.7763636 180.808621 79.1018182 180.784171 79.1018182 180.759721 79.0627273 175.698547 72.6518182 175.747447 72.6909091 142.715338 78.32 142.666438 78.32 142.641987 78.2809091 96.5779654 31.2545455 96.6268657 31.2545455 63.1791045 25.2345455 63.2280047 25.1954545 17.2862333 103.572727 17.2862333 103.572727 17.2862333 103.572727"></polygon>
                <polygon id="Path" transform="translate(124.500000, 71.500000) scale(-1, 1) translate(-124.500000, -71.500000) " points="0 114 16.7499754 105.620816 16.7499754 105.659789 62.1827556 29.0389729 62.2072081 29 62.2316606 29 95.9272317 31.5332416 95.9516842 31.5332416 95.9761367 31.5332416 142.191397 79.0802384 142.142492 79.0412655 175.373466 77.5992664 175.397918 77.5992664 175.422371 77.6382393 180.532947 84.0298028 180.508495 83.9908299 202.711382 83.912884 202.735834 83.912884 202.760287 83.9518569 211.392026 93.5392022 211.367573 93.5392022 249 94.5914718 211.367573 93.695094 211.343121 93.695094 211.343121 93.695094 202.686929 84.1077487 202.711382 84.1077487 180.508495 84.2246676 180.484042 84.2246676 180.45959 84.1856946 175.349013 77.7941311 175.397918 77.8331041 142.142492 79.3530491 142.11804 79.3530491 142.093587 79.3140761 95.8783266 31.8060523 95.9272317 31.8060523 62.2316606 29.2338377 62.2805656 29.1948647 16.774428 105.698762 16.774428 105.698762 16.774428 105.698762"></polygon>
                <polygon id="Path" transform="translate(124.500000, 74.500000) scale(-1, 1) translate(-124.500000, -74.500000) " points="0 117 16.2167976 107.784538 16.2167976 107.784538 61.1982318 32.9720952 61.2226916 32.9332113 61.2471513 32.9332113 95.2217092 32 95.246169 32 95.2706287 32.0388838 141.646267 80.0992681 141.621807 80.0992681 175.033792 82.7044831 175.058251 82.7044831 175.082711 82.7433669 180.243713 89.1203111 180.194794 89.1203111 202.428684 85.2319305 202.453143 85.2319305 202.477603 85.2708143 211.234185 94.7195791 211.209725 94.6806953 249 99.0356816 211.209725 94.8751144 211.185265 94.8751144 211.185265 94.8362306 202.404224 85.4263495 202.453143 85.4263495 180.219253 89.3147301 180.170334 89.3147301 180.170334 89.3147301 174.984872 82.9377859 175.033792 82.9377859 141.597348 80.3714547 141.572888 80.3714547 141.548428 80.3325709 95.1727898 32.2721866 95.2217092 32.3110704 61.271611 33.1665142 61.3205305 33.1276304 16.2412574 107.862306 16.2412574 107.862306 16.2412574 107.862306"></polygon>
                <polygon id="Path" transform="translate(124.500000, 76.000000) scale(-1, 1) translate(-124.500000, -76.000000) " points="0 120 15.7062291 109.892683 15.7062291 109.892683 60.2561407 36.4097561 60.2806052 36.3707317 60.3050698 36.3707317 94.5064846 32 94.5554136 32 94.5798782 32.0390244 141.111417 80.897561 141.086952 80.897561 174.701218 87.6487805 174.725683 87.6487805 174.725683 87.6487805 179.961093 94.0487805 179.887699 94.0487805 202.150422 86.3609756 202.174887 86.3609756 202.199352 86.3609756 211.104441 95.7658537 211.079976 95.7268293 249 103.336585 211.055512 95.9219512 211.055512 95.9219512 211.031047 95.8829268 202.125958 86.5170732 202.174887 86.5560976 179.936628 94.2829268 179.887699 94.2829268 179.863234 94.2439024 174.652289 87.8439024 174.676754 87.8829268 141.062488 81.1707317 141.038023 81.1707317 141.013559 81.1317073 94.48202 32.2731707 94.5309491 32.3121951 60.3295343 36.604878 60.3539988 36.5658537 15.7306937 109.931707 15.7306937 109.931707 15.7306937 109.931707"></polygon>
                <polygon id="Path" transform="translate(124.500000, 77.500000) scale(-1, 1) translate(-124.500000, -77.500000) " points="0 122 15.1939668 111.200516 15.1939668 111.200516 59.307851 40.6592083 59.332318 40.6592083 59.3567849 40.6592083 93.8062297 33 93.8306967 33 93.8551636 33.038296 140.58701 81.5976764 140.538076 81.5976764 174.351381 92.2439759 174.351381 92.2439759 174.375847 92.2822719 179.636239 98.5628227 179.587305 98.5245267 201.852216 87.2654905 201.876683 87.2271945 201.90115 87.2654905 210.929449 96.3799484 210.904982 96.3416523 249 106.987952 210.880515 96.5331325 210.880515 96.5331325 210.856048 96.4948365 201.827749 87.4186747 201.876683 87.4186747 179.636239 98.7543029 179.587305 98.7543029 179.562838 98.7160069 174.27798 92.4737522 174.326914 92.4737522 140.513609 81.8657487 140.489142 81.8657487 140.489142 81.8657487 93.7572959 33.2680723 93.8306967 33.3063683 59.3567849 40.8889845 59.4057188 40.8506885 15.2184337 111.277108 15.2184337 111.277108 15.2184337 111.277108"></polygon>
                <polygon id="Path" transform="translate(124.500000, 79.000000) scale(-1, 1) translate(-124.500000, -79.000000) " points="0 125 14.6830467 113.312578 14.6830467 113.312578 58.3651106 44.0722942 58.3651106 44.0722942 58.3895823 44.0722942 93.090516 33 93.1394595 33 93.1639312 33.0384455 140.051794 82.4024237 140.027322 82.4024237 173.994103 97.1654827 174.018575 97.1654827 174.018575 97.1654827 179.353415 103.470539 179.28 103.470539 201.573759 88.361471 201.598231 88.361471 201.622703 88.3999164 210.775135 97.3961555 210.750663 97.3961555 249 111.313414 210.726192 97.5883828 210.726192 97.5499373 210.726192 97.5499373 201.549287 88.5536983 201.622703 88.5536983 179.353415 103.662766 179.304472 103.701212 179.28 103.662766 173.94516 97.35771 173.969631 97.35771 139.978378 82.671542 139.953907 82.671542 139.953907 82.671542 93.0660442 33.2691183 93.1394595 33.2691183 58.4140541 44.2645215 58.4629975 44.2645215 14.7075184 113.351024 14.7075184 113.351024 14.7075184 113.351024"></polygon>
                <polygon id="Path" transform="translate(124.500000, 81.000000) scale(-1, 1) translate(-124.500000, -81.000000) " points="0 129 14.1719257 116.249391 14.1719257 116.249391 57.4219994 47.661251 57.4219994 47.661251 57.446476 47.6222583 92.3989973 33 92.4234739 33 92.472427 33.0389927 139.516367 83.7684809 139.49189 83.7294882 173.661162 102.796913 173.685638 102.796913 173.685638 102.796913 179.070481 109.191714 178.997051 109.191714 201.295193 90.0852965 201.31967 90.0852965 201.344146 90.0852965 210.620761 99.1316003 210.620761 99.1316003 249 116.483347 210.596284 99.2875711 210.571808 99.2875711 210.571808 99.2875711 201.295193 90.28026 201.344146 90.28026 179.070481 109.386677 179.021528 109.42567 178.972574 109.386677 173.587732 102.991877 173.612209 103.030869 139.442937 84.002437 139.418461 84.002437 139.418461 84.002437 92.3745208 33.2729488 92.4479505 33.2729488 57.4709525 47.8562145 57.5199056 47.8172218 14.1964022 116.327376 14.1964022 116.327376 14.1964022 116.327376"></polygon>
                <polygon id="Path" transform="translate(124.500000, 83.000000) scale(-1, 1) translate(-124.500000, -83.000000) " points="0 132 13.6592607 118.492101 13.6592607 118.492101 56.448486 51.9976303 56.472965 51.9976303 56.497444 51.9589258 91.6737122 34.0387046 91.7226701 34 91.771628 34.0387046 138.967066 85.0513428 138.942587 85.0126382 173.31105 108.00316 173.31105 108.041864 173.335529 108.041864 178.769858 114.389415 178.671943 114.350711 200.996756 91.6311216 201.021235 91.5924171 201.045714 91.6311216 210.445635 100.494471 210.445635 100.494471 249 120.93049 210.421156 100.649289 210.396677 100.649289 210.396677 100.649289 200.996756 91.78594 201.045714 91.78594 178.745379 114.544234 178.720901 114.621643 178.671943 114.544234 173.237613 108.235387 173.262092 108.235387 138.869151 85.2835703 138.869151 85.2835703 138.869151 85.2835703 91.6737122 34.2709321 91.747149 34.3096367 56.5219229 52.1911532 56.5464019 52.1524487 13.6837397 118.530806 13.6837397 118.530806 13.6837397 118.530806"></polygon>
                <polygon id="Path" transform="translate(124.500000, 84.000000) scale(-1, 1) translate(-124.500000, -84.000000) " points="0 134 13.1477876 119.664873 13.1477876 119.664873 55.5047198 55.2528824 55.5292035 55.2144504 55.5292035 55.2144504 90.9817109 34.038432 91.0306785 34 91.0551622 34.038432 138.431268 85.3066872 138.431268 85.2682552 172.977876 112.170638 172.977876 112.170638 172.977876 112.170638 178.462242 118.473482 178.388791 118.473482 200.717994 92.1475788 200.742478 92.1091468 200.766962 92.1475788 210.315634 100.833205 210.29115 100.833205 249 124.353574 210.266667 100.986933 210.266667 100.986933 210.266667 100.986933 200.717994 92.3013067 200.766962 92.3013067 178.462242 118.665642 178.437758 118.704074 178.388791 118.665642 172.879941 112.362798 172.904425 112.362798 138.333333 85.537279 138.333333 85.537279 138.333333 85.537279 90.9572271 34.2690238 91.0306785 34.3074558 55.5781711 55.4450423 55.6026549 55.4066103 13.1722714 119.741737 13.1722714 119.741737 13.1722714 119.741737"></polygon>
                <polygon id="Path" transform="translate(124.500000, 85.500000) scale(-1, 1) translate(-124.500000, -85.500000) " points="0 137 12.6361133 121.767877 12.6361133 121.767877 54.5605822 58.7184575 54.5605822 58.6798952 54.5850708 58.6798952 90.2894375 34.0385623 90.313926 34 90.3629032 34.0385623 137.89526 86.0977162 137.89526 86.0977162 172.620083 117.101835 172.644571 117.101835 172.644571 117.101835 178.178993 123.426058 178.081039 123.426058 200.439123 93.2703107 200.463611 93.2317484 200.4881 93.2317484 210.161094 101.869712 210.161094 101.869712 249 128.670535 210.112116 102.023961 210.112116 102.023961 210.112116 102.023961 200.439123 93.4245601 200.512589 93.3859978 178.178993 123.618869 178.130016 123.657432 178.105527 123.618869 172.546617 117.333209 172.546617 117.333209 137.797305 86.3676526 137.797305 86.3290902 137.797305 86.3290902 90.2649489 34.2699364 90.3384146 34.2699364 54.634048 58.8727069 54.6585366 58.8727069 12.6606019 121.80644 12.6606019 121.80644 12.6606019 121.80644"></polygon>
                <path d="M1,141 L7.95544408,131.663381 L11.4331661,126.975539 L13.1720271,124.631617 L14.8374152,122.131435 L28.0870463,102.208105 L54.6107996,62.4395765 L90.5635881,34.0390654 L90.6125701,34 L90.6615521,34.0390654 L134.304515,82.8316904 L137.023016,85.8787879 L138.394512,87.4023366 L139.790499,88.8477547 L145.398938,94.5512961 L156.615816,105.958379 L167.832694,117.365462 C169.69401,119.279664 171.579817,121.154801 173.441133,123.108069 L178.853644,129.280394 L178.75568,129.280394 L201.115963,94.9028843 L201.140454,94.8638189 L201.189436,94.9028843 L207.16524,100.176707 L210.153143,102.794085 L210.912364,103.458196 C211.157274,103.653523 211.426675,103.84885 211.671585,104.044177 L213.214518,105.255203 L225.484509,114.826214 L250,133.968237 L225.435527,114.94341 L213.165536,105.450529 L211.622603,104.278569 C211.377693,104.083242 211.108292,103.887915 210.863382,103.692589 L210.104161,103.028478 L207.116258,100.411099 L201.140454,95.1372764 L201.213927,95.1372764 L178.878135,129.553852 L178.829153,129.631982 L178.780171,129.592917 L173.36766,123.420591 C171.506344,121.506389 169.620537,119.592187 167.759221,117.71705 L156.517852,106.309967 L145.276483,94.9028843 L139.668044,89.1993428 L138.272057,87.7539248 L136.900561,86.230376 L134.18206,83.1832786 L90.5635881,34.3515882 L90.6615521,34.3515882 L54.7087636,62.713034 L54.7332546,62.713034 L28.1605193,102.325301 L14.8863972,122.1705 L13.2210091,124.670683 L11.4821481,127.014604 L8.00442608,131.663381 L1,141 Z" id="Path" transform="translate(125.500000, 87.500000) scale(-1, 1) translate(-125.500000, -87.500000) "></path>
                <polygon id="Path" transform="translate(125.500000, 88.500000) scale(-1, 1) translate(-125.500000, -88.500000) " points="1 143 53.6660108 65.6639373 53.6660108 65.6639373 53.6660108 65.6639373 89.8708313 34.0388038 89.9198229 34 89.9443187 34.0388038 178.570192 133.41545 178.496704 133.41545 200.861387 95.4652901 200.885883 95.4264863 200.910379 95.4652901 250 137.373443 200.861387 95.6205055 200.934875 95.6205055 178.594688 133.570666 178.545696 133.648273 178.496704 133.60947 89.8463355 34.2716269 89.9443187 34.2716269 53.7394983 65.8579566 53.7394983 65.8191527"></polygon>
                <polygon id="Path" transform="translate(125.500000, 92.500000) scale(-1, 1) translate(-125.500000, -92.500000) " points="1 146 52.8280543 71.08051 52.8280543 71.08051 52.8280543 71.08051 89.4457014 39.03898 89.4946882 39 89.543675 39.03898 174.85422 136.644809 174.756246 136.644809 200.988688 99.6528233 201.037675 99.6138434 201.062168 99.6528233 250 141.127505 201.013181 99.8087432 201.086661 99.8087432 174.878713 136.839709 174.829727 136.878689 174.78074 136.839709 89.4457014 39.2728597 89.543675 39.2728597 52.9015345 71.2364299 52.9015345 71.2364299"></polygon>
                <polygon id="Path" transform="translate(124.500000, 93.500000) scale(-1, 1) translate(-124.500000, -93.500000) " points="0 145 50.9852478 73.8992537 51.0097364 73.8992537 51.0097364 73.8608209 88.0609756 42.0384328 88.1099528 42 88.1344414 42.0384328 170.146735 136.083582 170.04878 136.083582 200.14526 100.68694 200.169748 100.648507 200.218725 100.68694 249 140.964552 200.169748 100.879104 200.218725 100.840672 170.146735 136.275746 170.097758 136.314179 170.04878 136.275746 88.036487 42.2690299 88.1344414 42.2690299 51.0587136 74.0529851 51.0832022 74.0529851"></polygon>
                <polygon id="Path" transform="translate(124.500000, 96.000000) scale(-1, 1) translate(-124.500000, -96.000000) " points="0 146 50.1477038 77.9571865 50.17219 77.9571865 50.17219 77.9571865 87.6360507 46.0382263 87.6850231 46 87.7339955 46.0382263 166.432589 137.399083 166.334645 137.399083 200.296981 103.301223 200.321467 103.262997 200.345953 103.301223 249 142.750765 200.296981 103.454128 200.37044 103.454128 166.432589 137.590214 166.383617 137.666667 166.334645 137.590214 87.6360507 46.2675841 87.7339955 46.2675841 50.2211624 78.148318 50.2456485 78.1100917"></polygon>
                <polygon id="Path" transform="translate(124.500000, 98.500000) scale(-1, 1) translate(-124.500000, -98.500000) " points="0 148 49.3299577 81.7025862 49.3299577 81.7025862 49.3544391 81.7025862 87.2515977 49.0387931 87.3005604 49 87.3495232 49.0387931 162.727657 139.543103 162.629732 139.543103 200.453446 106.064655 200.477927 106.025862 200.502409 106.064655 249 145.478448 200.453446 106.219828 200.502409 106.219828 162.703176 139.775862 162.678694 139.814655 162.629732 139.775862 87.2271163 49.2715517 87.3250418 49.2715517 49.4034018 81.8577586 49.4278832 81.8577586"></polygon>
                <polygon id="Path" transform="translate(124.500000, 100.500000) scale(-1, 1) translate(-124.500000, -100.500000) " points="0 149 48.4928234 85.1390675 48.4928234 85.1390675 48.4928234 85.1000804 86.8268777 52.0389871 86.8758356 52 86.9247936 52.0779743 159.015336 140.773714 158.91742 140.773714 200.605092 108.219453 200.629571 108.219453 200.65405 108.219453 249 147.245579 200.605092 108.414389 200.65405 108.414389 158.990857 141.007637 158.941899 141.046624 158.91742 141.007637 86.8268777 52.27291 86.9247936 52.27291 48.5662603 85.2950161 48.5662603 85.2950161"></polygon>
                <polygon id="Path" transform="translate(124.500000, 102.000000) scale(-1, 1) translate(-124.500000, -102.000000) " points="0 149 47.6756438 88.1947195 47.6756438 88.1947195 47.6756438 88.1947195 86.4426971 55.0387789 86.4916454 55 86.5405937 55.0775578 155.312955 141.127888 155.215058 141.089109 200.736977 109.833333 200.761451 109.794554 200.785925 109.833333 249 148.030528 200.736977 109.988449 200.785925 109.988449 155.28848 141.321782 155.239532 141.360561 155.190584 141.321782 86.4182229 55.2714521 86.5161195 55.310231 47.7490662 88.3886139 47.7490662 88.349835"></polygon>
                <polygon id="Path" transform="translate(124.500000, 106.000000) scale(-1, 1) translate(-124.500000, -106.000000) " points="0 151 46.8389189 93.9007634 46.8389189 93.9007634 46.8389189 93.9007634 86.0426536 61.0381679 86.0671253 61 86.1160688 61.0381679 151.577985 143.557252 151.50457 143.519084 200.88855 113.824427 200.913022 113.824427 200.937494 113.824427 249 150.847328 200.88855 114.015267 200.937494 114.015267 151.553514 143.78626 151.529042 143.78626 151.480098 143.748092 86.0181818 61.2290076 86.1160688 61.2671756 46.9123342 94.0534351 46.9123342 94.0534351"></polygon>
                <polygon id="Path" transform="translate(124.500000, 107.500000) scale(-1, 1) translate(-124.500000, -107.500000) " points="0 151.38355 46.0223052 96.4809524 46.0223052 96.4809524 46.0223052 96.4424242 85.6342734 63.0385281 85.6832072 63 85.7321411 63.0385281 147.878157 144.14026 147.804756 144.101732 201.044807 115.244156 201.069274 115.244156 201.093741 115.244156 249 152 201.044807 115.436797 201.069274 115.436797 147.85369 144.371429 147.804756 144.409957 147.780289 144.3329 85.6098064 63.2311688 85.7076742 63.269697 46.0712391 96.6350649 46.095706 96.6350649"></polygon>
                <polygon id="Path" transform="translate(124.500000, 111.500000) scale(-1, 1) translate(-124.500000, -111.500000) " points="0 154.624724 45.1859894 101.381898 45.1859894 101.381898 45.1859894 101.381898 85.2344272 67.0392936 85.2833563 67 85.3078208 67.0392936 144.169483 147.512583 144.09609 147.473289 201.196306 119.181898 201.196306 119.142605 201.22077 119.181898 249 156 201.171841 119.339073 201.22077 119.339073 144.145019 147.748344 144.09609 147.787638 144.047161 147.748344 85.2099627 67.2750552 85.3078208 67.2750552 45.2349185 101.578366 45.2349185 101.539073"></polygon>
                <polygon id="Path" transform="translate(124.500000, 113.500000) scale(-1, 1) translate(-124.500000, -113.500000) " points="0 154.845565 44.3454813 104.549302 44.3699411 104.549302 44.3699411 104.549302 84.8263261 70.0391715 84.8752456 70 84.924165 70.0391715 140.4722 148.029716 140.398821 147.990545 201.327996 120.883836 201.352456 120.883836 201.376916 120.883836 249 157 201.327996 121.079694 201.376916 121.079694 140.447741 148.303917 140.398821 148.303917 140.349902 148.264746 84.8018664 70.2742008 84.8997053 70.2742008 44.4188605 104.705988 44.4188605 104.705988"></polygon>
                <polygon id="Path" transform="translate(124.500000, 117.000000) scale(-1, 1) translate(-124.500000, -117.000000) " points="0 156.106109 43.5095767 109.302251 43.5095767 109.302251 43.534034 109.302251 84.4266771 75.0385852 84.4755918 75 84.5000491 75.0771704 136.765347 149.662379 136.667518 149.623794 201.479422 124.041801 201.50388 124.041801 201.528337 124.041801 249 159 201.479422 124.234727 201.50388 124.234727 136.716433 149.932476 136.667518 149.932476 136.643061 149.893891 84.4022198 75.2700965 84.5000491 75.2700965 43.5829486 109.456592 43.5829486 109.456592"></polygon>
                <polygon id="Path" transform="translate(124.500000, 118.500000) scale(-1, 1) translate(-124.500000, -118.500000) " points="0 156.264416 42.694098 111.826535 42.694098 111.826535 42.694098 111.826535 84.018855 77.0389123 84.06776 77 84.116665 77.0778247 133.070608 150.116268 132.972798 150.077356 201.635471 125.368026 201.659923 125.329114 201.659923 125.368026 249 160 201.611018 125.523676 201.659923 125.523676 133.021703 150.349742 132.972798 150.388654 132.948345 150.31083 83.9944024 77.2723863 84.0922125 77.2723863 42.7674556 112.021097 42.7674556 111.982185"></polygon>
                <polygon id="Path" transform="translate(124.500000, 120.500000) scale(-1, 1) translate(-124.500000, -120.500000) " points="0 156.502154 41.8586017 114.974629 41.8586017 114.974629 41.8586017 114.974629 83.619403 80.0387745 83.6683032 80 83.7172035 80.0775491 129.365573 150.6472 129.267773 150.608425 201.762372 127.072283 201.786822 127.072283 201.811273 127.072283 249 161 201.762372 127.266156 201.786822 127.266156 129.316673 150.879847 129.267773 150.918621 129.218873 150.841072 83.5949529 80.2714217 83.6927533 80.2714217 41.907502 115.129727 41.9319521 115.129727"></polygon>
                <polygon id="Path" transform="translate(125.500000, 125.500000) scale(-1, 1) translate(-125.500000, -125.500000) " points="1 159.74621 41.9947968 121.154034 84.2118594 86.0772616 84.26075 86 84.3096407 86.0772616 126.673375 154.183374 126.575594 154.144743 202.918319 131.816137 202.942765 131.816137 202.96721 131.816137 250 165 202.918319 132.009291 202.942765 132.009291 126.600039 154.45379 126.551149 154.45379 126.526703 154.415159 84.1874141 86.2704156 84.2851954 86.3090465 42.0681327 121.308557"></polygon>
                <path d="M1,159.92004 L21.5280204,141.641679 L31.7920306,132.521739 L36.9240357,127.981009 L39.4900383,125.710645 C40.3453725,124.941029 41.2007066,124.171414 42.0804789,123.478761 L83.8207871,89.0384808 L83.8696634,89 L83.9185396,89.0769615 L122.970655,154.725137 L122.872902,154.686657 L203.054372,133.56072 L203.07881,133.56072 L203.103249,133.56072 L250,166 L203.054372,133.753123 L203.07881,133.753123 L122.921778,155.032984 L122.872902,155.032984 L122.848464,154.956022 L83.7719109,89.1924038 L83.8696634,89.2308846 L42.1049171,123.594203 C41.2251448,124.286857 40.3698106,125.056472 39.5144764,125.826087 L36.9484738,128.096452 L31.8164687,132.637181 L21.5524585,141.718641 L1,159.92004 Z" id="Path" transform="translate(125.500000, 127.500000) scale(-1, 1) translate(-125.500000, -127.500000) "></path>
                <path d="M1,162.158056 L21.5524585,144.742199 C28.395132,138.949872 35.2622436,133.11867 42.1293552,127.365217 L83.4053391,93.0388747 L83.4542153,93 L83.5030916,93.0777494 L119.25606,157.182097 L119.158308,157.143223 L203.201001,136.889514 L203.225439,136.889514 L203.249877,136.889514 L250,169 L203.201001,137.045013 L203.225439,137.045013 L119.207184,157.415345 L119.158308,157.415345 L119.13387,157.337596 L83.4053391,93.1943734 L83.5030916,93.2332481 L42.2026695,127.481841 L1,162.158056 Z" id="Path" transform="translate(125.500000, 131.000000) scale(-1, 1) translate(-125.500000, -131.000000) "></path>
                <polygon id="Path" transform="translate(125.500000, 133.500000) scale(-1, 1) translate(-125.500000, -133.500000) " points="1 163.307692 21.5993131 146.784929 31.8867517 138.543171 37.0426889 134.422292 39.6084396 132.342229 42.1741904 130.22292 83.0062807 96.0392465 83.0551521 96 83.1040236 96.0784929 115.554661 158.55887 115.481354 158.480377 203.352208 139.171115 203.376644 139.171115 203.401079 139.171115 250 171 203.352208 139.367347 203.376644 139.367347 115.50579 158.833595 115.432483 158.833595 115.408047 158.755102 82.9818449 96.2354788 83.0795878 96.2747253 42.2230618 130.379906 39.6573111 132.499215 37.0915604 134.579278 31.9356232 138.700157 21.6237488 146.902669"></polygon>
                <polygon id="Path" transform="translate(125.500000, 136.000000) scale(-1, 1) translate(-125.500000, -136.000000) " points="1 163.670059 21.6441327 148.552758 31.9539835 140.994108 37.1089089 137.214783 38.403748 136.25067 38.745781 136.019282 39.0389521 135.787895 39.6741562 135.247991 42.2149725 133.165506 82.5992936 100.038565 82.6725863 100 82.6970173 100.077129 111.867543 159.273701 111.769819 159.196572 203.507947 141.302625 203.532378 141.302625 203.532378 141.341189 250 172 203.483516 141.495447 203.532378 141.495447 111.79425 159.543653 111.745389 159.543653 111.720958 159.466524 82.5748626 100.231387 82.6725863 100.269952 42.2638344 133.358329 39.7230181 135.40225 39.087814 135.942153 38.7702119 136.17354 38.4526099 136.404928 37.1577708 137.369041 32.0028454 141.109802 21.6685636 148.629888"></polygon>
                <path d="M1,165.592798 L21.0577904,150.700831 L31.0744702,143.254848 L36.08281,139.531856 L37.3287873,138.601108 L37.6463893,138.368421 L37.9639914,138.096953 L38.5747645,137.592798 L41.0178571,135.576177 L80.3027865,103.038781 L80.3516484,103 L80.4005102,103.077562 L95.6698391,131.116343 L103.316719,145.116343 C104.587127,147.443213 105.833104,149.808864 107.103513,152.174515 L110.865875,159.271468 L110.768151,159.232687 L181.93544,147.869806 L199.696723,144.495845 L201.919937,144.108033 C202.286401,144.069252 202.652865,143.952909 203.04376,143.952909 C203.239207,143.99169 203.410224,144.108033 203.605671,144.185596 C203.776688,144.263158 203.972135,144.379501 204.143151,144.457064 C205.560145,145.232687 206.952708,146.047091 208.345271,146.900277 C211.130396,148.567867 213.915522,150.274238 216.700648,151.980609 C222.270899,155.432133 227.816719,158.922438 233.362539,162.412742 C238.908359,165.903047 244.45418,169.393352 250,173 C244.45418,169.432133 238.908359,165.980609 233.338108,162.490305 C227.792288,159 222.222037,155.548476 216.651786,152.135734 C213.86666,150.429363 211.081535,148.722992 208.296409,147.055402 C206.903846,146.240997 205.511283,145.387812 204.09429,144.65097 C203.752257,144.457064 203.385793,144.263158 203.04376,144.146814 C202.701727,144.146814 202.310832,144.263158 201.944368,144.301939 L199.721154,144.728532 L181.95987,148.141274 L110.792582,159.620499 L110.743721,159.620499 L110.71929,159.542936 L106.956927,152.445983 C105.71095,150.080332 104.464973,147.714681 103.194564,145.387812 L95.5721154,131.34903 L80.3272174,103.310249 L80.4249411,103.34903 L41.066719,135.731302 L38.5991954,137.747922 L37.9884223,138.252078 L37.6708203,138.523546 L37.3532182,138.756233 L36.107241,139.686981 L31.0989011,143.409972 L21.0577904,150.817175 L1,165.592798 Z" id="Path" transform="translate(125.500000, 138.000000) scale(-1, 1) translate(-125.500000, -138.000000) "></path>
                <path d="M1,168.79701 L20.4752699,154.271995 L30.2006869,147.028752 L35.0633955,143.407131 L36.2851816,142.520989 L36.5784102,142.289822 L36.8716389,142.058654 L37.4580962,141.557792 L39.8527969,139.592869 L77.9969578,108.038528 L78.0458292,108 L78.0947007,108.077056 L94.0512267,134.160437 L102.041708,147.221392 C103.385672,149.378953 104.65633,151.652099 105.951423,153.886717 L109.812267,160.590569 L109.73896,160.552041 L181.286752,151.729155 C187.224632,150.650374 193.162512,149.533065 199.124828,148.492812 L201.348479,148.107533 C201.715015,148.030477 202.081551,147.991949 202.472522,147.953422 C202.668008,147.953422 202.863494,148.030477 203.034544,148.069005 C203.230029,148.146061 203.401079,148.184589 203.57213,148.261645 C205.013837,148.878091 206.431109,149.610121 207.872816,150.380679 C210.70736,151.883266 213.541904,153.46291 216.352012,155.042553 C221.996663,158.240368 227.616879,161.515239 233.212659,164.867165 L241.618548,169.875791 L245.821492,172.418631 C247.214328,173.266245 248.6316,174.113859 250,175 C248.607164,174.113859 247.214328,173.266245 245.821492,172.418631 L241.618548,169.914319 L233.212659,164.944221 C227.592444,161.66935 221.972228,158.39448 216.327576,155.196665 C213.517468,153.617021 210.682924,152.037378 207.848381,150.53479 C206.431109,149.80276 205.013837,149.032202 203.57213,148.454284 C203.401079,148.377228 203.205594,148.300173 203.034544,148.261645 C202.863494,148.184589 202.668008,148.146061 202.496958,148.146061 C202.130422,148.184589 201.763886,148.223117 201.372915,148.300173 L199.149264,148.685451 C193.211384,149.725704 187.273503,150.843013 181.311187,151.960322 L109.763395,160.860265 L109.714524,160.860265 L109.690088,160.821737 L105.829244,154.117884 C104.534151,151.883266 103.263494,149.610121 101.919529,147.452559 L93.9534838,134.314549 L78.0213935,108.192639 L78.1191364,108.231167 L39.926104,139.708453 L37.5314033,141.673376 L36.944946,142.174238 L36.6517174,142.405405 L36.3584887,142.636573 L35.1367026,143.522714 L30.2739941,147.144336 L20.5241413,154.349051 L1,168.79701 Z" id="Path" transform="translate(125.500000, 141.500000) scale(-1, 1) translate(-125.500000, -141.500000) "></path>
                <path d="M1,171.874552 L19.885106,157.546595 L29.3154435,150.402031 L34.0306122,146.829749 L35.2032967,145.936679 C35.3987441,145.781362 35.5941915,145.626045 35.7896389,145.470729 L36.3759812,145.004779 L38.6969192,143.063321 L75.7097724,112.038829 L75.7586342,112 L75.8074961,112.038829 L92.4449568,136.578853 L100.775903,148.848865 C102.192896,150.829152 103.487735,153.042413 104.807005,155.178017 L108.789246,161.623656 L108.715954,161.584827 L180.61617,155.216846 C186.577316,154.12963 192.538462,153.042413 198.524038,152.071685 C199.281397,151.955197 200.014325,151.83871 200.771684,151.722222 C201.138148,151.683393 201.529042,151.605735 201.895506,151.566906 C202.286401,151.566906 202.652865,151.683393 203.019329,151.761051 C204.485184,152.227001 205.926609,152.925926 207.392465,153.586022 C210.275314,154.945042 213.133732,156.42055 215.992151,157.896057 C221.708987,160.885902 227.376962,164.031063 233.044937,167.215054 C235.878925,168.807049 238.712912,170.399044 241.5469,172.029869 L245.77345,174.476105 L247.89894,175.718638 C248.607437,176.145759 249.315934,176.53405 250,177 C249.315934,176.53405 248.607437,176.145759 247.89894,175.718638 L245.77345,174.476105 L241.522469,172.068698 C238.688481,170.476703 235.854494,168.884707 233.020506,167.292712 C227.352531,164.147551 221.660126,161.041219 215.943289,158.051374 C213.08487,156.575866 210.226452,155.100358 207.343603,153.741338 C205.902178,153.081243 204.460754,152.421147 202.994898,151.955197 C202.628434,151.83871 202.26197,151.722222 201.895506,151.761051 C201.529042,151.799881 201.138148,151.83871 200.771684,151.916368 C200.014325,152.032855 199.281397,152.149343 198.524038,152.26583 C192.562892,153.275388 186.601746,154.362605 180.61617,155.449821 L108.715954,161.934289 L108.667092,161.934289 L108.642661,161.89546 L104.684851,155.372162 C103.34115,153.236559 102.070742,151.023297 100.653748,149.043011 L92.3472331,136.772999 L75.7097724,112.232975 L75.8074961,112.232975 L38.745781,143.179809 L36.424843,145.121266 L35.8385008,145.587216 C35.6430534,145.742533 35.447606,145.897849 35.2521586,146.053166 L34.0794741,146.946237 L29.3643053,150.518519 L19.9095369,157.624253 L1,171.874552 Z" id="Path" transform="translate(125.500000, 144.500000) scale(-1, 1) translate(-125.500000, -144.500000) "></path>
            </g>
            <path d="M65,67.5 L186,67.5" id="Line-Copy-3" stroke="#BBDDE5" stroke-linecap="square"></path>
            <g id="Group-10-Copy-15" transform="translate(69.000000, 65.000000)">
                <polygon id="Path-3" fill="url(#linearGradient-1)" points="0 112 25.8365167 62.5182453 29.8862944 34.9202252 55.9013395 1 69.1281076 12.685855 75.9215862 25.2590852 85.8909925 46.5498381 92.00481 65.0065351 112 112"></polygon>
                <polygon id="Path-3" fill="url(#linearGradient-1)" points="0 112 25.835166 62.5182453 29.8847319 34.9202252 55.898417 1 69.1244936 12.685855 75.917617 25.2590852 85.8865021 46.5498381 92 65.0065351"></polygon>
                <polygon id="Path-3" fill="url(#linearGradient-1)" points="26 61.5119643 29.9782732 33.9167619 55.5339866 0 68.5272176 11.6846619 75.2007479 24.2566083 84.9941305 45.5451875 91 64"></polygon>
                <polygon id="Path-3" fill="url(#linearGradient-1)" points="26 63 30.1237571 35.6344726 56.6140329 2 70.0824214 13.5874104 77 26.0547205"></polygon>
                <polygon id="Path-3" fill="url(#linearGradient-2)" points="30 35 56.5602123 2 70.0641584 13.3688283 77 25.600958"></polygon>
            </g>
            <g id="Group-7-Copy-15" transform="translate(116.000000, 57.000000)">
                <polygon id="Star" fill="url(#linearGradient-3)" points="10.25 14.5 6.56939203 12.375 6.56939203 8.125 10.25 6 13.930608 8.125 13.930608 12.375"></polygon>
                <circle id="Oval" stroke="#589CAD" fill-opacity="0.12" fill="#9EDEEE" cx="10" cy="10" r="9.5"></circle>
            </g>
            <path d="M127.712,127.72 C129.674676,128.040002 131.178661,128.770661 132.224,129.912 C133.269339,131.053339 133.792,132.466658 133.792,134.152 C133.792,135.45334 133.45067,136.653328 132.768,137.752 C132.08533,138.850672 131.04534,139.730663 129.648,140.392 C128.25066,141.053337 126.538677,141.384 124.512,141.384 C122.933325,141.384 121.381341,141.176002 119.856,140.76 C118.330659,140.343998 117.034672,139.752004 115.968,138.984 L117.984,135.016 C118.837338,135.656003 119.823994,136.151998 120.944,136.504 C122.064006,136.856002 123.210661,137.032 124.384,137.032 C125.68534,137.032 126.70933,136.781336 127.456,136.28 C128.20267,135.778664 128.576,135.069338 128.576,134.152 C128.576,132.317324 127.178681,131.4 124.384,131.4 L122.016,131.4 L122.016,127.976 L126.624,122.76 L117.088,122.76 L117.088,118.6 L132.768,118.6 L132.768,121.96 L127.712,127.72 Z" id="3-copy-4" fill="#FFFFFF"></path>
        </g>
    </g>
</svg>