<?xml version="1.0" encoding="UTF-8"?>
<svg width="42px" height="44px" viewBox="0 0 42 44" version="1.1" xmlns="http://www.w3.org/2000/svg" xmlns:xlink="http://www.w3.org/1999/xlink">
    <!-- Generator: sketchtool 52.3 (67297) - http://www.bohemiancoding.com/sketch -->
    <title>6EEF7BE1-5BDD-4E8F-A3E2-4B1DA99408AA</title>
    <desc>Created with sketchtool.</desc>
    <defs>
        <linearGradient x1="50%" y1="39.4886364%" x2="50%" y2="81.7105877%" id="linearGradient-1">
            <stop stop-color="#FFFFFF" offset="0%"></stop>
            <stop stop-color="#E5F3FF" offset="100%"></stop>
        </linearGradient>
        <rect id="path-2" x="0" y="0" width="42" height="42" rx="21"></rect>
        <filter x="-2.4%" y="-2.4%" width="104.8%" height="109.5%" filterUnits="objectBoundingBox" id="filter-3">
            <feOffset dx="0" dy="2" in="SourceAlpha" result="shadowOffsetOuter1"></feOffset>
            <feColorMatrix values="0 0 0 0 0   0 0 0 0 0.717647059   0 0 0 0 0.905882353  0 0 0 1 0" type="matrix" in="shadowOffsetOuter1"></feColorMatrix>
        </filter>
    </defs>
    <g id="token" stroke="none" stroke-width="1" fill="none" fill-rule="evenodd">
        <g id="Mobile_Token_320" transform="translate(-40.000000, -1089.000000)">
            <g id="Group-6-Copy-2" transform="translate(40.000000, 1089.000000)">
                <g id="Rectangle">
                    <use fill="black" fill-opacity="1" filter="url(#filter-3)" xlink:href="#path-2"></use>
                    <use fill="url(#linearGradient-1)" fill-rule="evenodd" xlink:href="#path-2"></use>
                </g>
                <g id="Group-5" transform="translate(11.454545, 8.272727)" fill-rule="nonzero">
                    <path d="M6.82362187,25.1194004 C7.08371748,25.1413131 8.62082116,24.9671716 8.47187614,24.7330747 C7.6634221,23.462351 6.6302643,21.7080998 7.36944899,17.9690693 C7.86223878,15.4763822 8.95069705,12.8215994 10.6348238,10.0047209 C9.64765571,12.8239458 9.84859225,15.1034235 11.2376334,16.843154 C13.3211952,19.4527498 13.5387018,21.4100782 12.3797081,24.6941545 C12.2831477,24.9677639 13.7855808,25.2032824 14.0272705,25.0783841 C14.2689603,24.9534858 18.8330865,23.846541 19.0410997,18.4064631 C19.1286354,17.2243066 18.9535536,15.1318772 18.2970967,13.043376 C17.4530342,10.3963877 15.0626419,7.9394476 15.0626419,8.95820623 C15.0626419,9.09892901 15.0806688,9.76468411 15.0626419,10.0047209 C14.9208383,11.8929035 13.6770055,12.0839205 13.1239149,11.1281646 C12.7955152,10.5606808 12.7410122,9.34736768 12.7410122,7.97319909 C12.7410122,5.68545252 12.0837821,3.33042775 10.6348238,1.41671839 C10.2580255,0.919056964 9.81713193,0.454027727 9.31128859,0.057468549 C9.12815947,-0.0861295202 8.87947012,0.0570479525 8.87947012,0.291729852 C8.87947012,3.60496949 7.96995582,5.41317513 2.96034788,11.1281646 C-2.04926006,16.843154 1.77612052,24.6941545 6.82362187,25.1194004 Z" id="Shape" fill="#026E8A"></path>
                    <path d="M6.82151006,25.1194004 C7.08151722,25.1413131 8.61809818,24.9671716 8.46920381,24.7330747 C7.6610247,23.462351 6.62821825,21.7080998 7.36715156,17.9690693 C7.85977377,15.4763822 8.9478619,12.8215994 10.6314159,10.0047209 L12.7368881,7.97319909 C12.7368881,5.68545252 12.0798815,3.33042775 10.6314159,1.41671839 C10.2547457,0.919056964 9.81400213,0.454027727 9.30833081,0.057468549 C9.12526396,-0.0861295202 8.87665918,0.0570479525 8.87665918,0.291729852 C8.87665918,3.60496949 7.35381782,5.41317513 2.34591348,11.1281646 C-2.66199087,16.843154 1.7757252,24.6941545 6.82151006,25.1194004 Z" id="Shape" fill="#00B7E7"></path>
                    <path d="M10.4511397,9.47142393 C11.8281188,9.05654838 12.5166084,8.41547088 12.5166084,7.54819143 C12.5166084,5.38239212 11.8720848,3.15290085 10.4511397,1.34120088 C10.0816262,0.870067061 9.64925659,0.429825991 9.15319291,0.0544052147 C8.97360429,-0.0815384263 8.72972295,0.054007038 8.72972295,0.276179329 C8.72972295,3.41280827 7.83779264,5.12462835 2.92503736,10.5349829 C-0.350132826,14.141886 2.15856796,13.7873663 10.4511397,9.47142393 Z" id="Shape" fill="#4EDAFF"></path>
                </g>
            </g>
        </g>
    </g>
</svg>