<?xml version="1.0" encoding="UTF-8"?>
<svg width="19px" height="15px" viewBox="0 0 19 15" version="1.1" xmlns="http://www.w3.org/2000/svg" xmlns:xlink="http://www.w3.org/1999/xlink">
    <!-- Generator: sketchtool 49.3 (51167) - http://www.bohemiancoding.com/sketch -->
    <title>6BB21BED-D5A4-4E53-9147-5BF2032FD188</title>
    <desc>Created with sketchtool.</desc>
    <defs></defs>
    <g id="Stratum-generator" stroke="none" stroke-width="1" fill="none" fill-rule="evenodd">
        <g id="Mobile_Stratum-generator-320_drop_menu" transform="translate(-56.000000, -1638.000000)" fill="#000000" fill-rule="nonzero">
            <g id="Group-2" transform="translate(39.000000, 1621.000000)">
                <g id="nvidia" transform="translate(17.000000, 17.000000)">
                    <path d="M7.14181481,4.63340741 C8.72285185,4.63340741 10.164037,5.85651852 10.2244815,5.90866667 C10.4721852,6.122 10.4994444,6.49414815 10.2872963,6.74303704 C10.0751481,6.99192593 9.70181481,7.01918519 9.45292593,6.80822222 C9.44107407,6.79874074 8.27959259,5.81977778 7.14181481,5.81977778 C7.13233333,5.81859259 7.12166667,5.82214815 7.11218519,5.82214815 L7.11218519,8.27785185 C7.35633333,8.35133333 7.61707407,8.40348148 7.91218519,8.40348148 C9.60462963,8.40348148 11.6052222,7.03933333 12.8058148,5.98925926 C11.4665556,4.88703704 9.191,3.55607407 7.527,3.55607407 C7.39188889,3.55607407 7.25203704,3.57266667 7.11218519,3.58925926 L7.11218519,4.63577778 C7.12166667,4.63577778 7.13114815,4.63340741 7.14181481,4.63340741 Z" id="Shape"></path>
                    <path d="M18.3714444,0.000518518519 L7.70477778,0.000518518519 C7.37766667,0.000518518519 7.11218519,0.266 7.11218519,0.593111111 L7.11218519,2.40051852 C7.25085185,2.38748148 7.38951852,2.37088889 7.527,2.37088889 C9.88314815,2.37088889 12.8081852,4.3217037 14.0976667,5.55192593 C14.215,5.66214815 14.2801852,5.81622222 14.2813704,5.97622222 C14.2825556,6.13622222 14.2173704,6.29148148 14.1035926,6.40407407 C13.7705556,6.73 10.7684815,9.58985185 7.911,9.58985185 C7.62537037,9.58985185 7.36225926,9.55548148 7.111,9.5057037 L7.111,10.602 C7.25677778,10.6351852 7.40137037,10.6671852 7.527,10.6671852 C9.17914815,10.6671852 14.0526296,9.31962963 15.5862593,7.81918519 C15.8185556,7.59044444 16.1966296,7.59518519 16.4241852,7.82866667 C16.6529259,8.06214815 16.6481852,8.43785185 16.4147037,8.66659259 C14.5681852,10.4751852 9.4067037,11.8523704 7.527,11.8523704 C7.39544444,11.8523704 7.25085185,11.8120741 7.11218519,11.7907407 L7.11218519,13.6301481 C7.11218519,13.9572593 7.37766667,14.2227407 7.70477778,14.2227407 L18.3714444,14.2227407 C18.6985556,14.2227407 18.964037,13.9572593 18.964037,13.6301481 L18.964037,0.593111111 C18.964037,0.266 18.6985556,0.000518518519 18.3714444,0.000518518519 Z" id="Shape"></path>
                    <path d="M5.17677778,6.55103704 C5.60344444,6.26303704 6.36433333,5.834 7.11218519,5.82214815 L7.11218519,4.63577778 C5.54181481,4.65118519 4.11959259,5.85651852 4.05914815,5.90748148 C3.87544444,6.06511111 3.8067037,6.31874074 3.88492593,6.54748148 C3.92285185,6.66125926 4.77025926,9.04466667 7.11218519,9.5057037 L7.11218519,8.27903704 C6.05025926,7.96140741 5.44462963,7.0737037 5.17677778,6.55103704 Z" id="Shape"></path>
                    <path d="M1.51218519,6.17414815 C1.93885185,5.94540741 2.375,5.6977037 2.81233333,5.44762963 C4.28551852,4.60733333 5.80255556,3.74925926 7.11218519,3.58925926 L7.11218519,2.40051852 C5.52285185,2.54748148 3.84937037,3.49207407 2.22566667,4.41888889 C1.58211111,4.78511111 0.946851852,5.14777778 0.332925926,5.44762963 C0.172925926,5.52585185 0.0555925926,5.67281481 0.0152962963,5.84703704 C-0.025,6.02125926 0.0152962963,6.20377778 0.125518519,6.34481481 C2.13914815,8.91785185 5.00137037,11.4814074 7.11218519,11.7907407 L7.11218519,10.602 C5.7112963,10.2902963 3.4712963,8.52792593 1.51218519,6.17414815 Z" id="Shape"></path>
                </g>
            </g>
        </g>
    </g>
</svg>