<?xml version="1.0" encoding="UTF-8"?>
<svg width="446px" height="197px" viewBox="0 0 446 197" version="1.1" xmlns="http://www.w3.org/2000/svg" xmlns:xlink="http://www.w3.org/1999/xlink">
    <!-- Generator: sketchtool 52.3 (67297) - http://www.bohemiancoding.com/sketch -->
    <title>DCBCFA33-1150-4772-B795-2ECE763450F9</title>
    <desc>Created with sketchtool.</desc>
    <g id="token" stroke="none" stroke-width="1" fill="none" fill-rule="evenodd">
        <g id="Tablet_Token_768" transform="translate(-88.000000, -822.000000)" fill="#FFA400">
            <g id="Group-10-Copy-4" transform="translate(87.000000, 822.000000)">
                <polygon id="Path" points="1 101 38.3562181 99.4847835 38.3124755 99.5280754 125.928992 0.0865837977 126.016477 0 126.103962 0.0865837977 263.36838 80.5229318 263.237152 80.5229318 320.058847 42.4260609 320.146332 42.382769 320.233817 42.4693528 381.867203 94.9391342 381.779718 94.9391342 447 67.2323189 381.867203 95.1123018 381.82346 95.1123018 381.779718 95.0690099 320.058847 42.6425204 320.233817 42.6425204 263.412122 80.7826832 263.324637 80.869267 263.237152 80.7826832 125.972734 0.303043292 126.147705 0.303043292 38.3562181 99.5713673 38.3562181 99.5713673 38.3562181 99.5713673"></polygon>
                <path d="M1,105 L37.4411967,102.536733 L37.3974497,102.536733 L124.235115,5.08643042 L124.322609,5 L124.410103,5.04321521 L159.582639,23.1071737 L177.168906,32.139153 L181.587347,34.386344 L185.830799,36.8928263 L194.361452,41.9057908 L262.431682,82.2687986 L262.256694,82.2687986 L319.433938,48.8202247 L319.521432,48.7770095 L319.608926,48.8202247 L327.133399,55.1296456 L328.052084,55.9075194 L329.014517,56.642178 L330.983129,58.1114952 L334.920353,61.0501296 L350.66925,72.761452 L366.418146,84.4727744 C367.774301,85.4235091 368.999215,86.5038894 370.267876,87.5410545 L374.030113,90.6525497 L381.598333,96.9187554 L381.510839,96.9187554 L447,72.8910977 L381.554586,97.0916162 L381.510839,97.0916162 L381.467092,97.048401 L373.898872,90.8254105 L370.136636,87.7139153 C368.867974,86.6767502 367.64306,85.5963699 366.286905,84.6456353 L350.538009,72.9775281 L334.789112,61.3094209 L330.851888,58.3707865 L328.883276,56.9014693 L327.920844,56.1668107 L327.002158,55.3889369 L319.477685,49.079516 L319.608926,49.079516 L262.431682,82.6145203 L262.344188,82.6577355 L262.256694,82.6145203 L194.186464,42.2947277 L185.699559,37.238548 L181.456106,34.7320657 L177.081412,32.4848747 L159.495145,23.4528954 L124.322609,5.34572169 L124.497597,5.30250648 L37.4411967,102.623163 L1,105 Z" id="Path"></path>
                <polygon id="Path" points="1 109 36.529481 105.514161 36.4857255 105.557734 122.55283 9.08714597 122.596586 9 122.684097 9.04357298 180.397626 34.8823529 180.441381 34.8823529 180.441381 34.8823529 261.476602 83.7712418 261.30158 83.7712418 318.840086 54.620915 318.927597 54.577342 318.971353 54.620915 327.547435 61.8104575 327.547435 61.8104575 367.189934 87.2135076 367.189934 87.2570806 367.189934 87.2570806 381.322967 98.7167756 381.235456 98.6732026 447 78.0631808 381.279211 98.8474946 381.235456 98.8910675 381.1917 98.8474946 367.058668 87.3877996 367.058668 87.3877996 327.416168 62.0283224 327.416168 62.0283224 327.416168 62.0283224 318.796331 54.83878 318.927597 54.83878 261.432846 84.0762527 261.389091 84.1198257 261.30158 84.0762527 180.266359 35.1873638 180.266359 35.1873638 122.596586 9.30501089 122.727852 9.26143791 36.529481 105.601307 36.529481 105.601307 36.529481 105.601307"></polygon>
                <polygon id="Path" points="1 112 35.6174075 107.563269 35.5736434 107.563269 120.869885 13.0869947 120.913649 13 121.001178 13.0434974 179.163674 35.0096661 179.163674 35.0096661 179.163674 35.0096661 260.521146 84.5096661 260.34609 84.5096661 318.246001 59.9771529 318.289765 59.9771529 318.377294 60.0206503 327.042587 67.1542179 326.998822 67.1542179 366.692866 88.2939367 366.692866 88.2939367 366.692866 88.2939367 381.047493 99.6467487 380.959965 99.6032513 447 82.6827768 381.003729 99.7772408 380.959965 99.8207381 380.916201 99.7772408 366.561574 88.4679262 366.605338 88.4679262 326.911294 67.3717047 326.86753 67.3717047 326.86753 67.3717047 318.202237 60.1946397 318.33353 60.2381371 260.477382 84.8141476 260.433618 84.857645 260.34609 84.8141476 179.032382 35.3141476 179.032382 35.3141476 120.913649 13.3044815 121.044942 13.2609842 35.6174075 107.650264 35.6174075 107.650264 35.6174075 107.650264"></polygon>
                <polygon id="Path" points="1 116 34.704976 110.572441 34.6612033 110.615862 119.142507 18.0868409 119.230052 18 119.317597 18.0434205 177.885465 36.1063358 177.929237 36.1497563 177.929237 36.1497563 259.565316 86.2569783 259.433997 86.2569783 317.60791 66.3704032 317.695456 66.3269827 317.739229 66.3704032 326.53754 73.5347807 326.493768 73.4913602 366.195603 90.3819229 366.195603 90.3819229 366.195603 90.3819229 380.771911 101.540984 380.728138 101.540984 447 88.2543199 380.728138 101.714665 380.684365 101.714665 380.684365 101.714665 366.064285 90.5556048 366.108058 90.5556048 326.406222 73.751883 326.36245 73.7084626 326.36245 73.7084626 317.564138 66.5875055 317.695456 66.5875055 259.521543 86.5609216 259.433997 86.604342 259.390225 86.5609216 177.754147 36.4102791 177.797919 36.4536996 119.230052 18.3039433 119.36137 18.2605228 34.704976 110.659282 34.704976 110.659282 34.704976 110.659282"></polygon>
                <polygon id="Path" points="1 117 33.7451904 110.563003 33.7451904 110.563003 117.4468 19.0875782 117.490577 19 117.578131 19.0437891 176.633294 33.406613 176.633294 33.406613 176.677071 33.4504021 258.583824 84.7274352 258.452493 84.6836461 316.982332 69.2260947 317.026109 69.1823056 317.113663 69.2260947 325.956616 76.4512958 325.912839 76.4075067 365.662348 89.150134 365.662348 89.150134 365.662348 89.1939231 380.458971 100.316354 380.415194 100.316354 447 90.5513852 380.415194 100.49151 380.415194 100.49151 380.371417 100.49151 365.574794 89.3690795 365.574794 89.3690795 325.869062 76.6702413 325.825285 76.6702413 325.825285 76.6264522 316.938555 69.4450402 317.069886 69.4888293 258.540047 84.9901698 258.452493 85.0339589 258.408716 84.9901698 176.501963 33.7131367 176.54574 33.7569258 117.534354 19.3065237 117.665685 19.2627346 33.7889674 110.650581 33.7889674 110.650581 33.7889674 110.650581"></polygon>
                <polygon id="Path" points="1 121 32.8321225 113.492114 32.8321225 113.536278 115.762026 23.044164 115.805812 23 115.893383 23 175.354212 33.6435331 175.397997 33.6435331 175.441783 33.6876972 257.627332 86.1104101 257.495975 86.0662461 316.387591 75.1135647 316.431376 75.1135647 316.475162 75.1577287 325.451208 82.4006309 325.407422 82.4006309 365.164736 90.9242902 365.164736 90.9242902 365.164736 90.9242902 380.226978 102.053628 380.139407 102.053628 447 95.9148265 380.183193 102.230284 380.139407 102.230284 380.095621 102.230284 365.077165 91.1009464 365.12095 91.1451104 325.363636 82.6214511 325.319851 82.6214511 325.276065 82.6214511 316.343805 75.3343849 316.431376 75.3785489 257.583546 86.3753943 257.495975 86.4195584 257.452189 86.3753943 175.26664 33.9526814 175.310426 33.9968454 115.849597 23.3091483 115.937169 23.2649842 32.8759081 113.580442 32.8759081 113.580442 32.8759081 113.580442"></polygon>
                <polygon id="Path" points="1 125 31.918696 116.621818 31.918696 116.621818 114.076591 29.0436364 114.120385 29 114.164179 29 174.118421 35.6763636 174.162215 35.6763636 174.162215 35.6763636 256.670463 88.2145455 256.582875 88.1709091 315.792616 81.9745455 315.83641 81.9309091 315.880204 81.9745455 324.945601 89.1745455 324.858013 89.1309091 364.623134 93.32 364.666929 93.32 364.710723 93.32 379.9511 104.185455 379.907306 104.185455 447 101.741818 379.907306 104.36 379.863511 104.36 379.819717 104.36 364.57934 93.4945455 364.623134 93.4945455 324.858013 89.3927273 324.814218 89.3927273 324.770424 89.3490909 315.705027 82.1927273 315.792616 82.2363636 256.626669 88.52 256.539081 88.52 256.495287 88.4763636 173.987038 35.9818182 174.074627 35.9818182 114.164179 29.2618182 114.251767 29.2181818 31.9624902 116.709091 31.9624902 116.709091 31.9624902 116.709091"></polygon>
                <polygon id="Path" points="1 128 31.0019641 118.63503 31.0019641 118.678588 112.379554 33.043558 112.423353 33 112.467151 33 172.821467 35.8312701 172.865266 35.8312701 172.909064 35.8312701 255.688206 88.9720312 255.600609 88.9284732 315.122754 87.3168271 315.166552 87.3168271 315.210351 87.3603851 324.364235 94.5038973 324.320436 94.4603393 364.089463 94.3732233 364.133261 94.3732233 364.17706 94.4167813 379.637926 105.13205 379.594127 105.13205 447 106.308116 379.594127 105.306282 379.550329 105.306282 379.550329 105.306282 364.045664 94.5910133 364.089463 94.5910133 324.320436 94.7216873 324.276638 94.7216873 324.232839 94.6781293 315.078955 87.5346171 315.166552 87.5781751 255.600609 89.2769372 255.55681 89.2769372 255.513012 89.2333792 172.73387 36.1361761 172.821467 36.1361761 112.467151 33.261348 112.554748 33.21779 31.0457625 118.722146 31.0457625 118.722146 31.0457625 118.722146"></polygon>
                <polygon id="Path" points="1 131 30.0469548 120.700366 30.0469548 120.700366 110.61611 37.0864593 110.659921 37.0430009 110.703733 37.0430009 171.55776 36 171.601572 36 171.645383 36.0434584 254.711788 89.7580055 254.667976 89.7580055 314.514342 92.6697164 314.558153 92.6697164 314.601965 92.7131747 323.846169 99.8403477 323.758546 99.8403477 363.583104 95.4945105 363.626916 95.4945105 363.670727 95.5379689 379.355206 106.098353 379.311395 106.054895 447 110.922232 379.311395 106.272187 379.267583 106.272187 379.267583 106.228728 363.539293 95.7118024 363.626916 95.7118024 323.802358 100.05764 323.714735 100.05764 323.714735 100.05764 314.426719 92.9304666 314.514342 92.9304666 254.624165 90.0622141 254.580354 90.0622141 254.536542 90.0187557 171.470138 36.3042086 171.55776 36.347667 110.747544 37.3037511 110.835167 37.2602928 30.0907662 120.787283 30.0907662 120.787283 30.0907662 120.787283"></polygon>
                <polygon id="Path" points="1 135 29.1324425 123.744124 29.1324425 123.744124 108.92867 41.9108647 108.97249 41.8674058 109.01631 41.8674058 170.276675 37 170.364315 37 170.408135 37.043459 253.753783 91.454102 253.709963 91.454102 313.918648 98.9725055 313.962468 98.9725055 313.962468 98.9725055 323.339949 106.099778 323.208489 106.099778 363.084692 97.5383592 363.128512 97.5383592 363.172332 97.5383592 379.122814 108.011973 379.078994 107.968514 447 116.443016 379.035174 108.185809 379.035174 108.185809 378.991354 108.14235 363.040872 97.7121951 363.128512 97.7556541 323.296129 106.360532 323.208489 106.360532 323.164669 106.317073 313.831008 99.1898004 313.874828 99.2332594 253.666143 91.7583149 253.622323 91.7583149 253.578503 91.7148559 170.232855 37.3042129 170.320495 37.3476718 109.06013 42.1281596 109.10395 42.0847007 29.1762625 123.787583 29.1762625 123.787583 29.1762625 123.787583"></polygon>
                <polygon id="Path" points="1 137 28.2148963 124.744406 28.2148963 124.744406 107.230127 44.6919105 107.273951 44.6919105 107.317775 44.6919105 169.022403 36 169.066228 36 169.110052 36.0434596 252.814484 91.1501721 252.726835 91.1501721 313.292031 103.231928 313.292031 103.231928 313.335855 103.275387 322.758082 110.402754 322.670433 110.359294 362.550555 97.5821859 362.594379 97.5387263 362.638204 97.5821859 378.809374 107.925559 378.76555 107.8821 447 119.963855 378.721725 108.099398 378.721725 108.099398 378.677901 108.055938 362.506731 97.7560241 362.594379 97.7560241 322.758082 110.620052 322.670433 110.620052 322.626609 110.576592 313.160558 103.492685 313.248207 103.492685 252.683011 91.454389 252.639186 91.454389 252.639186 91.454389 168.934755 36.3042169 169.066228 36.3476764 107.317775 44.9526678 107.405424 44.9092083 28.2587206 124.831325 28.2587206 124.831325 28.2587206 124.831325"></polygon>
                <polygon id="Path" points="1 141 27.2997543 127.788132 27.2997543 127.788132 105.541523 49.5165065 105.541523 49.5165065 105.585356 49.5165065 167.740442 37 167.828108 37 167.871941 37.0434601 251.855823 92.8462181 251.81199 92.8462181 312.652088 109.534893 312.695921 109.534893 312.695921 109.534893 322.251499 116.662349 322.12 116.662349 362.051794 99.5825324 362.095627 99.5825324 362.139459 99.6259925 378.532973 109.795654 378.48914 109.795654 447 125.528207 378.445307 110.012954 378.445307 109.969494 378.445307 109.969494 362.007961 99.7998328 362.139459 99.7998328 322.251499 116.879649 322.163833 116.923109 322.12 116.879649 312.564423 109.752194 312.608256 109.752194 251.724324 93.1504388 251.680491 93.1504388 251.680491 93.1504388 167.696609 37.3042206 167.828108 37.3042206 105.629189 49.7338069 105.716855 49.7338069 27.3435872 127.831592 27.3435872 127.831592 27.3435872 127.831592"></polygon>
                <polygon id="Path" points="1 145 26.3842524 130.655565 26.3842524 130.655565 103.852256 53.4939074 103.852256 53.4939074 103.896098 53.4500406 166.501819 37 166.54566 37 166.633343 37.0438668 250.896786 94.114541 250.852944 94.0706742 312.055736 115.521527 312.099577 115.521527 312.099577 115.521527 321.744716 122.715678 321.613192 122.715678 361.552836 101.220959 361.596677 101.220959 361.640519 101.220959 378.256463 111.39805 378.256463 111.39805 447 130.918765 378.212622 111.573517 378.16878 111.573517 378.16878 111.573517 361.552836 101.440292 361.640519 101.440292 321.744716 122.935012 321.657033 122.978879 321.56935 122.935012 311.924211 115.740861 311.968053 115.784728 250.765261 94.3777417 250.721419 94.3777417 250.721419 94.3777417 166.457977 37.3070674 166.589502 37.3070674 103.939939 53.7132413 104.027622 53.6693745 26.428094 130.743298 26.428094 130.743298 26.428094 130.743298"></polygon>
                <polygon id="Path" points="1 147 25.4659851 131.838073 25.4659851 131.838073 102.108533 57.2014218 102.152379 57.2014218 102.196225 57.1579779 165.202713 37.0434439 165.290405 37 165.378097 37.0434439 249.912898 94.3025276 249.869052 94.2590837 311.428628 120.064771 311.428628 120.108215 311.472473 120.108215 321.206252 127.233017 321.030869 127.189573 361.018285 101.687994 361.062131 101.64455 361.105977 101.687994 377.942784 111.636651 377.942784 111.636651 447 134.575039 377.898938 111.810427 377.855092 111.810427 377.855092 111.810427 361.018285 101.861769 361.105977 101.861769 321.162407 127.406793 321.118561 127.493681 321.030869 127.406793 311.29709 120.325434 311.340936 120.325434 249.737515 94.5631912 249.737515 94.5631912 249.737515 94.5631912 165.202713 37.3041074 165.334251 37.3475513 102.240071 57.4186414 102.283917 57.3751975 25.5098309 131.881517 25.5098309 131.881517 25.5098309 131.881517"></polygon>
                <polygon id="Path" points="1 151 24.5498525 134.944658 24.5498525 134.944658 100.418092 62.8032283 100.461947 62.7601845 100.461947 62.7601845 163.963225 39.0430438 164.050934 39 164.094789 39.0430438 248.953196 96.4634896 248.953196 96.4204458 310.831858 126.551115 310.831858 126.551115 310.831858 126.551115 320.655261 133.6103 320.523697 133.6103 360.518977 104.125288 360.562832 104.082244 360.606686 104.125288 377.709931 113.85319 377.666077 113.85319 447 140.196003 377.622222 114.025365 377.622222 114.025365 377.622222 114.025365 360.518977 104.297463 360.606686 104.297463 320.655261 133.825519 320.611406 133.868563 320.523697 133.825519 310.656441 126.766334 310.700295 126.766334 248.777778 96.7217525 248.777778 96.7217525 248.777778 96.7217525 163.919371 39.3013067 164.050934 39.3443505 100.549656 63.0184473 100.59351 62.9754035 24.593707 135.030746 24.593707 135.030746 24.593707 135.030746"></polygon>
                <polygon id="Path" points="1 155 23.6333596 137.845376 23.6333596 137.845376 98.7269866 66.8382628 98.7269866 66.7948334 98.7708497 66.7948334 162.723249 39.0434294 162.767113 39 162.854839 39.0434294 247.993116 97.6731561 247.993116 97.6731561 310.190991 132.590416 310.234854 132.590416 310.234854 132.590416 320.147915 139.712842 319.972463 139.712842 360.019473 105.75103 360.063336 105.7076 360.107199 105.7076 377.433124 115.435792 377.433124 115.435792 447 145.619244 377.345397 115.60951 377.345397 115.60951 377.345397 115.60951 360.019473 105.924747 360.151062 105.881318 320.147915 139.929989 320.060189 139.973418 320.016326 139.929989 310.059402 132.850992 310.059402 132.850992 247.817663 97.9771621 247.817663 97.9337327 247.817663 97.9337327 162.679386 39.304006 162.810976 39.304006 98.8585759 67.0119805 98.902439 67.0119805 23.6772227 137.888806 23.6772227 137.888806 23.6772227 137.888806"></polygon>
                <path d="M1,159 L13.4024786,148.529025 L19.6037179,143.271632 L22.7043376,140.642935 L25.6739451,137.838992 L49.2997934,115.495071 L96.5951608,70.8948521 L160.703747,39.0438116 L160.791089,39 L160.87843,39.0438116 L238.699616,93.7645126 L243.547064,97.1818182 L245.992623,98.890471 L248.481853,100.511501 L258.482443,106.907996 L278.483623,119.700986 L298.484804,132.493976 C301.803777,134.640745 305.166421,136.743702 308.485394,138.934283 L318.136618,145.856517 L317.961936,145.856517 L357.833284,107.3023 L357.876955,107.258488 L357.964296,107.3023 L368.619947,113.216867 L373.947772,116.152245 L375.301564,116.897043 C375.738271,117.116101 376.218649,117.335159 376.655356,117.554217 L379.40661,118.912377 L401.28563,129.646221 L445,151.11391 L401.198289,129.777656 L379.319268,119.131435 L376.568014,117.817087 C376.131307,117.598028 375.650929,117.37897 375.214222,117.159912 L373.860431,116.415115 L368.532605,113.479737 L357.876955,107.56517 L358.007967,107.56517 L318.180289,146.163198 L318.092948,146.250821 L318.005606,146.20701 L308.354382,139.284775 C305.035409,137.138007 301.672765,134.991238 298.353792,132.88828 L278.308941,120.09529 L258.26409,107.3023 L248.2635,100.905805 L245.77427,99.2847755 L243.328711,97.5761227 L238.481263,94.1588171 L160.703747,39.3943045 L160.87843,39.3943045 L96.7698436,71.2015334 L96.8135143,71.2015334 L49.4308055,115.626506 L25.7612865,137.882804 L22.791679,140.686747 L19.6910593,143.315444 L13.48982,148.529025 L1,159 Z" id="Path"></path>
                <polygon id="Path" points="1 162 94.9104771 74.7308651 94.9104771 74.7308651 94.9104771 74.7308651 159.46847 39.0437878 159.555829 39 159.599508 39.0437878 317.631185 151.184407 317.500148 151.184407 357.379341 108.359915 357.42302 108.316127 357.466699 108.359915 445 155.650765 357.379341 108.535066 357.510379 108.535066 317.674865 151.359559 317.587506 151.447134 317.500148 151.403346 159.424791 39.3065148 159.599508 39.3065148 95.041515 74.9498042 95.041515 74.9060164"></polygon>
                <polygon id="Path" points="1 164 93.4162896 79.9781421 93.4162896 79.9781421 93.4162896 79.9781421 158.710407 44.0437158 158.797757 44 158.885107 44.0437158 311.005115 153.508197 310.830415 153.508197 357.606335 112.021858 357.693685 111.978142 357.73736 112.021858 445 158.535519 357.65001 112.196721 357.781035 112.196721 311.04879 153.726776 310.96144 153.770492 310.87409 153.726776 158.710407 44.3060109 158.885107 44.3060109 93.5473146 80.1530055 93.5473146 80.1530055"></polygon>
                <polygon id="Path" points="1 164 92.322974 83.9253731 92.3668371 83.9253731 92.3668371 83.8820896 158.731707 48.0432836 158.819434 48 158.863297 48.0432836 305.760818 153.958209 305.585366 153.958209 359.493116 114.09403 359.536979 114.050746 359.624705 114.09403 447 159.455224 359.536979 114.310448 359.624705 114.267164 305.760818 154.174627 305.673092 154.21791 305.585366 154.174627 158.687844 48.3029851 158.863297 48.3029851 92.4545633 84.0985075 92.4984264 84.0985075"></polygon>
                <polygon id="Path" points="1 164 90.8227948 87.7920489 90.8666536 87.7920489 90.8666536 87.7920489 157.970597 52.0428135 158.058314 52 158.146032 52.0428135 299.108172 154.366972 298.932737 154.366972 359.764874 116.17737 359.808732 116.134557 359.852591 116.17737 447 160.360856 359.764874 116.348624 359.89645 116.348624 299.108172 154.58104 299.020454 154.666667 298.932737 154.58104 157.970597 52.2996942 158.146032 52.2996942 90.9543711 88.0061162 90.9982299 87.9633028"></polygon>
                <polygon id="Path" points="1 166 89.3580769 91.6665361 89.3580769 91.6665361 89.401927 91.6665361 157.281978 55.0434953 157.369678 55 157.457379 55.0434953 292.472028 156.518025 292.296628 156.518025 360.045128 118.981583 360.088978 118.938088 360.132829 118.981583 447 163.172806 360.045128 119.155564 360.132829 119.155564 292.428178 156.778997 292.384328 156.822492 292.296628 156.778997 157.238128 55.3044671 157.413529 55.3044671 89.4896274 91.8405172 89.5334775 91.8405172"></polygon>
                <polygon id="Path" points="1 167 87.8586315 95.8971061 87.8586315 95.8971061 87.8586315 95.8536977 156.521235 59.0434084 156.608926 59 156.696618 59.0868167 285.82265 157.840836 285.647267 157.840836 360.316752 121.594855 360.360598 121.594855 360.404444 121.594855 447 165.046624 360.316752 121.811897 360.404444 121.811897 285.778805 158.101286 285.691113 158.144695 285.647267 158.101286 156.521235 59.3038585 156.696618 59.3038585 87.9901691 96.0707395 87.9901691 96.0707395"></polygon>
                <polygon id="Path" points="1 168 86.3949282 100.079208 86.3949282 100.079208 86.3949282 100.079208 155.833104 63.0433168 155.920778 63 156.008453 63.0866337 279.191075 159.206683 279.015726 159.163366 360.552978 124.25 360.596815 124.206683 360.640653 124.25 447 166.917079 360.552978 124.423267 360.640653 124.423267 279.147238 159.423267 279.059564 159.466584 278.971889 159.423267 155.789267 63.3032178 155.964616 63.3465347 86.5264399 100.295792 86.5264399 100.252475"></polygon>
                <polygon id="Path" points="1 168 84.8962162 103.921968 84.8962162 103.921968 84.8962162 103.921968 155.11656 67.0428329 155.160393 67 155.248059 67.0428329 272.50113 159.647583 272.369631 159.60475 360.824472 126.280746 360.868305 126.280746 360.912138 126.280746 447 167.828668 360.824472 126.494911 360.912138 126.494911 272.457297 159.90458 272.413464 159.90458 272.325799 159.861747 155.072727 67.2569975 155.248059 67.2998304 85.027715 104.093299 85.027715 104.093299"></polygon>
                <polygon id="Path" points="1 170.307359 83.4335266 108.619048 83.4335266 108.619048 83.4335266 108.575758 154.385084 71.04329 154.472733 71 154.560381 71.04329 265.874128 162.168831 265.742655 162.125541 361.104353 129.701299 361.148177 129.701299 361.192002 129.701299 447 171 361.104353 129.917749 361.148177 129.917749 265.830304 162.428571 265.742655 162.471861 265.698831 162.385281 154.34126 71.2597403 154.516557 71.3030303 83.5211752 108.792208 83.5649995 108.792208"></polygon>
                <polygon id="Path" points="1 172.470199 81.9355473 113.245033 81.9355473 113.245033 81.9355473 113.245033 153.668894 75.0437086 153.756534 75 153.800354 75.0437086 259.231283 164.55894 259.099823 164.515232 361.375712 133.045033 361.375712 133.001325 361.419532 133.045033 447 174 361.331892 133.219868 361.419532 133.219868 259.187463 164.821192 259.099823 164.864901 259.012183 164.821192 153.625074 75.3059603 153.800354 75.3059603 82.0231873 113.463576 82.0231873 113.419868"></polygon>
                <polygon id="Path" points="1 174.573165 80.4300589 117.917605 80.4738703 117.917605 80.4738703 117.917605 152.937917 79.0441243 153.02554 79 153.113163 79.0441243 252.608841 166.895543 252.477407 166.851418 361.611591 136.317425 361.655403 136.317425 361.699214 136.317425 447 177 361.611591 136.538046 361.699214 136.538046 252.565029 167.204412 252.477407 167.204412 252.389784 167.160288 152.894106 79.3088699 153.069352 79.3088699 80.5614931 118.094102 80.5614931 118.094102"></polygon>
                <polygon id="Path" points="1 174.761599 78.932816 122.385852 78.932816 122.385852 78.9766231 122.385852 152.22208 84.0431787 152.309695 84 152.353502 84.0863574 245.969256 167.550758 245.794028 167.507579 361.882821 138.88011 361.926628 138.88011 361.970435 138.88011 447 178 361.882821 139.096004 361.926628 139.096004 245.881642 167.853009 245.794028 167.853009 245.750221 167.80983 152.178273 84.3022508 152.353502 84.3022508 79.0642373 122.558567 79.0642373 122.558567"></polygon>
                <polygon id="Path" points="1 175.769339 77.4721595 125.4421 77.4721595 125.4421 77.4721595 125.4421 151.491604 86.0440694 151.579201 86 151.666798 86.0881388 239.35137 168.806376 239.176176 168.762307 362.162329 140.778247 362.206128 140.734177 362.206128 140.778247 447 180 362.118531 140.954524 362.206128 140.954524 239.263773 169.070792 239.176176 169.114862 239.132377 169.026723 151.447805 86.3084857 151.622999 86.3084857 77.6035549 125.662447 77.6035549 125.618378"></polygon>
                <polygon id="Path" points="1 176.891336 75.9756481 129.72427 75.9756481 129.72427 75.9756481 129.72427 150.776119 90.0440402 150.863708 90 150.951296 90.0880804 232.715043 170.241264 232.539866 170.197224 362.389631 143.464816 362.433425 143.464816 362.477219 143.464816 447 182 362.389631 143.685017 362.433425 143.685017 232.627455 170.505505 232.539866 170.549545 232.452278 170.461465 150.732325 90.3082815 150.907502 90.3082815 76.0632364 129.900431 76.1070306 129.900431"></polygon>
                <polygon id="Path" points="0 180.081174 73.4284312 136.603912 149.046142 97.0870416 149.133713 97 149.221284 97.0870416 225.101708 173.814181 224.926566 173.77066 361.668957 148.615648 361.712743 148.615648 361.756529 148.615648 446 186 361.668957 148.833252 361.712743 148.833252 224.970351 174.118826 224.88278 174.118826 224.838995 174.075306 149.002356 97.3046455 149.177499 97.3481663 73.5597879 136.777995"></polygon>
                <path d="M0,179.130435 L36.7690647,158.478261 L55.153597,148.173913 L64.3458632,143.043478 L68.9419963,140.478261 C70.4740406,139.608696 72.006085,138.73913 73.5819021,137.956522 L148.345667,99.0434783 L148.433212,99 L148.520758,99.0869565 L218.469526,173.26087 L218.294435,173.217391 L361.912651,149.347826 L361.956424,149.347826 L362.000196,149.347826 L446,186 L361.912651,149.565217 L361.956424,149.565217 L218.381981,173.608696 L218.294435,173.608696 L218.250662,173.521739 L148.258122,99.2173913 L148.433212,99.2608696 L73.6256747,138.086957 C72.0498577,138.869565 70.5178133,139.73913 68.985769,140.608696 L64.3896359,143.173913 L55.1973697,148.304348 L36.8128374,158.565217 L0,179.130435 Z" id="Path"></path>
                <path d="M0,182.347826 L36.8128374,162.869565 C49.0691923,156.391304 61.3693199,149.869565 73.6694474,143.434783 L147.601531,105.043478 L147.689076,105 L147.776622,105.086957 L211.816076,176.782609 L211.640985,176.73913 L362.175287,154.086957 L362.21906,154.086957 L362.262832,154.086957 L446,190 L362.175287,154.26087 L362.21906,154.26087 L211.728531,177.043478 L211.640985,177.043478 L211.597213,176.956522 L147.601531,105.217391 L147.776622,105.26087 L73.8007655,143.565217 L0,182.347826 Z" id="Path"></path>
                <polygon id="Path" points="0 183.384615 36.8967615 164.879121 55.3232581 155.648352 64.5583906 151.032967 69.1540726 148.703297 73.7497547 146.32967 146.886752 108.043956 146.974289 108 147.061825 108.087912 205.186261 178.065934 205.054956 177.978022 362.446124 156.351648 362.489892 156.351648 362.53366 156.351648 446 192 362.446124 156.571429 362.489892 156.571429 205.098724 178.373626 204.967419 178.373626 204.923651 178.285714 146.842983 108.263736 147.018057 108.307692 73.8372915 146.505495 69.2416094 148.879121 64.6459274 151.208791 55.4107949 155.824176 36.9405299 165.010989"></polygon>
                <polygon id="Path" points="0 184.628816 36.9770408 167.621853 55.4436813 159.118372 64.6770016 154.866631 66.9962716 153.782003 67.6089089 153.521693 68.1340267 153.261382 69.2717818 152.65399 73.8228022 150.311194 146.157771 113.043385 146.28905 113 146.33281 113.08677 198.582025 179.682914 198.406986 179.596144 362.725078 159.465453 362.768838 159.465453 362.768838 159.508838 446 194 362.681319 159.682378 362.768838 159.682378 198.450746 179.98661 198.363226 179.98661 198.319466 179.899839 146.114011 113.260311 146.28905 113.303696 73.9103218 150.52812 69.3593014 152.827531 68.2215463 153.434922 67.6526688 153.695233 67.0837912 153.955544 64.7645212 155.040171 55.5312009 159.248527 37.0208006 167.708623"></polygon>
                <path d="M0,185.640443 L35.9268053,168.833795 L53.8683281,160.430471 L62.8390895,156.228809 L65.0708399,155.178393 L65.6397174,154.915789 L66.208595,154.609418 L67.3025903,154.040443 L71.6785714,151.764543 L142.044349,115.043767 L142.131868,115 L142.219388,115.087535 L169.56927,146.731302 L183.266091,162.531302 C185.541601,165.157341 187.773352,167.827147 190.048862,170.496953 L196.787873,178.506371 L196.612834,178.462604 L324.085165,165.638781 L355.898548,161.831025 L359.880691,161.393352 C360.537088,161.349584 361.193485,161.218283 361.893642,161.218283 C362.243721,161.26205 362.550039,161.393352 362.900118,161.480886 C363.206436,161.568421 363.556515,161.699723 363.862834,161.787258 C366.400903,162.662604 368.895212,163.581717 371.389521,164.544598 C376.37814,166.426593 381.366758,168.352355 386.355377,170.278116 C396.332614,174.173407 406.266091,178.112465 416.199568,182.051524 C426.133046,185.990582 436.066523,189.92964 446,194 C436.066523,189.973407 426.133046,186.078116 416.155808,182.139058 C406.222331,178.2 396.245094,174.304709 386.267857,170.453186 C381.279239,168.527424 376.29062,166.601662 371.302002,164.719668 C368.807692,163.800554 366.313383,162.837673 363.775314,162.006094 C363.162677,161.787258 362.506279,161.568421 361.893642,161.437119 C361.281005,161.437119 360.580848,161.568421 359.924451,161.612188 L355.942308,162.093629 L324.128925,165.945152 L196.656593,178.900277 L196.569074,178.900277 L196.525314,178.812742 L189.786303,170.803324 C187.554553,168.133518 185.322802,165.463712 183.047292,162.837673 L169.394231,146.993906 L142.088108,115.350139 L142.263148,115.393906 L71.7660911,151.939612 L67.3463501,154.215512 L66.2523548,154.784488 L65.6834772,155.090859 L65.1145997,155.353463 L62.8828493,156.403878 L53.9120879,160.60554 L35.9268053,168.965097 L0,185.640443 Z" id="Path"></path>
                <path d="M0,189.056354 L34.8834151,172.79701 L52.3032385,164.688902 L61.0131501,160.634848 L63.2015702,159.642898 L63.726791,159.384129 L64.2520118,159.125359 L65.3024534,158.564692 L69.5917566,156.365152 L137.91423,121.043128 L138.001766,121 L138.089303,121.086256 L166.670069,150.284071 L180.982336,164.904543 C183.389598,167.319724 185.665554,169.86429 187.98528,172.365727 L194.900687,179.87004 L194.769382,179.826912 L322.923258,169.950546 C333.558979,168.742956 344.194701,167.492237 354.87419,166.327775 L358.857115,165.896492 C359.513641,165.810236 360.170167,165.767108 360.870461,165.723979 C361.220608,165.723979 361.570756,165.810236 361.877134,165.853364 C362.227282,165.93962 362.53366,165.982749 362.840039,166.069005 C365.422375,166.759057 367.960942,167.578493 370.543278,168.441058 C375.620412,170.123059 380.697547,171.891317 385.730913,173.659574 C395.841413,177.239218 405.908145,180.905118 415.931109,184.657274 L430.987439,190.263945 L438.515604,193.110408 C441.010402,194.059229 443.54897,195.008051 446,196 C443.505201,195.008051 441.010402,194.059229 438.515604,193.110408 L430.987439,190.307073 L415.931109,184.743531 C405.864377,181.077631 395.797645,177.411731 385.687144,173.832087 C380.653778,172.06383 375.576644,170.295572 370.499509,168.613571 C367.960942,167.794135 365.422375,166.93157 362.840039,166.284646 C362.53366,166.19839 362.183513,166.112133 361.877134,166.069005 C361.570756,165.982749 361.220608,165.93962 360.91423,165.93962 C360.257704,165.982749 359.601178,166.025877 358.900883,166.112133 L354.917959,166.543416 C344.282237,167.707878 333.646516,168.958597 322.967026,170.209316 L194.81315,180.171938 L194.725613,180.171938 L194.681845,180.12881 L187.766438,172.624497 C185.446712,170.123059 183.170756,167.578493 180.763494,165.163312 L166.494995,150.456584 L137.957998,121.215641 L138.133072,121.258769 L69.7230618,156.494537 L65.4337586,158.694077 L64.383317,159.254744 L63.8580962,159.513514 L63.3328754,159.772283 L61.1444553,160.764232 L52.4345437,164.818286 L34.9709519,172.883266 L0,189.056354 Z" id="Path"></path>
                <path d="M0,194.243728 L33.8263344,178.15233 L50.7176217,170.128435 L59.1632653,166.116487 L61.2637363,165.113501 C61.6138148,164.939068 61.9638932,164.764636 62.3139717,164.590203 L63.3642072,164.066906 L67.5213893,161.886499 L133.817504,127.043608 L133.905024,127 L133.992543,127.043608 L163.792975,154.603943 L178.715071,168.38411 C181.25314,170.608124 183.57241,173.093787 185.93544,175.492234 L193.068289,182.731183 L192.937009,182.687575 L321.722135,175.535842 C332.399529,174.314815 343.076923,173.093787 353.798077,172.003584 C355.154631,171.87276 356.467425,171.741935 357.82398,171.611111 C358.480377,171.567503 359.180534,171.480287 359.836931,171.436679 C360.537088,171.436679 361.193485,171.567503 361.849882,171.654719 C364.475471,172.178017 367.0573,172.962963 369.682889,173.704301 C374.846546,175.230585 379.966444,176.887694 385.086342,178.544803 C395.326138,181.902628 405.478414,185.434886 415.630691,189.010753 C420.706829,190.798686 425.782967,192.586619 430.859105,194.41816 L438.429553,197.165472 L442.236656,198.560932 C443.505691,199.040621 444.774725,199.476703 446,200 C444.774725,199.476703 443.505691,199.040621 442.236656,198.560932 L438.429553,197.165472 L430.815345,194.461768 C425.739207,192.673835 420.663069,190.885902 415.586931,189.097969 C405.434655,185.565711 395.238619,182.077061 384.998823,178.719235 C379.878925,177.062127 374.759027,175.405018 369.595369,173.878734 C367.01354,173.137395 364.431711,172.396057 361.806122,171.87276 C361.149725,171.741935 360.493328,171.611111 359.836931,171.654719 C359.180534,171.698327 358.480377,171.741935 357.82398,171.829152 C356.467425,171.959976 355.154631,172.0908 353.798077,172.221625 C343.120683,173.355436 332.443289,174.576464 321.722135,175.797491 L192.937009,183.080048 L192.84949,183.080048 L192.80573,183.03644 L185.716641,175.710275 C183.309851,173.311828 181.034341,170.826165 178.496272,168.602151 L163.617936,154.821983 L133.817504,127.261649 L133.992543,127.261649 L67.6089089,162.017324 L63.4517268,164.19773 L62.4014914,164.721027 C62.0514129,164.89546 61.7013344,165.069892 61.3512559,165.244325 L59.2507849,166.247312 L50.8051413,170.259259 L33.8700942,178.239546 L0,194.243728 Z" id="Path"></path>
            </g>
        </g>
    </g>
</svg>