<?xml version="1.0" encoding="UTF-8"?>
<svg width="41px" height="41px" viewBox="0 0 41 41" version="1.1" xmlns="http://www.w3.org/2000/svg" xmlns:xlink="http://www.w3.org/1999/xlink">
    <!-- Generator: sketchtool 49.3 (51167) - http://www.bohemiancoding.com/sketch -->
    <title>1C10CF22-9C7E-49E9-98EF-C6DB90A2AEDC</title>
    <desc>Created with sketchtool.</desc>
    <defs>
        <circle id="path-1" cx="20.5" cy="20.5" r="20.5"></circle>
    </defs>
    <g id="Faq" stroke="none" stroke-width="1" fill="none" fill-rule="evenodd">
        <g id="Tablet_FAQ_2-1024" transform="translate(-122.000000, -367.000000)">
            <g id="Group" transform="translate(30.000000, 181.000000)">
                <g id="Message-History" transform="translate(36.000000, 104.000000)">
                    <g id="Post-User" transform="translate(56.000000, 56.000000)">
                        <g id="Userpic" transform="translate(20.500000, 46.500000) scale(-1, 1) translate(-20.500000, -46.500000) translate(0.000000, 26.000000)">
                            <mask id="mask-2" fill="white">
                                <use xlink:href="#path-1"></use>
                            </mask>
                            <use id="Mask" fill="#ACE1EF" xlink:href="#path-1"></use>
                            <g id="Group-5" mask="url(#mask-2)">
                                <g transform="translate(2.365385, 0.000000)">
                                    <path d="M17.3373087,56.1011757 C17.4591802,57.1539721 16.3073722,58.1470548 14.7649211,58.3202407 C13.2226336,58.4934266 11.8732138,57.7802419 11.7511788,56.7274455 L9.73318359,39.3026267 C9.61147571,38.2501522 10.7629566,37.2562647 12.3054077,37.0835617 C13.8480223,36.9105367 15.1972785,37.6237214 15.3193136,38.6763569 L17.3373087,56.1011757" id="Fill-33" fill="#232F45"></path>
                                    <path d="M20.7628205,37.4672847 C20.7628205,38.9286475 19.5862105,38.8973833 18.1346154,38.8973833 C16.6828602,38.8973833 15.5064103,38.9286475 15.5064103,37.4672847 L15.5064103,26.8256691 C15.5064103,25.3643063 16.6828602,24.1794872 18.1346154,24.1794872 C19.5862105,24.1794872 20.7628205,25.3643063 20.7628205,26.8256691 L20.7628205,37.4672847" id="Fill-42" fill="#FFBC79"></path>
                                    <path d="M15.5064103,35.9947976 C15.6919212,36.0018306 15.8783925,36.0064103 16.0663044,36.0064103 C17.7456666,36.0064103 19.3320333,35.7242717 20.7628205,35.2177306 L20.7628205,26.8651196 C20.7628205,25.3819701 19.5862105,24.1794872 18.1346154,24.1794872 C16.6828602,24.1794872 15.5064103,25.3819701 15.5064103,26.8651196 L15.5064103,35.9947976" id="Fill-43" fill="#C9A37C"></path>
                                    <path d="M6.36296778,7.09615385 C3.75566927,15.5808118 8.02347472,22.6025641 8.02347472,22.6025641 C8.02347472,22.6025641 7.44400351,13.2402277 10.775641,10.60703 L6.36296778,7.09615385" id="Fill-44" fill="#301A19"></path>
                                    <path d="M33.6410256,19.2576956 C33.6410256,21.3175739 31.6417809,24.1794872 30.044932,24.1794872 C28.4484014,24.1794872 27.8589744,21.3175739 27.8589744,19.2576956 C27.8589744,17.1978173 29.1533898,16.8205128 30.7500796,16.8205128 C32.3467694,16.8205128 33.6410256,17.1978173 33.6410256,19.2576956" id="Fill-45" fill="#FFBC79"></path>
                                    <path d="M33.1153846,19.6149557 C33.1153846,21.3105262 31.4796906,23.3910256 30.173135,23.3910256 C28.8667381,23.3910256 28.3846154,21.3105262 28.3846154,19.6149557 C28.3846154,17.9195475 29.4436031,17.6089744 30.75,17.6089744 C32.0563969,17.6089744 33.1153846,17.9195475 33.1153846,19.6149557" id="Fill-46" fill="#FFC992"></path>
                                    <path d="M30.4713621,20.4607275 C30.5711491,20.7334636 30.1883981,21.1484168 29.6165358,21.3878964 C29.0443613,21.627376 28.5001396,21.6004701 28.4003526,21.327734 C28.3008779,21.054998 28.6833166,20.6400448 29.2554912,20.4005651 C29.8271973,20.1610855 30.371419,20.1879914 30.4713621,20.4607275" id="Fill-47" fill="#EFBE8E"></path>
                                    <path d="M30.9810713,17.6089744 C30.09652,17.6089744 29.3258347,17.7475569 28.9102564,18.3339042 C29.3464206,18.0320492 29.9578867,17.9503333 30.6365788,17.9503333 C31.9601891,17.9503333 33.0337126,18.2552149 33.0337126,19.9186828 C33.0337126,20.8333274 32.5320917,21.8615459 31.8606369,22.6025641 C32.697744,21.8626609 33.3782051,20.6428163 33.3782051,19.5771646 C33.3782051,17.9136966 32.3050032,17.6089744 30.9810713,17.6089744" id="Fill-48" fill="#C9A37C"></path>
                                    <path d="M28.1724548,12.6459903 C28.0332486,9.77196787 26.3300383,5.51923077 18.1346963,5.51923077 C9.93935424,5.51923077 8.15916733,9.77245367 8.09693777,12.6461523 C8.02125754,16.1337465 7.07744247,21.3287834 7.07744247,21.3287834 C6.63340859,22.6862845 6.36552976,23.9485679 6.31642674,24.9700539 C6.06313297,30.2460583 11.3498911,34.6923077 18.1346963,34.6923077 C24.9195015,34.6923077 30.2060975,30.2462202 29.9528038,24.9700539 C29.9037008,23.9485679 29.6358219,22.6862845 29.1919501,21.3287834 C29.1919501,21.3287834 28.3946338,17.2365238 28.1724548,12.6459903 Z" id="Fill-49" fill="#FFBC79"></path>
                                    <path d="M29.902323,7.16119602 C32.521841,15.6102648 28.2339308,22.6025641 28.2339308,22.6025641 C28.2339308,22.6025641 28.815992,13.2794984 25.4686953,10.6573457 C25.4686953,10.6573457 13.7195983,18.5744726 5.53047096,13.1338052 C2.11573345,10.8652012 0,3.83048902 0,3.83048902 C0,3.83048902 3.78428734,1.74982914 8.29554471,2.0413773 C8.29554471,2.0413773 7.56792777,0.8758322 7.85903924,0.00183525868 C7.85903924,0.00183525868 16.7366451,-0.206991571 19.5017189,3.83048902 C19.5017189,3.83048902 19.0650517,2.10920555 19.5017189,1.34690668 C19.5017189,1.34690668 21.9894281,2.91537424 22.7036216,3.83048902 C23.6311351,5.01902126 27.2436666,7.32194411 29.902323,7.16119602" id="Fill-50" fill="#452A26"></path>
                                    <path d="M15.2435897,21.8141026 C15.2435897,21.8141026 13.6141861,25.2831136 11.3012821,24.6957059 C11.3012821,24.6957059 12.7727741,28.1712289 15.2435897,27.143182 C15.2435897,27.143182 13.7218104,26.7257519 13.2725142,25.6257402 C13.2725142,25.6257402 14.9772705,25.39415 15.2435897,21.8141026" id="Fill-51" fill="#A57A52"></path>
                                    <path d="M18.6602564,15.2780111 C18.6602564,15.2780111 18.7517455,15.2227566 18.9231449,15.1510149 C19.0937288,15.0760055 19.3443861,14.9862912 19.6548946,14.9071228 C19.810475,14.8707321 19.9800804,14.8297368 20.1622432,14.8031493 C20.3440799,14.7715117 20.5378215,14.7492317 20.7395541,14.735418 C20.8401758,14.7248722 20.9430807,14.7205647 21.0474533,14.7205647 C21.1518259,14.7184852 21.2576662,14.7171484 21.3643219,14.7184852 C21.5777965,14.7259119 21.7948589,14.7416565 22.0112689,14.7658674 C22.1189031,14.7830973 22.2265374,14.8001787 22.3336824,14.8174086 L22.4938291,14.8447387 L22.6508772,14.8843972 C22.8591331,14.9372751 23.0638013,14.9883707 23.2526504,15.0678361 C23.4434566,15.1398749 23.6256193,15.2113195 23.7865815,15.3054898 C23.9478697,15.3965409 24.1039394,15.4718474 24.2285341,15.5737414 C24.3562275,15.669397 24.4697327,15.7585171 24.5672558,15.8388738 C24.6587449,15.9275483 24.730338,16.012658 24.7905153,16.078904 C24.9094022,16.2136239 24.9679487,16.2948718 24.9679487,16.2948718 C24.9679487,16.2948718 24.8614561,16.2617488 24.6916875,16.1962455 C24.6090049,16.1634196 24.508057,16.1236126 24.3925948,16.0778643 C24.2724032,16.0414736 24.1404698,15.9988444 24.0002191,15.9507196 C23.8645347,15.8954651 23.7012895,15.8660554 23.5413059,15.8180791 C23.38279,15.7660924 23.206172,15.7344547 23.0284124,15.693905 C22.8534253,15.6466714 22.6635976,15.6243913 22.4762162,15.5869609 L22.3346609,15.5603734 L22.190007,15.5418067 L21.8997207,15.501257 C21.7054898,15.4757093 21.5089758,15.4593706 21.3158865,15.4364964 C21.1213295,15.4265447 20.9305233,15.3992145 20.7429788,15.3922334 C20.6495328,15.3856979 20.5573913,15.3813905 20.4668807,15.372627 C20.376044,15.3680224 20.2871642,15.3634179 20.2005675,15.3589619 C20.0267219,15.3460395 19.8616828,15.3427717 19.7078963,15.33282 C19.3960832,15.317224 19.1361302,15.304153 18.9544567,15.2950925 C18.8619891,15.2918247 18.7882759,15.2845466 18.7382097,15.2830612 C18.6873281,15.2797935 18.6602564,15.2780111 18.6602564,15.2780111" id="Fill-52" fill="#301A19"></path>
                                    <path d="M13.9294872,16.0994202 C13.9294872,16.0994202 13.9055682,16.1022253 13.8606791,16.1073404 C13.8164453,16.1104754 13.751569,16.1205406 13.6701461,16.1263157 C13.507464,16.141661 13.2779398,16.1632764 13.0094243,16.1829118 C12.8762314,16.193637 12.7318981,16.2053522 12.5792096,16.2175624 C12.4276679,16.2271326 12.2695731,16.2428079 12.1067272,16.2569981 C11.9437175,16.2657433 11.7780865,16.2937938 11.6088512,16.304189 C11.4414181,16.3274544 11.2707085,16.3432947 11.1022924,16.3682102 L10.8504874,16.4066559 C10.8085472,16.413091 10.7667709,16.4195261 10.7246668,16.4239812 L10.6017952,16.4488967 C10.439277,16.4838773 10.2739736,16.5033477 10.1217766,16.5469085 C9.96712215,16.5838691 9.81312302,16.6115897 9.67452379,16.6587805 C9.53445011,16.7020113 9.39126368,16.7272568 9.27183243,16.7774177 C9.14846929,16.8206485 9.03165931,16.8585992 8.92500672,16.8906098 C8.82195836,16.9313655 8.73218014,16.9670062 8.65829332,16.9963767 C8.50642396,17.0547878 8.41025641,17.0833333 8.41025641,17.0833333 C8.41025641,17.0833333 8.4584221,17.0013268 8.55917685,16.8660243 C8.61029146,16.7995281 8.67090814,16.7140565 8.749546,16.6251199 C8.83342638,16.5441034 8.93155987,16.4546718 9.04247202,16.35864 C9.1507629,16.2566681 9.28690469,16.1806017 9.42812517,16.08919 C9.569018,15.9951383 9.72891498,15.923362 9.89667574,15.8512557 C10.0627982,15.7722192 10.2428461,15.7205733 10.4264983,15.6682673 C10.6090037,15.6072162 10.8008473,15.5892309 10.9902334,15.5511152 C11.1809302,15.5278497 11.3722824,15.5126694 11.5603579,15.5067293 C11.6542318,15.5055743 11.7474505,15.5077194 11.8393585,15.5105244 C11.9312665,15.5111844 12.0218638,15.5161345 12.1103314,15.5275197 C12.4656762,15.5562302 12.7907127,15.6298216 13.0625048,15.7101781 C13.3346246,15.7933396 13.5531723,15.8877213 13.7016012,15.9662628 C13.8506855,16.0415042 13.9294872,16.0994202 13.9294872,16.0994202" id="Fill-53" fill="#301A19"></path>
                                    <path d="M11.4326089,21.8141026 C12.4468286,21.8141026 13.3931446,21.6187853 14.1923077,21.281764 C14.1681159,19.393422 12.9421763,17.8717949 11.4326089,17.8717949 C9.9232083,17.8717949 8.69710187,19.393422 8.67307692,21.281764 C9.47207321,21.6187853 10.4182223,21.8141026 11.4326089,21.8141026" id="Fill-54" fill="#FFFFFE"></path>
                                    <path d="M11.8269231,20.2370919 C11.8269231,20.9627968 11.4739578,21.5512821 11.0387292,21.5512821 C10.6031437,21.5512821 10.25,20.9627968 10.25,20.2370919 C10.25,19.5113869 10.6031437,18.9230769 11.0387292,18.9230769 C11.4739578,18.9230769 11.8269231,19.5113869 11.8269231,20.2370919" id="Fill-55" fill="#301A19"></path>
                                    <polyline id="Fill-56" fill="#FFFFFE" points="10.25 18.9230769 10.775641 19.7115385 10.25 19.4835634 10.25 18.9230769"></polyline>
                                    <path d="M14.1830588,21.2884615 C14.1830588,21.2884615 14.1779043,21.2499195 14.1684266,21.1774198 C14.1569536,21.1055993 14.1488062,20.9979534 14.1233661,20.8651787 C14.0970947,20.7325739 14.068828,20.5731425 14.0161189,20.393676 C14.0039808,20.3488518 13.9911776,20.3026693 13.9782082,20.2549588 C13.9619133,20.2084367 13.944787,20.1607261 13.9274944,20.1116573 C13.9103681,20.0624186 13.8930755,20.012331 13.8751178,19.9607153 C13.8553311,19.9101183 13.8317201,19.8596911 13.8097718,19.807566 C13.7871584,19.7557805 13.76388,19.7028065 13.7404352,19.6489835 C13.7126673,19.5973678 13.6845669,19.5445636 13.6558013,19.4910802 C13.6024271,19.3817364 13.5322591,19.2783352 13.4642527,19.1700101 C13.3189285,18.9603212 13.1508247,18.7494439 12.9451428,18.5692983 C12.7432851,18.386436 12.5095027,18.2263254 12.2507791,18.119868 C11.993552,18.0105242 11.7142103,17.9505889 11.432707,17.9483816 C11.1342437,17.9526263 10.878513,18.0103544 10.6148012,18.1200378 C10.3564101,18.2271744 10.1224615,18.3866058 9.92043755,18.5694681 C9.71492188,18.7497835 9.54715058,18.9608306 9.40149384,19.1701799 C9.33381999,19.2786747 9.26331947,19.3819062 9.21011153,19.49125 C9.18151226,19.5449031 9.15341182,19.5975376 9.12564392,19.6491533 C9.1020329,19.7031461 9.07875442,19.7559503 9.05614105,19.8077358 C9.0340265,19.8598609 9.01041547,19.9102881 8.99062877,19.960885 C8.97283736,20.0125008 8.95537851,20.0625884 8.93858475,20.1116573 C8.92095962,20.1607261 8.90416587,20.2086065 8.88753838,20.2549588 C8.87456895,20.3026693 8.86193206,20.3488518 8.84962773,20.3938458 C8.79691861,20.5728029 8.76848561,20.7335926 8.74221419,20.8661975 C8.71694042,20.9989721 8.70862668,21.1052597 8.69715372,21.1772501 C8.68750978,21.2497498 8.68252153,21.2884615 8.68252153,21.2884615 C8.68252153,21.2884615 8.68135761,21.24958 8.67902976,21.1765709 C8.67969486,21.1039014 8.66739053,20.9957461 8.67636937,20.8590664 C8.68501566,20.7225564 8.69033645,20.5546355 8.72542044,20.3656609 C8.7329028,20.3181201 8.74055144,20.2690512 8.74853264,20.2184542 C8.76017187,20.1687062 8.77230993,20.1174301 8.78461427,20.0649654 C8.80739392,19.9588476 8.83765594,19.8491642 8.87806072,19.7371038 C8.8973486,19.6805642 8.91680275,19.6230059 8.93658945,19.5640893 C8.96103185,19.5070403 8.98597308,19.4489726 9.01108057,19.3897164 C9.0578038,19.2689968 9.1271404,19.1548989 9.19232012,19.0336699 C9.33381999,18.7991919 9.50042736,18.5562246 9.72223797,18.3495919 C9.93889405,18.1409218 10.191133,17.9429484 10.4880998,17.8186632 C10.7749238,17.6894541 11.1222719,17.6128795 11.4328733,17.6089744 C11.7602684,17.614917 12.0841718,17.6894541 12.377148,17.818833 C12.6739485,17.9436275 12.9263537,18.1410916 13.1430098,18.3497617 C13.3649867,18.5563943 13.5312615,18.7995315 13.6727614,19.0338397 C13.7377748,19.1550687 13.807444,19.2691666 13.8538346,19.390056 C13.8792747,19.4491424 13.9040496,19.5072101 13.9283258,19.5644288 C13.9482787,19.6231757 13.9678992,19.680734 13.9868545,19.7372736 C14.0274255,19.849334 14.0578538,19.9590174 14.0804672,20.0649654 C14.0929378,20.1175999 14.1049096,20.1687062 14.1165488,20.218624 C14.12453,20.2690512 14.1321787,20.3181201 14.139661,20.3658307 C14.1749113,20.5542959 14.1803984,20.7234053 14.1890447,20.8600851 C14.1980235,20.9967648 14.1855529,21.103392 14.186218,21.1764011 C14.1842227,21.24958 14.1830588,21.2884615 14.1830588,21.2884615" id="Fill-57" fill="#301A19"></path>
                                    <path d="M21.4199527,22.0769231 C22.6277354,22.0769231 23.7540074,21.8425686 24.7051282,21.4380089 C24.6765024,19.1723136 23.2169096,17.3461538 21.4199527,17.3461538 C19.6226723,17.3461538 18.1632412,19.1723136 18.1346154,21.4380089 C19.0857362,21.8425686 20.2123316,22.0769231 21.4199527,22.0769231" id="Fill-58" fill="#FFFFFE"></path>
                                    <path d="M21.2884615,20.2371795 C21.2884615,20.9628779 20.9353346,21.5512821 20.5001664,21.5512821 C20.0646654,21.5512821 19.7115385,20.9628779 19.7115385,20.2371795 C19.7115385,19.5114811 20.0646654,18.9230769 20.5001664,18.9230769 C20.9353346,18.9230769 21.2884615,19.5114811 21.2884615,20.2371795" id="Fill-59" fill="#301A19"></path>
                                    <polyline id="Fill-60" fill="#FFFFFE" points="19.7115385 18.9230769 20.5 19.974359 19.7115385 19.6705212 19.7115385 18.9230769"></polyline>
                                    <path d="M24.6996138,21.2884615 C24.6996138,21.2884615 24.6942859,21.243994 24.6842757,21.160478 C24.6720053,21.0775995 24.6637711,20.9534411 24.6364855,20.7999565 C24.6079082,20.6467906 24.5786851,20.4612702 24.5158797,20.2537552 C24.5016718,20.2017967 24.4869795,20.1480851 24.4718029,20.092939 C24.4524284,20.039068 24.4324082,19.9836031 24.412065,19.9267038 C24.3922063,19.8698045 24.3718631,19.8114708 24.3508741,19.751862 C24.3277863,19.6930502 24.3001777,19.6343977 24.2741837,19.5738326 C24.2475439,19.5135863 24.2204197,19.452065 24.1926497,19.3894279 C24.1600361,19.3291816 24.1267766,19.267979 24.0928714,19.2056608 C24.0300659,19.0783148 23.9461101,18.9579815 23.8657062,18.8315918 C23.6927895,18.5874189 23.4924256,18.340696 23.2455631,18.1301527 C23.0030599,17.9167405 22.7221307,17.7281919 22.4093952,17.6032366 C22.3343193,17.5645068 22.251978,17.544106 22.1715741,17.5181268 L22.0506454,17.4800345 C22.0097977,17.468559 21.9674968,17.463937 21.9260033,17.4553303 C21.8420474,17.4435361 21.760029,17.4170787 21.6746201,17.4162818 L21.5472332,17.4091096 L21.4834591,17.4054439 L21.4518142,17.4035313 L21.4359917,17.402575 L21.4279191,17.4020968 L21.4238827,17.4017781 C21.4271118,17.4016187 21.4109664,17.4019375 21.4301794,17.4012999 L21.1589374,17.4170787 C21.1119545,17.4177163 21.0706224,17.4247291 21.0313891,17.433495 L20.9104604,17.4562866 C20.870097,17.4645745 20.8297337,17.4688778 20.7893703,17.4801939 L20.6682801,17.5182861 C20.5880377,17.5442654 20.5056964,17.5646662 20.430459,17.603396 C20.117885,17.7288294 19.8369558,17.9168999 19.5944525,18.1304715 C19.3475901,18.3408554 19.1475491,18.5877377 18.9744709,18.8317512 C18.8939056,18.9583003 18.8099497,19.0784741 18.7474672,19.2058202 C18.713562,19.2681384 18.6803025,19.329341 18.6476889,19.3895873 C18.6199189,19.4522243 18.5927947,19.5137457 18.5661549,19.573992 C18.5401609,19.6343977 18.5125523,19.6932096 18.489303,19.751862 C18.4684755,19.8116302 18.4481323,19.8699639 18.428435,19.9267038 C18.4079304,19.9836031 18.3879102,20.0392273 18.3683743,20.092939 C18.3533591,20.1482445 18.3386668,20.2017967 18.3242975,20.2537552 C18.261492,20.4611109 18.2322689,20.6475875 18.2035302,20.8009128 C18.176406,20.9545568 18.1680104,21.0771213 18.15574,21.160478 C18.1457298,21.243994 18.1402404,21.2884615 18.1402404,21.2884615 C18.1402404,21.2884615 18.1397561,21.2438346 18.138303,21.1598405 C18.1404019,21.0760057 18.1271627,20.9513691 18.1410477,20.7943781 C18.153964,20.6373871 18.1646199,20.4451727 18.2069207,20.2280947 C18.2161236,20.1735862 18.2256493,20.117165 18.2353366,20.0593094 C18.2495445,20.0020914 18.2642367,19.9432795 18.2792519,19.8830332 C18.2949129,19.8227869 18.3108968,19.7607874 18.3275265,19.6975129 C18.3470624,19.6350352 18.3709575,19.5723982 18.3933996,19.5076892 C18.4164874,19.4429802 18.4402211,19.3769962 18.4642777,19.3097371 C18.4936622,19.2445499 18.5236926,19.1780877 18.5542073,19.1103505 C18.6105546,18.9724853 18.6935417,18.842111 18.7713623,18.7037676 C18.9404042,18.4360063 19.139315,18.1593196 19.4019999,17.9239127 C19.6588725,17.6861151 19.9575616,17.4620244 20.3074314,17.3206528 C20.3910644,17.2773009 20.4829314,17.2524374 20.5730225,17.2223142 L20.7086435,17.1784842 C20.7546578,17.1652556 20.8043855,17.1584021 20.8521757,17.1482017 C20.9467875,17.1329011 21.0506021,17.1035748 21.1385943,17.1015029 L21.4096748,17.0833333 L21.7077181,17.1022998 C21.8041058,17.1050093 21.8967802,17.1340167 21.9910691,17.1489986 C22.0377291,17.1590397 22.0855194,17.1654149 22.1310493,17.1786436 L22.2668317,17.2224736 C22.3569228,17.2525968 22.4486284,17.2774603 22.5324228,17.3208121 C22.8819697,17.4626619 23.1808203,17.6862745 23.4375314,17.9242315 C23.7003778,18.1596383 23.8988042,18.4364844 24.068169,18.7040864 C24.1459896,18.8422704 24.2289767,18.9726446 24.2851626,19.1106692 C24.3156773,19.1782471 24.3457076,19.2447093 24.3752536,19.3100558 C24.3993102,19.3771555 24.4228824,19.4431396 24.4461317,19.5078486 C24.4685738,19.5725576 24.4924689,19.6351946 24.5120048,19.6976722 C24.5286345,19.7609468 24.544457,19.8229463 24.5601179,19.8831926 C24.5752946,19.9434389 24.5899869,20.0022508 24.6041948,20.0593094 C24.613882,20.1173244 24.6234077,20.1735862 24.6326106,20.2282541 C24.6749114,20.4448539 24.6857288,20.6383434 24.6988066,20.7953344 C24.7125301,20.9523254 24.6992909,21.0755275 24.7015513,21.1596811 C24.7002596,21.2436753 24.6996138,21.2884615 24.6996138,21.2884615" id="Fill-61" fill="#301A19"></path>
                                    <path d="M10.5201556,28.5165693 C11.0257508,28.5810328 11.7469012,28.6720591 12.6104115,28.7708599 C13.0421666,28.8210702 13.5106806,28.8641538 14.0041841,28.9177654 C14.498655,28.9637645 15.0200501,29.007496 15.5586961,29.0453966 C15.8279384,29.0627273 16.101695,29.0803818 16.3786761,29.0983603 C16.6558184,29.1088883 16.9360239,29.1273527 17.2181642,29.1346413 C17.7829282,29.156993 18.355431,29.1590985 18.926644,29.1510001 C19.4973734,29.1393384 20.0663293,29.1096981 20.6223873,29.0570584 C21.1758658,28.9947005 21.7217668,28.9292652 22.2342946,28.8097324 C22.7466613,28.6939249 23.2390362,28.5612726 23.6769178,28.3722554 C23.9034361,28.2906232 24.0996445,28.1706045 24.3035915,28.0745572 C24.3987131,28.0164105 24.4920612,27.9590736 24.5837971,27.9027085 C24.6273273,27.8761457 24.670535,27.8499068 24.7134203,27.8238299 C24.7577567,27.7903024 24.8017705,27.7570988 24.8451395,27.7242192 C24.9794383,27.616996 25.0940678,27.4712243 25.1040636,27.3661068 C25.1287307,27.2593695 25.0477968,27.1241257 24.9334897,27.0170645 C24.8209561,26.9074118 24.6835941,26.823998 24.5565504,26.7486827 C24.4278945,26.6745011 24.3027854,26.6144107 24.1876722,26.5637146 C23.9569621,26.463618 23.7694598,26.3923519 23.640159,26.3484584 C23.5105357,26.3050508 23.4412098,26.2820513 23.4412098,26.2820513 C23.4412098,26.2820513 23.5144051,26.2857766 23.6507997,26.3031072 C23.7868719,26.3220575 23.9877557,26.3478105 24.2392636,26.4111402 C24.4894816,26.4785191 24.8001583,26.5520528 25.1276022,26.7763793 C25.2096647,26.8319345 25.2902762,26.90644 25.3629877,27.0015156 C25.436183,27.0951334 25.4909988,27.2323207 25.4934171,27.3763108 C25.4968028,27.5198149 25.4500481,27.6626712 25.3831406,27.771838 C25.3194575,27.8869976 25.237395,27.9814253 25.1446918,28.0786064 C25.105031,28.116507 25.0647252,28.1547316 25.024097,28.1931181 C24.9760526,28.2315047 24.9273632,28.2702152 24.8781902,28.3092496 C24.7835523,28.3829453 24.6873022,28.4579367 24.5892787,28.5343859 C24.3803337,28.6639607 24.1668745,28.8103803 23.9301991,28.9205189 C23.4666831,29.1665491 22.9491573,29.3565382 22.4056747,29.507007 C22.2694412,29.5426401 22.1324017,29.5813505 21.9932663,29.614878 C21.853486,29.6433845 21.7127383,29.6722149 21.5711845,29.7012073 C21.2882382,29.7595159 20.9994879,29.7993602 20.7086416,29.8379087 C20.1264654,29.9117664 19.5334873,29.9439981 18.941799,29.9605189 C18.3504331,29.9642442 17.7593897,29.9593851 17.1809217,29.9182451 C16.6019699,29.8842317 16.0347875,29.8283526 15.4887253,29.7580582 C14.9418569,29.6934328 14.4178823,29.6006248 13.9219604,29.5144575 C13.4261997,29.4255368 12.9602653,29.3278698 12.5328632,29.2271253 C12.1044938,29.1317259 11.7153015,29.0285519 11.3715741,28.9339623 C11.0270406,28.8422881 10.7300679,28.7488322 10.4858151,28.6730309 C9.9974707,28.5189989 9.72435897,28.4125855 9.72435897,28.4125855 C9.72435897,28.4125855 10.0137542,28.4503242 10.5201556,28.5165693 Z" id="Fill-62" fill="#88623E"></path>
                                    <path d="M11.7071013,68.5961538 L10.514882,38.7364761 C10.4753129,37.8126666 11.0101388,37.0576923 11.7096749,37.0576923 L26.6621199,37.0576923 C27.3616561,37.0576923 27.896482,37.8126666 27.8569129,38.7364761 L27.5754256,68.5961538 L11.7071013,68.5961538" id="Fill-63" fill="#3C4963"></path>
                                    <path d="M27.8589744,39.2970905 L27.6081387,38.4385295 C27.3097335,37.4170122 27.0878465,37.9339324 25.6665489,38.3796707 C24.2450948,38.8252468 23.6971058,41.7748376 23.9953546,42.7965171 L27.2593473,56.4838767 L27.4234937,68.5961538 L27.591239,68.5961538 L27.8589744,39.2970905" id="Fill-64" fill="#232F45"></path>
                                    <path d="M17.3461538,68.5961538 L17.3461538,41.2061421 C17.3461538,40.9471579 17.2284186,40.7371795 17.0835938,40.7371795 C16.9379876,40.7371795 16.8205128,40.9471579 16.8205128,41.2061421 L16.8205128,68.5961538 L17.3461538,68.5961538" id="Fill-65" fill="#192237"></path>
                                    <polyline id="Fill-70" fill="#FFFFFE" points="17.0749804 46.7820513 21.5512821 37.0576923 14.7179487 37.0576923 17.0749804 46.7820513"></polyline>
                                    <polyline id="Fill-71" fill="#192237" points="21.6471409 37.0576923 23.3910256 39.5808882 20.9202376 41.0201437 21.9012643 46.098599 17.0833333 48.6217949 17.0833333 47.0021007 21.6471409 37.0576923"></polyline>
                                    <polyline id="Fill-72" fill="#192237" points="14.9091059 37.0576923 13.1410256 39.5808882 15.6456961 41.0201437 14.6511509 46.098599 17.3461538 48.6217949 17.3461538 47.0021007 14.9091059 37.0576923"></polyline>
                                    <polyline id="Fill-75" fill="#D3D4CE" points="18.1346154 37.3926548 19.0345949 39.4230769 21.8141026 37.8460709 20.6715534 36.2692308 18.1346154 37.3926548"></polyline>
                                    <polyline id="Fill-76" fill="#D3D4CE" points="16.5576923 37.3064867 15.2455549 38.8974359 14.1923077 37.3064867 15.5765369 36.2692308 16.5576923 37.3064867"></polyline>
                                    <path d="M34.371165,55.5098361 C34.6785795,56.535178 33.740207,57.7291317 32.2750685,58.1767016 C30.8100913,58.623946 29.3726943,58.155381 29.0652798,57.1298763 L23.9750364,40.1567241 C23.6674605,39.1313822 24.6059943,37.9372657 26.0709715,37.4900214 C27.5359487,37.042777 28.9731844,37.5110164 29.280599,38.5363584 L34.371165,55.5098361" id="Fill-77" fill="#3C4963"></path>
                                </g>
                            </g>
                        </g>
                    </g>
                </g>
            </g>
        </g>
    </g>
</svg>