<?xml version="1.0" encoding="UTF-8"?>
<svg width="19px" height="14px" viewBox="0 0 19 14" version="1.1" xmlns="http://www.w3.org/2000/svg" xmlns:xlink="http://www.w3.org/1999/xlink">
    <!-- Generator: sketchtool 49.3 (51167) - http://www.bohemiancoding.com/sketch -->
    <title>D03686B9-7DEF-4073-A5D6-8F82AB9DF817</title>
    <desc>Created with sketchtool.</desc>
    <defs></defs>
    <g id="Home" stroke="none" stroke-width="1" fill="none" fill-rule="evenodd">
        <g id="Mobile_Home-320" transform="translate(-121.000000, -636.000000)" fill="#000000" fill-rule="nonzero">
            <g id="reddit-(1)" transform="translate(121.200000, 636.000000)">
                <polygon id="Shape" points="6.17291066 8.07117438 6.17291066 8.08717438 6.74351585 8.08717438"></polygon>
                <polygon id="Shape" points="11.7752161 8.07117438 11.7752161 8.08717438 12.3458213 8.08717438"></polygon>
                <path d="M18,6.46156693 C18,5.27372526 16.9952707,4.30772891 15.7598009,4.30772891 C15.265837,4.30772891 14.7965152,4.46280525 14.4134412,4.74388111 C13.1634101,3.90926888 11.5258245,3.41173229 9.7840697,3.28573277 L10.7238332,1.16635616 L13.4579963,1.78019999 C13.545364,2.59327385 14.253267,3.2308099 15.1213441,3.2308099 C16.0476665,3.2308099 16.8014935,2.50604341 16.8014935,1.61543139 C16.8014935,0.724819364 16.0476665,5.28704088e-05 15.1213441,5.28704088e-05 C14.5344119,5.28704088e-05 14.018046,0.291897922 13.7178594,0.732357797 L10.5222153,0.0140528175 C10.2511512,-0.045177728 9.98568762,0.0872833102 9.87815806,0.327436249 L8.57884256,3.25665596 C6.6981954,3.31911726 4.90603609,3.82849995 3.55295582,4.71588122 C3.18444306,4.45311298 2.72744244,4.30772891 2.24019913,4.30772891 C1.00472931,4.30772891 0,5.27372526 0,6.46156693 C0,7.24879473 0.446919726,7.96063819 1.13242066,8.32571374 C1.12345986,8.42048261 1.12009956,8.51740532 1.12009956,8.61540495 C1.12009956,11.5844707 4.6372122,14 8.96079652,14 C13.2832607,14 16.8014935,11.5844707 16.8014935,8.61540495 C16.8014935,8.53140527 16.7981332,8.4484825 16.7925327,8.36555974 C17.5228376,8.00802263 18,7.27894846 18,6.46156693 Z M15.1213441,1.07697188 C15.4293715,1.07697188 15.6813939,1.31820174 15.6813939,1.61543139 C15.6813939,1.91266103 15.4293715,2.15389089 15.1213441,2.15389089 C14.8133167,2.15389089 14.5612943,1.91266103 14.5612943,1.61543139 C14.5612943,1.31820174 14.8133167,1.07697188 15.1213441,1.07697188 Z M5.04044804,8.07694545 C5.04044804,7.48356307 5.54337274,7.00002644 6.1605476,7.00002644 C6.77772246,7.00002644 7.28064717,7.48356307 7.28064717,8.07694545 C7.28064717,8.67140474 6.77772246,9.15386446 6.1605476,9.15386446 C5.54337274,9.15386446 5.04044804,8.67140474 5.04044804,8.07694545 Z M11.5471064,11.6490858 C10.7742377,12.1864684 9.86695706,12.4556981 8.96079652,12.4556981 C8.05463597,12.4556981 7.14735532,12.1864684 6.37448662,11.6490858 C6.12358432,11.4746249 6.06757934,11.1375493 6.24903547,10.8973963 C6.4304916,10.6572434 6.78108276,10.6033974 7.03086497,10.7767814 C8.18568762,11.5790861 9.73590541,11.5812399 10.8907281,10.7767814 C11.1405103,10.6033974 11.4899813,10.6550896 11.6725576,10.8973963 C11.8540137,11.1386262 11.7968886,11.4746249 11.5471064,11.6490858 Z M11.7610454,9.15386446 C11.1427505,9.15386446 10.6409459,8.67140474 10.6409459,8.07694545 C10.6409459,7.48356307 11.1427505,7.00002644 11.7610454,7.00002644 C12.3793404,7.00002644 12.881145,7.48356307 12.881145,8.07694545 C12.881145,8.67140474 12.3793404,9.15386446 11.7610454,9.15386446 Z" id="Shape"></path>
            </g>
        </g>
    </g>
</svg>