<?xml version="1.0" encoding="UTF-8"?>
<svg width="19px" height="16px" viewBox="0 0 19 16" version="1.1" xmlns="http://www.w3.org/2000/svg" xmlns:xlink="http://www.w3.org/1999/xlink">
    <!-- Generator: Sketch 50.2 (55047) - http://www.bohemiancoding.com/sketch -->
    <title>refresh (1)</title>
    <desc>Created with Sketch.</desc>
    <defs></defs>
    <g id="Wallet-Manager" stroke="none" stroke-width="1" fill="none" fill-rule="evenodd">
        <g id="Desktop_Wallet-Manager" transform="translate(-310.000000, -495.000000)" fill="#FFFFFF" fill-rule="nonzero">
            <g id="refresh-(1)" transform="translate(310.000000, 495.000000)">
                <path d="M5.21363327,8.01073001 L4.17340612,8.01073001 L4.17340612,8.0021046 C4.17340612,4.99197405 6.48547221,2.45920827 9.43405556,2.47342295 C10.8715497,2.48018527 12.1920756,3.08348104 13.1331355,4.06981408 L14.8496664,2.34949304 C13.4638481,0.897456797 11.5489826,0 9.43405556,0 C5.20772176,0 1.78176706,3.58506596 1.77578913,8.00955696 L0.723672521,8.00955696 C0.0788525708,8.00955696 -0.184774374,8.45738831 0.137635601,9.00575746 L2.38261598,11.3176437 C2.82790573,11.7802418 3.09571723,11.7944564 3.55468982,11.3176437 L5.79967019,9.00575746 C6.12208017,8.45794034 5.85785543,8.01073001 5.21363327,8.01073001 Z M18.8622558,7.04847912 L16.6172754,4.74149211 C16.1594984,4.26592143 15.8762771,4.29428178 15.4457994,4.74149211 L13.200819,7.04847912 C12.878409,7.59560622 13.1414382,8.04343757 13.7862581,8.04343757 L14.8247583,8.04343757 C14.8081529,11.0338332 12.5037917,13.5443799 9.56530445,13.5301652 C8.12840808,13.5240239 6.80847998,12.9219702 5.86622454,11.9362582 L4.14969364,13.6541641 C5.53610967,15.1037163 7.45097517,16 9.56530445,16 C13.7785532,16 17.1950761,12.4408793 17.2223753,8.0440586 L18.2762853,8.0440586 C18.9216366,8.04343757 19.1846658,7.59498519 18.8622558,7.04847912 Z" id="Shape"></path>
            </g>
        </g>
    </g>
</svg>