<?xml version="1.0" encoding="UTF-8"?>
<svg width="26px" height="15px" viewBox="0 0 26 15" version="1.1" xmlns="http://www.w3.org/2000/svg" xmlns:xlink="http://www.w3.org/1999/xlink">
    <!-- Generator: Sketch 52.2 (67145) - http://www.bohemiancoding.com/sketch -->
    <title>graph</title>
    <desc>Created with Sketch.</desc>
    <g id="Settings" stroke="none" stroke-width="1" fill="none" fill-rule="evenodd">
        <g id="graph" fill="#FFFFFF" fill-rule="nonzero">
            <g id="Group" transform="translate(0.000000, 1.000000)">
                <path d="M20.4680851,0 C20.1621702,0 19.9148936,0.248333333 19.9148936,0.555555556 C19.9148936,0.862777778 20.1621702,1.11111111 20.4680851,1.11111111 L24.1114043,1.11111111 L16.108383,9.14833333 L16.8905957,9.93388889 L24.893617,1.89666667 L24.893617,5.55555556 C24.893617,5.86277778 25.1408936,6.11111111 25.4468085,6.11111111 C25.7527234,6.11111111 26,5.86277778 26,5.55555556 L26,0 L20.4680851,0 Z" id="Shape"></path>
                <polygon id="Rectangle-path" transform="translate(10.186664, 6.341542) rotate(-135.000000) translate(-10.186664, -6.341542) " points="5.8167694 5.7859913 14.5565579 5.7859913 14.5565579 6.89709176 5.8167694 6.89709176"></polygon>
                <polygon id="Shape" points="0 6.43666667 0 8.00777778 4.35859574 3.63055556 3.57638298 2.845"></polygon>
            </g>
            <g id="Group" transform="translate(3.000000, 0.000000)">
                <path d="M12.2222222,9.44444444 C10.6905556,9.44444444 9.44444444,10.6905556 9.44444444,12.2222222 C9.44444444,13.7538889 10.6905556,15 12.2222222,15 C13.7538889,15 15,13.7538889 15,12.2222222 C15,10.6905556 13.7538889,9.44444444 12.2222222,9.44444444 Z" id="Shape"></path>
                <path d="M2.77777778,0 C1.24611111,0 0,1.24611111 0,2.77777778 C0,4.30944444 1.24611111,5.55555556 2.77777778,5.55555556 C4.30944444,5.55555556 5.55555556,4.30944444 5.55555556,2.77777778 C5.55555556,1.24611111 4.30944444,0 2.77777778,0 Z" id="Shape"></path>
            </g>
        </g>
    </g>
</svg>