<?xml version="1.0" encoding="UTF-8"?>
<svg width="21px" height="15px" viewBox="0 0 21 15" version="1.1" xmlns="http://www.w3.org/2000/svg" xmlns:xlink="http://www.w3.org/1999/xlink">
    <!-- Generator: sketchtool 49.3 (51167) - http://www.bohemiancoding.com/sketch -->
    <title>FF4A335C-CCD1-451A-9204-872DC359DFE2</title>
    <desc>Created with sketchtool.</desc>
    <defs></defs>
    <g id="Home" stroke="none" stroke-width="1" fill="none" fill-rule="evenodd">
        <g id="Mobile_Home-320" transform="translate(-40.000000, -636.000000)" fill="#000000" fill-rule="nonzero">
            <path d="M55.4982877,651 C55.4982877,651 54.8510274,650.23215 54.3116439,649.553586 C56.6669521,648.892878 57.5659247,647.428607 57.5659247,647.428607 C56.8287672,647.910745 56.1275686,648.250027 55.4982877,648.482168 C54.5993151,648.857164 53.7363014,649.107162 52.8912671,649.250017 C51.1652398,649.571443 49.583048,649.482158 48.234589,649.23216 C47.2097603,649.035734 46.3287671,648.750022 45.5916096,648.464311 C45.1780822,648.303598 44.7285959,648.107171 44.2791096,647.857174 C44.2251712,647.82146 44.1712329,647.803603 44.1172945,647.767889 C44.0813356,647.750032 44.0633562,647.732175 44.0453767,647.714318 C43.7217466,647.535749 43.5419521,647.41075 43.5419521,647.41075 C43.5419521,647.41075 44.4049658,648.839307 46.6883562,649.517872 C46.1489726,650.196437 45.4837329,651 45.4837329,651 C41.510274,650.875001 40,648.285741 40,648.285741 C40,642.535798 42.5890411,637.87513 42.5890411,637.87513 C45.1780822,635.946577 47.6412672,636.000148 47.6412672,636.000148 L47.8210617,636.214432 C44.5847603,637.142994 43.0924658,638.553695 43.0924658,638.553695 C43.0924658,638.553695 43.4880137,638.339411 44.1532534,638.035843 C46.0770548,637.196565 47.6053082,636.964425 48.234589,636.910854 C48.3424658,636.892997 48.432363,636.87514 48.5402397,636.87514 C49.6369863,636.732284 50.8775685,636.69657 52.1720891,636.839426 C53.8801371,637.035852 55.7140411,637.535847 57.5839042,638.553695 C57.5839042,638.553695 56.1635274,637.214422 53.1070206,636.28586 L53.3587329,636.000148 C53.3587329,636.000148 55.8219179,635.946577 58.410959,637.87513 C58.410959,637.87513 61,642.535798 61,648.285741 C61,648.285741 59.4717467,650.875001 55.4982877,651 Z M47.1378425,642.660797 C46.1130137,642.660797 45.3039384,643.553645 45.3039384,644.64292 C45.3039384,645.732195 46.1309932,646.625043 47.1378425,646.625043 C48.1626712,646.625043 48.9717467,645.732195 48.9717467,644.64292 C48.989726,643.553645 48.1626712,642.660797 47.1378425,642.660797 Z M53.7003424,642.660797 C52.6755138,642.660797 51.8664384,643.553645 51.8664384,644.64292 C51.8664384,645.732195 52.6934931,646.625043 53.7003424,646.625043 C54.7251713,646.625043 55.5342466,645.732195 55.5342466,644.64292 C55.5342466,643.553645 54.7251713,642.660797 53.7003424,642.660797 Z" id="Shape"></path>
        </g>
    </g>
</svg>