<?xml version="1.0" encoding="UTF-8"?>
<svg width="20px" height="16px" viewBox="0 0 20 16" version="1.1" xmlns="http://www.w3.org/2000/svg" xmlns:xlink="http://www.w3.org/1999/xlink">
    <!-- Generator: sketchtool 49.3 (51167) - http://www.bohemiancoding.com/sketch -->
    <title>4F8C8CC5-BFEE-49D2-91FF-C805553CD8DF</title>
    <desc>Created with sketchtool.</desc>
    <defs></defs>
    <g id="Home" stroke="none" stroke-width="1" fill="none" fill-rule="evenodd">
        <g id="Mobile_Home-320" transform="translate(-81.000000, -635.000000)" fill="#030104" fill-rule="nonzero">
            <g id="twitter-logo" transform="translate(81.600000, 635.000000)">
                <path d="M16.7729015,2.44920171 C17.625743,1.9239946 18.1904339,1.20712925 18.4669741,0.295429 C17.6373535,0.736984171 16.8108994,1.03982537 15.9855008,1.20712925 C15.2434865,0.406611956 14.3040942,0 13.177879,0 C12.0769957,0 11.1471029,0.387552021 10.3882007,1.14147836 C9.63352036,1.90069912 9.25248597,2.82298822 9.25248597,3.89987457 C9.25248597,4.22707013 9.29365035,4.51932247 9.37597911,4.76710164 C6.1292706,4.65591868 3.44197545,3.30478103 1.32464863,0.704158727 C0.965779679,1.34054879 0.786345203,1.9885866 0.786345203,2.658861 C0.786345203,4.03647078 1.36581301,5.12818152 2.52263763,5.9297577 C1.86295206,5.87363678 1.28137326,5.7063329 0.786345203,5.43208161 C0.786345203,6.41578605 1.07449586,7.23748105 1.65185267,7.96069971 C2.23132048,8.67650618 2.97544581,9.13288574 3.88422865,9.32772064 C3.55491362,9.41243146 3.20765513,9.4526691 2.85089717,9.4526691 C2.52158213,9.4526691 2.28831732,9.42513808 2.15004722,9.36478162 C2.39281151,10.1663578 2.85089717,10.8165134 3.51269374,11.3141895 C4.17237931,11.8139833 4.9312816,12.0776458 5.7841231,12.1009412 C4.37820121,13.2074764 2.77067941,13.7549201 0.952058219,13.7549201 C0.50663852,13.7549201 0.191044942,13.7485668 0,13.7146824 C1.79117827,14.8815741 3.78501194,15.4607843 5.9910005,15.4607843 C8.24870841,15.4607843 10.2435976,14.8868685 11.97989,13.7390368 C13.7161824,12.5975585 14.9975557,11.189241 15.8208433,9.53102662 C16.6483529,7.87493 17.0578857,6.15106473 17.0578857,4.35095971 L17.0578857,3.85540139 C17.8579523,3.25183677 18.5049719,2.5720324 19,1.82128272 C18.2822621,2.13153612 17.5402478,2.34225429 16.7729015,2.44920171 Z" id="Shape"></path>
            </g>
        </g>
    </g>
</svg>