<?xml version="1.0" encoding="UTF-8"?>
<svg width="219px" height="187px" viewBox="0 0 219 187" version="1.1" xmlns="http://www.w3.org/2000/svg" xmlns:xlink="http://www.w3.org/1999/xlink">
    <!-- Generator: sketchtool 52.3 (67297) - http://www.bohemiancoding.com/sketch -->
    <title>D13ACD45-4DC3-43E3-AE5A-40FF33AB003E</title>
    <desc>Created with sketchtool.</desc>
    <defs>
        <linearGradient x1="0%" y1="100%" x2="172.994172%" y2="109.159825%" id="linearGradient-1">
            <stop stop-color="#FFFFFF" offset="0%"></stop>
            <stop stop-color="#9EE8FB" offset="99.3790643%"></stop>
        </linearGradient>
        <linearGradient x1="3.4358051%" y1="49.9270766%" x2="109.166864%" y2="49.9270766%" id="linearGradient-2">
            <stop stop-color="#FFFFFF" offset="0%"></stop>
            <stop stop-color="#05A9D3" offset="100%"></stop>
        </linearGradient>
    </defs>
    <g id="token" stroke="none" stroke-width="1" fill="none" fill-rule="evenodd">
        <g id="Tablet_Token_1024" transform="translate(-88.000000, -1561.000000)">
            <g id="Group-4" transform="translate(88.000000, 1025.000000)">
                <g id="Group-45-Copy" transform="translate(0.000000, 536.000000)">
                    <g id="Group-23" fill="url(#linearGradient-1)">
                        <path d="M47.3507049,139.556281 C69.6674669,170.280765 100.133608,179.72964 137.558066,176.350572 C174.982524,172.971504 218.174234,158.203728 218.989172,111.835412 C219.80411,65.4670954 174.418336,57.2071525 150.032885,20.0374092 C135.301315,-2.42713263 93.99023,-8.93496647 64.0882764,15.8448624 C42.084952,34.0542821 9.55012201,87.5561853 47.3507049,139.556281 Z" id="Path"></path>
                        <path d="M17.3507049,149.556281 C39.6674669,180.280765 70.1336083,189.72964 107.558066,186.350572 C144.982524,182.971504 188.174234,168.203728 188.989172,121.835412 C189.80411,75.4670954 144.418336,67.2071525 120.032885,30.0374092 C105.301315,7.57286737 63.99023,1.06503353 34.0882764,25.8448624 C12.084952,44.0542821 -20.449878,97.5561853 17.3507049,149.556281 Z" id="Path"></path>
                    </g>
                    <ellipse id="Oval-Copy-2" fill="url(#linearGradient-2)" style="mix-blend-mode: color-burn;" cx="118" cy="130" rx="76" ry="11"></ellipse>
                    <path d="M168,122 L72,122 L72,66.5376593 C72,62.9455388 74.9373134,60 78.519403,60 L161.408955,60 C164.991045,60 167.928358,62.9455388 167.928358,66.5376593 L167.928358,122 L168,122 Z" id="Path" fill="#21B2D8"></path>
                    <path d="M181,122 L60,122 C60,125.905263 63.0860024,129 66.8179122,129 L174.11032,129 C177.985765,129 181,125.831579 181,122 Z" id="Path" fill="#21B2D8"></path>
                    <rect id="Rectangle" fill="#FFFFFF" x="77" y="65" width="86" height="57"></rect>
                    <path d="M98.6897547,93.7358834 C96.0923521,93.7358834 94,91.6229508 94,89 L94,124.774135 C94,127.105647 95.8759019,129 98.1847042,129 L139.815296,129 C142.124098,129 144,127.105647 144,124.774135 L144,98.1803279 C144,95.7030965 142.051948,93.7358834 139.598846,93.7358834 L98.6897547,93.7358834 Z" id="Path" fill="#21B2D8"></path>
                    <path d="M143.917127,117 L138.099448,117 C135.298343,117 133,114.729032 133,111.96129 L133,111.03871 C133,108.270968 135.298343,106 138.099448,106 L143.917127,106 C145.066298,106 146,106.922581 146,108.058065 L146,115.012903 C145.928177,116.077419 145.066298,117 143.917127,117 Z" id="Path" fill="#FFFFFF"></path>
                    <circle id="Oval" fill="#25B2D4" cx="138" cy="112" r="2"></circle>
                    <circle id="Oval" fill="#AED2D2" cx="119.722222" cy="84.2777778" r="15.2777778"></circle>
                    <circle id="Oval" fill="#FFFFFF" cx="117.277778" cy="84.2777778" r="15.2777778"></circle>
                    <path d="M114.681744,94.6651272 C114.905754,94.6832512 116.2296,94.5392189 116.10132,94.3455975 C115.405031,93.2945828 114.515213,91.8436429 115.151843,88.7510933 C115.576263,86.6893937 116.513709,84.4936247 117.96418,82.1637865 C117.113971,84.4955654 117.28703,86.3809198 118.483355,87.8198496 C120.277843,89.9782444 120.465173,91.5971494 119.466978,94.3134066 C119.383815,94.5397087 120.6778,94.7345059 120.885958,94.6312026 C121.094115,94.5278994 125.025014,93.6123461 125.204167,89.1128615 C125.279558,88.1351007 125.128767,86.4044538 124.563388,84.677056 C123.83643,82.4877338 121.777681,80.4556004 121.777681,81.2982149 C121.777681,81.4146066 121.793207,81.9652522 121.777681,82.1637865 C121.655552,83.7255009 120.584289,83.883491 120.107934,83.0929859 C119.825096,82.6236205 119.778155,81.6200901 119.778155,80.4835162 C119.778155,78.5913226 119.212109,76.6434833 117.96418,75.0606557 C117.639658,74.6490403 117.259934,74.2644149 116.824272,73.9364211 C116.66655,73.8176512 116.452364,73.9360732 116.452364,74.1301784 C116.452364,76.8705566 115.669036,78.3661222 111.354462,83.0929859 C107.039888,87.8198496 110.334534,94.3134066 114.681744,94.6651272 Z" id="Shape-Copy-4" fill="#FFA400"></path>
                    <ellipse id="Oval" fill="#AED2D2" cx="98.5185185" cy="42" rx="6.48148148" ry="7"></ellipse>
                    <ellipse id="Oval" fill="#FFFFFF" cx="97.4814815" cy="42" rx="6.48148148" ry="7"></ellipse>
                    <path d="M96.380134,46.7592946 C96.4751685,46.7675987 97.0368,46.7016057 96.982378,46.6128919 C96.6869827,46.1313361 96.3094844,45.4665418 96.5795699,44.0495919 C96.7596269,43.1049586 97.157331,42.0988971 97.7726823,41.0314076 C97.4119879,42.0997863 97.4854066,42.9636214 97.9929386,43.6229129 C98.7542366,44.6118502 98.8337098,45.353603 98.4102332,46.5981426 C98.3749517,46.7018302 98.9239152,46.7910827 99.0122245,46.743751 C99.1005338,46.6964193 100.768188,46.2769295 100.844192,44.2153475 C100.876176,43.7673552 100.812204,42.9744043 100.572346,42.182942 C100.26394,41.1798344 99.3905315,40.2487478 99.3905315,40.6348185 C99.3905315,40.688147 99.3971183,40.9404428 99.3905315,41.0314076 C99.3387189,41.7469568 98.8842436,41.819345 98.6821537,41.4571499 C98.5621621,41.2420952 98.5422476,40.7822958 98.5422476,40.2615383 C98.5422476,39.3945696 98.3021069,38.5021051 97.7726823,37.7768822 C97.6350066,37.5882875 97.4739116,37.4120592 97.289085,37.2617784 C97.2221728,37.2073602 97.1313059,37.261619 97.1313059,37.3505545 C97.1313059,38.6061459 96.7989849,39.2913869 94.9685595,41.4571499 C93.1381341,43.6229129 94.535863,46.5981426 96.380134,46.7592946 Z" id="Shape-Copy-4" fill="#FFA400"></path>
                    <path d="M93.5333333,55 L91,55 L91,58 L93.5333333,58 C94.3333333,58 95,57.3333333 95,56.5333333 C95,55.7333333 94.3333333,55 93.5333333,55 Z" id="Path"></path>
                    <path d="M126.642857,113 L119.357143,113 C118.071429,113 117,111.965517 117,110.724138 L117,109.275862 C117,108.034483 118.071429,107 119.357143,107 L126.642857,107 C127.928571,107 129,108.034483 129,109.275862 L129,110.724138 C129,112.034483 127.928571,113 126.642857,113 Z" id="Path"></path>
                    <path d="M123.642857,114 L116.357143,114 C115.071429,114 114,112.863636 114,111.5 C114,110.136364 115.071429,109 116.357143,109 L123.642857,109 C124.928571,109 126,110.136364 126,111.5 C126,112.863636 125,114 123.642857,114 Z" id="Path" fill="#FFFFFF"></path>
                    <polygon id="Path" fill="#0684A4" points="66 39.4454545 62.1333333 45.4272727 66 47.1454545 69.8666667 45.4272727"></polygon>
                    <polygon id="Path" fill="#0684A4" points="66 52.4272727 69.8666667 46.5090909 66 48.9272727 62.1333333 46.5090909"></polygon>
                    <polygon id="Path" fill="#0684A4" points="132 21 125 31.8760331 132 35 139 31.8760331"></polygon>
                    <polygon id="Path" fill="#0684A4" points="132 44 139 33 132 37.4946237 125 33"></polygon>
                    <polygon id="Path" fill="#FFFFFF" points="97.0714286 103 96.4821429 108.314286 93 117.971429 96.2142857 119 98.6785714 108.942857 99 103.228571"></polygon>
                    <polygon id="Path" fill="#24B3D8" points="90 127 91.6111111 142.974729 91.0555556 157 96.6666667 157 96.9444444 155.971119 93.1111111 155.429603 95.1666667 143.028881 97 127.595668"></polygon>
                    <polygon id="Path" fill="#24B3D8" points="88.6442308 127 87.3910256 140.666062 79 151.77314 79.9807692 157 82.4871795 157 81.0160256 155.911071 80.7435897 152.53539 88.7532051 143.551724 96 127.435572"></polygon>
                    <polygon id="Path" fill="#FFDCDC" points="99 103 98.8888889 98.15625 97.8333333 98 97 102.791667"></polygon>
                    <path d="M90.4547193,110.73212 C90.1010487,112.452344 90.1010487,115.083274 92.6777915,115.488033 C95.2545343,115.892791 96.7702653,114.273757 97.1239359,112.553533 C97.4776065,110.83331 96.8713141,108.657733 94.2440469,108.303569 C92.475694,108.050595 90.7578655,109.315465 90.4547193,110.73212 Z" id="Path" fill="#FFDCDC"></path>
                    <path d="M92.3241209,115.336248 C90.5052437,114.8303 89.7979025,113.059482 90.0505244,111.288663 C90.3536706,109.113086 92.5262184,107.89881 94.2440469,108.303569 C94.3450957,108.303569 94.4461444,108.354164 94.5471931,108.404759 C94.5977175,108.657733 94.5471931,108.961301 94.4966688,109.163681 C94.1935226,110.023793 93.435657,110.73212 92.5767428,110.985094 C92.5767428,110.934499 92.0209747,114.779705 92.3241209,115.336248 Z" id="Path" fill="#9C9C9C"></path>
                    <ellipse id="Oval" fill="#F7F5EF" transform="translate(95.747693, 109.884146) rotate(-20.462832) translate(-95.747693, -109.884146) " cx="95.7476925" cy="109.884146" rx="1" ry="1.21407007"></ellipse>
                    <path d="M103.489796,105 L101.857143,105.601367 C101.193878,107.678815 100.071429,109.537585 98.6428571,111.068337 L95.5816327,114.23918 L91.8061224,116.972665 L89,128.125285 L97.7755102,129 L98.0816327,116.753986 L101.346939,112.38041 C102.673469,110.57631 103.591837,108.498861 104,106.202733 L103.489796,105 Z" id="Path" fill="#FFFFFF"></path>
                    <polygon id="Path" fill="#FFDCDC" points="101 106.25 103.233766 107 105 99.3 103.701299 99"></polygon>
                    <g id="Group-17" transform="translate(102.000000, 69.000000)"></g>
                    <g id="Group-17-Copy" transform="translate(91.000000, 35.000000)"></g>
                    <g id="Group-18" transform="translate(62.000000, 39.000000)"></g>
                    <g id="Group-18-Copy" transform="translate(125.000000, 21.000000)"></g>
                    <g id="Group-23-Copy" transform="translate(79.000000, 98.000000)">
                        <g id="Group" transform="translate(11.000000, 10.000000)"></g>
                    </g>
                </g>
            </g>
        </g>
    </g>
</svg>