<?xml version="1.0" encoding="UTF-8"?>
<svg width="219px" height="187px" viewBox="0 0 219 187" version="1.1" xmlns="http://www.w3.org/2000/svg" xmlns:xlink="http://www.w3.org/1999/xlink">
    <!-- Generator: sketchtool 52.3 (67297) - http://www.bohemiancoding.com/sketch -->
    <title>A20C2918-E4D8-456E-8B15-0D1AC9433938</title>
    <desc>Created with sketchtool.</desc>
    <defs>
        <linearGradient x1="0%" y1="100%" x2="172.994172%" y2="109.159825%" id="linearGradient-1">
            <stop stop-color="#FFFFFF" offset="0%"></stop>
            <stop stop-color="#9EE8FB" offset="99.3790643%"></stop>
        </linearGradient>
        <linearGradient x1="3.4358051%" y1="49.9270766%" x2="109.166864%" y2="49.9270766%" id="linearGradient-2">
            <stop stop-color="#FFFFFF" offset="0%"></stop>
            <stop stop-color="#05A9D3" offset="100%"></stop>
        </linearGradient>
    </defs>
    <g id="token" stroke="none" stroke-width="1" fill="none" fill-rule="evenodd">
        <g id="Tablet_Token_1024" transform="translate(-88.000000, -1115.000000)">
            <g id="Group-4" transform="translate(88.000000, 1025.000000)">
                <g id="Group-28-Copy" transform="translate(0.000000, 90.000000)">
                    <g id="Group-23" fill="url(#linearGradient-1)">
                        <path d="M47.3507049,139.556281 C69.6674669,170.280765 100.133608,179.72964 137.558066,176.350572 C174.982524,172.971504 218.174234,158.203728 218.989172,111.835412 C219.80411,65.4670954 174.418336,57.2071525 150.032885,20.0374092 C135.301315,-2.42713263 93.99023,-8.93496647 64.0882764,15.8448624 C42.084952,34.0542821 9.55012201,87.5561853 47.3507049,139.556281 Z" id="Path"></path>
                        <path d="M17.3507049,149.556281 C39.6674669,180.280765 70.1336083,189.72964 107.558066,186.350572 C144.982524,182.971504 188.174234,168.203728 188.989172,121.835412 C189.80411,75.4670954 144.418336,67.2071525 120.032885,30.0374092 C105.301315,7.57286737 63.99023,1.06503353 34.0882764,25.8448624 C12.084952,44.0542821 -20.449878,97.5561853 17.3507049,149.556281 Z" id="Path"></path>
                    </g>
                    <ellipse id="Oval" fill="url(#linearGradient-2)" style="mix-blend-mode: color-burn;" cx="129" cy="157" rx="61" ry="9"></ellipse>
                    <polygon id="Path" fill="#0684A4" points="152.066667 41.0619048 148.2 46.8809524 152.066667 48.552381 155.933333 46.8809524"></polygon>
                    <polygon id="Path" fill="#0684A4" points="152.066667 53.6904762 155.933333 47.9333333 152.066667 50.2857143 148.2 47.9333333"></polygon>
                    <polygon id="Path" fill="#0684A4" points="119.5625 72.36 117.125 76.08 119.5625 77.16 121.9375 76.08"></polygon>
                    <polygon id="Path" fill="#0684A4" points="119.5625 80.52 121.9375 76.8 119.5625 78.3 117.125 76.8"></polygon>
                    <polygon id="Path" fill="#0684A4" points="59.875 67.7333333 62.9375 65.8666667 59.875 64 59.875 65 57 65 57 66.7333333 59.875 66.7333333"></polygon>
                    <polygon id="Path" fill="#0684A4" points="55.875 70.8 58.9375 68.9333333 55.875 67 55.875 68 53 68 53 69.8 55.875 69.8"></polygon>
                    <g id="Group" transform="translate(78.000000, 116.533333)" fill="#AEE3F1">
                        <path d="M1.24324324,34.8333333 L15.1675676,0.886666667 L12.9297297,0 L0.248648649,34.4533333 C0.124324324,34.8333333 0.248648649,35.15 0.497297297,35.2766667 C0.745945946,35.34 1.11891892,35.15 1.24324324,34.8333333 Z" id="Path"></path>
                    </g>
                    <g id="Group" transform="translate(99.135135, 114.000000)" fill="#128CAB">
                        <path d="M2.17567568,37.1133333 L2.85945946,0.316666667 L0.435135135,0.316666667 L1.11891892,37.1133333 C1.11891892,37.4933333 1.36756757,37.81 1.61621622,37.81 C1.92702703,37.81 2.17567568,37.4933333 2.17567568,37.1133333 Z" id="Path"></path>
                    </g>
                    <g id="Group" transform="translate(107.837838, 116.533333)" fill="#ADE3F1" opacity="0.37">
                        <g id="Path">
                            <g>
                                <path d="M15.4783784,34.4533333 L2.7972973,0 L0.559459459,0.886666667 L0.808108108,1.52 L2.17567568,0.95 L14.7945946,35.2133333 C14.9189189,35.2766667 15.1054054,35.34 15.2297297,35.2766667 C15.5405405,35.15 15.6027027,34.77 15.4783784,34.4533333 Z"></path>
                            </g>
                        </g>
                    </g>
                    <path d="M116.69781,117.991473 C114.2341,119.982044 110.570122,121.785998 101.22066,121.972614 C88.9652839,122.221436 82.5217358,120.852918 79.0472735,114.632384 C73.2354457,104.244092 80.5002304,70.6532068 91.9975419,78.0556426 C101.599692,84.2761768 103.494853,104.119681 104.758294,106.856716 C106.084907,109.655957 122.699154,113.139456 116.69781,117.991473 Z" id="Path" fill="#E8F6F7"></path>
                    <path d="M103.360498,119.37433 C91.1188461,119.627772 84.6825135,118.233843 81.211942,111.897805 C77.2365601,104.674721 79.3820043,86.426931 84.7456148,78 C77.8044718,84.4627591 74.5863055,106.385452 79.0664978,114.495581 C82.5370693,120.831619 88.9734019,122.225548 101.215054,121.972106 C110.554047,121.782025 114.213922,119.944574 116.674873,117.917041 C117.49519,117.220077 117.936899,116.586473 118,115.95287 C115.475948,117.6636 111.68987,119.184249 103.360498,119.37433 Z" id="Path" fill="#2AB6DA"></path>
                    <path d="M118.296706,142.354335 C118.479785,143.260284 116.832079,145.71929 119.02902,147.725321 C121.225961,149.731352 126.230104,151.931514 122.873666,151.996225 C119.578255,152.060936 116.404896,151.284408 114.696165,150.378458 C113.048459,149.472509 114.330008,148.113585 112.255119,147.401767 C109.508943,146.495818 109.56997,146.301686 110.851518,143.130863 C112.743328,138.795248 117.808497,139.377644 118.296706,142.354335 Z" id="Path" fill="#FFFFFF"></path>
                    <path d="M121.937977,146.304157 C122.320655,147.02302 124.234044,148.700368 126.912788,149.838567 C129.591532,150.976767 135.204138,151.456009 132.078937,152.474399 C128.953736,153.432883 125.318297,152.83383 123.468688,152.594209 C121.619079,152.294683 119.83325,152.294683 117.664743,152.294683 C114.79466,152.294683 114.79466,152.114967 115.177338,149.059799 C115.687575,144.806526 120.662385,143.907947 121.937977,146.304157 Z" id="Path" fill="#FFFFFF"></path>
                    <path d="M115,144.287166 L116.074621,146.74587 C116.074621,146.74587 118.792781,147.317662 120.120254,146.74587 C121.447728,146.1169 120.878811,145.602287 120.878811,145.602287 L119.740976,142 L115,144.287166 Z" id="Path" fill="#FEDDDD"></path>
                    <path d="M103.260714,107.333938 C103.260714,107.333938 114.778235,109.874773 118.949446,110.954628 C123.120656,111.970962 126.358014,113.813067 124.428051,120.927405 C122.498088,128.041742 119.198473,141 119.198473,141 L111.789906,141 L115.712089,117.68784 L93.9844399,115.083485 L90,106 L103.260714,107.333938 Z" id="Path" fill="#128CAB"></path>
                    <path d="M86,108.251996 C86.4964539,111.905931 85.4414894,116.063859 91.0265957,117.70183 C96.5496454,119.339801 105.237589,119.465799 105.237589,119.465799 L113.925532,145.925335 C113.925532,145.925335 116.345745,146.303328 119.324468,145.358345 C120.565603,144.980351 121,143.405379 121,143.405379 L113.118794,116.378853 C112.498227,114.236891 110.822695,112.661918 108.712766,112.094928 L95.3705674,108 L86,108.251996 Z" id="Path" fill="#24B3D8"></path>
                    <path d="M88.5625,96.2794521 C89.125,97.6657534 89.25,99.2410959 88.875,100.690411 C88.25,103.652055 88.9375,103.841096 88.9375,103.841096 C88.9375,103.841096 92.875,106.361644 96.1875,107.432877 C98.5625,108.189041 100.5625,108.063014 100.5,105.416438 L100.5,105.353425 C100.5,105.164384 100.5,105.038356 100.5,104.912329 C100.375,98.9890411 101.625,98.7369863 101.9375,92.1205479 C102.25,85.3150685 100.4375,81.5342466 98.6875,79.8958904 C96.875,78.2575342 94.5,78.1945205 89.875,79.2657534 C86.4375,80.0849315 85.3125,81.030137 85.3125,83.5506849 C85.3125,84.4328767 85.4375,85.4410959 85.6875,86.7013699 C86.25,89.9780822 87.625,93.8849315 88.5625,96.2794521 Z" id="Path" fill="#3DCFF0"></path>
                    <g id="Group" transform="translate(88.125000, 62.000000)">
                        <path d="M11.4375,5.79726027 C11.4375,5.79726027 11.75,6.67945205 11.25,7.30958904 L9.375,4.7260274 L10.6875,4.7260274 L11.4375,5.79726027 Z" id="Path" fill="#9C9C9C"></path>
                        <path d="M1.1875,9.2 C1.25,12.539726 4.125,14.430137 4.125,14.430137 L3.9375,17.4547945 L5.875,18.7150685 L7.1875,19.5972603 L7.9375,18.0219178 L8.0625,16.0684932 C8.0625,15.6273973 8.4375,15.2493151 8.875,15.1232877 C9.375,14.9972603 10.0625,14.7452055 10.75,13.9890411 C10.8125,13.9260274 10.8125,13.8630137 10.875,13.8630137 C10.875,13.8630137 10.875,13.8630137 10.875,13.8630137 C12.125,12.1616438 12.5625,5.60821918 8.3125,3.71780822 C3.875,1.76438356 1.125,5.86027397 1.1875,9.2 Z" id="Path" fill="#FFDCDC"></path>
                        <path d="M5.8125,10.2082192 C5.625,10.2712329 5.5,10.0191781 5.5,10.0191781 C5.5,10.0191781 4.5625,7.93972603 4.25,7.62465753 C3.6875,7.05753425 2.3125,7.12054795 2.25,8.88493151 C2.1875,10.2712329 3.8125,13.2328767 4.3125,14.1150685 C4.375,14.2410959 4.375,14.430137 4.25,14.5561644 C4.1875,14.6191781 4.125,14.6191781 4.0625,14.6191781 C4,14.6191781 3.9375,14.6191781 3.875,14.5561644 C2.8125,13.6109589 -1.8125,9.1369863 1.875,4.91506849 C1.875,4.91506849 4.8125,5.10410959 5.25,6.55342466 C5.6875,8.00273973 6,9.89315068 6,9.89315068 C6,9.89315068 6,10.1452055 5.8125,10.2082192 Z" id="Path" fill="#9C9C9C"></path>
                        <path d="M11.4375,5.79726027 C11.4375,5.79726027 8.875,3.78082192 5,6.23835616 L1.8125,5.41917808 C1.8125,5.41917808 1.6875,5.35616438 1.75,4.91506849 C1.8125,4.4109589 2.1875,-0.252054795 7.75,0.756164384 C11,1.38630137 12.9375,3.59178082 11.4375,5.79726027 Z" id="Path" fill="#9C9C9C"></path>
                    </g>
                    <path d="M92.125,78.0684932 C92.125,78.0684932 91.6875,78.3205479 91.1875,79.0136986 C91.1875,79.0136986 91.8125,79.3287671 92.375,79.6438356 C92.875,79.9589041 95.3125,81.660274 95.3125,81.660274 L96,80.2109589 C96,80.2109589 93.4375,78.4465753 92.125,78.0684932 Z" id="Path" fill="#00B5DD"></path>
                    <path d="M96,80.2109589 C96,80.2109589 96.875,80.5260274 97.125,81.1561644 C97.125,81.1561644 97.5625,80.3369863 97,78.8246575 C97,78.8246575 96.5625,78.3835616 96.1875,78.1945205 L96,80.2109589 Z" id="Path" fill="#00B5DD"></path>
                    <path d="M89.25,106.739726 C89.25,106.739726 89.6875,107.306849 89.8125,107.369863 C89.9375,107.432877 89.9375,107.306849 89.9375,107.180822 C89.875,107.054795 89.3125,106.550685 89.25,106.739726 Z" id="Path" fill="#E5BB98"></path>
                    <path d="M92.125,76.6191781 C92,76.6191781 91.9375,76.6191781 91.875,76.5561644 C90.8125,75.6109589 86.1875,71.1369863 89.875,66.9150685 C89.875,66.9150685 89.6875,67.6712329 89.75,68.2383562 C89.8125,68.2383562 87.4375,72.0821918 92.125,76.6191781 Z" id="Path" fill="#9C9C9C"></path>
                    <path d="M81.8125,91.9945205 C81.8125,91.9945205 79.375,103.4 80.5,104.282192 C81.6875,105.164384 94.8125,105.290411 96,105.479452 C97.25,105.668493 102.25,106.487671 104.8125,104.219178 C105.125,103.90411 103.25,104.030137 102.8125,103.084932 C102.375,102.076712 103.0625,102.20274 102.8125,101.761644 C101.875,100.186301 96.75,102.139726 96.75,102.139726 C96.75,102.139726 88.25,100.690411 85.8125,101.383562 C87.3125,99.5561644 87.625,92.8767123 87.625,92.8767123 L81.8125,91.9945205 Z" id="Path" fill="#FFDCDC"></path>
                    <path d="M81.1875,92.5616438 C81.1875,92.5616438 82.8125,82.1013699 86,80.6520548 C89.125,79.2657534 91.375,83.739726 90.1875,88.4027397 C89.0625,93.0657534 88.75,94.7671233 88.75,94.7671233 C88.75,94.7671233 84,95.2712329 81.1875,92.5616438 Z" id="Path" fill="#3DCFF0"></path>
                    <polygon id="Path" fill="#128CAB" points="79.6875 156.874699 77.5 156.874699 79.25 105.438554 83.6875 105.438554"></polygon>
                    <polygon id="Path" fill="#128CAB" points="179.5 156.874699 181.6875 156.874699 179.9375 105.438554 175.4375 105.438554"></polygon>
                    <path d="M184.050745,108 L73.9492554,108 C72.8803089,108 72,107.176471 72,106.176471 L72,105.823529 C72,104.823529 72.8803089,104 73.9492554,104 L184.050745,104 C185.119691,104 186,104.823529 186,105.823529 L186,106.176471 C186,107.176471 185.119691,108 184.050745,108 Z" id="Path" fill="#128CAB"></path>
                    <path d="M89.0617761,104 L121,104 L121,103 L89.7413127,103 C89.3706564,103 89,103.357143 89,103.857143 L89,104 L89.0617761,104 Z" id="Path" fill="#9A9FB3"></path>
                    <path d="M99.5,103.75 L121.375,103.75 L123.5,90.375 C123.625,89.6875 123.125,89.125 122.4375,89.125 L103.0625,89.125 C102.375,89.125 101.75,89.6875 101.625,90.375 L99.5,103.75 Z" id="Path" fill="#FFFDFD"></path>
                    <path d="M103,89.125 L103.625,89.125 C102.9375,89.125 102.3125,89.6875 102.1875,90.375 L100.0625,103.75 L99.4375,103.75 L101.5625,90.375 C101.6875,89.6875 102.375,89.125 103,89.125 Z" id="Path" fill="#212226" opacity="0.2"></path>
                    <path d="M109.1875,96.4375 C109,97.75 109.875,98.8125 111.1875,98.8125 C112.5,98.8125 113.75,97.75 113.9375,96.4375 C114.125,95.125 113.25,94.0625 111.9375,94.0625 C110.625,94.0625 109.4375,95.125 109.1875,96.4375 Z" id="Path" fill="#FFA400"></path>
                    <path d="M86.5634146,52.3 L87.0642276,52.3" id="Path" stroke="#77AFFD" stroke-width="0.5" stroke-linecap="round" stroke-linejoin="round"></path>
                    <path d="M162.24878,52.3 L162.749593,52.3" id="Path" stroke="#77AFFD" stroke-width="0.5" stroke-linecap="round" stroke-linejoin="round"></path>
                    <path d="M71.1911111,100 L45.7422222,100 C45.3066667,100 44.9333333,99.6222222 44.9333333,99.1814815 L44.9333333,84.0703704 C44.9333333,83.6296296 45.3066667,83.2518519 45.7422222,83.2518519 L71.1911111,83.2518519 C71.6266667,83.2518519 72,83.6296296 72,84.0703704 L72,99.1814815 C71.9377778,99.6851852 71.6266667,100 71.1911111,100 Z" id="Path" fill="#FFFFFF"></path>
                    <g id="Group" transform="translate(46.933333, 87.251852)" fill="#128CAB">
                        <g transform="translate(0.000000, 0.148148)" id="Path">
                            <path d="M1.68,4.40740741 L1.68,9.75925926 C1.68,10.0740741 1.43111111,10.262963 1.18222222,10.262963 L0.746666667,10.262963 C0.435555556,10.262963 0.248888889,10.0111111 0.248888889,9.75925926 L0.248888889,4.40740741 C0.248888889,4.09259259 0.497777778,3.9037037 0.746666667,3.9037037 L1.18222222,3.9037037 C1.43111111,3.84074074 1.68,4.09259259 1.68,4.40740741 Z"></path>
                            <path d="M4.66666667,4.40740741 L4.66666667,9.75925926 C4.66666667,10.0740741 4.41777778,10.262963 4.16888889,10.262963 L3.73333333,10.262963 C3.42222222,10.262963 3.23555556,10.0111111 3.23555556,9.75925926 L3.23555556,4.40740741 C3.23555556,4.09259259 3.48444444,3.9037037 3.73333333,3.9037037 L4.16888889,3.9037037 C4.41777778,3.84074074 4.66666667,4.09259259 4.66666667,4.40740741 Z"></path>
                            <path d="M7.71555556,1.88888889 L7.71555556,9.75925926 C7.71555556,10.0740741 7.46666667,10.262963 7.21777778,10.262963 L6.78222222,10.262963 C6.47111111,10.262963 6.28444444,10.0111111 6.28444444,9.75925926 L6.28444444,1.88888889 C6.28444444,1.57407407 6.53333333,1.38518519 6.78222222,1.38518519 L7.21777778,1.38518519 C7.46666667,1.32222222 7.71555556,1.57407407 7.71555556,1.88888889 Z"></path>
                            <path d="M10.7022222,0.692592593 L10.7022222,9.75925926 C10.7022222,10.0740741 10.4533333,10.262963 10.2044444,10.262963 L9.76888889,10.262963 C9.45777778,10.262963 9.27111111,10.0111111 9.27111111,9.75925926 L9.27111111,0.692592593 C9.27111111,0.377777778 9.52,0.188888889 9.76888889,0.188888889 L10.2044444,0.188888889 C10.5155556,0.188888889 10.7022222,0.377777778 10.7022222,0.692592593 Z"></path>
                            <path d="M13.7511111,2.51851852 L13.7511111,9.75925926 C13.7511111,10.0740741 13.5022222,10.262963 13.2533333,10.262963 L12.8177778,10.262963 C12.5066667,10.262963 12.32,10.0111111 12.32,9.75925926 L12.32,2.51851852 C12.32,2.2037037 12.5688889,2.01481481 12.8177778,2.01481481 L13.2533333,2.01481481 C13.5022222,2.01481481 13.7511111,2.26666667 13.7511111,2.51851852 Z"></path>
                            <path d="M16.8,5.35185185 L16.8,9.6962963 C16.8,10.0111111 16.5511111,10.2 16.3022222,10.2 L15.8666667,10.2 C15.5555556,10.2 15.3688889,9.94814815 15.3688889,9.6962963 L15.3688889,5.35185185 C15.3688889,5.03703704 15.6177778,4.84814815 15.8666667,4.84814815 L16.3022222,4.84814815 C16.5511111,4.84814815 16.8,5.1 16.8,5.35185185 Z"></path>
                            <path d="M20.16,2.51851852 L20.16,9.75925926 C20.16,10.0740741 19.9111111,10.262963 19.6622222,10.262963 L19.2266667,10.262963 C18.9155556,10.262963 18.7288889,10.0111111 18.7288889,9.75925926 L18.7288889,2.51851852 C18.7288889,2.2037037 18.9777778,2.01481481 19.2266667,2.01481481 L19.6622222,2.01481481 C19.9111111,2.01481481 20.16,2.26666667 20.16,2.51851852 Z"></path>
                            <path d="M23.1466667,5.35185185 L23.1466667,9.6962963 C23.1466667,10.0111111 22.8977778,10.2 22.6488889,10.2 L22.2133333,10.2 C21.9022222,10.2 21.7155556,9.94814815 21.7155556,9.6962963 L21.7155556,5.35185185 C21.7155556,5.03703704 21.9644444,4.84814815 22.2133333,4.84814815 L22.6488889,4.84814815 C22.96,4.84814815 23.1466667,5.1 23.1466667,5.35185185 Z"></path>
                        </g>
                    </g>
                    <path d="M167.368421,91.3340426 L133.2,91.3340426 C132.884211,91.3340426 132.631579,91.087234 132.631579,90.7787234 L132.631579,65.7893617 C132.631579,64.3085106 133.894737,64 135.410526,64 L165.221053,64 C166.736842,64 168,64.3085106 168,65.7893617 L168,90.7787234 C168,91.087234 167.684211,91.3340426 167.368421,91.3340426 Z" id="Path" fill="#FFFFFF"></path>
                    <path d="M146.115789,88.7382979 L136.957895,88.7382979 C136.263158,88.7382979 135.631579,88.1829787 135.631579,87.4425532 L135.631579,84.2957447 C135.631579,83.6170213 136.2,83 136.957895,83 L146.115789,83 C146.810526,83 147.442105,83.5553191 147.442105,84.2957447 L147.442105,87.4425532 C147.442105,88.1829787 146.873684,88.7382979 146.115789,88.7382979 Z" id="Path" fill="#B8ECF9"></path>
                    <g id="Group" transform="translate(136.000000, 70.000000)" fill="#128CAB">
                        <path d="M11.2487535,1.17234043 L0.59833795,1.17234043 C0.398891967,1.17234043 0.279224377,0.925531915 0.279224377,0.678723404 C0.279224377,0.370212766 0.438781163,0.185106383 0.59833795,0.185106383 L11.2487535,0.185106383 C11.4481994,0.185106383 11.567867,0.431914894 11.567867,0.678723404 C11.567867,0.925531915 11.4481994,1.17234043 11.2487535,1.17234043 Z" id="Path"></path>
                        <path d="M11.2487535,5.98723404 L0.59833795,5.98723404 C0.398891967,5.98723404 0.279224377,5.74042553 0.279224377,5.49361702 C0.279224377,5.18510638 0.438781163,5 0.59833795,5 L11.2487535,5 C11.4481994,5 11.567867,5.24680851 11.567867,5.49361702 C11.567867,5.80212766 11.4481994,5.98723404 11.2487535,5.98723404 Z" id="Path"></path>
                        <path d="M11.2487535,9.98723404 L0.59833795,9.98723404 C0.398891967,9.98723404 0.279224377,9.74042553 0.279224377,9.49361702 C0.279224377,9.18510638 0.438781163,9 0.59833795,9 L11.2487535,9 C11.4481994,9 11.567867,9.24680851 11.567867,9.49361702 C11.567867,9.74042553 11.4481994,9.98723404 11.2487535,9.98723404 Z" id="Path"></path>
                    </g>
                    <g id="Group" transform="translate(155.631579, 87.000000)" fill="url(#linearGradient-2)">
                        <polygon id="Path" points="0.757894737 0.308510638 1.01052632 0.740425532 1.45263158 0.80212766 1.13684211 1.1106383 1.2 1.60425532 0.757894737 1.35744681 0.378947368 1.60425532 0.442105263 1.1106383 0.0631578947 0.80212766 0.568421053 0.740425532"></polygon>
                        <polygon id="Path" points="2.84210526 0.308510638 3.03157895 0.740425532 3.53684211 0.80212766 3.22105263 1.1106383 3.28421053 1.60425532 2.84210526 1.35744681 2.46315789 1.60425532 2.52631579 1.1106383 2.14736842 0.80212766 2.65263158 0.740425532"></polygon>
                        <polygon id="Path" points="4.92631579 0.308510638 5.11578947 0.740425532 5.62105263 0.80212766 5.24210526 1.1106383 5.36842105 1.60425532 4.92631579 1.35744681 4.48421053 1.60425532 4.61052632 1.1106383 4.23157895 0.80212766 4.73684211 0.740425532"></polygon>
                        <polygon id="Path" points="7.01052632 0.308510638 7.2 0.740425532 7.70526316 0.80212766 7.32631579 1.1106383 7.45263158 1.60425532 7.01052632 1.35744681 6.56842105 1.60425532 6.69473684 1.1106383 6.31578947 0.80212766 6.82105263 0.740425532"></polygon>
                        <polygon id="Path" points="9.09473684 0.308510638 9.28421053 0.740425532 9.78947368 0.80212766 9.41052632 1.1106383 9.53684211 1.60425532 9.09473684 1.35744681 8.65263158 1.60425532 8.77894737 1.1106383 8.4 0.80212766 8.90526316 0.740425532"></polygon>
                    </g>
                    <path d="M165.915789,63 L134.652632,63 C133.515789,63 132.631579,63.8638298 132.631579,64.9744681 L132.631579,65.9 L167.936842,65.9 L167.936842,64.9744681 C168,63.9255319 167.052632,63 165.915789,63 Z" id="Path" fill="#128CAB"></path>
                    <g id="Group" transform="translate(162.631579, 64.000000)" fill="#FFFFFF">
                        <ellipse id="Oval" cx="0.442105263" cy="0.370212766" rx="1" ry="1"></ellipse>
                        <ellipse id="Oval" cx="2.08421053" cy="0.370212766" rx="1" ry="1"></ellipse>
                        <ellipse id="Oval" cx="3.72631579" cy="0.370212766" rx="1" ry="1"></ellipse>
                    </g>
                    <path d="M165.810526,80.5382979 L155.136842,80.5382979 C154.821053,80.5382979 154.631579,80.2914894 154.631579,80.0446809 L154.631579,69.493617 C154.631579,69.1851064 154.884211,69 155.136842,69 L165.810526,69 C166.126316,69 166.315789,69.2468085 166.315789,69.493617 L166.315789,80.0446809 C166.315789,80.3531915 166.063158,80.5382979 165.810526,80.5382979 Z" id="Path" fill="#B8ECF9"></path>
                    <circle id="Oval" fill="#FFFFFF" cx="118.880468" cy="54.4213889" r="13.7511111"></circle>
                    <g id="Group" transform="translate(67.000000, 39.000000)" fill="#FFFFFF">
                        <ellipse id="Oval" cx="11.2444444" cy="11.125" rx="11.1805556" ry="10.9375"></ellipse>
                        <polygon id="Path" points="13.225 20.0625 17.825 24.875 17.1861111 17.9375"></polygon>
                    </g>
                    <path d="M84.6972222,51.25 C84.7611111,50.875 84.825,50.5 84.825,50.125 C84.825,49.75 84.7611111,49.375 84.6972222,49 L83.1,49 C82.9722222,48.5 82.7805556,48 82.525,47.5625 L83.675,46.4375 C83.2277778,45.8125 82.6527778,45.25 82.0138889,44.8125 L80.8638889,45.9375 C80.4166667,45.6875 79.9694444,45.5 79.3944444,45.375 L79.3944444,43.8125 C79.0111111,43.75 78.6277778,43.6875 78.2444444,43.6875 C77.8611111,43.6875 77.4777778,43.75 77.0944444,43.8125 L77.0944444,45.375 C76.5833333,45.5 76.0722222,45.6875 75.625,45.9375 L74.475,44.8125 C73.8361111,45.25 73.2611111,45.8125 72.8138889,46.4375 L73.9638889,47.5625 C73.7083333,48 73.5166667,48.4375 73.3888889,49 L71.7916667,49 C71.7277778,49.375 71.6638889,49.75 71.6638889,50.125 C71.6638889,50.5 71.7277778,50.875 71.7916667,51.25 L73.3888889,51.25 C73.5166667,51.75 73.7083333,52.25 73.9638889,52.6875 L72.8138889,53.8125 C73.2611111,54.4375 73.8361111,55 74.475,55.4375 L75.625,54.3125 C76.0722222,54.5625 76.5194444,54.75 77.0944444,54.875 L77.0944444,56.4375 C77.4777778,56.5 77.8611111,56.5625 78.2444444,56.5625 C78.6277778,56.5625 79.0111111,56.5 79.3944444,56.4375 L79.3944444,54.875 C79.9055556,54.75 80.4166667,54.5625 80.8638889,54.3125 L82.0138889,55.4375 C82.6527778,55 83.2277778,54.4375 83.675,53.8125 L82.525,52.6875 C82.7805556,52.25 82.9722222,51.8125 83.1,51.25 L84.6972222,51.25 Z M78.2444444,51.625 C77.4138889,51.625 76.7111111,50.9375 76.7111111,50.125 C76.7111111,49.3125 77.4138889,48.625 78.2444444,48.625 C79.075,48.625 79.7777778,49.3125 79.7777778,50.125 C79.7777778,50.9375 79.075,51.625 78.2444444,51.625 Z" id="Shape" fill="#128CAB"></path>
                    <path d="M116.505329,62.9689959 C116.68861,62.9840864 117.771757,62.8641621 117.6668,62.702949 C117.097109,61.8278529 116.369077,60.6197708 116.889956,58.0448512 C117.237209,56.3282382 118.004209,54.4999963 119.190958,52.5601257 C118.495333,54.5016122 118.636927,56.0713965 119.615738,57.2694788 C121.083956,59.0666022 121.237226,60.4145353 120.420521,62.6761462 C120.352478,62.86457 121.411193,63.0267621 121.581504,62.9407497 C121.751815,62.8547373 124.968005,62.092429 125.114585,58.3460667 C125.176268,57.5319632 125.052894,56.0909914 124.59031,54.6527249 C123.995527,52.8298508 122.311096,51.1378552 122.311096,51.8394332 C122.311096,51.9363433 122.323799,52.394822 122.311096,52.5601257 C122.211172,53.8604408 121.334684,53.9919866 120.944939,53.333796 C120.713526,52.9429928 120.67512,52.107433 120.67512,51.1610985 C120.67512,49.5856197 120.211992,47.9638091 119.190958,46.6459146 C118.925441,46.3031953 118.614758,45.9829484 118.258306,45.7098541 C118.129261,45.6109639 117.954018,45.7095644 117.954018,45.8711804 C117.954018,48.1528749 117.313113,49.3981132 113.783007,53.333796 C110.252901,57.2694788 112.948521,62.6761462 116.505329,62.9689959 Z" id="Shape-Copy" fill="#FFA400"></path>
                </g>
            </g>
        </g>
    </g>
</svg>