<?xml version="1.0" encoding="UTF-8"?>
<svg width="219px" height="187px" viewBox="0 0 219 187" version="1.1" xmlns="http://www.w3.org/2000/svg" xmlns:xlink="http://www.w3.org/1999/xlink">
    <!-- Generator: sketchtool 52.3 (67297) - http://www.bohemiancoding.com/sketch -->
    <title>58A2E563-BDF2-474E-8315-4B2CD37E05B8</title>
    <desc>Created with sketchtool.</desc>
    <defs>
        <linearGradient x1="0%" y1="100%" x2="172.994172%" y2="109.159825%" id="linearGradient-1">
            <stop stop-color="#FFFFFF" offset="0%"></stop>
            <stop stop-color="#9EE8FB" offset="99.3790643%"></stop>
        </linearGradient>
        <linearGradient x1="-654.41611%" y1="-707.338596%" x2="172.994172%" y2="109.159825%" id="linearGradient-2">
            <stop stop-color="#FFFFFF" offset="0%"></stop>
            <stop stop-color="#05A9D3" offset="100%"></stop>
        </linearGradient>
        <linearGradient x1="0%" y1="100%" x2="172.994172%" y2="109.159825%" id="linearGradient-3">
            <stop stop-color="#FFFFFF" offset="0%"></stop>
            <stop stop-color="#05A9D3" offset="100%"></stop>
        </linearGradient>
        <linearGradient x1="3.4358051%" y1="49.9270766%" x2="109.166864%" y2="49.9270766%" id="linearGradient-4">
            <stop stop-color="#FFFFFF" offset="0%"></stop>
            <stop stop-color="#05A9D3" offset="100%"></stop>
        </linearGradient>
    </defs>
    <g id="token" stroke="none" stroke-width="1" fill="none" fill-rule="evenodd">
        <g id="Tablet_Token_1024" transform="translate(-579.000000, -1561.000000)">
            <g id="Group-4" transform="translate(88.000000, 1025.000000)">
                <g id="Group-46-Copy" transform="translate(491.000000, 536.000000)">
                    <g id="Group-23" fill="url(#linearGradient-1)">
                        <path d="M47.3507049,139.556281 C69.6674669,170.280765 100.133608,179.72964 137.558066,176.350572 C174.982524,172.971504 218.174234,158.203728 218.989172,111.835412 C219.80411,65.4670954 174.418336,57.2071525 150.032885,20.0374092 C135.301315,-2.42713263 93.99023,-8.93496647 64.0882764,15.8448624 C42.084952,34.0542821 9.55012201,87.5561853 47.3507049,139.556281 Z" id="Path"></path>
                        <path d="M17.3507049,149.556281 C39.6674669,180.280765 70.1336083,189.72964 107.558066,186.350572 C144.982524,182.971504 188.174234,168.203728 188.989172,121.835412 C189.80411,75.4670954 144.418336,67.2071525 120.032885,30.0374092 C105.301315,7.57286737 63.99023,1.06503353 34.0882764,25.8448624 C12.084952,44.0542821 -20.449878,97.5561853 17.3507049,149.556281 Z" id="Path"></path>
                    </g>
                    <circle id="Oval" fill="#8E574A" cx="59" cy="51" r="1"></circle>
                    <path d="M65.749354,44 L55.250646,44 C53.4496124,44 52,45.4496124 52,47.250646 L52,57.749354 C52,59.5503876 53.4496124,61 55.250646,61 L65.749354,61 C67.5503876,61 69,59.5503876 69,57.749354 L69,47.250646 C69,45.4496124 67.5503876,44 65.749354,44 Z" id="Path" fill="#FFFFFF"></path>
                    <path d="M65,50.3040541 C65,52.6756757 60.5,59 60.5,59 C60.5,59 56,52.6756757 56,50.3040541 C56,47.9324324 58.0204082,46 60.5,46 C62.9795918,46 65,47.9324324 65,50.3040541 Z" id="Path" fill="#24B3D8"></path>
                    <circle id="Oval" fill="#F7F5EF" cx="60" cy="50" r="2"></circle>
                    <path d="M120.175889,27 L82.8241107,27 C80.7341897,27 79,28.6908257 79,30.8266055 L79,120.173394 C79,122.264679 80.6897233,124 82.8241107,124 L120.175889,124 C122.26581,124 124,122.309174 124,120.173394 L124,30.8266055 C124,28.6908257 122.310277,27 120.175889,27 Z" id="Path" fill="#FFFFFF"></path>
                    <path d="M120.175889,23 L82.8241107,23 C80.7341897,23 79,24.7572254 79,26.9768786 L79,31 L124,31 L124,26.9768786 C124,24.7572254 122.310277,23 120.175889,23 Z" id="Path" fill="#24B3D8"></path>
                    <path d="M79,116 L79,121.05102 C79,123.209184 80.6897233,125 82.8241107,125 L120.175889,125 C122.26581,125 124,123.255102 124,121.05102 L124,116 L79,116 Z" id="Path" fill="#24B3D8"></path>
                    <path d="M116.749354,37 L106.250646,37 C104.449612,37 103,38.4496124 103,40.250646 L103,50.749354 C103,52.5503876 104.449612,54 106.250646,54 L116.749354,54 C118.550388,54 120,52.5503876 120,50.749354 L120,40.250646 C120,38.4496124 118.550388,37 116.749354,37 Z" id="Path" fill="url(#linearGradient-2)"></path>
                    <path d="M116.749354,90 L106.250646,90 C104.449612,90 103,91.4496124 103,93.250646 L103,103.749354 C103,105.550388 104.449612,107 106.250646,107 L116.749354,107 C118.550388,107 120,105.550388 120,103.749354 L120,93.250646 C120,91.4496124 118.550388,90 116.749354,90 Z" id="Path" fill="url(#linearGradient-2)"></path>
                    <path d="M95.749354,90 L85.250646,90 C83.4496124,90 82,91.4496124 82,93.250646 L82,103.749354 C82,105.550388 83.4496124,107 85.250646,107 L95.749354,107 C97.5503876,107 99,105.550388 99,103.749354 L99,93.250646 C99,91.4496124 97.5503876,90 95.749354,90 Z" id="Path" fill="url(#linearGradient-2)"></path>
                    <path d="M78,125 L127,125" id="Path"></path>
                    <polygon id="Rectangle" fill="#24B3D8" transform="translate(137.636960, 108.757084) rotate(-9.438775) translate(-137.636960, -108.757084) " points="137.351032 90.8985688 137.800782 90.9000763 137.922888 126.615598 137.473138 126.614091"></polygon>
                    <polygon id="Rectangle" fill="#24B3D8" transform="translate(126.655493, 108.761050) rotate(-9.438775) translate(-126.655493, -108.761050) " points="126.369565 90.9025348 126.819315 90.9040423 126.941421 126.619564 126.491672 126.618057"></polygon>
                    <rect id="Rectangle" fill="#24B3D8" x="124.933477" y="98.4031639" width="11.0695733" height="1"></rect>
                    <rect id="Rectangle" fill="#24B3D8" x="125.698448" y="103.118274" width="11.0695733" height="1"></rect>
                    <rect id="Rectangle" fill="#24B3D8" x="126.508417" y="107.789318" width="11.0695733" height="1"></rect>
                    <rect id="Rectangle" fill="#24B3D8" x="127.273387" y="112.504429" width="11.0695733" height="1"></rect>
                    <rect id="Rectangle" fill="#24B3D8" x="128.083356" y="117.219539" width="11.0695733" height="1"></rect>
                    <rect id="Rectangle" fill="#24B3D8" x="128.848326" y="121.890583" width="11.0695733" height="1"></rect>
                    <polygon id="Rectangle" fill="#24B3D8" transform="translate(120.613429, 108.757207) rotate(-80.554633) translate(-120.613429, -108.757207) " points="102.756369 108.471446 138.468982 108.593624 138.470489 109.042968 102.757876 108.92079"></polygon>
                    <polygon id="Rectangle" fill="#24B3D8" transform="translate(131.579524, 108.740259) rotate(-80.554633) translate(-131.579524, -108.740259) " points="113.722464 108.454498 149.435077 108.576676 149.436585 109.02602 113.723972 108.903842"></polygon>
                    <rect id="Rectangle" fill="#24B3D8" x="122.214211" y="98.4031639" width="11.0695733" height="1"></rect>
                    <rect id="Rectangle" fill="#24B3D8" x="121.44924" y="103.118274" width="11.0695733" height="1"></rect>
                    <rect id="Rectangle" fill="#24B3D8" x="120.639272" y="107.789318" width="11.0695733" height="1"></rect>
                    <rect id="Rectangle" fill="#24B3D8" x="119.874301" y="112.504429" width="11.0695733" height="1"></rect>
                    <rect id="Rectangle" fill="#24B3D8" x="119.064332" y="117.219539" width="11.0695733" height="1"></rect>
                    <rect id="Rectangle" fill="#24B3D8" x="118.299362" y="121.890583" width="11.0695733" height="1"></rect>
                    <rect id="Rectangle" fill="#24B3D8" x="123" y="91" width="13" height="1"></rect>
                    <polygon id="Path" fill="#FFFFFF" points="148 84 146.676471 70.5564388 145 56.1780604 146.323529 56 149.279412 69.6216216 153.911765 69.9777424 158.720588 56.1780604 160 56.3561208 156.514706 71.09062 156.691176 83.6438792"></polygon>
                    <path d="M149.1062,65.9511731 C148.740229,67.3458759 149.334932,69.558163 150.661575,69.9429086 C151.988219,70.3276542 153.543594,68.6924855 153.909565,67.2977827 C154.275536,65.9030799 153.497848,64.4602839 152.171204,64.0755383 C150.844561,63.7388859 149.472171,64.5564703 149.1062,65.9511731 Z" id="Path" fill="#FFDCDC"></path>
                    <path d="M150.837434,64.9767904 C150.55829,64.8938376 150.186097,64.7279321 150.046524,64.5205502 C150.046524,64.4790738 150.046524,64.4790738 150,64.4375974 C150.604814,64.0643099 151.395724,63.8984044 152.14011,64.0643099 C153.48931,64.396121 154.280221,65.6404126 153.908027,66.8432279 C153.628883,67.714232 152.744924,68.6681889 151.767917,69 C151.767917,68.7511417 151.860965,68.5022834 151.90749,68.2949014 C152.186634,67.3409445 152.512303,66.3869876 152.837972,65.4745071 C152.14011,65.3500779 151.488772,65.1841724 150.837434,64.9767904 Z" id="Path" fill="#9C9C9C"></path>
                    <path d="M153.34351,67.1012139 C153.474808,67.0013488 153.63893,66.9680604 153.803053,67.0346372 C153.835877,67.0346372 153.868702,67.0679255 153.901526,67.1012139 C153.967175,67.1677907 154,67.2676558 154,67.3675209 C153.967175,67.6338279 153.737404,67.8668465 153.474808,67.9667116 C153.409159,68 153.310685,68 153.245036,68 C153.179387,68 153.080914,67.9334233 153.048089,67.9001349 C152.883967,67.6338279 153.179387,67.2343674 153.34351,67.1012139 Z" id="Path" fill="#FFDCDC"></path>
                    <polygon id="Path" fill="#24B3D8" points="157 84.1548757 155.714286 104.516252 154.295567 104.516252 153.054187 84.2868069 151.812808 84.374761 151.014778 105 149.906404 105 148.26601 84.5066922 148 82 156.955665 82.0879541"></polygon>
                    <polygon id="Path" fill="#24B3D8" points="155.698113 105 159 105.421053 158.90566 106 154 106 154.188679 105"></polygon>
                    <polygon id="Path" fill="#24B3D8" points="151 105 151 105.764706 147 106 147 105.294118 149.969072 105"></polygon>
                    <path d="M151.977536,67.8888889 C151.194136,67.9876543 150.584826,67.0987654 149.844949,67 C149.801427,67 149.757905,67 149.714382,67 C149.67086,67.0493827 149.627338,67.0987654 149.583816,67.1481481 C149.496771,67.345679 149.409727,67.5925926 149.279161,67.7901235 C149.192116,67.9876543 149.06155,68.2345679 149.018027,68.4814815 C148.974505,68.7777778 149.018027,69.0740741 149.06155,69.3703704 C149.105072,69.617284 149.148594,69.8148148 149.235638,70.0617284 C149.409727,70.4567901 149.714382,70.7037037 150.06256,70.8518519 C150.410737,71 150.802437,71 151.150614,71 C151.411747,70.9506173 151.67288,70.9012346 151.890491,70.8024691 C152.369235,70.5061728 152.67389,69.8641975 152.586846,69.2222222 C152.586846,69.0740741 152.543324,68.9259259 152.543324,68.7777778 C152.543324,68.6296296 152.630368,68.4814815 152.67389,68.3333333 C152.760935,68.1851852 153.239679,67.4444444 152.847979,67.4444444 C152.717413,67.4444444 152.543324,67.691358 152.45628,67.7407407 C152.325713,67.7901235 152.151624,67.8395062 151.977536,67.8888889 Z" id="Path" fill="#9C9C9C"></path>
                    <path d="M178.148438,42 L134.851562,42 C132.726562,42 131,43.70625 131,45.80625 L131,52.19375 C131,54.29375 132.726562,56 134.851562,56 L178.148438,56 C180.273438,56 182,54.29375 182,52.19375 L182,45.80625 C182,43.70625 180.273438,42 178.148438,42 Z" id="Path" fill="#24B3D8"></path>
                    <path d="M177.148438,42 L133.851562,42 C131.726562,42 130,43.70625 130,45.80625 L130,52.19375 C130,54.29375 131.726562,56 133.851562,56 L177.148438,56 C179.273438,56 181,54.29375 181,52.19375 L181,45.80625 C181,43.70625 179.273438,42 177.148438,42 Z" id="Path" fill="#FFFFFF"></path>
                    <path d="M177.863955,53.1818182 L175.647967,50.9545455 C176.213751,50.3181818 176.543792,49.5 176.543792,48.6363636 C176.543792,46.6363636 174.846439,45 172.771896,45 C170.697353,45 169,46.6363636 169,48.6363636 C169,50.6363636 170.697353,52.2727273 172.771896,52.2727273 C173.526275,52.2727273 174.280654,52.0454545 174.940736,51.6363636 L177.156725,53.8636364 C177.251022,53.9545455 177.392468,54 177.486766,54 C177.628212,54 177.722509,53.9545455 177.816807,53.8636364 C178.05255,53.6363636 178.05255,53.3636364 177.863955,53.1818182 Z M172.771896,45.9545455 C174.280654,45.9545455 175.553669,47.1363636 175.553669,48.6363636 C175.553669,50.0909091 174.327803,51.3181818 172.771896,51.3181818 C171.263138,51.3181818 169.990123,50.1363636 169.990123,48.6363636 C170.037271,47.1363636 171.263138,45.9545455 172.771896,45.9545455 Z" id="Shape" fill="#24B3D8" fill-rule="nonzero"></path>
                    <polygon id="Path" fill="#A2ECFF" points="111.14597 59.3185123 114.444914 60.5964394 124.118845 61.5218349 120.864481 63.7692239 114.088272 62.1387652 110.655587 60.5964394"></polygon>
                    <ellipse id="Oval" fill="#FFDCDC" transform="translate(120.284228, 58.830327) rotate(-20.934261) translate(-120.284228, -58.830327) " cx="120.284228" cy="58.8303265" rx="2.71544491" ry="2.69210198"></ellipse>
                    <polygon id="Path" fill="#24B3D8" points="132.901169 68.9249988 131.786661 80.0738111 132.187884 89.8565635 128.353976 89.8565635 128.131074 89.1074338 130.761313 88.7549022 129.379323 80.1178776 128.086494 69.3215969"></polygon>
                    <path d="M109.585659,60.46424 C111.012229,61.0371039 115.737744,62.2709646 117.253475,62.1387652 L120.418678,61.8743665 L123.717622,61.0371039 L130.939634,64.5183536 L127.105727,69.8063278 L120.507838,64.3861543 L116.62935,64.2098885 C115.024458,64.1217555 110.477265,62.4472304 109.095275,61.6099678 L109.585659,60.46424 Z" id="Path" fill="#A2ECFF"></path>
                    <path d="M123.227238,57.2033226 C122.647694,55.9253955 120.418678,55.6169303 119.125848,56.2338607 C119.036688,56.2779271 118.992107,56.3219936 118.902947,56.36606 C118.902947,56.5863923 118.992107,56.7626581 119.081268,56.9389239 C119.437911,57.5558542 120.151196,57.9524523 120.864481,57.9965187 C120.864481,57.9965187 120.909061,58.1287181 120.998222,58.3490503 C121.087383,58.2609174 121.176543,58.1727845 121.265704,58.1287181 C121.444025,58.0405852 121.666927,58.0405852 121.889829,58.1287181 C122.558533,58.3049839 122.513953,59.2303794 122.06815,59.582911 C121.934409,59.7151104 121.756088,59.8032433 121.577766,59.8473097 C121.577766,59.8473097 121.533186,59.8473097 121.488606,59.8473097 C121.444025,60.7286388 121.488606,60.8167717 121.666927,61.0811704 C122.781435,60.3320407 123.940523,58.8337813 123.227238,57.2033226 Z" id="Path" fill="#9C9C9C"></path>
                    <polygon id="Path" fill="#24B3D8" points="144.714955 67.4708059 138.250808 70.2469924 130.805893 64.5624201 126.971986 69.7622614 138.250808 73.1994446 144.893276 68.748733 146.319847 70.3351253 146.81023 69.8503943"></polygon>
                    <ellipse id="Oval" fill="#A2ECFF" transform="translate(109.095275, 60.422871) rotate(-20.934261) translate(-109.095275, -60.422871) " cx="109.095275" cy="60.4228706" rx="1.24643373" ry="1.23571894"></ellipse>
                    <rect id="Rectangle" fill="#FFFFFF" transform="translate(54.500000, 117.000000) rotate(-180.000000) translate(-54.500000, -117.000000) " x="49" y="113" width="11" height="8"></rect>
                    <rect id="Rectangle" fill="#24B3D8" transform="translate(54.500000, 121.000000) rotate(-180.000000) translate(-54.500000, -121.000000) " x="45" y="119" width="19" height="4"></rect>
                    <path d="M37,123 L71,123" id="Path" stroke="#24B3D8" stroke-width="2" stroke-linecap="round"></path>
                    <polygon id="Path" fill="#FFFFFF" points="178.027027 138 177.531532 130.909091 178.297297 125.636364 181 110.181818 179.693694 110 176.720721 123.636364 172.081081 124 167.306306 110.181818 166 110.363636 169.513514 125.136364 170.72973 130.772727 170.594595 137.636364"></polygon>
                    <polygon id="Path" fill="#9C9C9C" points="172.40404 119 172 122.789474 174.464646 123 176 119"></polygon>
                    <circle id="Oval" fill="#FFDCDC" cx="174" cy="120" r="3"></circle>
                    <path d="M179.749354,93 L169.250646,93 C167.449612,93 166,94.4496124 166,96.250646 L166,106.749354 C166,108.550388 167.449612,110 169.250646,110 L179.749354,110 C181.550388,110 183,108.550388 183,106.749354 L183,96.250646 C183,94.4496124 181.550388,93 179.749354,93 Z" id="Path" fill="#FFFFFF"></path>
                    <path d="M175.831228,120.473661 C175.881665,120.515076 175.982538,120.515076 176.032975,120.515076 C176.083411,120.515076 176.133848,120.432245 176.184284,120.39083 C176.335594,120.225168 176.68865,120.225168 176.890396,120.39083 C177.092142,120.556491 177.092142,120.804984 176.991269,121.012061 C176.839959,121.219138 176.587777,121.301969 176.335594,121.343384 C176.184284,121.840369 176.083411,122.378769 176.133848,122.917169 C176.53734,122.958585 176.991269,122.958585 177.394761,123 C177.495634,123 177.546071,123 177.646944,122.958585 C177.697381,122.917169 177.747817,122.834338 177.747817,122.792923 C177.899127,122.171692 178,121.591876 178,120.970645 C178,120.39083 177.899127,119.769599 177.546071,119.231199 C177.092142,118.609968 175.22599,117.615998 174.318132,118.154398 C173.258964,118.734214 175.125117,120.183753 175.831228,120.473661 Z" id="Path" fill="#9C9C9C"></path>
                    <path d="M172.904712,119.009468 C172.417502,119.530801 171.735407,119.947867 171.004592,120 C170.955871,119.165868 171.296918,118.279602 171.930291,117.75827 C172.271338,117.44547 173.391922,116.767738 173.879132,117.080537 C174.366343,117.393337 173.245759,118.644535 172.904712,119.009468 Z" id="Path" fill="#9C9C9C"></path>
                    <polygon id="Path" fill="#24B3D8" points="178.482385 132.308475 171.674797 132 166.428184 155.840678 164 154.342373 166.948509 158 173.929539 138.345763 173.842818 147.247458 178.569106 153.637288 178.872629 155.928814 179.00271 156.898305 179.826558 156.810169 180 153.284746 176.314363 147.247458 178.915989 137.2"></polygon>
                    <polygon id="Path" fill="#F7F5EF" points="176 124 174.681818 126 174 124.115385"></polygon>
                    <ellipse id="Oval" fill="#24B3D8" cx="174.305624" cy="98.7827148" rx="2.17412672" ry="2.36530761"></ellipse>
                    <path d="M178.525987,105.925016 C178.483357,103.466951 176.65027,101.519051 174.390883,101.519051 C172.131497,101.519051 170.29841,103.51333 170.25578,105.925016 L178.525987,105.925016 Z" id="Path" fill="#24B3D8"></path>
                    <path d="M111,127 L145,127" id="Path" stroke="#24B3D8" stroke-width="2" stroke-linecap="round"></path>
                    <path d="M74.749354,71 L64.250646,71 C62.4496124,71 61,72.4496124 61,74.250646 L61,84.749354 C61,86.5503876 62.4496124,88 64.250646,88 L74.749354,88 C76.5503876,88 78,86.5503876 78,84.749354 L78,74.250646 C78,72.4496124 76.5503876,71 74.749354,71 Z" id="Path" fill="url(#linearGradient-2)"></path>
                    <polygon id="Path" fill="#FFFFFF" points="64.9821958 117 63.6468843 103.56 62 89.1792 63.2908012 89 66.272997 102.6192 70.9020772 103.0224 75.7091988 89.1792 77 89.3584 73.4836795 104.1424 73.6617211 116.6416"></polygon>
                    <circle id="Oval" fill="#9C9C9C" cx="68" cy="99" r="3"></circle>
                    <polygon id="Path" fill="#24B3D8" points="73 116.167308 71.7462687 136.513462 70.3134328 136.513462 69.1044776 116.3 67.8059701 116.388462 67.0447761 137 65.9253731 136.955769 64.2686567 116.521154 64 114 73 114.132692"></polygon>
                    <polygon id="Path" fill="#24B3D8" points="71.6666667 136 75 136.444444 74.8571429 137 70 137 70.1428571 136"></polygon>
                    <polygon id="Path" fill="#24B3D8" points="67 137.055556 67 137.777778 63 138 63 137.333333 65.9583333 137"></polygon>
                    <path d="M109,143 C109,143.043478 109,143.086957 109,143.086957 C109,143.086957 109,143.086957 109,143.130435 C109,143.173913 109,143.173913 108.954639,143.217391 C108.954639,143.217391 108.954639,143.217391 108.954639,143.217391 C108.954639,143.26087 108.909278,143.26087 108.863918,143.304348 C108.863918,143.304348 108.863918,143.304348 108.863918,143.304348 C108.818557,143.347826 108.818557,143.347826 108.773196,143.391304 C108.773196,143.391304 108.773196,143.391304 108.773196,143.391304 C108.727835,143.434783 108.682474,143.434783 108.637113,143.478261 C108.637113,143.478261 108.591753,143.478261 108.591753,143.521739 C108.546392,143.565217 108.501031,143.565217 108.45567,143.608696 C108.45567,143.608696 108.410309,143.608696 108.410309,143.652174 C108.364948,143.652174 108.319588,143.695652 108.274227,143.695652 C108.274227,143.695652 108.228866,143.695652 108.228866,143.73913 C108.138144,143.782609 108.092784,143.782609 108.002062,143.826087 L100.245361,146.391304 C100.154639,146.434783 100.109278,146.434783 100.018557,146.434783 C99.8824742,146.478261 99.7917526,146.478261 99.6556701,146.521739 C99.5195876,146.565217 99.3381443,146.565217 99.2020619,146.608696 C99.1113402,146.608696 99.0206186,146.652174 98.9298969,146.652174 C98.7938144,146.652174 98.7030928,146.695652 98.5670103,146.695652 C98.5216495,146.695652 98.5216495,146.695652 98.4762887,146.695652 C98.2948454,146.695652 98.0680412,146.695652 97.8865979,146.695652 C97.8865979,146.695652 97.8865979,146.695652 97.8865979,146.695652 C97.6597938,146.695652 97.4783505,146.695652 97.2515464,146.695652 C97.2515464,146.695652 97.2515464,146.695652 97.2515464,146.695652 C97.0247423,146.695652 96.843299,146.652174 96.6618557,146.652174 C96.6618557,146.652174 96.6618557,146.652174 96.6618557,146.652174 C96.4804124,146.608696 96.2989691,146.608696 96.1175258,146.565217 C96.1175258,146.565217 96.1175258,146.565217 96.1175258,146.565217 C95.9360825,146.521739 95.7546392,146.478261 95.6185567,146.434783 L87.9979381,143.913043 C87.9525773,143.913043 87.9072165,143.869565 87.8618557,143.869565 C87.8164948,143.869565 87.771134,143.826087 87.771134,143.826087 C87.7257732,143.826087 87.7257732,143.782609 87.6804124,143.782609 C87.6350515,143.782609 87.6350515,143.73913 87.5896907,143.73913 C87.5443299,143.73913 87.5443299,143.695652 87.4989691,143.695652 C87.4536082,143.695652 87.4536082,143.652174 87.4082474,143.652174 C87.3628866,143.652174 87.3628866,143.608696 87.3628866,143.608696 C87.3175258,143.608696 87.3175258,143.565217 87.2721649,143.565217 C87.2721649,143.565217 87.2268041,143.521739 87.2268041,143.521739 C87.2268041,143.521739 87.1814433,143.478261 87.1814433,143.478261 C87.1814433,143.478261 87.1360825,143.434783 87.1360825,143.434783 C87.1360825,143.434783 87.1360825,143.391304 87.0907216,143.391304 C87.0907216,143.391304 87.0907216,143.347826 87.0453608,143.347826 C87,143.304348 87,143.26087 87,143.173913 L87.0453608,146.434783 C87.0453608,146.478261 87.0453608,146.521739 87.0907216,146.608696 C87.0907216,146.608696 87.0907216,146.652174 87.1360825,146.652174 C87.1360825,146.652174 87.1360825,146.695652 87.1814433,146.695652 C87.1814433,146.695652 87.2268041,146.73913 87.2268041,146.73913 C87.2268041,146.73913 87.2721649,146.782609 87.2721649,146.782609 C87.2721649,146.782609 87.3175258,146.826087 87.3175258,146.826087 C87.3175258,146.826087 87.3628866,146.869565 87.3628866,146.869565 C87.4082474,146.869565 87.4082474,146.913043 87.4536082,146.913043 C87.4536082,146.913043 87.4989691,146.956522 87.4989691,146.956522 C87.5443299,146.956522 87.5443299,147 87.5896907,147 C87.5896907,147 87.6350515,147 87.6804124,147.043478 C87.7257732,147.043478 87.771134,147.086957 87.8164948,147.086957 C87.8618557,147.086957 87.8618557,147.086957 87.9072165,147.130435 C87.9525773,147.130435 87.9979381,147.173913 88.043299,147.173913 C88.043299,147.173913 88.043299,147.173913 88.043299,147.173913 L95.6639175,149.695652 C95.7546392,149.73913 95.8453608,149.73913 95.9360825,149.782609 C96.0268041,149.782609 96.0721649,149.826087 96.1628866,149.826087 C96.1628866,149.826087 96.1628866,149.826087 96.1628866,149.826087 C96.1628866,149.826087 96.1628866,149.826087 96.1628866,149.826087 C96.2082474,149.826087 96.2989691,149.869565 96.3443299,149.869565 C96.3896907,149.869565 96.4804124,149.913043 96.571134,149.913043 C96.6164948,149.913043 96.7072165,149.913043 96.7525773,149.956522 C96.7525773,149.956522 96.7525773,149.956522 96.7525773,149.956522 C96.7525773,149.956522 96.7525773,149.956522 96.7525773,149.956522 C96.7979381,149.956522 96.8886598,149.956522 96.9340206,150 C96.9793814,150 97.0701031,150 97.1154639,150 C97.1608247,150 97.2515464,150 97.2969072,150 C97.2969072,150 97.2969072,150 97.2969072,150 C97.2969072,150 97.2969072,150 97.2969072,150 C97.3876289,150 97.4329897,150 97.5237113,150 C97.614433,150 97.6597938,150 97.7505155,150 C97.7958763,150 97.8865979,150 97.9319588,150 C97.9319588,150 97.9319588,150 97.9319588,150 C97.9319588,150 97.9319588,150 97.9319588,150 C98.0226804,150 98.0680412,150 98.1587629,150 C98.2494845,150 98.3402062,150 98.4309278,150 C98.4762887,150 98.4762887,150 98.5216495,150 C98.5670103,150 98.5670103,150 98.6123711,150 C98.657732,150 98.7030928,150 98.7484536,150 C98.8391753,150 98.8845361,150 98.9752577,149.956522 C99.0659794,149.956522 99.156701,149.956522 99.2474227,149.913043 C99.2927835,149.913043 99.2927835,149.913043 99.3381443,149.913043 C99.428866,149.913043 99.5649485,149.869565 99.6556701,149.869565 C99.6556701,149.869565 99.7010309,149.869565 99.7010309,149.869565 C99.8371134,149.826087 99.9278351,149.826087 100.063918,149.782609 C100.109278,149.782609 100.2,149.73913 100.245361,149.73913 C100.245361,149.73913 100.290722,149.73913 100.290722,149.73913 L108.047423,147.173913 C108.138144,147.130435 108.183505,147.130435 108.274227,147.086957 C108.274227,147.086957 108.274227,147.086957 108.274227,147.086957 C108.274227,147.086957 108.319588,147.086957 108.319588,147.043478 C108.364948,147.043478 108.410309,147 108.45567,147 C108.45567,147 108.45567,147 108.501031,147 C108.501031,147 108.546392,147 108.546392,146.956522 C108.546392,146.956522 108.591753,146.913043 108.591753,146.913043 C108.591753,146.913043 108.637113,146.913043 108.637113,146.869565 C108.637113,146.869565 108.682474,146.869565 108.682474,146.826087 C108.682474,146.826087 108.682474,146.826087 108.727835,146.826087 C108.773196,146.782609 108.773196,146.782609 108.818557,146.73913 C108.818557,146.73913 108.818557,146.73913 108.818557,146.73913 C108.818557,146.73913 108.818557,146.73913 108.818557,146.73913 C108.818557,146.73913 108.863918,146.695652 108.863918,146.695652 C108.863918,146.695652 108.863918,146.695652 108.909278,146.652174 C108.909278,146.652174 108.909278,146.652174 108.909278,146.652174 C108.909278,146.652174 108.909278,146.652174 108.909278,146.652174 C108.909278,146.608696 108.954639,146.608696 108.954639,146.565217 C108.954639,146.565217 108.954639,146.565217 108.954639,146.565217 C108.954639,146.565217 108.954639,146.565217 108.954639,146.565217 C108.954639,146.565217 108.954639,146.521739 109,146.521739 C109,146.521739 109,146.478261 109,146.478261 C109,146.478261 109,146.478261 109,146.434783 C109,146.434783 109,146.434783 109,146.434783 C109,146.391304 109,146.391304 109,146.347826 C109,146.347826 109,146.347826 109,146.347826 L109,143 Z" id="Path" fill="#4AAABF"></path>
                    <path d="M108.040759,142.119048 C109.349443,142.595238 109.304316,143.357143 107.995632,143.833333 L100.278914,146.642857 C98.9702307,147.119048 96.8492613,147.119048 95.540578,146.642857 L87.9592406,143.880952 C86.6505574,143.404762 86.6956844,142.642857 88.0043676,142.166667 L95.7210861,139.357143 C97.0297693,138.880952 99.1507387,138.880952 100.459422,139.357143 L108.040759,142.119048 Z" id="Path" fill="url(#linearGradient-3)"></path>
                    <path d="M139,140 C139,140.043478 139,140.086957 139,140.086957 C139,140.086957 139,140.086957 139,140.130435 C139,140.173913 139,140.173913 138.954639,140.217391 C138.954639,140.217391 138.954639,140.217391 138.954639,140.217391 C138.954639,140.26087 138.909278,140.26087 138.863918,140.304348 C138.863918,140.304348 138.863918,140.304348 138.863918,140.304348 C138.818557,140.347826 138.818557,140.347826 138.773196,140.391304 C138.773196,140.391304 138.773196,140.391304 138.773196,140.391304 C138.727835,140.434783 138.682474,140.434783 138.637113,140.478261 C138.637113,140.478261 138.591753,140.478261 138.591753,140.521739 C138.546392,140.565217 138.501031,140.565217 138.45567,140.608696 C138.45567,140.608696 138.410309,140.608696 138.410309,140.652174 C138.364948,140.652174 138.319588,140.695652 138.274227,140.695652 C138.274227,140.695652 138.228866,140.695652 138.228866,140.73913 C138.138144,140.782609 138.092784,140.782609 138.002062,140.826087 L130.245361,143.391304 C130.154639,143.434783 130.109278,143.434783 130.018557,143.434783 C129.882474,143.478261 129.791753,143.478261 129.65567,143.521739 C129.519588,143.565217 129.338144,143.565217 129.202062,143.608696 C129.11134,143.608696 129.020619,143.652174 128.929897,143.652174 C128.793814,143.652174 128.703093,143.695652 128.56701,143.695652 C128.521649,143.695652 128.521649,143.695652 128.476289,143.695652 C128.294845,143.695652 128.068041,143.695652 127.886598,143.695652 C127.886598,143.695652 127.886598,143.695652 127.886598,143.695652 C127.659794,143.695652 127.478351,143.695652 127.251546,143.695652 C127.251546,143.695652 127.251546,143.695652 127.251546,143.695652 C127.024742,143.695652 126.843299,143.652174 126.661856,143.652174 C126.661856,143.652174 126.661856,143.652174 126.661856,143.652174 C126.480412,143.608696 126.298969,143.608696 126.117526,143.565217 C126.117526,143.565217 126.117526,143.565217 126.117526,143.565217 C125.936082,143.521739 125.754639,143.478261 125.618557,143.434783 L117.997938,140.913043 C117.952577,140.913043 117.907216,140.869565 117.861856,140.869565 C117.816495,140.869565 117.771134,140.826087 117.771134,140.826087 C117.725773,140.826087 117.725773,140.782609 117.680412,140.782609 C117.635052,140.782609 117.635052,140.73913 117.589691,140.73913 C117.54433,140.73913 117.54433,140.695652 117.498969,140.695652 C117.453608,140.695652 117.453608,140.652174 117.408247,140.652174 C117.362887,140.652174 117.362887,140.608696 117.362887,140.608696 C117.317526,140.608696 117.317526,140.565217 117.272165,140.565217 C117.272165,140.565217 117.226804,140.521739 117.226804,140.521739 C117.226804,140.521739 117.181443,140.478261 117.181443,140.478261 C117.181443,140.478261 117.136082,140.434783 117.136082,140.434783 C117.136082,140.434783 117.136082,140.391304 117.090722,140.391304 C117.090722,140.391304 117.090722,140.347826 117.045361,140.347826 C117,140.304348 117,140.26087 117,140.173913 L117.045361,143.434783 C117.045361,143.478261 117.045361,143.521739 117.090722,143.608696 C117.090722,143.608696 117.090722,143.652174 117.136082,143.652174 C117.136082,143.652174 117.136082,143.695652 117.181443,143.695652 C117.181443,143.695652 117.226804,143.73913 117.226804,143.73913 C117.226804,143.73913 117.272165,143.782609 117.272165,143.782609 C117.272165,143.782609 117.317526,143.826087 117.317526,143.826087 C117.317526,143.826087 117.362887,143.869565 117.362887,143.869565 C117.408247,143.869565 117.408247,143.913043 117.453608,143.913043 C117.453608,143.913043 117.498969,143.956522 117.498969,143.956522 C117.54433,143.956522 117.54433,144 117.589691,144 C117.589691,144 117.635052,144 117.680412,144.043478 C117.725773,144.043478 117.771134,144.086957 117.816495,144.086957 C117.861856,144.086957 117.861856,144.086957 117.907216,144.130435 C117.952577,144.130435 117.997938,144.173913 118.043299,144.173913 C118.043299,144.173913 118.043299,144.173913 118.043299,144.173913 L125.663918,146.695652 C125.754639,146.73913 125.845361,146.73913 125.936082,146.782609 C126.026804,146.782609 126.072165,146.826087 126.162887,146.826087 C126.162887,146.826087 126.162887,146.826087 126.162887,146.826087 C126.162887,146.826087 126.162887,146.826087 126.162887,146.826087 C126.208247,146.826087 126.298969,146.869565 126.34433,146.869565 C126.389691,146.869565 126.480412,146.913043 126.571134,146.913043 C126.616495,146.913043 126.707216,146.913043 126.752577,146.956522 C126.752577,146.956522 126.752577,146.956522 126.752577,146.956522 C126.752577,146.956522 126.752577,146.956522 126.752577,146.956522 C126.797938,146.956522 126.88866,146.956522 126.934021,147 C126.979381,147 127.070103,147 127.115464,147 C127.160825,147 127.251546,147 127.296907,147 C127.296907,147 127.296907,147 127.296907,147 C127.296907,147 127.296907,147 127.296907,147 C127.387629,147 127.43299,147 127.523711,147 C127.614433,147 127.659794,147 127.750515,147 C127.795876,147 127.886598,147 127.931959,147 C127.931959,147 127.931959,147 127.931959,147 C127.931959,147 127.931959,147 127.931959,147 C128.02268,147 128.068041,147 128.158763,147 C128.249485,147 128.340206,147 128.430928,147 C128.476289,147 128.476289,147 128.521649,147 C128.56701,147 128.56701,147 128.612371,147 C128.657732,147 128.703093,147 128.748454,147 C128.839175,147 128.884536,147 128.975258,146.956522 C129.065979,146.956522 129.156701,146.956522 129.247423,146.913043 C129.292784,146.913043 129.292784,146.913043 129.338144,146.913043 C129.428866,146.913043 129.564948,146.869565 129.65567,146.869565 C129.65567,146.869565 129.701031,146.869565 129.701031,146.869565 C129.837113,146.826087 129.927835,146.826087 130.063918,146.782609 C130.109278,146.782609 130.2,146.73913 130.245361,146.73913 C130.245361,146.73913 130.290722,146.73913 130.290722,146.73913 L138.047423,144.173913 C138.138144,144.130435 138.183505,144.130435 138.274227,144.086957 C138.274227,144.086957 138.274227,144.086957 138.274227,144.086957 C138.274227,144.086957 138.319588,144.086957 138.319588,144.043478 C138.364948,144.043478 138.410309,144 138.45567,144 C138.45567,144 138.45567,144 138.501031,144 C138.501031,144 138.546392,144 138.546392,143.956522 C138.546392,143.956522 138.591753,143.913043 138.591753,143.913043 C138.591753,143.913043 138.637113,143.913043 138.637113,143.869565 C138.637113,143.869565 138.682474,143.869565 138.682474,143.826087 C138.682474,143.826087 138.682474,143.826087 138.727835,143.826087 C138.773196,143.782609 138.773196,143.782609 138.818557,143.73913 C138.818557,143.73913 138.818557,143.73913 138.818557,143.73913 C138.818557,143.73913 138.818557,143.73913 138.818557,143.73913 C138.818557,143.73913 138.863918,143.695652 138.863918,143.695652 C138.863918,143.695652 138.863918,143.695652 138.909278,143.652174 C138.909278,143.652174 138.909278,143.652174 138.909278,143.652174 C138.909278,143.652174 138.909278,143.652174 138.909278,143.652174 C138.909278,143.608696 138.954639,143.608696 138.954639,143.565217 C138.954639,143.565217 138.954639,143.565217 138.954639,143.565217 C138.954639,143.565217 138.954639,143.565217 138.954639,143.565217 C138.954639,143.565217 138.954639,143.521739 139,143.521739 C139,143.521739 139,143.478261 139,143.478261 C139,143.478261 139,143.478261 139,143.434783 C139,143.434783 139,143.434783 139,143.434783 C139,143.391304 139,143.391304 139,143.347826 C139,143.347826 139,143.347826 139,143.347826 L139,140 Z" id="Path" fill="#4AAABF"></path>
                    <path d="M137.040759,139.119048 C138.349443,139.595238 138.304316,140.357143 136.995632,140.833333 L129.278914,143.642857 C127.970231,144.119048 125.849261,144.119048 124.540578,143.642857 L116.959241,140.880952 C115.650557,140.404762 115.695684,139.642857 117.004368,139.166667 L124.721086,136.357143 C126.029769,135.880952 128.150739,135.880952 129.459422,136.357143 L137.040759,139.119048 Z" id="Path" fill="url(#linearGradient-3)"></path>
                    <path d="M96.7322657,81.9979995 C97.0142362,82.021551 98.6806154,81.834386 98.5191436,81.5827817 C97.6426959,80.2170247 96.5226462,78.3315787 97.3239987,74.3129181 C97.8582337,71.633811 99.0382349,68.7804856 100.864002,65.7529418 C99.7938101,68.7830074 100.011646,71.2329599 101.51751,73.1027993 C103.776306,75.9075583 104.012106,78.011269 102.755637,81.5409508 C102.650956,81.8350225 104.279748,82.0881547 104.541765,81.9539157 C104.803782,81.8196767 109.751766,80.6299471 109.977274,74.7830232 C110.072171,73.512457 109.882365,71.2635416 109.170698,69.0188481 C108.255647,66.1739 105.664214,63.5332133 105.664214,64.6281616 C105.664214,64.7794086 105.683757,65.4949534 105.664214,65.7529418 C105.510485,67.7823354 104.162042,67.987638 103.562434,66.9604042 C103.206415,66.3504801 103.147328,65.0464272 103.147328,63.569489 C103.147328,61.1106492 102.434823,58.5794997 100.864002,56.5226702 C100.455514,55.9877903 99.9775399,55.487983 99.4291534,55.0617664 C99.2306225,54.9074291 98.9610176,55.0613144 98.9610176,55.3135474 C98.9610176,58.8745735 97.9750102,60.8180091 92.5440777,66.9604042 C87.1131452,73.1027993 91.2602529,81.5409508 96.7322657,81.9979995 Z" id="Shape-Copy-2" fill="#FFA400"></path>
                    <ellipse id="Oval-Copy" fill="url(#linearGradient-4)" style="mix-blend-mode: color-burn;" cx="102" cy="147" rx="61" ry="9"></ellipse>
                    <g id="Group" transform="translate(112.000000, 91.000000)"></g>
                    <g id="Group" transform="translate(106.000000, 91.000000)"></g>
                    <g id="Group" transform="translate(96.000000, 55.000000)"></g>
                    <g id="Group" transform="translate(159.000000, 96.000000)"></g>
                </g>
            </g>
        </g>
    </g>
</svg>