<?xml version="1.0" encoding="UTF-8"?>
<svg width="219px" height="187px" viewBox="0 0 219 187" version="1.1" xmlns="http://www.w3.org/2000/svg" xmlns:xlink="http://www.w3.org/1999/xlink">
    <!-- Generator: sketchtool 52.3 (67297) - http://www.bohemiancoding.com/sketch -->
    <title>28F8C2D6-DF4D-49A0-818F-282C361440B5</title>
    <desc>Created with sketchtool.</desc>
    <defs>
        <linearGradient x1="0%" y1="100%" x2="172.994172%" y2="109.159825%" id="linearGradient-1">
            <stop stop-color="#FFFFFF" offset="0%"></stop>
            <stop stop-color="#9EE8FB" offset="99.3790643%"></stop>
        </linearGradient>
        <linearGradient x1="0%" y1="100%" x2="-129.300218%" y2="0%" id="linearGradient-2">
            <stop stop-color="#FFFFFF" offset="0%"></stop>
            <stop stop-color="#05A9D3" offset="100%"></stop>
        </linearGradient>
        <linearGradient x1="43.882894%" y1="-188.928358%" x2="43.882894%" y2="90.620482%" id="linearGradient-3">
            <stop stop-color="#FFFFFF" offset="0%"></stop>
            <stop stop-color="#05A9D3" offset="100%"></stop>
        </linearGradient>
        <linearGradient x1="3.4358051%" y1="49.9270766%" x2="109.166864%" y2="49.9270766%" id="linearGradient-4">
            <stop stop-color="#FFFFFF" offset="0%"></stop>
            <stop stop-color="#05A9D3" offset="100%"></stop>
        </linearGradient>
        <path d="M135.797625,127.882289 C135.797625,128.758913 135.635865,129.576292 135.312339,130.334453 C134.988814,131.092613 134.53948,131.750071 133.964324,132.306845 C133.389167,132.863619 132.718162,133.301924 131.951287,133.621773 C131.184411,133.941622 130.357637,134.101544 129.470937,134.101544 C128.584238,134.101544 127.757463,133.941622 126.990588,133.621773 C126.223713,133.301924 125.552707,132.863619 124.977551,132.306845 C124.402395,131.750071 123.953061,131.092613 123.629535,130.334453 C123.30601,129.576292 123.14425,128.758913 123.14425,127.882289 C123.14425,127.005666 123.30601,126.188287 123.629535,125.430126 C123.953061,124.671965 124.402395,124.014508 124.977551,123.457734 C125.552707,122.900959 126.223713,122.462654 126.990588,122.142805 C127.757463,121.822956 128.584238,121.663034 129.470937,121.663034 C130.357637,121.663034 131.184411,121.822956 131.951287,122.142805 C132.718162,122.462654 133.389167,122.900959 133.964324,123.457734 C134.53948,124.014508 134.988814,124.671965 135.312339,125.430126 C135.635865,126.188287 135.797625,127.005666 135.797625,127.882289 Z M133.6408,127.882289 C133.6408,127.289976 133.526968,126.745057 133.299302,126.247514 C133.071636,125.749971 132.77208,125.317589 132.400625,124.950355 C132.02917,124.583121 131.591818,124.298815 131.088556,124.097428 C130.585295,123.896042 130.046094,123.79535 129.470937,123.79535 C128.895781,123.79535 128.35658,123.896042 127.853318,124.097428 C127.350057,124.298815 126.912705,124.583121 126.54125,124.950355 C126.169794,125.317589 125.870238,125.749971 125.642572,126.247514 C125.414906,126.745057 125.301075,127.289976 125.301075,127.882289 C125.301075,128.474602 125.414906,129.019522 125.642572,129.517065 C125.870238,130.014608 126.169794,130.44699 126.54125,130.814224 C126.912705,131.181458 127.350057,131.465764 127.853318,131.66715 C128.35658,131.868537 128.895781,131.969228 129.470937,131.969228 C130.046094,131.969228 130.585295,131.868537 131.088556,131.66715 C131.591818,131.465764 132.02917,131.181458 132.400625,130.814224 C132.77208,130.44699 133.071636,130.014608 133.299302,129.517065 C133.526968,129.019522 133.6408,128.474602 133.6408,127.882289 Z M150.356196,141.458035 C150.356196,142.334658 150.194436,143.152037 149.870911,143.910198 C149.547385,144.668359 149.098051,145.325816 148.522895,145.88259 C147.947739,146.439364 147.276733,146.877669 146.509858,147.197518 C145.742983,147.517367 144.916208,147.67729 144.029509,147.67729 C143.142809,147.67729 142.316035,147.517367 141.549159,147.197518 C140.782284,146.877669 140.111279,146.439364 139.536122,145.88259 C138.960966,145.325816 138.511632,144.668359 138.188107,143.910198 C137.864581,143.152037 137.702821,142.334658 137.702821,141.458035 C137.702821,140.581411 137.864581,139.764032 138.188107,139.005871 C138.511632,138.247711 138.960966,137.590253 139.536122,137.033479 C140.111279,136.476705 140.782284,136.0384 141.549159,135.718551 C142.316035,135.398702 143.142809,135.23878 144.029509,135.23878 C144.916208,135.23878 145.742983,135.398702 146.509858,135.718551 C147.276733,136.0384 147.947739,136.476705 148.522895,137.033479 C149.098051,137.590253 149.547385,138.247711 149.870911,139.005871 C150.194436,139.764032 150.356196,140.581411 150.356196,141.458035 Z M148.199371,141.458035 C148.199371,140.865722 148.08554,140.320802 147.857874,139.823259 C147.630208,139.325716 147.330652,138.893334 146.959196,138.5261 C146.587741,138.158866 146.150389,137.87456 145.647128,137.673174 C145.143866,137.471787 144.604665,137.371096 144.029509,137.371096 C143.454352,137.371096 142.915151,137.471787 142.41189,137.673174 C141.908628,137.87456 141.471276,138.158866 141.099821,138.5261 C140.728366,138.893334 140.42881,139.325716 140.201144,139.823259 C139.973478,140.320802 139.859646,140.865722 139.859646,141.458035 C139.859646,142.050348 139.973478,142.595267 140.201144,143.09281 C140.42881,143.590353 140.728366,144.022735 141.099821,144.389969 C141.471276,144.757203 141.908628,145.041509 142.41189,145.242895 C142.915151,145.444282 143.454352,145.544974 144.029509,145.544974 C144.604665,145.544974 145.143866,145.444282 145.647128,145.242895 C146.150389,145.041509 146.587741,144.757203 146.959196,144.389969 C147.330652,144.022735 147.630208,143.590353 147.857874,143.09281 C148.08554,142.595267 148.199371,142.050348 148.199371,141.458035 Z M129.578779,148.352523 L127.70953,147.392981 L143.921667,120.987801 L145.754969,121.947343 L129.578779,148.352523 Z" id="path-5"></path>
        <linearGradient x1="0%" y1="100%" x2="172.994172%" y2="109.159825%" id="linearGradient-6">
            <stop stop-color="#FFFFFF" offset="0%"></stop>
            <stop stop-color="#05A9D3" offset="100%"></stop>
        </linearGradient>
    </defs>
    <g id="token" stroke="none" stroke-width="1" fill="none" fill-rule="evenodd">
        <g id="Tablet_Token_1024" transform="translate(-579.000000, -1115.000000)">
            <g id="Group-4" transform="translate(88.000000, 1025.000000)">
                <g id="Group-35-Copy" transform="translate(491.000000, 90.000000)">
                    <path d="M47.3507049,139.556281 C69.6674669,170.280765 100.133608,179.72964 137.558066,176.350572 C174.982524,172.971504 218.174234,158.203728 218.989172,111.835412 C219.80411,65.4670954 174.418336,57.2071525 150.032885,20.0374092 C135.301315,-2.42713263 93.99023,-8.93496647 64.0882764,15.8448624 C42.084952,34.0542821 9.55012201,87.5561853 47.3507049,139.556281 Z" id="Path" fill="url(#linearGradient-1)"></path>
                    <path d="M17.3507049,149.556281 C39.6674669,180.280765 70.1336083,189.72964 107.558066,186.350572 C144.982524,182.971504 188.174234,168.203728 188.989172,121.835412 C189.80411,75.4670954 144.418336,67.2071525 120.032885,30.0374092 C105.301315,7.57286737 63.99023,1.06503353 34.0882764,25.8448624 C12.084952,44.0542821 -20.449878,97.5561853 17.3507049,149.556281 Z" id="Path" fill="url(#linearGradient-1)"></path>
                    <path d="M69.3051282,112.350988 C71.3417582,103.122134 72.8692308,93.7913043 72.7164835,87.4687747 C72.2582418,70.387747 59.8347985,51.9810277 59.8347985,51.9810277 C59.8347985,51.9810277 50.2117216,64.7280632 45.1710623,85.0213439 C43.2871795,92.6185771 45.0692308,102.714229 48.0223443,112.350988 L69.3051282,112.350988 Z" id="Path" fill="url(#linearGradient-2)"></path>
                    <path d="M59.9875458,111.535178 L59.1728938,52.8478261" id="Path" stroke="#FFFFFF" stroke-width="0.5"></path>
                    <path d="M46.240293,80.9422925 L59.9875458,98.4822134" id="Path" stroke="#FFFFFF" stroke-width="0.5"></path>
                    <path d="M68.1340659,68.6541502 L59.5802198,77.3731225" id="Path" stroke="#FFFFFF" stroke-width="0.5"></path>
                    <path d="M72.5637363,86.9079051 L59.9875458,98.4822134" id="Path" stroke="#FFFFFF" stroke-width="0.5"></path>
                    <path d="M51.2300366,67.3794466 L59.5802198,77.3731225" id="Path" stroke="#FFFFFF" stroke-width="0.5"></path>
                    <path d="M44.5091575,97.1055336 L59.9875458,111.535178" id="Path" stroke="#FFFFFF" stroke-width="0.5"></path>
                    <path d="M59.9875458,111.535178 L71.7490842,98.4822134" id="Path" stroke="#FFFFFF" stroke-width="0.5"></path>
                    <path d="M71.7490842,117.908696 C73.225641,111.076285 74.3967033,104.192885 74.243956,99.5019763 C73.9384615,86.9079051 64.7736264,73.3450593 64.7736264,73.3450593 C64.7736264,73.3450593 57.6454212,82.7268775 53.9794872,97.7173913 C52.6047619,103.326087 53.8776557,110.770356 56.067033,117.908696 L71.7490842,117.908696 Z" id="Path" fill="#77D6EE"></path>
                    <path d="M64.7736264,117.602767 L64.7736264,73.3450593" id="Path" stroke="#FFFFFF" stroke-width="0.5"></path>
                    <path d="M54.8450549,94.4541502 L64.9772894,107.405138" id="Path" stroke="#FFFFFF" stroke-width="0.5"></path>
                    <path d="M70.985348,85.3782609 L64.7227106,91.8027668" id="Path" stroke="#FFFFFF" stroke-width="0.5"></path>
                    <path d="M74.2948718,98.8391304 L64.9772894,107.405138" id="Path" stroke="#FFFFFF" stroke-width="0.5"></path>
                    <path d="M58.5619048,84.4094862 L64.7227106,91.8027668" id="Path" stroke="#FFFFFF" stroke-width="0.5"></path>
                    <path d="M53.5721612,106.385375 L64.9772894,116.990909" id="Path" stroke="#FFFFFF" stroke-width="0.5"></path>
                    <path d="M64.9772894,116.990909 L73.6838828,107.405138" id="Path" stroke="#FFFFFF" stroke-width="0.5"></path>
                    <path d="M134.375458,116.481028 C136.208425,116.481028 137.684982,114.951383 137.684982,113.064822 L137.684982,36.8375494 C137.684982,34.9509881 136.208425,33.4213439 134.375458,33.4213439 L85.496337,33.4213439 C83.66337,33.4213439 82.1868132,34.9509881 82.1868132,36.8375494 L82.1868132,113.064822 C82.1868132,114.951383 83.66337,116.481028 85.496337,116.481028 L134.375458,116.481028 Z" id="Path" fill="url(#linearGradient-3)"></path>
                    <path d="M127.703403,106.456126 C129.483416,106.456126 130.935531,105.341159 130.935531,103.974425 L130.935531,54.6564047 C130.935531,53.2896707 129.483416,52.1747036 127.703403,52.1747036 L92.1683915,52.1747036 C90.3883791,52.1747036 88.9362637,53.2896707 88.9362637,54.6564047 L88.9362637,103.938459 C88.9362637,105.305193 90.3883791,106.42016 92.1683915,106.42016 L127.703403,106.42016 L127.703403,106.456126 Z" id="Path" fill="#FFFFFF"></path>
                    <ellipse id="Oval" fill="#FFFFFF" cx="109.935897" cy="111.943083" rx="2.95311355" ry="2.95731225"></ellipse>
                    <path d="M83.3069597,33.4098814 L83.3069597,43.4545455 C83.3069597,45.5450593 84.9871795,47.2786561 87.125641,47.2786561 C89.2131868,47.2786561 90.9443223,45.5960474 90.9443223,43.4545455 L90.9443223,33.4098814 L83.3069597,33.4098814 Z" id="Path" fill="#FFFFFF"></path>
                    <path d="M92,33.4098814 L92,43.4545455 C92,45.5450593 93.6802198,47.2786561 95.8186813,47.2786561 C97.9062271,47.2786561 99.6373626,45.5960474 99.6373626,43.4545455 L99.6373626,33.4098814 L92,33.4098814 Z" id="Path" fill="#FFFFFF"></path>
                    <path d="M101,33.4098814 L101,43.4545455 C101,45.5450593 102.68022,47.2786561 104.818681,47.2786561 C106.906227,47.2786561 108.637363,45.5960474 108.637363,43.4545455 L108.637363,33.4098814 L101,33.4098814 Z" id="Path" fill="#FFFFFF"></path>
                    <path d="M110,33.4098814 L110,43.4545455 C110,45.5450593 111.68022,47.2786561 113.818681,47.2786561 C115.906227,47.2786561 117.637363,45.5960474 117.637363,43.4545455 L117.637363,33.4098814 L110,33.4098814 Z" id="Path" fill="#FFFFFF"></path>
                    <path d="M119,33.4098814 L119,43.4545455 C119,45.5450593 120.68022,47.2786561 122.818681,47.2786561 C124.906227,47.2786561 126.637363,45.5960474 126.637363,43.4545455 L126.637363,33.4098814 L119,33.4098814 Z" id="Path" fill="#FFFFFF"></path>
                    <path d="M128,33.4098814 L128,43.4545455 C128,45.5450593 129.68022,47.2786561 131.818681,47.2786561 C133.906227,47.2786561 135.637363,45.5960474 135.637363,43.4545455 L135.637363,33.4098814 L128,33.4098814 Z" id="Path" fill="#FFFFFF"></path>
                    <path d="M184.270548,93.243083 C184.270548,94.0588933 183.608643,94.7217391 182.793991,94.7217391 L143.639779,94.7217391 C142.825127,94.7217391 142.163222,94.0588933 142.163222,93.243083 L142.163222,67.0351779 C142.163222,66.2193676 142.825127,65.5565217 143.639779,65.5565217 L182.793991,65.5565217 C183.608643,65.5565217 184.270548,66.2193676 184.270548,67.0351779 L184.270548,93.243083 Z" id="Path" fill="#24B3D8"></path>
                    <rect id="Rectangle" fill="#FFFFFF" x="142.214138" y="81.056917" width="42.0564103" height="6.6284585"></rect>
                    <rect id="Rectangle" fill="#FFFFFF" x="147.763955" y="68.0549407" width="25.0505495" height="2.09051383"></rect>
                    <rect id="Rectangle" fill="#FFFFFF" x="147.763955" y="73.8166008" width="9.57216117" height="3.82411067"></rect>
                    <rect id="Rectangle" fill="#FFFFFF" x="165.635383" y="73.8166008" width="15.732967" height="3.82411067"></rect>
                    <path d="M181.826592,61.0695652 C181.826592,63.8229249 179.586299,66.0664032 176.836849,66.0664032 L140.075676,66.0664032 C137.326226,66.0664032 135.085933,63.8229249 135.085933,61.0695652 L135.085933,60.5086957 C135.085933,57.755336 137.326226,55.5118577 140.075676,55.5118577 L176.836849,55.5118577 C179.586299,55.5118577 181.826592,57.755336 181.826592,60.5086957 L181.826592,61.0695652 Z" id="Path" fill="#FFFFFF"></path>
                    <polygon id="Path" fill="#FFA400" points="140.177508 57.8573123 141.144907 59.7948617 143.283369 60.1007905 141.755896 61.5794466 142.112306 63.7209486 140.177508 62.7011858 138.293625 63.7209486 138.650035 61.5794466 137.122563 60.1007905 139.261024 59.7948617"></polygon>
                    <polygon id="Path" fill="#FFA400" points="147.662123 57.8573123 148.578607 59.7948617 150.717068 60.1007905 149.189596 61.5794466 149.546006 63.7209486 147.662123 62.7011858 145.727325 63.7209486 146.083735 61.5794466 144.556263 60.1007905 146.694724 59.7948617"></polygon>
                    <polygon id="Path" fill="#FFA400" points="155.095823 57.8573123 156.012306 59.7948617 158.150768 60.1007905 156.623295 61.5794466 156.979706 63.7209486 155.095823 62.7011858 153.21194 63.7209486 153.56835 61.5794466 151.989962 60.1007905 154.128424 59.7948617"></polygon>
                    <polygon id="Path" fill="#FFA400" points="162.529523 57.8573123 163.496922 59.7948617 165.584468 60.1007905 164.056995 61.5794466 164.413405 63.7209486 162.529523 62.7011858 160.64564 63.7209486 161.00205 61.5794466 159.474578 60.1007905 161.562123 59.7948617"></polygon>
                    <polygon id="Path" fill="#FFA400" points="169.963222 57.8573123 170.930621 59.7948617 173.069083 60.1007905 171.490695 61.5794466 171.898021 63.7209486 169.963222 62.7011858 168.079339 63.7209486 168.43575 61.5794466 166.908277 60.1007905 169.046739 59.7948617"></polygon>
                    <ellipse id="Oval" fill="url(#linearGradient-4)" style="mix-blend-mode: color-burn;" cx="93.992674" cy="147.53004" rx="41.2417582" ry="4.53794466"></ellipse>
                    <path d="M160.384306,100.883172 L153.060362,98.3794466 L144.95171,104.169313 L137,127.224454 L155.04829,133.379447 L163,110.324305 L160.384306,100.883172 Z M152.694165,111.054558 C150.810865,110.428627 149.816901,108.39435 150.444668,106.516555 C151.072435,104.638761 153.112676,103.647703 154.995976,104.325795 C156.879276,104.951727 157.873239,106.986004 157.193159,108.863798 C156.565392,110.689432 154.525151,111.68049 152.694165,111.054558 Z" id="Shape" fill="#FFFFFF" fill-rule="nonzero"></path>
                    <g id="%" transform="translate(136.750223, 134.670162) rotate(21.636489) translate(-136.750223, -134.670162) ">
                        <use fill="#FBFBFB" xlink:href="#path-5"></use>
                        <use fill="#FFA400" xlink:href="#path-5"></use>
                    </g>
                    <path d="M106.415332,95.2975327 C106.767795,95.3265795 108.850769,95.0957427 108.64893,94.7854308 C107.55337,93.1009971 106.153308,90.7756137 107.154998,85.8192656 C107.822792,82.5150336 109.297794,78.9959322 111.580003,75.2619615 C110.242263,78.9990425 110.514558,82.0206506 112.396888,84.3267858 C115.220383,87.7859886 115.515133,90.3805651 113.944546,94.7338393 C113.813695,95.0965278 115.849685,95.4087241 116.177206,95.2431627 C116.504727,95.0776013 122.689707,93.610268 122.971592,86.399062 C123.090214,84.8320303 122.852956,82.0583679 121.963372,79.2899127 C120.819558,75.7811434 117.580268,72.5242964 117.580268,73.8747327 C117.580268,74.0612706 117.604697,74.9437759 117.580268,75.2619615 C117.388106,77.7648803 115.702552,78.0180869 114.953043,76.7511651 C114.508019,75.9989255 114.43416,74.3905936 114.43416,72.5690364 C114.43416,69.5364674 113.543529,66.4147163 111.580003,63.8779599 C111.069392,63.2182747 110.471925,62.6018457 109.786442,62.0761786 C109.538278,61.8858293 109.201272,62.0756211 109.201272,62.3867084 C109.201272,66.7786407 107.968763,69.1755445 101.180097,76.7511651 C94.3914315,84.3267858 99.5753161,94.7338393 106.415332,95.2975327 Z" id="Shape-Copy" fill="#FFA400"></path>
                    <path d="M83.2131868,147.073913 C83.2131868,147.073913 82.5003663,149.062451 82.7549451,149.419368 C83.0095238,149.827273 84.6897436,150.337154 85.2498168,150.43913 C85.8608059,150.490119 86.2681319,150.541107 86.3190476,150.337154 C86.4717949,149.725296 84.4860806,149.062451 85.1989011,149.317391 C85.7080586,149.521344 83.8241758,148.858498 83.8750916,147.940711 C83.9260073,147.226877 83.8241758,147.124901 83.8241758,147.124901 L83.2131868,147.073913 Z" id="Path" fill="#FFFFFF"></path>
                    <path d="M61.6249084,142.23004 C61.6249084,142.23004 60.1483516,143.708696 60.1992674,144.167589 C60.2501832,144.626482 61.5230769,145.850198 62.0322344,146.156126 C62.5413919,146.462055 62.8978022,146.716996 63.0505495,146.513043 C63.4069597,146.003162 61.9304029,144.575494 62.4395604,145.136364 C62.8468864,145.544269 61.3703297,144.167589 61.8285714,143.351779 C62.1849817,142.688933 62.1340659,142.586957 62.1340659,142.586957 L61.6249084,142.23004 Z" id="Path" fill="#FFFFFF"></path>
                    <path d="M87.4901099,130.706719 C88.2538462,129.126087 87.1336996,117.653755 86.7263736,113.472727 C86.3190476,109.087747 85.2498168,106.691304 84.3842491,104.090909 C83.7732601,102.204348 82.9586081,102.357312 82.4494505,102.357312 C81.8893773,102.357312 81.2783883,102.306324 80.718315,102.255336 C80.514652,101.694466 80.0564103,101.541502 79.8018315,101.388538 C78.478022,100.725692 76.7468864,99.7059289 76.7468864,99.7059289 C76.7468864,99.7059289 74.4047619,101.439526 73.3355311,103.224111 C72.3172161,105.008696 71.9608059,108.016996 71.5025641,112.249012 C71.0952381,116.481028 69.4659341,125.964822 69.2622711,126.933597 C69.2113553,127.086561 69.2622711,127.239526 69.3131868,127.39249 C69.3131868,127.39249 67.83663,128.361265 65.2908425,132.440316 C62.6941392,136.519368 60.5047619,142.332016 60.5047619,142.332016 L62.1340659,143.504743 C62.1340659,143.504743 70.4333333,132.032411 71.8080586,130.196838 C72.1135531,129.788933 72.3172161,129.483004 72.4699634,129.177075 C73.7937729,128.106324 77.4087912,117.959684 78.885348,113.67668 C79.089011,114.288538 79.3435897,114.951383 79.5472527,115.665217 C80.9728938,119.693281 83.4677656,128.973123 83.7223443,129.941897 C83.7732601,130.094862 83.8241758,130.196838 83.9769231,130.349802 C83.9769231,130.349802 83.0604396,131.828458 82.4494505,136.621344 C81.8384615,141.414229 82.2457875,147.634783 82.2457875,147.634783 L84.2315018,148.042688 C84.2315018,148.042688 86.9300366,134.122925 87.3882784,131.879447 C87.3882784,131.420553 87.4391941,131.012648 87.4901099,130.706719 Z" id="Path" fill="#24B3D8"></path>
                    <path d="M94.7201465,81.6051383 C94.7201465,81.6051383 95.5857143,81.3501976 96.043956,80.8403162 C96.5021978,80.2794466 96.7567766,80.0245059 96.3494505,79.6675889 C95.9421245,79.3106719 95.840293,79.3616601 95.5347985,79.4636364 C94.821978,79.6166008 95.3311355,79.4126482 94.2619048,80.9932806 L94.7201465,81.6051383 Z" id="Path" fill="#FFDCDC"></path>
                    <path d="M80.718315,89.2533597 C81.6347985,91.3948617 84.5369963,90.8849802 86.4717949,90.3750988 C88.4065934,89.8652174 90.2395604,88.6924901 91.3087912,87.3667984 C92.3271062,86.0411067 95.432967,82.2679842 95.432967,82.2679842 L93.803663,80.0754941 C93.803663,80.0754941 89.5267399,85.429249 87.4391941,85.9391304 C86.0644689,86.2960474 81.0747253,83.9505929 79.7509158,84.5114625 C79.1908425,84.715415 80.107326,87.8766798 80.718315,89.2533597 Z" id="Path" fill="#3DCFF0"></path>
                    <path d="M57.5007326,64.5750988 C55.3622711,65.5948617 53.732967,67.6343874 52.918315,69.7758893 C50.678022,75.7924901 54.8531136,82.0130435 59.8937729,85.1233202 C65.0362637,88.284585 72.0626374,88.4375494 77.0014652,84.715415 C78.7835165,83.3897233 81.8384615,81.8090909 81.9912088,79.2086957 C82.1948718,75.3335968 79.089011,74.9766798 76.7468864,74.9766798 C73.5391941,74.9766798 72.1644689,71.101581 70.6879121,68.7561265 C68.243956,64.8300395 62.4395604,62.2296443 57.5007326,64.5750988 Z" id="Path" fill="#9C9C9C"></path>
                    <path d="M83.8241758,95.9328063 C83.4168498,93.3324111 82.9076923,87.6727273 82.2967033,85.786166 C81.8893773,84.6134387 81.0747253,84.2055336 78.5798535,84.1035573 C73.9465201,83.9505929 73.1827839,85.8881423 72.2153846,90.9869565 C71.9608059,92.1596838 71.5534799,97.4114625 71.2479853,101.235573 C71.0443223,103.683004 70.4842491,106.181423 70.4842491,106.181423 C70.4842491,106.181423 76.3904762,105.72253 79.496337,105.467589 C82.6021978,105.212648 85.4025641,105.72253 85.3516484,105.314625 C84.9443223,103.377075 84.1296703,98.0743083 83.8241758,95.9328063 Z" id="Path" fill="#FFFFFF"></path>
                    <path d="M79.089011,78.9027668 C77.867033,78.9027668 76.7468864,78.3928854 76.7978022,80.2284585 C76.5432234,80.0245059 76.2886447,79.9735178 76.1358974,80.0754941 C75.9322344,80.2284585 75.9831502,80.6873518 76.2377289,81.0442688 C76.4923077,81.4011858 76.7978022,81.5541502 77.052381,81.5031621 C77.052381,81.5031621 77.052381,81.5031621 77.052381,81.5541502 C77.1032967,82.1660079 77.1542125,83.4916996 77.1032967,83.9505929 C77.0014652,84.6644269 77.1542125,83.8996047 76.7978022,85.2762846 C76.7978022,85.2762846 77.3069597,86.0411067 78.4271062,86.0411067 C79.4454212,86.0411067 79.5981685,84.6134387 79.5981685,84.6134387 C79.5981685,84.6134387 79.5981685,84.6134387 79.5981685,84.2055336 C79.5981685,83.9505929 79.5981685,83.3897233 79.5981685,82.93083 C80.8710623,82.3699605 81.1765568,80.4324111 81.3802198,79.1067194 C81.6347985,76.812253 80.310989,78.9537549 79.089011,78.9027668 Z" id="Path" fill="#FFDCDC"></path>
                    <path d="M86.5227106,107.201186 L84.7406593,106.946245 C84.9952381,105.212648 83.9769231,103.632016 82.4494505,103.428063 C80.9728938,103.224111 79.5472527,104.498814 79.292674,106.232411 L77.1542125,105.926482 L74.0992674,120.916996 L85.6062271,122.44664 L86.5227106,107.201186 Z M82.347619,104.090909 C83.4677656,104.243874 84.2315018,105.467589 84.0278388,106.844269 L79.9545788,106.283399 C80.1582418,104.957708 81.2274725,103.937945 82.347619,104.090909 Z" id="Shape" fill="#FFFFFF" fill-rule="nonzero"></path>
                    <path d="M79.4454212,104.702767 C79.4454212,104.702767 80.2600733,102.612253 80.9728938,101.949407 C81.4311355,101.59249 73.8446886,98.9920949 74.4047619,96.6466403 C74.8120879,95.0150198 76.6450549,88.284585 75.8304029,86.2450593 C74.4047619,82.7778656 72.1644689,88.1826087 71.9608059,88.9474308 C70.9934066,92.3636364 70.1278388,98.1762846 70.8406593,99.8079051 C71.6043956,101.388538 79.4454212,104.702767 79.4454212,104.702767 Z" id="Path" fill="#3DCFF0"></path>
                    <path d="M79.8018315,103.173123 C79.8018315,103.173123 80.3619048,103.937945 81.0238095,104.243874 C81.6857143,104.498814 82.0421245,104.651779 82.2457875,104.141897 C82.347619,103.886957 82.347619,103.886957 82.2457875,103.632016 C82.143956,103.377075 82.1948718,103.071146 80.3619048,102.561265 L79.8018315,103.173123 Z" id="Path" fill="#FFDCDC"></path>
                    <g id="Group" opacity="0.710542225" transform="translate(44.509158, 52.592885)"></g>
                    <g id="Group" transform="translate(53.164835, 72.988142)"></g>
                    <g id="Group" transform="translate(83.205128, 33.256917)"></g>
                    <g id="Group" transform="translate(135.085933, 55.256917)">
                        <g transform="translate(6.619048, 10.197628)"></g>
                        <g fill="#FFA400" id="Path">
                            <g transform="translate(2.036630, 2.549407)">
                                <polygon points="40.274359 0.0509881423 41.2417582 1.98853755 43.3802198 2.2944664 41.8527473 3.77312253 42.2091575 5.91462451 40.274359 4.89486166 38.3904762 5.91462451 38.7468864 3.77312253 37.2194139 2.2944664 39.3578755 1.98853755"></polygon>
                            </g>
                        </g>
                    </g>
                    <g id="Group" transform="translate(52.750916, 142.992095)"></g>
                    <g id="Group-16" transform="translate(119.000000, 97.992095)"></g>
                    <g id="Group" transform="translate(51.673993, 63.300395)">
                        <g transform="translate(0.582418, 0.000000)">
                            <g transform="translate(26.985348, 15.806324)"></g>
                            <g transform="translate(17.820513, 21.415020)">
                                <g></g>
                            </g>
                        </g>
                    </g>
                </g>
            </g>
        </g>
    </g>
</svg>