<?xml version="1.0" encoding="UTF-8"?>
<svg width="24px" height="24px" viewBox="0 0 24 24" version="1.1" xmlns="http://www.w3.org/2000/svg" xmlns:xlink="http://www.w3.org/1999/xlink">
    <!-- Generator: Sketch 52.2 (67145) - http://www.bohemiancoding.com/sketch -->
    <title>Group 67</title>
    <desc>Created with Sketch.</desc>
    <g id="Settings" stroke="none" stroke-width="1" fill="none" fill-rule="evenodd">
        <g id="Group-67">
            <circle id="Oval" stroke="#000000" cx="12" cy="12" r="11.5"></circle>
            <g id="Group-62" transform="translate(4.000000, 4.000000)">
                <rect id="Rectangle" fill="#000000" x="2.84217094e-14" y="0" width="16" height="16" rx="2"></rect>
                <g id="Group-61" transform="translate(1.000000, 1.000000)" fill="#FFFFFF">
                    <path d="M12.8458751,12.1752749 L10.8421845,9.76364717 C10.9640621,9.5555128 11.025,9.3509655 11.025,9.15 C11.0750002,8.9833325 11.1,8.7833345 11.1,8.55 L11.025,7.95 C10.9916665,7.69999875 10.9041674,7.46250113 10.7625,7.2375 C10.6208326,7.01249888 10.4041681,6.82083413 10.1125,6.6625 C9.91805458,6.55694392 9.12222125,6.47777725 7.725,6.425 L7.725,3.35 C9.76944217,3.472221 11.0194422,3.65555433 11.475,3.9 C12.1583367,4.2666685 12.6749982,4.69166425 13.025,5.175 C13.4750022,5.69166925 13.7749992,6.25833025 13.925,6.875 C14.0916675,7.4416695 14.175,7.99999725 14.175,8.55 C14.175,8.80000125 14.1500002,9.08749838 14.1,9.4125 C14.0499997,9.73750163 13.991667,10.0249988 13.925,10.275 C13.724999,10.8916698 13.425002,11.4541641 13.025,11.9625 C12.9679217,12.0350371 12.9082134,12.105962 12.8458751,12.1752749 Z M12.1535958,12.8008394 C11.9348335,12.9627778 11.6961352,13.1124977 11.4375,13.25 C10.7791634,13.6000018 9.95833825,13.775 8.975,13.775 C8.508331,13.775 8.06666875,13.7250005 7.65,13.625 C7.23333125,13.5249995 6.858335,13.4000008 6.525,13.25 C5.85833,12.8833315 5.32083537,12.4500025 4.9125,11.95 C4.50416462,11.4499975 4.20833425,10.8916698 4.025,10.275 C3.90833275,9.92499825 3.8333335,9.65416763 3.8,9.4625 C3.7666665,9.27083238 3.75,8.96666875 3.75,8.55 L3.75,-3.58824082e-13 L6.825,-3.58824082e-13 L6.825,8.55 C6.8583335,8.683334 6.875,8.883332 6.875,9.15 C6.95833375,9.46666825 7.05833275,9.7083325 7.175,9.875 C7.35833425,10.141668 7.583332,10.3458326 7.85,10.4875 C8.116668,10.6291674 8.49166425,10.7 8.975,10.7 C9.441669,10.7 9.81666525,10.6250008 10.1,10.475 C10.1194869,10.4623335 10.1386462,10.4496528 10.157478,10.4369579 L12.1535958,12.8008394 Z" id="Combined-Shape"></path>
                    <path d="M1.81943349e-12,6.25 L1.81943349e-12,3.75 L3.075,3.75 L3.075,6.25 L1.81943349e-12,6.25 Z" id="Combined-Shape" transform="translate(1.537500, 5.000000) rotate(-270.000000) translate(-1.537500, -5.000000) "></path>
                </g>
            </g>
        </g>
    </g>
</svg>