<?xml version="1.0" encoding="UTF-8"?>
<svg width="18px" height="18px" viewBox="0 0 18 18" version="1.1" xmlns="http://www.w3.org/2000/svg" xmlns:xlink="http://www.w3.org/1999/xlink">
    <!-- Generator: sketchtool 52.3 (67297) - http://www.bohemiancoding.com/sketch -->
    <title>80E2AB13-CAD8-4AF5-8141-0E5ACC3C8D55</title>
    <desc>Created with sketchtool.</desc>
    <g id="token" stroke="none" stroke-width="1" fill="none" fill-rule="evenodd">
        <g id="Mobile_Purchase-form_320" transform="translate(-56.000000, -777.000000)">
            <g id="Group-52" transform="translate(20.000000, 120.000000)">
                <g id="BTC_Icon" transform="translate(36.000000, 657.000000)">
                    <circle id="icon_bitcoin" fill="#FFBC79" cx="9" cy="9" r="9"></circle>
                    <g id="bitcoin-logo-(1)" transform="translate(4.736842, 2.842105)" fill="#FFFFFF" fill-rule="nonzero">
                        <path d="M8.19043431,6.4611381 C7.91630381,6.09115398 7.50263673,5.83702321 6.94945791,5.69890133 C7.65389656,5.32386207 7.96347005,4.68732969 7.87847643,3.78920049 C7.85006243,3.4635201 7.76382694,3.18126203 7.61957126,2.94201151 C7.47521623,2.70270913 7.28041641,2.5103288 7.03442669,2.36479272 C6.78863568,2.21907518 6.52131062,2.10814734 6.23307247,2.03167221 C5.9447598,1.95519707 5.61375163,1.89966834 5.24027148,1.8651638 L5.24027148,0 L4.14831954,0 L4.14831954,1.81334217 C3.95923233,1.81334217 3.67086999,1.81826769 3.28325735,1.82814465 L3.28325735,0 L2.19115639,0 L2.19115639,1.8651638 C2.03510294,1.87011524 1.80585364,1.87262984 1.50330914,1.87262984 L0,1.8651638 L0,3.07901866 L0.787072716,3.07901866 C1.1463707,3.07901866 1.35674357,3.24682326 1.41819133,3.58230284 L1.41819133,5.70654884 C1.46553143,5.70654884 1.50330914,5.70908937 1.5316983,5.71401489 L1.41819133,5.71401489 L1.41819133,8.68926068 C1.38041363,8.94085092 1.24333596,9.0667627 1.00693348,9.0667627 L0.219910437,9.0667627 L4.96748219e-05,10.421254 L1.41831552,10.421254 C1.50815243,10.421254 1.63807693,10.4224984 1.80833738,10.4247278 C1.97849848,10.4272165 2.10608826,10.4284608 2.19120607,10.4284608 L2.19120607,12.3157895 L3.28348089,12.3157895 L3.28348089,10.4506516 C3.48198148,10.4557067 3.77034382,10.4581176 4.14854308,10.4581176 L4.14854308,12.3157895 L5.24051985,12.3157895 L5.24051985,10.4284608 C5.62825667,10.4087588 5.97215547,10.371947 6.27221623,10.3174812 C6.57242601,10.2630153 6.85969551,10.1780372 7.13382601,10.0620024 C7.40793168,9.94612308 7.63718098,9.80170173 7.82152425,9.62899754 C8.00596686,9.45644889 8.1582947,9.23677081 8.2790542,8.9702744 C8.39941629,8.70377799 8.47633775,8.39538876 8.50932183,8.04497709 C8.5710428,7.35929322 8.46461449,6.83127777 8.19043431,6.4611381 Z M3.30449334,3.16021192 C3.33760161,3.16021192 3.43096544,3.15896758 3.58460966,3.1564789 C3.7383284,3.15393837 3.86591818,3.15150153 3.96755286,3.14901285 C4.06921239,3.14657602 4.2063149,3.15274588 4.3789349,3.16754835 C4.5514804,3.18235083 4.69682892,3.20213067 4.81498049,3.22675826 C4.93313205,3.25138584 5.06325525,3.29211209 5.20495268,3.34885924 C5.34689848,3.40555453 5.46028126,3.47466732 5.54527488,3.55606797 C5.63044237,3.63746863 5.70252053,3.74113781 5.76150938,3.86697181 C5.8206721,3.9927799 5.85022862,4.13709755 5.85022862,4.29989886 C5.85022862,4.43807259 5.82899263,4.56393252 5.78649582,4.67747865 C5.74407352,4.79094702 5.68009235,4.88595766 5.59509873,4.96243279 C5.51008027,5.03893385 5.42245389,5.10560981 5.33261697,5.1623051 C5.2428794,5.2190004 5.12813057,5.26467809 4.98871818,5.29918264 C4.84933063,5.33373903 4.72760248,5.36088122 4.62365791,5.38058329 C4.51963884,5.40033721 4.38966466,5.41394719 4.23363605,5.42130954 C4.07758259,5.4286719 3.95935652,5.43370111 3.87903233,5.43613794 C3.79863363,5.43857478 3.68875293,5.43857478 3.54924119,5.43613794 C3.40970461,5.43370111 3.32826274,5.43240492 3.30456785,5.43240492 L3.30456785,3.160186 L3.30449334,3.160186 L3.30449334,3.16021192 Z M6.2864729,8.20049381 C6.24144268,8.31403995 6.18362118,8.41278361 6.11276005,8.4967248 C6.04177473,8.58045859 5.94836123,8.65454874 5.83259405,8.71860639 C5.71685172,8.78284551 5.60446243,8.83456344 5.4958236,8.87404535 C5.38703574,8.9136828 5.25579486,8.9480318 5.10229966,8.97774045 C4.94845674,9.00737133 4.81381313,9.02821404 4.6978721,9.04063153 C4.58210492,9.05299717 4.44388473,9.06282228 4.28308733,9.07028833 C4.12241412,9.07754699 3.99705971,9.08130593 3.90727247,9.08130593 C3.81743555,9.08130593 3.70395342,9.0799579 3.56685091,9.07754699 C3.42967389,9.07523977 3.34229588,9.07399543 3.30444367,9.07399543 L3.30444367,6.57222148 C3.34222137,6.57222148 3.4545113,6.56981057 3.64128863,6.56478135 C3.8280908,6.55980399 3.98046832,6.55749677 4.09866956,6.55749677 C4.21684596,6.55749677 4.38000291,6.56478135 4.58809074,6.57968753 C4.79597987,6.59438631 4.97090975,6.61649929 5.11285556,6.64610424 C5.2546275,6.67576104 5.40933973,6.72133503 5.57729031,6.78308547 C5.74506702,6.84473221 5.88105184,6.919963 5.98509576,7.00877786 C6.08911483,7.09774825 6.17651768,7.21106108 6.24740365,7.34926072 C6.31846349,7.4873826 6.35390647,7.64531024 6.35390647,7.8229918 C6.35388163,7.96129514 6.33145345,8.08692175 6.2864729,8.20049381 Z" id="Shape"></path>
                    </g>
                </g>
            </g>
        </g>
    </g>
</svg>