<?xml version="1.0" encoding="UTF-8"?>
<svg width="24px" height="24px" viewBox="0 0 24 24" version="1.1" xmlns="http://www.w3.org/2000/svg" xmlns:xlink="http://www.w3.org/1999/xlink">
    <!-- Generator: Sketch 52.2 (67145) - http://www.bohemiancoding.com/sketch -->
    <title>dogecoin-seeklogo.com</title>
    <desc>Created with Sketch.</desc>
    <g id="Settings" stroke="none" stroke-width="1" fill="none" fill-rule="evenodd">
        <g id="dogecoin-seeklogo.com" fill="#C2A633">
            <path d="M12.3228517,8 L10.5806452,8 L10.5806452,11.4143615 L13.3216209,11.4143615 L13.3216209,12.843911 L10.5806452,12.843911 L10.5806452,16.2580645 L12.4082062,16.2580301 C12.8777777,16.2580301 16.2633016,16.3107565 16.2580584,12.2857395 C16.2528152,8.26072248 12.9744721,8 12.3228517,8 Z" id="Path"></path>
            <path d="M12,0 C5.37252,0 0,5.37252 0,12 C0,18.62748 5.37252,24 12,24 C18.62748,24 24,18.62748 24,12 C24,5.37252 18.62748,0 12,0 Z M12.47148,18.4812 L8.12568,18.4812 L8.12568,12.70368 L6.59376,12.70368 L6.59376,11.2884 L8.12556,11.2884 L8.12556,5.51052 L11.8554,5.51052 C12.73776,5.51052 18.58212,5.32728 18.58212,12.10428 C18.58212,18.99336 12.4716,18.4812 12.4716,18.4812 L12.47148,18.4812 Z" id="Shape" fill-rule="nonzero"></path>
        </g>
    </g>
</svg>