<?xml version="1.0" encoding="UTF-8"?>
<svg width="24px" height="24px" viewBox="0 0 24 24" version="1.1" xmlns="http://www.w3.org/2000/svg" xmlns:xlink="http://www.w3.org/1999/xlink">
    <!-- Generator: Sketch 52.2 (67145) - http://www.bohemiancoding.com/sketch -->
    <title>Group 56</title>
    <desc>Created with Sketch.</desc>
    <g id="Settings" stroke="none" stroke-width="1" fill="none" fill-rule="evenodd">
        <g id="Group-56">
            <circle id="Oval" fill="#00CDFF" cx="12" cy="12" r="12"></circle>
            <g id="Group-53" transform="translate(5.000000, 7.000000)">
                <g id="Group-52" transform="translate(4.000000, 0.000000)">
                    <polygon id="Rectangle" fill="#57E0FF" points="2 3.41060513e-13 5 3.41060513e-13 3 3 -4.88498131e-15 3"></polygon>
                    <polygon id="Rectangle" fill="#93EBFB" points="5 3.41060513e-13 8 3.41060513e-13 6 3 3 3"></polygon>
                    <polygon id="Rectangle" fill="#FFFFFF" points="8 3.41060513e-13 11 3.41060513e-13 9 3 6 3"></polygon>
                </g>
                <g id="Group-52" transform="translate(2.000000, 4.000000)">
                    <polygon id="Rectangle" fill="#57E0FF" points="2 3.41060513e-13 5 3.41060513e-13 3 3 -4.88498131e-15 3"></polygon>
                    <polygon id="Rectangle" fill="#93EBFB" points="5 3.41060513e-13 8 3.41060513e-13 6 3 3 3"></polygon>
                    <polygon id="Rectangle" fill="#FFFFFF" points="8 3.41060513e-13 11 3.41060513e-13 9 3 6 3"></polygon>
                </g>
                <g id="Group-52" transform="translate(0.000000, 8.000000)">
                    <polygon id="Rectangle" fill="#57E0FF" points="2 3.41060513e-13 5 3.41060513e-13 3 3 -4.88498131e-15 3"></polygon>
                    <polygon id="Rectangle" fill="#93EBFB" points="5 3.41060513e-13 8 3.41060513e-13 6 3 3 3"></polygon>
                    <polygon id="Rectangle" fill="#FFFFFF" points="8 3.41060513e-13 11 3.41060513e-13 9 3 6 3"></polygon>
                </g>
            </g>
        </g>
    </g>
</svg>