<?xml version="1.0" encoding="UTF-8"?>
<svg width="24px" height="24px" viewBox="0 0 24 24" version="1.1" xmlns="http://www.w3.org/2000/svg" xmlns:xlink="http://www.w3.org/1999/xlink">
    <!-- Generator: sketchtool 50.2 (55047) - http://www.bohemiancoding.com/sketch -->
    <title>C622527B-7D75-4334-9834-576AB002E685</title>
    <desc>Created with sketchtool.</desc>
    <defs></defs>
    <g id="Settings" stroke="none" stroke-width="1" fill="none" fill-rule="evenodd">
        <g id="Mobile_Settings-320" transform="translate(-75.000000, -922.000000)" fill="#017DA3" fill-rule="nonzero">
            <g id="Group-27" transform="translate(41.000000, 918.000000)">
                <g id="florincoin-flo-seeklogo.com-copy-3" transform="translate(34.000000, 4.000000)">
                    <path d="M11.9896388,0 C5.36754185,0 0.000634361233,5.36785903 0.000634361233,11.9890044 C0.000634361233,18.61237 5.36754185,23.9788546 11.9896388,23.9788546 C18.6113128,23.9788546 23.978326,18.61237 23.978326,11.9890044 C23.9782203,5.36785903 18.6113128,0 11.9896388,0 Z M11.9896388,22.3179912 C6.29434361,22.3179912 1.66065198,17.6842996 1.66065198,11.9890044 C1.66065198,6.2934978 6.29434361,1.66001762 11.9896388,1.66001762 C17.6853568,1.66001762 22.3194714,6.29339207 22.3194714,11.9890044 C22.3193656,17.6842996 17.6853568,22.3179912 11.9896388,22.3179912 Z" id="Shape"></path>
                    <path d="M9.4064141,14.5755066 C10.9765639,15.3617974 13.0047225,15.3617974 14.5737093,14.5755066 C14.4303436,13.8604758 14.4865903,14.3229251 14.4303436,13.9657797 C12.999859,14.6954009 10.9862907,14.702696 9.55094273,13.9657797 C9.51161233,14.2402467 9.53635242,13.9487577 9.4064141,14.5755066 Z" id="Shape"></path>
                    <path d="M10.8713656,13.8231542 C11.4248458,14.0976211 12.5516828,14.0976211 13.1100264,13.8231542 C13.105163,13.0724934 13.4088106,10.3902026 14.7097797,7.96165639 C14.7097797,7.96165639 15.0328811,7.34939207 14.8810573,6.39911894 C14.7316652,5.44863436 13.3797357,4.25339207 12.3333568,3.44257269 C12.252793,3.37903084 12.1500264,3.34456388 12.0458855,3.334837 L12.0458855,3.33240529 C12.0272775,3.33124229 12.0078238,3.32997357 11.989533,3.33124229 C11.9709251,3.3300793 11.9539031,3.33124229 11.9352952,3.33240529 C11.9352952,3.33240529 11.9352952,3.33367401 11.9341322,3.334837 C11.8312599,3.34456388 11.7283877,3.37903084 11.6466608,3.44257269 C10.6016564,4.25339207 9.24718943,5.44863436 9.09779736,6.39911894 C8.94840529,7.34939207 9.27192952,7.96165639 9.27192952,7.96165639 C10.5700441,10.3903084 10.8713656,13.0724934 10.8713656,13.8231542 Z M9.24359471,14.994185 C9.24359471,14.994185 8.59094273,15.9837885 8.32609692,16.1627841 C8.05924229,16.3442115 7.86576211,16.1627841 7.86576211,16.1627841 C7.86576211,16.1627841 7.65515419,16.0284053 7.35880176,15.6040176 C7.3243348,15.5506256 7.25719824,15.5481938 7.23362115,15.6040176 C6.9910837,16.2145903 6.9474185,16.4275242 6.89592952,16.6964934 C6.84285463,16.9709604 6.84285463,17.1864317 6.91295154,17.3799119 C6.98378855,17.5443172 7.16035242,17.7524934 7.47615859,17.811489 C7.79598238,17.8698502 8.25272247,17.8924758 8.54188546,17.678696 C8.82851101,17.4657621 8.86985022,17.4414449 9.27192952,16.8899736 C9.67115419,16.3369163 10.0456388,15.3473128 10.0456388,15.3473128 L9.24359471,14.994185 Z M7.1138326,11.508793 C7.1138326,11.508793 7.60863436,11.2454273 8.11675771,11.659348 C9.14199119,12.4934273 9.27679295,12.9671894 9.45779736,13.2821498 C9.63795595,13.5955242 10.5162291,13.7858326 10.5162291,13.7858326 C10.5162291,13.7858326 10.3299383,11.6479295 9.44088106,10.3942203 C8.55044934,9.13987665 8.05205286,8.84754185 7.29769163,8.50329515 C6.68267841,8.22269604 5.47770925,8.41987665 5.2473304,8.50329515 C4.21363877,8.81423789 3.91485463,10.1516828 3.91485463,10.1516828 C3.91485463,10.1516828 3.75330396,10.8153304 3.81811454,12.0059207 C3.92574449,13.7550661 4.41451982,14.7738502 4.41451982,14.7738502 C4.41451982,14.7738502 4.46600881,14.8840176 4.60810573,14.8305198 C4.83118943,14.7446696 5.73737445,14.2069427 6.60465198,12.8667489 C6.87626432,12.4270308 6.87880176,12.0099383 6.89614097,11.8244934 C6.91305727,11.6384141 7.1138326,11.508793 7.1138326,11.508793 Z M13.1100264,15.557815 C11.9909075,15.6897621 11.9909075,15.6897621 10.8713656,15.557815 C10.8713656,15.557815 10.5847401,15.8129339 10.0457445,16.7457621 C9.50685463,17.678696 9.72750661,17.9458678 10.0457445,18.5629956 C10.4708722,19.3793128 11.6207577,20.4619559 11.7665551,20.5696916 C11.8196834,20.6082977 11.8808893,20.6343274 11.9455507,20.645815 L11.9455507,20.6482467 L12.0357357,20.6482467 L12.0357357,20.645815 C12.1000014,20.6343042 12.1607893,20.6082677 12.2134626,20.5696916 C12.3579912,20.4619559 13.5103084,19.3793128 13.9330044,18.5629956 C14.252511,17.9459736 14.4718943,17.678696 13.9330044,16.7457621 C13.3942203,15.8128282 13.1100264,15.557815 13.1100264,15.557815 Z M16.7463965,15.6039119 C16.7229251,15.5480881 16.6569515,15.5505198 16.6200529,15.6039119 C16.3261322,16.0282996 16.1155242,16.1626784 16.1155242,16.1626784 C16.1155242,16.1626784 15.9196123,16.3441057 15.6551894,16.1626784 C15.3879119,15.9836828 14.7364229,14.9940793 14.7364229,14.9940793 L13.9331101,15.347207 C13.9331101,15.347207 14.3077004,16.3368106 14.7097797,16.8898678 C15.1114361,17.4413392 15.1515066,17.4656564 15.4394009,17.6785903 C15.7260264,17.89237 16.1840352,17.8697445 16.5025903,17.8113833 C16.8208282,17.7522819 16.9973921,17.5442115 17.0682291,17.3798062 C17.1382203,17.1862203 17.1382203,16.9708546 17.085674,16.6963877 C17.033022,16.4275242 16.9900969,16.2145903 16.7463965,15.6039119 Z M20.0665374,10.1517885 C20.0665374,10.1517885 19.7653216,8.81444934 18.732793,8.50340088 C18.5035771,8.41998238 17.2986079,8.22280176 16.6835947,8.50340088 C15.9292335,8.84754185 15.429674,9.13987665 14.540511,10.394326 C13.6489163,11.6480352 13.4650573,13.7859383 13.4650573,13.7859383 C13.4650573,13.7859383 14.3728282,13.59563 14.524652,13.2822555 C14.6753128,12.9671894 14.8368634,12.493533 15.8632599,11.6594537 C16.3713833,11.2454273 16.866185,11.5088987 16.866185,11.5088987 C16.866185,11.5088987 17.0682291,11.6384141 17.085674,11.8247048 C17.102696,12.0101498 17.1051278,12.4271366 17.3767401,12.8669604 C18.2415859,14.2071542 19.1502026,14.7448811 19.3732863,14.8307313 C19.5153833,14.8841233 19.5644405,14.7740617 19.5644405,14.7740617 C19.5644405,14.7740617 20.0543789,13.7552775 20.1632775,12.0061322 C20.2256564,10.8154361 20.0665374,10.1517885 20.0665374,10.1517885 Z" id="Shape"></path>
                </g>
            </g>
        </g>
    </g>
</svg>