<?xml version="1.0" encoding="UTF-8"?>
<svg width="24px" height="24px" viewBox="0 0 24 24" version="1.1" xmlns="http://www.w3.org/2000/svg" xmlns:xlink="http://www.w3.org/1999/xlink">
    <!-- Generator: Sketch 52.2 (67145) - http://www.bohemiancoding.com/sketch -->
    <title>Cjdowner-Cryptocurrency-Flat-GameCredits-GAME</title>
    <desc>Created with Sketch.</desc>
    <g id="Settings" stroke="none" stroke-width="1" fill="none" fill-rule="evenodd">
        <g id="Cjdowner-Cryptocurrency-Flat-GameCredits-GAME">
            <circle id="Oval" fill="#98C01F" cx="12" cy="12" r="12"></circle>
            <path d="M11.625,4.125 C15.76725,4.125 19.125,7.48275 19.125,11.625 L19.125,19.125 L11.625,19.125 C7.48275,19.125 4.125,15.76725 4.125,11.625 C4.125,7.48275 7.48275,4.125 11.625,4.125 Z M15.90225,15.363 L15.90225,17.3085 L17.33775,17.3085 L17.33775,12.3285 L12.35775,12.3285 L12.35775,13.764 L15.30975,13.764 C14.2778241,15.5384453 12.1292748,16.3274686 10.1942051,15.6426092 C8.25913544,14.9577497 7.08525331,12.992852 7.39927428,10.9643259 C7.71329526,8.93579991 9.42633792,7.4178055 11.4779084,7.35008802 C13.5294789,7.28237054 15.3388946,8.68409694 15.786,10.6875 L17.2335,10.6875 C16.7986142,8.06007395 14.5997631,6.08560039 11.9408549,5.93493278 C9.28194677,5.78426518 6.8741195,7.49770032 6.14520329,10.0591793 C5.41628707,12.6206582 6.5612341,15.345101 8.9010962,16.6169259 C11.2409583,17.8887509 14.149928,17.3678022 15.903,15.363 L15.90225,15.363 Z" id="Shape" fill="#FFFFFF" fill-rule="nonzero"></path>
        </g>
    </g>
</svg>