<?xml version="1.0" encoding="UTF-8"?>
<svg width="24px" height="24px" viewBox="0 0 24 24" version="1.1" xmlns="http://www.w3.org/2000/svg" xmlns:xlink="http://www.w3.org/1999/xlink">
    <!-- Generator: sketchtool 50.2 (55047) - http://www.bohemiancoding.com/sketch -->
    <title>E247FEC8-2115-49A3-B61B-00D0EDD74E18</title>
    <desc>Created with sketchtool.</desc>
    <defs></defs>
    <g id="Settings" stroke="none" stroke-width="1" fill="none" fill-rule="evenodd">
        <g id="Mobile_Settings-320" transform="translate(-75.000000, -1189.000000)" fill="#1D1D1B" fill-rule="nonzero">
            <g id="gulden-copy-3" transform="translate(75.000000, 1189.000000)">
                <path d="M11.9757885,0 C5.36172687,0 0,5.36172687 0,11.9757885 C0,18.5898502 5.36172687,23.9515771 11.9757885,23.9515771 C18.5897445,23.9515771 23.9515771,18.5897445 23.9515771,11.9757885 C23.9515771,5.36172687 18.5897445,0 11.9757885,0 Z M11.9757885,21.0137445 C6.98431718,21.0137445 2.93793833,16.9673656 2.93793833,11.9758943 C2.93793833,6.98442291 6.98431718,2.93814978 11.9757885,2.93814978 C14.4828899,2.93814978 16.7512599,3.95904846 18.3884405,5.60764758 L16.9774097,6.97839648 C15.6979031,5.69751542 13.9294097,4.90498678 11.9756828,4.90498678 C8.07044934,4.90498678 4.90477533,8.07087225 4.90477533,11.9758943 C4.90477533,15.8812335 8.07055507,19.0469075 11.9756828,19.0469075 C15.5532687,19.0469075 18.5100264,16.3895683 18.9807225,12.9410749 L11.9756828,12.9410749 L11.9756828,10.9991894 L20.9608811,10.9991894 C20.9952423,11.3199648 21.0134273,11.645815 21.0134273,11.9758943 C21.0136388,16.9672599 16.9671542,21.0137445 11.9757885,21.0137445 Z" id="Shape"></path>
            </g>
        </g>
    </g>
</svg>