<?xml version="1.0" encoding="UTF-8"?>
<svg width="24px" height="24px" viewBox="0 0 24 24" version="1.1" xmlns="http://www.w3.org/2000/svg" xmlns:xlink="http://www.w3.org/1999/xlink">
    <!-- Generator: Sketch 52.2 (67145) - http://www.bohemiancoding.com/sketch -->
    <title>Group 49</title>
    <desc>Created with Sketch.</desc>
    <defs>
        <linearGradient x1="81.1168324%" y1="35.0585937%" x2="50%" y2="35.0585937%" id="linearGradient-1">
            <stop stop-color="#D5C16C" offset="0%"></stop>
            <stop stop-color="#AB8E3A" offset="100%"></stop>
        </linearGradient>
    </defs>
    <g id="Settings" stroke="none" stroke-width="1" fill="none" fill-rule="evenodd">
        <g id="Group-49">
            <circle id="Oval" fill="#2B2B27" cx="12" cy="12" r="12"></circle>
            <circle id="Oval" stroke="#979797" fill="#2B2B27" cx="12" cy="12" r="10"></circle>
            <g id="Group-48" transform="translate(5.000000, 9.000000)" stroke="url(#linearGradient-1)" stroke-width="1.5">
                <path d="M4.31101125,5.01470588 L8.27339442,2.49318932 C8.09049036,1.50135428 7.22122457,0.75 6.17647059,0.75 L2.88235294,0.75 C1.70468693,0.75 0.75,1.70468693 0.75,2.88235294 C0.75,4.06001895 1.70468693,5.01470588 2.88235294,5.01470588 L4.31101125,5.01470588 Z" id="Path"></path>
                <path d="M9.25218772,5.01470588 L13.2145709,2.49318932 C13.0316668,1.50135428 12.162401,0.75 11.1176471,0.75 L7.82352941,0.75 C6.6458634,0.75 5.69117647,1.70468693 5.69117647,2.88235294 C5.69117647,4.06001895 6.6458634,5.01470588 7.82352941,5.01470588 L9.25218772,5.01470588 Z" id="Path" transform="translate(9.470588, 2.882353) scale(-1, -1) translate(-9.470588, -2.882353) "></path>
            </g>
        </g>
    </g>
</svg>