<?xml version="1.0" encoding="UTF-8"?>
<svg width="26px" height="26px" viewBox="0 0 26 26" version="1.1" xmlns="http://www.w3.org/2000/svg" xmlns:xlink="http://www.w3.org/1999/xlink">
    <!-- Generator: Sketch 52.2 (67145) - http://www.bohemiancoding.com/sketch -->
    <title>Group 50</title>
    <desc>Created with Sketch.</desc>
    <g id="Settings" stroke="none" stroke-width="1" fill="none" fill-rule="evenodd">
        <g id="Group-50" transform="translate(1.000000, 1.000000)">
            <g id="Group-49-Copy-2" stroke="#FFBF33" stroke-width="2">
                <circle id="Oval" cx="12" cy="12" r="12"></circle>
            </g>
            <g id="bitcoin-logo-(1)" transform="translate(14.000000, 5.000000)" fill="#FFBF33" fill-rule="nonzero">
                <path d="M5.46028954,4.3074254 C5.27753587,4.06076932 5.00175782,3.8913488 4.63297194,3.79926755 C5.10259771,3.54924138 5.30898003,3.12488646 5.25231762,2.52613366 C5.23337496,2.3090134 5.17588463,2.12084135 5.07971417,1.961341 C4.98347748,1.80180609 4.85361094,1.67355253 4.6896178,1.57652848 C4.52575712,1.47938345 4.34754041,1.40543156 4.15538165,1.35444814 C3.9631732,1.30346471 3.74250108,1.26644556 3.49351432,1.24344253 L3.49351432,0 L2.76554636,0 L2.76554636,1.20889478 C2.63948822,1.20889478 2.44724666,1.21217846 2.18883824,1.2187631 L2.18883824,0 L1.46077093,0 L1.46077093,1.24344253 C1.35673529,1.24674349 1.20390243,1.2484199 1.00220609,1.2484199 L0,1.24344253 L0,2.05267911 L0.524715144,2.05267911 C0.764247135,2.05267911 0.904495716,2.16454884 0.945460886,2.38820189 L0.945460886,3.8043659 C0.977020956,3.8043659 1.00220609,3.80605958 1.0211322,3.80934326 L0.945460886,3.80934326 L0.945460886,5.79284045 C0.920275751,5.96056728 0.828890637,6.04450846 0.671288985,6.04450846 L0.146606958,6.04450846 L3.31165479e-05,6.94750269 L0.945543677,6.94750269 C1.00543495,6.94750269 1.09205129,6.94833225 1.20555825,6.94981855 C1.31899899,6.95147767 1.40405884,6.95230723 1.46080405,6.95230723 L1.46080405,8.21052632 L2.18898726,8.21052632 L2.18898726,6.96710107 C2.32132099,6.97047116 2.51356255,6.97207843 2.76569539,6.97207843 L2.76569539,8.21052632 L3.4936799,8.21052632 L3.4936799,6.95230723 C3.75217112,6.93917252 3.98143698,6.91463135 4.18147748,6.87832078 C4.38161734,6.84201021 4.57313034,6.78535812 4.75588401,6.70800157 C4.93862112,6.63074872 5.09145399,6.53446782 5.2143495,6.41933169 C5.33731124,6.30429926 5.43886314,6.15784721 5.51936946,5.98018294 C5.59961086,5.80251866 5.65089183,5.59692584 5.67288122,5.36331806 C5.71402853,4.90619548 5.64307633,4.55418518 5.46028954,4.3074254 Z M2.20299556,2.10680795 C2.22506774,2.10680795 2.28731029,2.10597839 2.38973977,2.10431927 C2.49221893,2.10262558 2.57727879,2.10100102 2.64503524,2.0993419 C2.71280826,2.09771735 2.80420993,2.10183058 2.91928993,2.1116989 C3.03432026,2.12156722 3.13121928,2.13475378 3.20998699,2.15117217 C3.2887547,2.16759056 3.3755035,2.1947414 3.46996845,2.23257283 C3.56459899,2.27036969 3.64018751,2.31644488 3.69684992,2.37071198 C3.75362824,2.42497909 3.80168035,2.49409187 3.84100626,2.57798121 C3.88044806,2.66185326 3.90015241,2.75806504 3.90015241,2.86659924 C3.90015241,2.95871506 3.88599509,3.04262168 3.85766388,3.1183191 C3.82938235,3.19396468 3.78672823,3.2573051 3.73006582,3.30828853 C3.67338685,3.35928924 3.61496926,3.40373987 3.55507798,3.44153673 C3.49525294,3.4793336 3.41875371,3.50978539 3.32581212,3.53278842 C3.23288709,3.55582602 3.15173498,3.57392081 3.08243861,3.58705553 C3.01309256,3.60022481 2.92644311,3.60929813 2.82242403,3.61420636 C2.7183884,3.6191146 2.63957101,3.62246741 2.58602155,3.62409196 C2.53242242,3.62571652 2.45916862,3.62571652 2.36616079,3.62409196 C2.27313641,3.62246741 2.21884183,3.62160328 2.20304524,3.62160328 L2.20304524,2.10679067 L2.20299556,2.10679067 L2.20299556,2.10680795 Z M4.19098193,5.46699588 C4.16096178,5.5426933 4.12241412,5.60852241 4.07517337,5.6644832 C4.02784982,5.72030573 3.96557415,5.76969916 3.88839604,5.81240426 C3.81123448,5.85523034 3.73630829,5.88970896 3.6638824,5.91603023 C3.59135716,5.9424552 3.50386324,5.96535454 3.40153311,5.9851603 C3.29897116,6.00491422 3.20920875,6.01880936 3.13191473,6.02708769 C3.05473662,6.03533145 2.96258982,6.04188152 2.85539156,6.04685889 C2.74827608,6.05169799 2.66470647,6.05420396 2.60484831,6.05420396 C2.54495703,6.05420396 2.46930228,6.05330526 2.37790061,6.05169799 C2.28644926,6.05015985 2.22819725,6.04933029 2.20296244,6.04933029 L2.20296244,4.38148099 C2.22814758,4.38148099 2.30300754,4.37987371 2.42752576,4.3765209 C2.55206053,4.37320266 2.65364555,4.37166452 2.73244637,4.37166452 C2.81123064,4.37166452 2.92000194,4.3765209 3.05872716,4.38645835 C3.19731991,4.39625754 3.31393984,4.41099952 3.40857037,4.43073616 C3.503085,4.45050736 3.60622649,4.48089002 3.71819354,4.52205698 C3.83004468,4.5631548 3.92070123,4.61330867 3.99006384,4.67251857 C4.05940989,4.73183217 4.11767846,4.80737405 4.16493577,4.89950715 C4.21230899,4.9915884 4.23593765,5.09687349 4.23593765,5.21532786 C4.23592109,5.30753009 4.22096897,5.39128117 4.19098193,5.46699588 Z" id="Shape"></path>
            </g>
            <g id="bitcoin-logo-(1)" transform="translate(7.000000, 9.500000) scale(-1, 1) translate(-7.000000, -9.500000) translate(4.000000, 5.000000)" fill="#FFBF33" fill-rule="nonzero">
                <path d="M5.46028954,4.3074254 C5.27753587,4.06076932 5.00175782,3.8913488 4.63297194,3.79926755 C5.10259771,3.54924138 5.30898003,3.12488646 5.25231762,2.52613366 C5.23337496,2.3090134 5.17588463,2.12084135 5.07971417,1.961341 C4.98347748,1.80180609 4.85361094,1.67355253 4.6896178,1.57652848 C4.52575712,1.47938345 4.34754041,1.40543156 4.15538165,1.35444814 C3.9631732,1.30346471 3.74250108,1.26644556 3.49351432,1.24344253 L3.49351432,0 L2.76554636,0 L2.76554636,1.20889478 C2.63948822,1.20889478 2.44724666,1.21217846 2.18883824,1.2187631 L2.18883824,0 L1.46077093,0 L1.46077093,1.24344253 C1.35673529,1.24674349 1.20390243,1.2484199 1.00220609,1.2484199 L0,1.24344253 L0,2.05267911 L0.524715144,2.05267911 C0.764247135,2.05267911 0.904495716,2.16454884 0.945460886,2.38820189 L0.945460886,3.8043659 C0.977020956,3.8043659 1.00220609,3.80605958 1.0211322,3.80934326 L0.945460886,3.80934326 L0.945460886,5.79284045 C0.920275751,5.96056728 0.828890637,6.04450846 0.671288985,6.04450846 L0.146606958,6.04450846 L3.31165479e-05,6.94750269 L0.945543677,6.94750269 C1.00543495,6.94750269 1.09205129,6.94833225 1.20555825,6.94981855 C1.31899899,6.95147767 1.40405884,6.95230723 1.46080405,6.95230723 L1.46080405,8.21052632 L2.18898726,8.21052632 L2.18898726,6.96710107 C2.32132099,6.97047116 2.51356255,6.97207843 2.76569539,6.97207843 L2.76569539,8.21052632 L3.4936799,8.21052632 L3.4936799,6.95230723 C3.75217112,6.93917252 3.98143698,6.91463135 4.18147748,6.87832078 C4.38161734,6.84201021 4.57313034,6.78535812 4.75588401,6.70800157 C4.93862112,6.63074872 5.09145399,6.53446782 5.2143495,6.41933169 C5.33731124,6.30429926 5.43886314,6.15784721 5.51936946,5.98018294 C5.59961086,5.80251866 5.65089183,5.59692584 5.67288122,5.36331806 C5.71402853,4.90619548 5.64307633,4.55418518 5.46028954,4.3074254 Z M2.20299556,2.10680795 C2.22506774,2.10680795 2.28731029,2.10597839 2.38973977,2.10431927 C2.49221893,2.10262558 2.57727879,2.10100102 2.64503524,2.0993419 C2.71280826,2.09771735 2.80420993,2.10183058 2.91928993,2.1116989 C3.03432026,2.12156722 3.13121928,2.13475378 3.20998699,2.15117217 C3.2887547,2.16759056 3.3755035,2.1947414 3.46996845,2.23257283 C3.56459899,2.27036969 3.64018751,2.31644488 3.69684992,2.37071198 C3.75362824,2.42497909 3.80168035,2.49409187 3.84100626,2.57798121 C3.88044806,2.66185326 3.90015241,2.75806504 3.90015241,2.86659924 C3.90015241,2.95871506 3.88599509,3.04262168 3.85766388,3.1183191 C3.82938235,3.19396468 3.78672823,3.2573051 3.73006582,3.30828853 C3.67338685,3.35928924 3.61496926,3.40373987 3.55507798,3.44153673 C3.49525294,3.4793336 3.41875371,3.50978539 3.32581212,3.53278842 C3.23288709,3.55582602 3.15173498,3.57392081 3.08243861,3.58705553 C3.01309256,3.60022481 2.92644311,3.60929813 2.82242403,3.61420636 C2.7183884,3.6191146 2.63957101,3.62246741 2.58602155,3.62409196 C2.53242242,3.62571652 2.45916862,3.62571652 2.36616079,3.62409196 C2.27313641,3.62246741 2.21884183,3.62160328 2.20304524,3.62160328 L2.20304524,2.10679067 L2.20299556,2.10679067 L2.20299556,2.10680795 Z M4.19098193,5.46699588 C4.16096178,5.5426933 4.12241412,5.60852241 4.07517337,5.6644832 C4.02784982,5.72030573 3.96557415,5.76969916 3.88839604,5.81240426 C3.81123448,5.85523034 3.73630829,5.88970896 3.6638824,5.91603023 C3.59135716,5.9424552 3.50386324,5.96535454 3.40153311,5.9851603 C3.29897116,6.00491422 3.20920875,6.01880936 3.13191473,6.02708769 C3.05473662,6.03533145 2.96258982,6.04188152 2.85539156,6.04685889 C2.74827608,6.05169799 2.66470647,6.05420396 2.60484831,6.05420396 C2.54495703,6.05420396 2.46930228,6.05330526 2.37790061,6.05169799 C2.28644926,6.05015985 2.22819725,6.04933029 2.20296244,6.04933029 L2.20296244,4.38148099 C2.22814758,4.38148099 2.30300754,4.37987371 2.42752576,4.3765209 C2.55206053,4.37320266 2.65364555,4.37166452 2.73244637,4.37166452 C2.81123064,4.37166452 2.92000194,4.3765209 3.05872716,4.38645835 C3.19731991,4.39625754 3.31393984,4.41099952 3.40857037,4.43073616 C3.503085,4.45050736 3.60622649,4.48089002 3.71819354,4.52205698 C3.83004468,4.5631548 3.92070123,4.61330867 3.99006384,4.67251857 C4.05940989,4.73183217 4.11767846,4.80737405 4.16493577,4.89950715 C4.21230899,4.9915884 4.23593765,5.09687349 4.23593765,5.21532786 C4.23592109,5.30753009 4.22096897,5.39128117 4.19098193,5.46699588 Z" id="Shape"></path>
            </g>
            <path d="M7,16 C7.95572913,17.9999999 9.72753897,18.9999999 12.3154295,18.9999999 C14.90332,18.9999999 16.6751299,17.9999999 17.630859,16" id="Path-9" stroke="#FFBF33" stroke-width="2" stroke-linecap="round" stroke-linejoin="round"></path>
        </g>
    </g>
</svg>